<?xml version="1.0" standalone="no"?>
<!DOCTYPE svg PUBLIC "-//W3C//DTD SVG 20010904//EN"
 "http://www.w3.org/TR/2001/REC-SVG-20010904/DTD/svg10.dtd">
<svg version="1.0" xmlns="http://www.w3.org/2000/svg"
 width="400.000000pt" height="600.000000pt" viewBox="0 0 400.000000 600.000000"
 preserveAspectRatio="xMidYMid meet">
<metadata>
Created by potrace 1.16, written by Peter Selinger 2001-2019
</metadata>
<g transform="translate(0.000000,600.000000) scale(0.060332,-0.049628)"
fill="#000000" stroke="none">
<path d="M4184 11975 c5 -36 7 -68 4 -71 -3 -3 -63 24 -132 60 l-125 65 6 -32
c3 -18 12 -47 19 -66 8 -18 14 -35 14 -37 0 -8 -49 4 -79 20 -19 10 -58 26
-88 37 -49 17 -52 17 -44 1 5 -9 11 -30 12 -47 l4 -30 -68 2 -69 3 16 -24 c12
-19 13 -26 3 -34 -19 -16 -88 -32 -137 -32 -25 0 -62 -5 -83 -11 l-38 -10 59
-37 c33 -20 73 -47 88 -59 l29 -22 -35 -37 c-19 -20 -71 -63 -114 -95 l-80
-59 47 0 c26 0 47 -4 47 -9 0 -25 -36 -70 -85 -108 l-56 -41 55 -7 c31 -4 56
-12 56 -17 0 -5 -25 -37 -55 -71 -57 -65 -63 -79 -21 -51 15 9 30 14 33 10 7
-7 -25 -74 -54 -115 l-17 -24 31 17 c18 9 35 20 38 26 20 33 58 -25 54 -82 -6
-87 1 -188 14 -188 9 0 11 -20 9 -79 -4 -72 -2 -79 17 -84 17 -4 21 -13 21
-47 0 -37 2 -41 15 -30 21 18 27 9 33 -52 4 -50 17 -72 33 -62 4 2 11 33 14
69 8 67 17 79 35 45 23 -43 29 -18 23 89 -3 60 -2 110 3 114 5 3 27 7 49 8
l40 4 21 -83 c11 -45 26 -88 32 -94 16 -16 16 1 -2 65 -8 29 -20 71 -26 94
l-11 42 -56 3 -57 3 -38 90 c-43 103 -48 155 -18 185 30 30 40 25 29 -12 -17
-61 -6 -64 50 -13 21 19 44 35 50 35 24 0 9 -30 -28 -57 -66 -47 -69 -69 -15
-136 27 -33 37 -34 57 -3 12 18 15 47 14 120 -1 53 1 96 4 96 16 0 29 -31 35
-83 4 -31 10 -57 13 -57 3 0 19 27 34 60 29 63 47 70 47 19 0 -37 18 -38 25
-1 28 137 46 188 77 215 46 39 52 34 23 -20 -20 -38 -22 -49 -11 -51 15 -3
151 62 219 105 21 13 41 23 43 21 2 -2 -11 -34 -28 -71 -17 -37 -29 -70 -25
-73 3 -3 29 12 59 33 69 52 139 95 144 91 2 -2 -10 -32 -26 -66 -31 -65 -25
-89 13 -55 35 31 177 114 177 103 0 -6 -11 -38 -25 -72 -29 -72 -29 -68 -10
-68 8 0 41 26 75 58 51 50 61 55 66 39 3 -10 2 -30 -2 -45 -9 -33 -11 -91 -3
-86 3 2 5 -14 3 -34 -1 -20 -2 -48 -3 -61 -1 -24 1 -24 -68 -5 -17 5 -30 -2
-53 -24 -41 -42 -40 -89 4 -178 l35 -68 -30 -33 c-16 -19 -29 -39 -29 -46 1
-7 11 1 24 17 15 18 25 24 28 16 2 -7 9 8 15 33 5 26 6 44 2 41 -10 -6 -59 88
-59 114 0 17 4 17 45 8 44 -10 45 -11 40 -46 -6 -41 -1 -28 36 88 13 41 31 78
40 82 9 5 20 21 23 35 7 27 25 32 44 13 15 -15 19 -3 27 82 8 81 19 103 40 76
30 -39 32 -8 4 57 -37 88 -38 110 -4 101 14 -3 25 -4 25 -1 0 3 -22 34 -50 68
-27 34 -50 66 -50 71 0 5 9 26 20 48 l20 39 -45 6 c-48 8 -65 22 -69 57 -2 13
-10 46 -18 73 -9 28 -19 63 -23 80 -6 28 -7 28 -17 10 -6 -11 -11 -21 -12 -21
-1 -1 -11 -5 -23 -8 -22 -7 -23 -5 -24 46 -1 52 -1 53 -11 18 -5 -19 -14 -39
-18 -44 -11 -12 -35 7 -54 43 -7 14 -21 41 -31 59 -20 39 -24 38 -26 -9 -3
-49 -8 -53 -33 -26 -12 13 -57 50 -99 81 -41 31 -79 60 -82 66 -16 26 -20 4
-11 -55z"/>
<path d="M4093 11142 c-30 -5 -29 -12 10 -64 34 -44 86 -70 175 -84 l39 -6 -3
58 -2 59 -44 16 c-45 17 -137 28 -175 21z"/>
<path d="M3850 10485 c0 -9 201 -155 212 -155 6 0 9 -2 6 -5 -3 -3 -74 6 -159
19 -85 13 -179 27 -209 31 -92 10 -165 27 -172 39 -6 8 -8 8 -8 -1 0 -7 -17
-15 -37 -18 -73 -12 -79 -18 -87 -82 -3 -32 -11 -80 -16 -108 -6 -27 -13 -73
-17 -102 -4 -44 -13 -60 -54 -107 -27 -30 -70 -68 -97 -85 -53 -35 -85 -59
-195 -149 -44 -36 -84 -62 -92 -59 -7 3 -19 0 -25 -8 -6 -7 -24 -19 -41 -25
-23 -10 -37 -28 -55 -68 -13 -30 -24 -63 -24 -73 0 -18 -42 -136 -61 -171 -5
-10 -9 -25 -9 -33 0 -9 -6 -18 -14 -21 -8 -3 -22 -37 -32 -77 -13 -54 -26 -80
-55 -112 -47 -51 -124 -159 -146 -205 -43 -91 -73 -159 -73 -168 0 -5 -6 -15
-14 -21 -7 -6 -34 -47 -60 -91 -61 -106 -101 -149 -161 -176 -28 -12 -57 -29
-64 -37 -8 -11 -23 -14 -46 -10 -28 4 -41 0 -73 -25 -43 -34 -229 -142 -245
-142 -5 0 -5 -6 2 -14 9 -11 -4 -23 -67 -64 -42 -28 -95 -58 -117 -66 l-40
-15 34 2 c29 2 35 -2 42 -25 4 -15 22 -57 39 -93 18 -37 30 -69 26 -72 -12
-12 -241 28 -289 51 -45 22 -48 23 -44 5 3 -13 -5 -24 -27 -39 -17 -11 -53
-38 -81 -60 -40 -32 -58 -40 -92 -40 -35 0 -45 -5 -63 -31 -12 -16 -20 -32
-18 -35 3 -2 11 7 18 21 11 21 21 25 56 25 58 0 90 14 141 61 45 42 80 59 116
59 47 0 50 -12 22 -91 -30 -87 -30 -81 -20 -140 l7 -45 -67 -12 c-64 -12 -67
-12 -84 9 -10 13 -23 19 -29 15 -18 -11 -14 -23 11 -30 18 -6 10 -11 -43 -27
-36 -11 -74 -29 -85 -40 -26 -26 -14 -24 91 11 49 17 152 40 229 51 168 25
470 36 570 21 75 -12 94 -9 50 8 -25 9 -27 13 -14 25 14 14 100 75 199 141
184 124 241 163 296 206 34 26 69 48 78 48 9 0 76 58 149 129 73 71 152 145
177 166 25 20 58 50 73 66 15 16 32 29 37 29 22 0 94 -197 107 -290 2 -19 13
-87 23 -150 60 -365 68 -397 151 -590 58 -137 89 -232 89 -278 0 -13 -9 -36
-19 -51 -18 -25 -19 -35 -10 -134 10 -105 10 -108 -15 -155 -14 -26 -36 -73
-50 -105 -25 -58 -47 -87 -64 -87 -5 0 -15 19 -21 43 -7 23 -26 60 -42 81 -16
22 -29 44 -29 49 0 5 -16 35 -35 67 -32 53 -41 60 -122 97 -187 86 -382 138
-548 145 l-70 3 -6 -220 c-4 -121 -10 -264 -14 -318 -5 -77 -4 -98 7 -101 7
-2 60 -13 118 -25 160 -31 383 -97 500 -147 148 -62 138 -49 106 -138 -14 -41
-36 -97 -48 -123 -12 -26 -22 -55 -23 -64 -4 -28 -36 -119 -46 -124 -5 -4 -9
-16 -9 -28 0 -12 -15 -62 -34 -112 -18 -49 -55 -163 -81 -251 -33 -114 -58
-179 -85 -221 l-37 -60 -184 -6 c-100 -4 -185 -4 -188 -2 -2 3 9 20 26 38 28
29 53 68 53 81 0 19 -28 1 -44 -29 -27 -51 -51 -69 -72 -57 -15 8 -18 26 -20
98 -3 79 -23 186 -38 202 -15 14 -14 -9 1 -59 9 -30 16 -83 17 -119 1 -78 -27
-170 -52 -170 -70 0 -467 -51 -712 -91 -210 -34 -254 -43 -474 -101 l-160 -42
-48 55 c-27 30 -63 61 -81 69 -28 13 -34 23 -49 85 -21 91 -22 150 -2 324 16
131 20 147 45 176 16 17 40 61 55 96 15 35 37 75 50 89 32 36 130 261 107 247
-5 -3 -29 -52 -53 -109 -24 -57 -54 -114 -66 -128 -12 -14 -35 -54 -51 -90
-16 -36 -37 -71 -46 -79 -31 -25 -20 19 29 119 41 85 46 105 54 195 4 55 11
108 15 118 4 10 3 17 -4 17 -14 0 -20 -28 -30 -140 -7 -83 -13 -107 -53 -190
l-46 -95 -22 -220 -23 -220 27 -115 c14 -63 26 -127 26 -141 0 -15 7 -44 16
-64 13 -31 13 -39 2 -46 -17 -11 -26 -11 -33 1 -11 18 -25 11 -25 -12 0 -13
-4 -18 -8 -13 -4 6 -19 12 -34 13 -15 1 -33 3 -40 4 -8 2 -14 -9 -16 -28 -3
-27 -9 -33 -44 -45 l-40 -13 5 -50 c5 -50 43 -132 72 -156 18 -15 20 -34 3
-24 -6 4 -8 3 -4 -4 3 -6 8 -34 10 -64 3 -29 18 -93 34 -142 26 -82 27 -92 14
-118 -8 -16 -19 -27 -26 -25 -8 3 -11 -49 -13 -192 -1 -122 -5 -197 -11 -199
-6 -2 -8 -18 -5 -36 3 -22 -2 -54 -15 -89 l-21 -55 112 48 c166 70 437 160
482 160 12 0 15 -17 15 -92 0 -51 -5 -120 -12 -153 -6 -33 -12 -87 -12 -120
-1 -45 -8 -73 -30 -113 -22 -40 -27 -60 -22 -85 4 -17 9 -59 13 -92 3 -33 12
-69 19 -80 7 -11 16 -41 19 -67 4 -26 15 -54 26 -64 11 -10 22 -35 25 -56 4
-20 10 -35 15 -32 13 8 -2 64 -26 101 -24 34 -41 129 -30 163 3 11 13 20 21
20 10 0 13 -6 10 -18 -9 -26 45 -91 100 -121 45 -25 48 -30 60 -93 6 -35 4
-39 -26 -55 -218 -120 -531 -352 -735 -544 -112 -106 -265 -271 -285 -308 -6
-12 -14 -21 -19 -21 -7 0 -25 106 -35 215 -2 22 -3 -16 -1 -85 3 -119 13 -193
37 -270 12 -36 20 -70 37 -155 10 -47 58 -164 72 -175 4 -3 22 -36 40 -75 18
-38 36 -71 41 -73 4 -2 8 -15 8 -28 0 -13 4 -24 9 -24 5 0 21 -20 35 -44 28
-49 47 -66 40 -39 -3 13 41 60 155 166 87 81 177 162 198 180 22 17 94 77 159
132 194 163 521 411 529 403 2 -2 -1 -26 -6 -53 -30 -156 -69 -478 -69 -563 0
-95 1 -99 36 -150 19 -29 62 -73 96 -97 92 -69 158 -85 392 -98 l198 -11 18
-41 c38 -89 141 -230 218 -298 65 -58 111 -83 116 -65 3 7 7 96 10 198 8 295
41 517 126 859 50 201 147 511 160 511 4 0 27 -13 51 -30 24 -16 50 -30 56
-30 7 0 20 -11 29 -25 15 -22 15 -44 4 -232 -8 -137 -10 -310 -6 -508 6 -256
5 -307 -8 -350 -25 -81 -23 -90 54 -165 63 -63 70 -73 70 -109 0 -22 5 -43 10
-46 17 -11 11 -68 -10 -90 l-20 -22 30 0 c30 0 30 1 30 54 l0 53 63 -6 c105
-9 106 -10 118 -59 14 -57 35 -74 25 -21 -4 21 -10 44 -13 52 -4 11 8 14 64
14 74 0 93 -10 93 -48 0 -38 31 -80 90 -124 l55 -40 -68 65 c-62 60 -67 69
-67 107 0 34 6 48 30 70 25 23 30 36 30 73 0 62 7 75 51 97 44 23 46 30 52
195 3 68 11 127 21 155 10 26 12 40 5 33 -9 -9 -15 -8 -27 3 -16 17 -19 -5 42
323 l21 114 32 -59 c21 -39 34 -81 39 -123 l7 -64 19 37 c19 36 19 38 1 51
-10 7 -15 17 -11 21 4 4 14 2 22 -5 11 -9 15 -8 20 5 8 22 8 26 -4 19 -6 -3
-13 1 -16 9 -3 9 -12 16 -19 16 -7 0 -30 30 -50 66 l-36 67 55 367 54 368 42
61 c30 44 44 76 50 118 32 209 44 267 74 385 63 244 77 312 92 423 7 61 21
155 29 210 10 66 15 159 13 273 -1 106 3 177 9 183 19 19 112 -137 113 -191 0
-9 29 -81 64 -160 83 -190 136 -333 134 -362 -1 -13 12 -54 30 -92 18 -37 32
-77 32 -87 0 -10 10 -33 23 -52 20 -30 38 -75 88 -222 5 -16 10 -104 11 -195
l1 -165 7 155 c3 85 15 201 25 258 17 96 17 106 2 177 -22 98 -21 121 4 162
l21 33 -35 143 c-48 196 -161 676 -262 1117 -29 129 -63 271 -74 314 -23 87
-25 106 -13 106 4 0 18 -44 31 -97 12 -54 31 -127 41 -163 24 -83 87 -348 145
-609 25 -112 55 -240 66 -285 11 -44 36 -153 54 -241 18 -88 40 -186 49 -218
15 -56 14 -61 -5 -99 -22 -43 -22 -56 2 -199 11 -67 10 -83 -6 -145 -27 -102
-32 -438 -11 -644 26 -245 108 -626 186 -860 40 -121 56 -179 46 -169 -3 3
-15 30 -25 60 l-19 54 1 -310 1 -310 6 260 6 260 2 -255 c2 -205 5 -260 17
-276 8 -12 42 -31 75 -44 66 -25 80 -41 80 -93 0 -31 5 -37 40 -55 24 -12 58
-19 86 -18 l47 1 28 -62 c16 -35 33 -63 39 -63 14 0 13 5 -10 50 -37 73 -34
76 91 90 l112 13 19 -24 c17 -22 18 -22 9 -2 -18 35 -13 112 8 141 10 15 30
57 44 93 26 65 26 68 11 120 -27 94 -37 155 -30 183 7 27 7 28 74 22 37 -3
171 -10 297 -15 304 -14 376 -24 445 -64 74 -42 163 -87 165 -84 0 1 9 29 19
62 69 225 82 381 54 650 -23 219 -23 220 -86 475 -28 113 -60 243 -71 290 -11
47 -43 157 -71 245 -28 88 -60 196 -71 240 -11 44 -51 168 -89 275 -38 108
-78 234 -90 280 -11 47 -27 102 -35 123 -9 21 -26 84 -39 140 -14 57 -42 143
-64 193 -46 105 -85 221 -108 319 -8 39 -29 104 -46 145 -31 77 -97 266 -169
490 -23 69 -58 159 -79 200 -20 41 -42 98 -49 125 -7 28 -23 77 -36 111 -13
33 -34 105 -46 159 -11 55 -30 122 -41 149 -11 28 -18 66 -16 90 3 37 8 44 58
77 62 41 180 162 180 184 0 8 -9 24 -21 36 -11 11 -18 26 -16 34 10 24 -79
239 -140 341 -91 152 -214 408 -320 663 -41 100 -113 334 -113 371 -1 14 -7
61 -16 105 -8 44 -19 121 -25 170 -5 50 -30 171 -54 270 -56 228 -71 315 -85
495 -7 86 -23 196 -40 270 -16 69 -35 159 -41 200 -6 41 -20 105 -30 141 -11
37 -24 91 -29 120 -6 30 -14 74 -20 99 -5 25 -9 70 -10 100 0 30 -5 73 -10 95
-6 22 -17 85 -25 140 -13 85 -21 108 -52 154 -33 47 -49 59 -127 97 -74 37
-99 44 -148 44 -75 0 -90 20 -92 120 -1 56 -4 70 -16 70 -29 0 -155 72 -246
141 -80 61 -114 80 -114 64z m-2272 -2611 l93 -7 30 -43 c16 -23 41 -52 55
-63 20 -15 22 -21 10 -21 -9 0 -16 -4 -16 -9 0 -16 20 -23 34 -12 9 8 20 3 41
-19 l29 -30 -85 0 c-47 0 -134 -5 -192 -11 -195 -19 -227 14 -167 175 21 54
24 58 49 52 14 -3 68 -9 119 -12z m3596 -1876 c28 -75 44 -141 121 -487 25
-112 55 -235 66 -273 13 -42 18 -79 14 -95 -5 -21 -8 -24 -16 -12 -8 12 -11
12 -18 -1 -32 -53 -167 -209 -220 -252 -38 -32 -53 -34 -76 -11 -16 15 -16 17
0 26 23 12 209 204 214 220 2 7 -48 -39 -111 -100 -108 -106 -117 -113 -155
-113 -75 0 -71 18 22 115 47 49 85 94 85 100 -1 5 -33 -25 -73 -67 -72 -78
-105 -98 -156 -98 -34 0 -74 48 -102 121 -26 68 -25 79 10 79 34 0 71 -44 52
-63 -6 -6 -11 -18 -11 -26 0 -12 3 -12 12 -3 19 19 29 14 22 -13 -3 -14 -2
-25 3 -25 9 0 27 27 101 150 14 24 13 31 -13 95 -15 39 -41 122 -57 185 -30
114 -35 190 -26 400 1 25 -2 59 -6 76 -8 30 -8 31 71 64 102 43 195 79 209 79
7 1 24 -32 38 -71z m-3054 -2010 c-91 -214 -261 -700 -366 -1043 -20 -66 -40
-124 -44 -128 -4 -5 -45 33 -92 82 -50 55 -92 91 -104 91 -11 0 -50 -18 -89
-40 -94 -56 -107 -56 -119 -1 -8 37 -17 48 -62 77 -63 40 -97 80 -89 106 5 13
-3 23 -30 39 -65 39 -82 104 -42 168 25 41 34 107 45 338 4 83 10 154 13 157
28 28 807 171 951 175 35 1 37 0 28 -21z m936 -1275 c-25 -206 -34 -289 -42
-380 l-7 -82 -28 14 c-15 8 -49 29 -74 46 -56 38 -59 20 41 270 92 232 114
282 121 275 3 -3 -2 -67 -11 -143z m-1558 109 c2 -7 -2 -12 -8 -12 -33 0 -330
-188 -330 -209 0 -8 157 -219 190 -256 10 -11 29 -41 43 -66 l26 -45 -77 -67
c-42 -36 -93 -79 -114 -94 -99 -77 -402 -333 -533 -452 -92 -83 -124 -111
-131 -111 -3 0 -36 -27 -72 -60 -63 -57 -99 -75 -54 -27 12 13 22 29 22 35 0
6 13 18 29 27 16 8 35 28 43 45 7 18 31 42 56 56 23 14 42 31 42 38 0 7 -15
33 -33 57 -18 24 -66 97 -107 162 -41 64 -78 117 -82 117 -4 0 -24 -15 -45
-32 -102 -88 124 162 273 302 117 109 335 280 531 415 103 72 308 195 317 192
6 -2 12 -9 14 -15z m1587 -195 c-61 -601 -76 -925 -55 -1228 11 -169 11 -191
-5 -250 -10 -35 -17 -77 -17 -93 1 -26 0 -28 -13 -15 -14 13 -13 24 4 89 17
69 18 105 14 425 -4 272 -2 392 11 540 34 402 70 746 74 717 2 -12 -4 -95 -13
-185z"/>
<path d="M1056 2526 l-40 -33 34 -54 c18 -30 38 -61 44 -70 10 -14 -22 22 -70
80 l-22 26 -51 -35 c-28 -19 -51 -40 -51 -46 0 -6 31 -55 68 -110 77 -111 96
-144 85 -144 -8 0 -75 86 -143 183 -37 53 -49 56 -91 26 -53 -37 -55 -54 -15
-112 124 -183 200 -277 223 -277 12 0 137 93 270 202 l61 50 -26 42 c-70 109
-215 306 -225 306 -7 0 -30 -15 -51 -34z"/>
<path d="M685 2229 c-22 -16 -41 -34 -43 -38 -2 -5 9 -31 23 -57 l26 -49 -25
30 c-14 17 -26 33 -26 38 0 15 -22 6 -61 -25 -21 -17 -39 -39 -39 -47 0 -9 15
-39 33 -66 17 -28 40 -64 50 -80 l18 -30 -26 30 c-14 17 -41 54 -61 83 -28 42
-38 50 -52 43 -26 -14 -62 -50 -62 -62 0 -32 207 -329 229 -329 18 0 279 213
287 234 3 7 -33 68 -78 137 -46 69 -95 147 -110 172 -15 26 -31 47 -35 47 -5
0 -26 -14 -48 -31z"/>
<path d="M2130 7601 l25 -7 -1 -162 c-1 -158 -1 -162 -28 -200 -19 -29 -25
-47 -21 -65 7 -26 -19 -120 -56 -207 -33 -77 -15 -72 21 6 54 118 72 173 66
202 -4 19 0 35 14 52 l20 25 29 -34 c37 -42 54 -102 61 -215 3 -63 9 -91 19
-94 11 -4 13 14 9 94 -6 116 -27 186 -71 232 l-32 33 3 168 3 168 -32 7 c-41
8 -61 6 -29 -3z"/>
<path d="M550 6766 c-111 -46 -198 -99 -329 -201 -83 -64 -100 -85 -111 -144
-15 -78 -14 -79 28 -38 21 20 41 37 45 37 4 0 7 -37 7 -82 0 -75 21 -242 31
-253 3 -2 19 5 37 17 36 23 37 27 22 162 -15 129 0 141 19 16 12 -78 20 -106
32 -108 19 -3 85 41 82 56 -2 6 -5 44 -8 84 l-4 73 10 -65 c5 -36 14 -69 20
-75 16 -16 84 26 82 50 -1 11 -7 72 -13 135 -6 63 -12 131 -14 152 -3 29 0 37
15 41 10 3 19 2 20 -1 0 -4 8 -81 18 -172 10 -91 16 -169 14 -175 -2 -5 -32
-25 -68 -44 -99 -51 -240 -156 -342 -255 -51 -49 -93 -85 -93 -80 0 5 35 45
79 88 77 76 78 79 71 114 -5 21 -14 85 -21 144 -7 60 -16 113 -20 120 -6 9
-16 5 -37 -15 -24 -23 -30 -39 -35 -91 -3 -34 -16 -110 -29 -167 -24 -109 -27
-181 -14 -291 l7 -66 84 83 c101 101 240 206 395 297 171 100 158 86 149 160
-4 34 -17 160 -29 278 -11 118 -23 221 -25 228 -6 16 -10 15 -75 -12z"/>
<path d="M1329 1005 c-3 -26 5 -56 33 -118 17 -37 28 -70 25 -74 -4 -3 -23 7
-43 23 -77 61 -85 66 -92 59 -4 -4 15 -26 43 -49 27 -22 79 -68 115 -101 113
-105 258 -215 283 -215 20 0 35 22 19 28 -23 7 -11 20 31 31 35 10 47 10 72
-3 17 -9 39 -16 49 -16 19 0 96 -72 96 -90 0 -6 -60 -10 -147 -10 -80 0 -144
-3 -141 -6 10 -9 519 -4 568 6 33 7 9 8 -93 5 -122 -3 -141 -1 -155 14 -9 10
-34 36 -55 59 -21 23 -46 42 -57 42 -22 0 -67 44 -81 78 -13 33 -33 28 -26 -7
6 -28 3 -30 -40 -45 -26 -9 -59 -16 -74 -16 -34 0 -93 39 -181 120 -54 49 -68
68 -68 91 0 46 -77 229 -81 194z"/>
<path d="M5147 475 c3 -72 11 -165 19 -207 7 -43 17 -114 20 -158 4 -44 11
-83 17 -87 17 -10 191 -20 207 -12 9 5 -16 9 -60 9 -80 0 -93 4 -103 34 -7 18
-3 18 55 12 69 -7 334 8 438 25 36 6 146 10 245 10 176 -1 307 9 374 31 25 8
35 7 41 -2 9 -14 17 13 26 92 l7 57 -54 15 c-30 8 -98 25 -152 36 -99 22 -116
27 -241 75 -47 17 -65 21 -57 11 10 -12 4 -16 -41 -25 -82 -16 -338 -41 -428
-41 -85 0 -205 21 -264 45 -35 15 -36 17 -37 68 0 28 -4 72 -9 97 -5 29 -6 -2
-3 -85z"/>
<path d="M3100 521 c-7 -17 -13 -66 -14 -108 -1 -52 -7 -89 -19 -110 -18 -34
-15 -104 6 -130 11 -15 91 -18 82 -4 -6 11 403 10 420 0 6 -4 43 -2 83 4 40 5
68 13 62 17 -7 4 30 11 82 14 136 11 292 52 311 83 3 4 -2 36 -10 69 l-15 61
-57 13 c-31 7 -68 19 -83 26 -15 8 -44 14 -65 15 -21 0 -58 6 -83 12 -37 10
-50 10 -75 -3 -23 -12 -68 -15 -205 -15 -146 1 -189 4 -263 23 -88 22 -127 37
-138 54 -3 5 -12 -4 -19 -21z"/>
</g>
</svg>
