<?xml version="1.0" standalone="no"?>
<!DOCTYPE svg PUBLIC "-//W3C//DTD SVG 20010904//EN"
 "http://www.w3.org/TR/2001/REC-SVG-20010904/DTD/svg10.dtd">
<svg version="1.0" xmlns="http://www.w3.org/2000/svg"
 width="400.000000pt" height="600.000000pt" viewBox="0 0 400.000000 600.000000"
 preserveAspectRatio="xMidYMid meet">
<metadata>
Created by potrace 1.16, written by Peter Selinger 2001-2019
</metadata>
<g transform="translate(0.000000,600.000000) scale(0.060060,-0.049628)"
fill="#000000" stroke="none">
<path d="M3480 12059 c-41 -10 -91 -26 -111 -34 -31 -15 -56 -15 -195 -7 -163
11 -489 1 -569 -17 -22 -5 -66 -14 -97 -21 -32 -6 -73 -17 -90 -24 -18 -8 -73
-21 -123 -30 -49 -9 -106 -21 -125 -26 -19 -5 -53 -13 -74 -17 -72 -15 -52
-30 46 -36 74 -4 242 -38 255 -51 2 -2 -56 -1 -128 2 -133 5 -298 -9 -399 -33
-49 -12 -84 -24 -182 -64 -16 -6 -28 -16 -28 -22 0 -7 7 -8 18 -4 23 10 129
35 166 39 157 21 325 13 441 -18 49 -14 49 -14 -80 -15 -71 -1 -148 -6 -170
-11 -22 -5 -60 -11 -85 -15 -78 -11 -248 -60 -310 -90 -25 -12 -48 -21 -51
-21 -12 2 -191 -117 -196 -130 -3 -8 -9 -14 -14 -14 -17 0 -179 -182 -179
-201 0 -20 18 -7 65 46 26 30 54 55 62 55 7 0 13 4 13 10 0 20 210 144 247
145 6 0 15 4 20 9 5 5 2 6 -6 1 -9 -5 -12 -4 -7 3 4 7 14 12 21 12 8 0 35 7
61 16 25 9 54 17 63 19 9 2 28 8 42 13 49 19 261 34 384 27 107 -6 248 -33
380 -73 40 -12 244 -111 271 -131 12 -9 32 -23 44 -31 25 -16 77 -70 107 -110
31 -41 63 -138 63 -192 0 -68 -26 -108 -116 -174 l-72 -54 -129 9 c-106 7
-136 13 -173 33 -25 14 -75 41 -112 61 -66 35 -273 111 -333 121 -16 3 -57 12
-90 20 -71 17 -277 36 -390 36 -126 0 -372 -27 -460 -49 -213 -55 -361 -125
-515 -245 -71 -55 -240 -215 -240 -228 0 -15 35 6 75 45 102 98 260 200 386
246 155 58 413 83 574 56 55 -9 147 -23 204 -30 57 -8 105 -16 107 -18 3 -2
-62 -7 -143 -10 -82 -4 -182 -14 -223 -23 -205 -44 -515 -165 -602 -234 -20
-17 -40 -30 -44 -30 -4 0 -14 -7 -23 -15 -9 -8 -62 -52 -119 -97 -167 -135
-197 -160 -200 -169 -5 -12 31 -12 44 0 5 5 36 23 69 41 33 17 49 23 35 13
-42 -29 -195 -181 -189 -188 4 -3 33 15 67 39 152 112 357 169 487 136 l30 -8
-29 -1 c-85 -3 -296 -93 -428 -182 -177 -119 -276 -213 -362 -342 -52 -78
-110 -187 -99 -187 4 0 31 28 58 63 49 61 145 159 201 206 34 28 220 151 229
151 3 0 24 9 48 20 66 30 225 79 297 91 36 6 97 17 137 25 74 14 381 20 443 8
30 -7 31 -9 26 -43 -3 -20 -3 -30 0 -23 4 9 14 -2 25 -29 l20 -42 -30 -31
c-29 -31 -61 -96 -75 -150 -4 -17 -15 -41 -25 -55 -27 -42 -57 -150 -67 -245
-3 -28 -7 -52 -7 -53 -1 0 -32 -3 -68 -5 -37 -3 -76 -11 -88 -20 -32 -22 -107
-114 -198 -242 -96 -135 -133 -202 -133 -241 0 -26 6 -32 43 -47 24 -11 68
-18 103 -18 34 0 88 -3 122 -6 52 -6 61 -10 64 -28 4 -27 40 -43 141 -64 l84
-16 -36 -88 -36 -88 -73 0 c-105 0 -137 -20 -151 -95 -5 -25 -15 -53 -23 -63
-8 -9 -31 -45 -51 -78 -33 -56 -41 -63 -84 -74 -78 -20 -146 -50 -195 -85 -40
-29 -47 -41 -63 -97 -14 -55 -16 -98 -13 -294 5 -245 17 -318 56 -355 30 -27
53 -34 167 -54 l100 -16 85 -85 c86 -85 120 -110 162 -116 17 -2 2 -11 -52
-33 -97 -38 -147 -67 -166 -94 -8 -11 -24 -21 -35 -21 -25 0 -24 -15 3 -34 14
-10 44 -16 76 -16 50 0 206 -14 280 -26 23 -4 32 -10 32 -24 0 -11 -6 -20 -12
-20 -7 0 -51 -5 -98 -10 -47 -5 -128 -14 -181 -19 -252 -27 -437 -112 -516
-236 -15 -24 -33 -44 -39 -45 -6 0 -19 -19 -29 -42 -9 -24 -31 -71 -48 -106
-16 -34 -27 -66 -22 -70 4 -4 10 -2 12 4 2 6 10 20 18 30 13 17 14 16 15 -22
0 -23 4 -65 10 -93 10 -52 93 -230 152 -326 91 -148 88 -138 88 -323 0 -92 5
-185 11 -206 6 -22 31 -61 58 -90 62 -67 102 -120 136 -181 57 -100 109 -135
256 -170 41 -10 79 -19 85 -21 6 -1 21 -22 33 -46 12 -24 31 -56 42 -73 10
-16 23 -39 29 -50 6 -11 24 -42 40 -70 16 -27 34 -59 40 -70 6 -11 19 -33 30
-50 10 -16 35 -61 55 -98 19 -37 46 -85 60 -105 14 -20 25 -41 25 -46 0 -5 10
-29 21 -53 l21 -44 -21 -51 c-26 -63 -27 -98 -1 -131 11 -14 20 -32 20 -40 0
-8 7 -20 15 -27 8 -7 15 -20 15 -28 0 -14 -52 -178 -86 -272 -7 -19 -15 -47
-18 -62 -4 -15 -19 -43 -35 -61 -29 -32 -71 -134 -71 -169 0 -10 -4 -18 -9
-18 -5 0 -27 -29 -49 -64 -22 -35 -54 -78 -71 -97 -19 -20 -32 -45 -33 -64 0
-16 -3 -41 -5 -55 -16 -108 -15 -112 13 -183 59 -152 196 -231 339 -197 40 10
63 23 93 54 55 57 103 128 141 211 126 268 117 254 227 356 27 25 85 90 129
144 77 96 79 99 83 160 3 44 0 70 -11 86 -8 13 -18 51 -21 84 -8 74 -40 142
-104 221 -49 60 -49 62 -57 150 -4 48 -11 100 -17 114 -11 30 -56 69 -80 70
-12 0 -19 11 -23 38 -7 37 -32 138 -62 241 -8 30 -16 64 -18 75 -2 12 -8 46
-15 76 -7 30 -15 71 -19 90 -7 33 -23 90 -56 200 -7 25 -16 61 -20 80 -4 19
-11 53 -15 75 -6 28 -4 45 6 59 9 14 14 49 14 110 0 105 -20 158 -76 201 -30
23 -35 31 -29 54 12 49 23 53 74 24 252 -141 462 -249 606 -310 81 -35 124
-49 304 -100 30 -8 102 -19 160 -24 138 -13 203 -32 249 -73 l36 -34 -38 -118
c-21 -66 -45 -137 -53 -159 -8 -22 -37 -105 -63 -185 -27 -80 -59 -176 -72
-215 -14 -38 -35 -104 -47 -145 -25 -80 -36 -112 -70 -200 -11 -31 -21 -60
-21 -66 0 -6 -11 -47 -25 -90 -25 -78 -28 -81 -148 -199 -67 -66 -127 -131
-133 -145 -29 -64 -54 -129 -67 -175 -8 -27 -22 -73 -31 -101 -9 -29 -19 -73
-23 -99 -6 -44 -10 -50 -60 -82 -51 -32 -153 -124 -153 -137 0 -3 -15 -29 -33
-58 -18 -29 -43 -75 -56 -103 -13 -27 -38 -81 -57 -120 -58 -122 -64 -142 -64
-204 0 -33 7 -81 16 -106 14 -44 14 -48 -5 -89 -12 -23 -21 -45 -21 -49 0 -4
-19 -46 -41 -94 -86 -183 -171 -359 -185 -385 -8 -16 -11 -28 -6 -28 8 0 68
121 188 378 33 73 50 99 57 90 6 -9 7 -8 3 5 -6 18 21 97 33 97 4 0 15 -23 25
-50 24 -68 86 -162 127 -193 48 -36 134 -75 199 -88 70 -15 77 -22 51 -48 -12
-12 -21 -25 -21 -30 0 -5 -7 -11 -15 -15 -8 -3 -15 -11 -15 -18 1 -7 20 8 43
33 40 45 45 47 107 52 36 3 88 15 115 27 73 33 183 150 228 242 40 84 77 177
77 197 0 8 41 55 91 105 51 50 97 98 104 106 6 8 41 49 76 90 36 41 104 125
153 185 48 61 98 122 110 136 31 38 229 297 241 317 6 9 33 48 60 87 28 38 75
106 104 150 29 44 59 85 65 90 6 6 19 26 28 45 20 40 37 66 58 91 35 42 40 49
33 49 -4 0 -3 4 2 8 6 4 27 32 47 62 21 30 60 87 88 125 27 39 59 86 70 106
10 21 25 43 32 50 49 52 157 259 187 359 52 174 72 232 101 296 16 37 36 72
44 78 20 17 98 123 121 164 13 26 19 52 17 87 -2 44 2 96 24 280 4 33 11 43
38 56 l32 17 32 -47 c17 -25 36 -58 43 -73 7 -16 15 -28 19 -28 4 0 13 -13 20
-30 7 -16 16 -30 19 -30 4 0 15 -17 25 -37 10 -21 39 -69 64 -106 26 -38 52
-76 57 -85 6 -9 22 -36 38 -59 15 -23 27 -45 27 -49 0 -4 15 -26 33 -50 l32
-43 80 -1 80 -1 23 -47 c23 -47 80 -140 177 -285 14 -21 25 -41 25 -44 0 -12
179 -280 198 -295 8 -7 38 -12 67 -12 54 1 99 21 570 255 199 99 224 125 199
199 -16 47 -147 272 -177 305 -10 11 -20 30 -23 42 -4 13 -10 23 -14 23 -5 0
-11 8 -14 18 -4 10 -14 27 -24 38 -10 10 -29 35 -42 54 -41 59 -144 184 -162
198 -10 7 -18 20 -18 28 0 8 -4 14 -8 14 -5 0 -19 9 -32 20 -13 11 -28 20 -34
20 -11 0 -26 23 -91 137 -16 29 -37 61 -45 70 -9 10 -17 23 -19 28 -7 18 -55
90 -66 97 -5 4 -7 8 -2 8 4 0 -1 8 -10 18 -10 10 -31 35 -48 56 -52 67 -186
220 -219 248 -17 16 -35 27 -40 25 -6 -2 -21 20 -34 47 -25 52 -72 128 -123
203 -16 23 -29 46 -29 52 0 6 -4 11 -10 11 -5 0 -10 4 -10 8 0 9 -92 153 -138
217 -16 22 -33 52 -37 65 -4 14 -29 54 -55 90 -26 36 -53 76 -60 90 -7 14 -16
27 -19 30 -3 3 -28 37 -54 77 -47 71 -88 113 -112 113 -7 0 -19 34 -30 82 -15
70 -16 89 -5 134 12 47 10 241 -3 483 -2 32 2 36 50 61 105 55 238 171 274
240 21 39 21 46 9 111 -11 56 -11 88 -2 158 7 49 12 110 12 137 -1 59 -21 159
-40 194 -7 14 -12 27 -10 28 8 10 -84 124 -111 137 -16 9 -48 34 -70 56 -23
23 -43 39 -45 36 -3 -3 -15 5 -28 17 -16 15 -26 42 -35 96 -20 125 -56 165
-160 177 -59 8 -65 11 -93 50 -23 32 -29 48 -24 68 6 25 9 26 54 20 26 -3 70
-10 97 -15 28 -5 102 -14 165 -20 63 -7 140 -18 171 -26 83 -20 136 -18 149 5
14 27 13 71 -4 117 -18 54 -27 161 -16 209 27 121 53 195 81 228 5 7 22 29 38
49 15 21 48 54 72 74 24 20 46 40 47 45 2 5 9 9 17 9 7 0 18 7 25 15 7 8 25
15 41 15 46 0 35 26 -18 44 -27 8 -68 18 -93 20 -186 22 -259 26 -440 25 -131
-2 -236 3 -290 11 -60 10 -188 13 -435 12 -192 0 -343 2 -335 4 264 88 682
336 849 505 158 159 236 296 267 464 12 69 12 90 0 161 -26 146 -78 219 -203
285 -79 42 -153 65 -240 75 -54 6 -63 4 -63 -10 0 -10 9 -16 23 -17 161 -6
290 -102 341 -253 23 -69 21 -178 -4 -245 -24 -63 -78 -149 -129 -207 -20 -23
-45 -52 -57 -65 -18 -22 -94 -87 -189 -163 -34 -27 -172 -116 -181 -116 -1 0
-26 -13 -54 -30 -28 -16 -56 -30 -61 -30 -6 0 -27 -7 -47 -16 -94 -42 -121
-53 -182 -72 -71 -23 -191 -52 -213 -52 -8 0 63 78 158 173 154 154 208 219
297 360 39 61 110 239 119 300 34 221 -20 367 -185 498 -63 50 -102 69 -226
114 -128 47 -300 57 -430 24z m335 -98 c149 -55 226 -101 262 -155 36 -56 49
-128 34 -198 -20 -96 -92 -275 -138 -343 -16 -24 -16 -26 1 65 15 76 8 196
-14 262 -24 72 -146 195 -268 272 -48 30 -217 105 -241 108 -55 5 94 16 189
14 89 -2 128 -8 175 -25z m-1624 -1948 c13 -21 52 -71 88 -112 68 -78 67 -75
9 -106 -20 -11 -28 -12 -31 -2 -3 7 -6 4 -6 -6 -1 -10 -7 -17 -13 -14 -7 2
-18 -3 -24 -10 -12 -17 -218 -82 -284 -90 l-46 -5 -31 68 c-51 112 -74 177
-66 184 4 4 40 15 78 24 39 10 117 37 175 61 58 24 110 44 117 44 6 1 22 -16
34 -36z m-745 -284 c-10 -34 -16 -92 -16 -162 0 -95 -2 -108 -16 -103 -9 3
-28 6 -44 6 -27 0 -29 2 -24 38 11 72 48 187 70 214 12 16 26 37 29 49 4 11 9
18 12 16 2 -3 -3 -29 -11 -58z m918 49 c-63 -103 -119 -181 -135 -185 -30 -8
-22 -23 13 -23 17 0 41 8 52 17 16 14 15 11 -3 -9 -31 -35 -22 -54 35 -78 59
-26 67 -25 27 1 -28 18 -33 27 -33 61 0 38 1 40 26 34 19 -5 43 3 92 30 91 49
112 70 112 111 0 49 -6 52 128 -63 29 -25 74 -72 101 -104 42 -50 49 -55 60
-41 10 13 10 13 3 -4 -5 -11 -12 -63 -15 -116 -8 -146 -71 -317 -169 -462 -43
-63 -90 -99 -156 -118 -55 -16 -59 -14 -284 134 -187 123 -232 165 -309 289
-62 99 -121 188 -147 223 -20 27 -56 134 -48 142 1 1 19 -6 39 -16 20 -10 56
-26 79 -36 32 -12 39 -19 27 -26 -7 -5 -26 -9 -41 -9 -37 0 -35 -12 9 -61 l37
-41 84 4 c67 2 86 7 97 21 13 18 14 18 32 0 13 -13 17 -26 12 -39 -14 -36 -8
-39 11 -4 26 48 25 64 -8 92 -16 13 -33 32 -39 42 -7 13 -25 18 -72 21 -35 2
-94 11 -133 21 -63 17 -67 19 -41 26 16 5 29 4 31 -2 2 -6 8 -10 13 -10 6 0 7
5 4 10 -3 6 2 10 12 11 20 1 41 4 123 20 99 19 213 59 295 104 93 51 88 48 79
33z m-59 -1173 c90 -240 134 -326 169 -325 6 0 1 8 -11 18 -28 21 -97 169
-154 325 -36 99 -40 120 -29 127 15 9 63 -72 173 -295 50 -102 96 -159 172
-215 45 -34 60 -54 105 -145 36 -72 73 -129 116 -177 67 -73 80 -103 91 -200
l6 -58 -112 0 c-93 0 -121 4 -164 22 -71 30 -98 51 -86 69 5 8 9 24 9 37 0 24
-32 42 -74 42 -12 0 -39 9 -61 20 -21 11 -60 23 -87 26 -78 11 -104 64 -45 92
36 18 113 2 165 -33 20 -14 44 -25 52 -25 23 0 60 29 60 46 0 26 -102 124
-140 133 -79 20 -149 23 -172 7 -27 -19 -38 -20 -75 -4 -15 6 -32 10 -37 9
-36 -9 108 100 151 113 14 4 43 -2 82 -19 33 -14 68 -25 78 -24 21 0 -98 48
-139 56 -23 4 -28 10 -27 32 2 23 2 24 6 4 2 -13 11 -23 19 -23 8 0 14 2 14 4
0 14 -49 129 -71 167 -30 52 -71 164 -91 252 -10 47 -14 54 -19 35 -5 -15 -7
-7 -8 27 l-1 50 21 -32 c23 -36 27 -38 49 -22 13 9 12 10 -3 5 -25 -8 -45 37
-27 59 7 9 17 12 21 8 4 -4 38 -89 74 -188z m-158 167 c8 -5 9 -21 3 -51 -9
-49 -2 -121 12 -121 5 0 6 -5 3 -10 -4 -6 5 -35 19 -66 14 -31 23 -60 20 -65
-3 -5 -1 -9 3 -9 5 0 9 -8 10 -17 0 -10 8 -45 17 -78 34 -129 36 -152 10 -176
l-23 -22 -5 24 c-2 13 -9 51 -15 84 -6 34 -32 126 -57 205 -50 160 -68 285
-43 301 17 11 30 11 46 1z m61 -602 c1 -8 -13 -26 -32 -38 -30 -20 -35 -30
-36 -65 -3 -90 1 -181 10 -220 5 -23 8 -43 6 -44 -2 -2 -43 6 -92 17 -49 11
-123 27 -164 36 -115 25 -128 36 -80 70 16 11 74 63 128 116 79 76 111 100
163 121 70 28 92 29 97 7z m219 -87 c41 -4 58 -12 82 -37 27 -28 28 -33 15
-50 -8 -11 -14 -15 -14 -9 0 7 5 15 11 18 7 5 5 13 -7 26 -14 16 -18 16 -31 4
-8 -8 -32 -15 -53 -15 -52 0 -82 -13 -162 -67 -44 -30 -73 -58 -84 -82 -18
-36 -18 -36 -25 -11 -19 66 -12 80 71 163 75 75 81 79 112 73 18 -4 56 -10 85
-13z m8 -235 c28 -12 33 -28 10 -28 -9 0 -28 -27 -45 -63 -34 -72 -36 -81 -16
-74 20 8 0 -62 -28 -98 -21 -26 -31 -29 -91 -33 -50 -3 -70 -1 -76 9 -5 8 -9
62 -9 122 0 100 1 107 20 107 10 0 54 16 97 35 86 38 100 40 138 23z m155
-403 c18 -33 49 -89 68 -125 53 -97 76 -131 120 -176 l41 -42 -54 -7 c-47 -5
-57 -3 -75 15 -28 28 -54 37 -135 45 -39 3 -108 13 -155 20 -47 8 -115 17
-152 20 -54 5 -67 10 -71 26 -3 11 -22 27 -44 37 -33 15 -74 17 -333 16 -162
0 -320 -3 -350 -7 l-55 -7 40 24 c22 14 47 31 55 38 8 7 41 33 74 57 l60 44
280 -7 c177 -4 286 -3 296 3 9 7 19 6 28 -1 8 -7 53 -11 113 -11 109 2 122 6
179 67 19 19 35 34 35 33 1 -1 17 -29 35 -62z m94 -597 c-32 -17 -88 -52 -123
-79 -35 -27 -69 -49 -75 -49 -7 0 -48 9 -92 21 -43 11 -88 23 -98 25 -32 6
-91 26 -99 34 -7 6 77 25 163 35 19 3 80 11 135 20 55 8 120 16 145 17 25 2
58 4 74 5 24 1 19 -4 -30 -29z m-896 -1547 c7 -21 12 -45 12 -52 0 -26 -162
-176 -230 -213 -36 -20 -61 -36 -56 -36 30 0 138 75 207 143 44 44 82 78 84
76 2 -3 13 -37 24 -76 l20 -73 -77 -72 c-42 -40 -66 -64 -52 -53 14 11 46 39
72 63 25 25 50 42 56 38 13 -8 36 -121 28 -141 -3 -9 -2 -13 4 -10 6 3 10 3
10 -2 0 -4 3 -18 6 -30 5 -18 -7 -37 -57 -90 l-63 -68 64 62 65 63 23 -93 22
-92 -37 -34 -38 -34 38 28 c21 15 40 25 41 24 3 -4 33 -144 43 -200 4 -21 -5
-34 -49 -73 -29 -27 -44 -44 -33 -38 11 6 33 24 49 41 17 17 33 31 37 31 4 0
12 -21 19 -47 l12 -48 -47 -42 c-55 -50 -179 -114 -225 -116 -31 -2 -33 0 -60
71 -43 110 -113 251 -197 396 -41 70 -76 133 -77 140 -1 6 -9 22 -19 36 -23
33 -22 38 11 43 23 3 22 4 -9 6 -30 1 -39 7 -60 43 -13 24 -27 51 -32 61 -4
11 -16 32 -27 47 -11 15 -20 32 -20 38 0 5 23 12 52 15 28 4 75 18 103 31 51
26 228 163 300 234 22 22 43 40 46 41 3 0 11 -16 17 -38z m247 -1502 c30 -215
33 -245 20 -259 -13 -13 -15 -10 -15 18 0 18 -3 32 -8 32 -4 0 -6 -18 -4 -39
4 -43 -13 -85 -30 -75 -7 4 -8 3 -4 -4 3 -6 -3 -16 -14 -22 -11 -6 -20 -15
-20 -20 0 -5 -17 -28 -39 -51 -37 -41 -39 -41 -75 -29 -26 8 -36 18 -37 33 -2
22 -2 22 -6 0 -3 -16 -12 -23 -26 -23 -40 -1 -103 -37 -141 -81 l-37 -44 6 50
c8 57 -7 152 -37 238 -13 38 -17 68 -13 90 13 60 125 382 135 385 6 2 7 8 4
14 -4 6 7 0 25 -13 50 -36 133 -38 209 -4 34 15 61 30 60 34 0 3 0 10 1 15 4
32 15 -29 46 -245z m-518 -504 c11 -22 28 -64 37 -93 l18 -52 -30 -34 c-16
-19 -37 -57 -47 -85 -9 -28 -26 -57 -37 -65 -24 -17 -61 -7 -66 18 -3 15 -1
16 19 6 19 -11 24 -10 36 5 14 21 1 45 -24 45 -11 0 -13 5 -7 18 4 9 8 36 8
60 1 35 8 48 34 73 17 16 32 35 32 40 0 6 -18 -11 -40 -36 -34 -39 -40 -53
-40 -91 0 -45 -4 -50 -29 -35 -11 7 -14 26 -12 68 3 78 6 84 50 114 21 15 41
37 44 50 5 22 4 22 -6 5 -15 -24 -37 -45 -71 -69 -22 -15 -26 -25 -26 -68 0
-51 -13 -89 -30 -89 -6 0 -10 7 -10 15 0 8 7 15 16 15 12 0 14 4 7 13 -6 6
-13 40 -16 75 -5 59 -3 65 20 85 14 12 33 38 43 58 11 20 31 51 46 69 l27 32
17 -54 c9 -29 26 -71 37 -93z m263 -98 c19 -7 35 -17 35 -23 0 -6 -30 -37 -67
-68 -37 -32 -67 -61 -66 -64 3 -12 -25 -62 -34 -62 -4 0 -8 -8 -8 -19 0 -10
-11 -30 -25 -45 -22 -23 -32 -27 -72 -24 -38 2 -49 7 -51 22 -3 16 0 18 25 12
52 -12 57 -11 67 17 12 32 -2 47 -43 47 -21 0 -23 3 -17 33 3 17 18 57 33 87
14 30 29 62 33 70 13 27 130 38 190 17z"/>
<path d="M1991 9916 c-30 -17 -50 -52 -51 -89 0 -15 -7 -43 -15 -63 -19 -45
-9 -49 87 -35 79 12 118 40 118 85 0 52 -71 91 -116 62 -32 -22 -39 -41 -25
-72 9 -20 17 -25 43 -22 41 4 59 31 36 55 -21 20 -36 10 -18 -12 10 -12 9 -16
-4 -21 -25 -10 -48 14 -35 37 15 29 65 25 85 -6 15 -23 15 -27 0 -50 -9 -14
-22 -25 -29 -25 -6 0 -22 -3 -34 -6 -15 -4 -29 2 -47 20 -35 34 -33 70 4 108
28 27 34 29 78 23 35 -4 52 -3 59 7 16 19 -103 23 -136 4z"/>
<path d="M1408 1463 c-10 -2 -18 -9 -18 -14 0 -5 -5 -8 -11 -6 -12 2 -51 -98
-41 -107 3 -3 0 -6 -7 -6 -7 0 -9 -5 -6 -11 4 -6 -2 -20 -13 -32 -24 -26 -52
-81 -52 -100 0 -8 -18 -27 -39 -42 -43 -29 -151 -140 -151 -154 0 -5 -7 -11
-15 -15 -8 -3 -15 -12 -15 -21 0 -8 -4 -15 -9 -15 -5 0 -20 -15 -32 -32 -28
-39 -32 -43 135 95 l118 98 19 -31 c23 -36 23 -40 6 -40 -7 0 -22 -7 -33 -15
-16 -13 -14 -13 19 0 38 16 39 15 73 -14 32 -28 115 -61 156 -61 23 0 24 27 1
33 -17 4 -17 5 0 6 26 2 31 -24 16 -87 -25 -104 -193 -406 -282 -508 l-54 -62
-16 27 c-14 23 -14 29 0 56 9 17 27 43 42 59 25 27 25 28 3 17 -13 -7 -33 -32
-44 -57 l-22 -44 -31 29 c-44 42 -89 62 -176 77 -67 11 -85 11 -126 -1 -26 -8
-49 -15 -50 -15 -1 0 2 12 7 26 17 43 12 109 -10 137 l-20 25 63 57 c34 31 55
53 47 49 -21 -11 -50 -35 -91 -74 -21 -20 -44 -34 -55 -32 -42 6 -124 -79
-124 -130 0 -15 -7 -33 -15 -42 -8 -8 -15 -18 -15 -22 0 -4 16 9 35 29 20 21
40 37 45 37 13 0 13 -37 0 -45 -5 -3 -15 -16 -21 -28 -7 -15 -3 -12 15 8 14
17 25 38 26 48 0 12 8 17 28 17 70 0 71 -67 1 -148 -16 -18 -29 -43 -29 -56 0
-53 -95 -82 -139 -42 -43 39 -15 62 36 29 25 -16 26 -16 44 6 23 28 18 37 -29
56 -34 15 -37 14 -56 -5 l-21 -21 25 11 c18 8 33 8 54 1 33 -13 29 -37 -5 -33
-76 9 -73 11 -82 -46 -5 -30 -6 -63 -2 -75 8 -29 127 -132 187 -162 104 -53
243 -57 331 -11 53 27 128 99 175 168 37 54 147 168 162 168 6 0 20 9 32 19
11 11 45 33 74 48 56 29 74 57 74 115 0 16 14 56 31 90 17 34 44 101 60 148
52 158 65 187 107 224 30 27 42 48 47 78 4 22 22 60 40 83 33 45 52 117 40
156 -4 11 -1 26 5 34 7 8 9 15 4 15 -5 -1 -33 -32 -62 -69 -57 -74 -72 -81
-161 -81 -71 0 -117 17 -162 60 l-41 39 18 30 c10 16 22 27 27 24 6 -3 7 -1 3
5 -4 6 0 24 8 40 8 16 12 32 9 36 -7 7 -38 6 -65 -1z m-508 -1054 c48 -22 84
-47 111 -77 60 -68 60 -81 -2 -159 -29 -38 -59 -73 -66 -79 -20 -17 -53 -5
-53 18 0 16 5 18 35 12 28 -5 36 -3 42 12 3 10 2 19 -3 21 -31 11 -34 19 -23
54 7 19 21 44 32 56 11 13 18 25 15 28 -9 9 -48 -45 -55 -74 -3 -14 -13 -35
-23 -46 -10 -11 -23 -30 -29 -42 -14 -27 -38 -29 -70 -7 -29 21 -14 41 19 24
16 -9 25 -9 36 1 21 17 17 36 -10 43 -22 5 -23 9 -15 43 4 21 13 39 18 41 25
8 51 39 56 67 5 27 4 26 -11 -7 -9 -21 -20 -38 -25 -38 -17 0 -49 -40 -49 -61
0 -29 -51 -89 -76 -89 -23 0 -44 18 -44 37 0 10 9 12 34 8 29 -6 35 -4 41 16
5 15 2 25 -9 31 -27 15 -18 48 29 100 25 28 43 53 40 56 -3 3 -12 -3 -19 -14
-8 -10 -28 -34 -45 -51 -17 -18 -31 -41 -31 -50 0 -10 -15 -33 -32 -52 -33
-37 -74 -45 -102 -21 -33 27 -5 42 33 18 15 -9 23 -9 35 1 24 20 19 42 -13 54
-27 10 -28 12 -18 49 6 26 18 43 37 53 15 8 35 26 45 41 15 23 22 26 55 21 22
-3 71 -20 110 -38z"/>
</g>
</svg>
