<?xml version="1.0" standalone="no"?>
<!DOCTYPE svg PUBLIC "-//W3C//DTD SVG 20010904//EN"
 "http://www.w3.org/TR/2001/REC-SVG-20010904/DTD/svg10.dtd">
<svg version="1.0" xmlns="http://www.w3.org/2000/svg"
 width="400.000000pt" height="600.000000pt" viewBox="0 0 400.000000 600.000000"
 preserveAspectRatio="xMidYMid meet">
<metadata>
Created by potrace 1.16, written by Peter Selinger 2001-2019
</metadata>
<g transform="translate(0.000000,600.000000) scale(0.089485,-0.072727)"
fill="#000000" stroke="none">
<path d="M2372 8228 c-19 -19 -16 -341 4 -453 9 -49 18 -108 20 -130 2 -22 12
-95 21 -161 15 -111 15 -126 0 -170 -25 -77 -37 -161 -37 -252 0 -98 24 -163
119 -327 l58 -100 -64 -7 c-82 -10 -130 -35 -177 -92 -32 -39 -43 -46 -74 -46
-66 0 -115 -20 -160 -65 -24 -24 -45 -38 -46 -32 -6 19 -85 279 -97 317 -33
101 -121 261 -186 336 -31 35 -120 91 -175 110 -79 27 -215 25 -293 -5 -117
-45 -217 -181 -250 -339 -17 -84 -20 -291 -5 -354 6 -24 21 -96 33 -160 l23
-118 -34 0 c-50 0 -109 -37 -130 -82 -9 -20 -23 -38 -31 -38 -27 0 -77 -48
-96 -92 -11 -23 -43 -70 -72 -103 -73 -82 -101 -142 -113 -245 -6 -47 -18
-116 -25 -155 -8 -38 -22 -142 -30 -230 -9 -88 -20 -184 -25 -214 -6 -30 -10
-68 -10 -83 0 -16 -36 -108 -81 -204 -85 -187 -267 -608 -326 -758 -52 -131
-103 -305 -103 -349 0 -56 21 -84 112 -151 45 -33 109 -95 148 -141 123 -148
179 -187 311 -220 36 -9 71 -20 78 -25 11 -6 7 -33 -18 -136 -81 -340 -134
-710 -135 -959 -1 -150 2 -178 21 -240 60 -187 267 -412 514 -556 86 -50 87
-50 93 -97 7 -53 8 -409 1 -490 -6 -76 -31 -163 -80 -282 -69 -171 -78 -211
-54 -264 29 -64 245 -84 370 -35 45 18 62 62 55 143 -3 39 -6 152 -6 251 -1
171 7 259 45 525 12 85 66 487 91 678 3 23 9 42 14 42 17 0 80 62 80 78 0 68
118 -265 191 -538 12 -47 26 -90 31 -97 10 -12 92 -28 216 -40 l73 -8 60 -160
c33 -88 65 -185 71 -215 5 -30 13 -158 16 -283 l7 -228 53 -49 c30 -26 66 -54
80 -61 15 -7 35 -20 46 -29 14 -12 43 -15 130 -14 131 1 226 17 244 42 35 45
-19 202 -104 301 -34 39 -123 215 -155 308 -28 80 -79 348 -79 414 0 12 27 26
93 49 229 80 374 179 497 339 66 87 109 170 180 342 65 158 65 184 3 369 -37
109 -403 804 -583 1105 -140 235 -180 309 -230 430 -24 55 -46 105 -50 110 -4
6 -38 102 -75 215 l-67 205 11 345 c19 593 16 545 40 569 25 25 26 15 5 -39
-15 -38 -15 -42 0 -59 21 -24 72 -34 97 -20 11 6 28 24 38 40 11 18 22 26 25
20 13 -21 64 -12 84 14 l20 25 51 -31 c47 -29 58 -32 163 -37 218 -9 404 27
559 110 142 75 169 115 169 251 0 81 -17 124 -69 169 -20 18 -35 36 -33 41 1
5 -4 33 -13 62 -17 61 -57 101 -109 110 -28 6 -33 10 -28 28 3 12 11 26 19 30
7 4 13 16 13 26 0 11 7 21 15 25 19 7 19 30 -1 46 -13 12 -9 17 30 42 25 15
53 28 62 28 25 0 74 55 72 82 -2 24 48 108 110 185 24 30 51 48 99 68 37 14
76 34 89 44 28 22 120 51 432 137 57 15 111 33 119 39 23 17 9 45 -23 45 l-27
0 34 30 c19 16 37 30 42 30 4 0 7 13 7 28 0 18 10 38 25 52 34 32 30 65 -7 65
l-28 -1 26 28 c26 27 27 58 2 58 -6 0 3 15 21 34 44 45 37 71 -15 63 -34 -6
-35 -5 -20 12 20 22 21 50 1 57 -8 3 -43 -4 -77 -15 -56 -19 -64 -20 -74 -6
-6 8 -15 15 -19 15 -13 0 -135 -94 -445 -339 -94 -75 -97 -74 -43 4 7 11 13
26 13 35 0 8 38 53 85 100 86 85 98 106 70 117 -12 4 0 22 50 73 64 68 74 87
55 106 -7 7 11 37 56 95 36 46 69 91 72 99 3 8 32 43 64 78 33 34 58 68 56 75
-7 18 -69 20 -119 3 -42 -14 -43 -14 -19 2 86 58 247 217 275 273 16 31 11 59
-11 59 -19 0 -74 -28 -198 -102 l-101 -60 103 105 c93 95 102 108 92 127 -23
42 -51 45 -119 10 l-63 -31 31 39 c35 43 34 63 -5 81 -36 16 -51 14 -125 -17
l-65 -28 4 28 c3 17 -1 30 -10 33 -19 8 -187 -84 -258 -141 -60 -49 -127 -132
-253 -315 -49 -70 -99 -125 -190 -208 -149 -135 -180 -175 -207 -272 -16 -57
-36 -223 -40 -332 0 -18 -20 6 -20 24 0 11 -10 39 -22 62 -22 43 -22 42 -56
462 -4 51 -15 105 -25 125 -9 19 -32 90 -52 157 -48 170 -60 196 -84 188 -22
-7 -22 -7 -50 125 -14 64 -19 75 -38 78 -18 3 -23 -2 -23 -20 -1 -13 -13 15
-28 62 -22 68 -32 85 -47 85 -19 0 -20 -7 -17 -115 l3 -115 -35 70 c-19 39
-42 102 -52 140 -18 68 -39 115 -53 115 -4 0 -12 -5 -19 -12z m-788 -1488 c20
-7 30 -25 51 -92 14 -45 27 -98 28 -116 2 -33 -1 -35 -50 -54 -29 -12 -53 -25
-53 -30 0 -12 37 -1 79 25 28 17 35 18 43 6 10 -14 6 78 -7 151 -5 25 5 11 35
-50 54 -112 100 -216 100 -228 0 -5 7 -23 15 -38 14 -27 13 -30 -10 -52 -14
-12 -25 -30 -25 -39 0 -9 -13 -37 -29 -64 -21 -33 -31 -63 -33 -101 l-3 -53
80 -40 80 -41 5 -49 c4 -43 6 -47 19 -31 11 13 16 14 22 4 7 -10 9 -10 9 0 0
7 8 29 17 50 19 44 19 40 29 205 4 72 11 123 15 115 4 -8 17 -47 28 -88 l21
-73 -36 -49 c-20 -27 -34 -51 -31 -54 3 -3 20 16 37 41 24 35 35 44 41 34 6
-10 9 -6 9 13 0 15 4 38 10 53 5 14 6 24 1 21 -10 -7 -21 27 -21 66 0 25 2 27
26 18 43 -17 91 -59 105 -93 6 -18 29 -53 51 -79 21 -26 38 -50 38 -55 -1 -4
-33 -29 -73 -55 -103 -66 -259 -201 -354 -306 -46 -50 -118 -118 -160 -152
-43 -35 -79 -66 -81 -71 -4 -10 -30 12 -95 81 -225 237 -247 256 -427 356 -58
32 -119 69 -135 82 -29 23 -30 25 -25 92 4 59 9 73 35 100 31 32 86 54 124 48
18 -2 30 -21 61 -95 21 -51 35 -93 32 -93 -3 0 6 -12 20 -27 14 -16 37 -46 52
-68 26 -38 27 -39 20 -10 -4 17 -11 34 -15 40 -15 15 -10 42 8 49 9 4 19 3 23
-1 3 -4 25 -34 49 -65 67 -90 79 -91 23 -1 -45 71 -48 80 -26 68 14 -7 30 -19
37 -27 21 -26 139 -119 144 -114 3 2 -9 25 -27 51 -49 71 -135 250 -174 363
-20 57 -36 108 -36 113 0 5 25 9 55 9 42 0 57 4 62 16 8 21 -10 31 -79 45
l-58 12 1 111 c1 120 12 220 22 196 3 -8 13 -42 22 -75 9 -33 30 -88 46 -123
l28 -63 -32 6 -32 6 30 -17 c17 -9 40 -27 51 -41 18 -21 21 -22 20 -7 -1 11
-9 33 -18 49 -20 39 -55 165 -64 234 l-7 54 69 -6 c38 -4 85 -3 104 2 48 12
55 12 84 1z m680 -409 c15 -6 8 -16 -50 -67 l-69 -60 -40 22 c-31 18 -41 30
-45 56 -5 32 -4 33 40 44 52 13 137 16 164 5z m291 -146 c37 -17 76 -50 128
-106 60 -67 78 -81 93 -74 21 8 63 8 134 -1 34 -5 51 -14 71 -38 l27 -31 -57
3 c-40 3 -72 -3 -109 -17 -40 -16 -65 -20 -105 -15 -34 4 -66 1 -93 -8 -37
-13 -43 -13 -63 3 -12 10 -38 21 -57 25 -25 5 -52 24 -92 66 -57 58 -79 70
-164 83 -22 3 -38 12 -38 19 0 7 -10 28 -23 47 l-23 34 53 -3 c29 -2 68 2 86
9 30 11 104 25 156 28 13 0 48 -10 76 -24z m-643 -212 c9 -66 9 -96 1 -104 -7
-7 -12 5 -17 42 -10 76 -56 176 -75 165 -5 -3 5 -31 20 -62 16 -32 27 -59 25
-61 -2 -2 -32 10 -65 27 l-62 31 42 47 c23 26 51 66 62 90 l21 43 18 -63 c10
-35 24 -105 30 -155z m982 -525 c-17 -18 -43 -50 -58 -71 -19 -26 -51 -50
-103 -75 -67 -33 -81 -45 -120 -102 -70 -102 -96 -88 -42 24 10 22 17 42 14
45 -11 11 -67 -57 -95 -116 -30 -62 -62 -94 -75 -72 -4 6 -13 8 -21 5 -24 -9
-23 8 6 94 16 47 30 88 30 93 0 4 -11 7 -25 7 -18 0 -29 -9 -44 -38 -23 -45
-46 -66 -61 -57 -7 4 -7 12 0 25 14 26 14 26 -30 22 -60 -6 -51 18 23 63 34
21 78 55 97 75 28 30 45 39 85 44 58 8 125 27 175 50 25 11 69 15 154 16 l120
0 -30 -32z m215 7 c130 -19 281 -58 341 -88 68 -33 65 -55 -12 -106 -139 -91
-325 -141 -533 -142 -140 0 -172 6 -241 46 l-44 26 22 33 c15 23 44 44 88 65
65 30 78 40 160 134 49 55 54 55 219 32z m-1594 -754 c-63 -250 -66 -279 -78
-911 -6 -322 -11 -727 -11 -900 0 -312 0 -316 27 -414 34 -123 113 -336 216
-582 43 -104 99 -252 124 -329 46 -142 117 -398 117 -425 0 -34 -20 12 -44
103 -54 198 -122 390 -252 713 -73 182 -149 383 -168 447 -57 188 -62 251 -47
616 7 174 17 546 21 826 7 454 10 524 29 635 31 178 74 341 87 328 3 -3 -7
-51 -21 -107z m-149 -2164 c-53 -243 -78 -553 -61 -743 l7 -80 41 -18 c27 -12
65 -18 110 -17 l70 1 -7 -48 c-42 -324 -71 -511 -76 -500 -4 7 -17 55 -30 105
-12 51 -26 91 -30 88 -13 -8 -29 42 -55 175 -42 215 -55 324 -55 449 0 190 37
502 78 661 15 57 17 61 20 32 2 -18 -4 -65 -12 -105z m-118 -1418 c29 -11 86
-22 127 -26 85 -7 80 0 65 -103 -13 -82 -40 -329 -49 -440 -5 -76 -7 -82 -18
-58 -20 44 -56 61 -115 56 -53 -6 -67 -16 -110 -78 -16 -24 -16 -24 -7 20 5
25 14 64 19 87 5 23 9 162 7 308 -2 232 0 264 13 259 8 -3 39 -15 68 -25z
m1248 -39 c2 -16 6 -42 9 -58 3 -15 15 -79 26 -143 10 -64 35 -161 54 -215 19
-54 35 -102 35 -105 0 -4 -18 -2 -39 3 -30 8 -52 6 -96 -7 -51 -14 -58 -20
-75 -58 -16 -35 -20 -66 -20 -189 0 -92 -4 -148 -10 -148 -5 0 -10 21 -10 48
0 26 -5 81 -11 122 -5 41 -14 125 -20 185 -17 190 -20 209 -34 240 -15 35
-115 320 -115 329 0 3 30 6 68 7 37 0 103 6 147 13 44 6 82 11 84 9 2 -1 5
-16 7 -33z m243 -749 c16 -4 37 -29 63 -75 39 -70 45 -101 18 -101 -8 0 -21
-4 -28 -8 -7 -5 -21 -6 -31 -2 -11 3 -22 1 -25 -4 -4 -5 -35 -9 -71 -8 -35 0
-68 -2 -71 -6 -16 -16 -62 -6 -84 18 -13 14 -29 25 -36 25 -21 0 -25 17 -15
58 14 50 49 82 108 98 51 14 133 16 172 5z m-1500 -71 c137 -15 173 -46 131
-115 -23 -37 -58 -52 -87 -40 -10 5 -45 9 -78 10 -33 1 -62 3 -65 5 -3 1 -31
2 -62 1 -67 -1 -69 4 -37 80 17 38 28 51 53 58 41 12 37 12 145 1z"/>
</g>
</svg>
