<?xml version="1.0" standalone="no"?>
<!DOCTYPE svg PUBLIC "-//W3C//DTD SVG 20010904//EN"
 "http://www.w3.org/TR/2001/REC-SVG-20010904/DTD/svg10.dtd">
<svg version="1.0" xmlns="http://www.w3.org/2000/svg"
 width="400.000000pt" height="600.000000pt" viewBox="0 0 400.000000 600.000000"
 preserveAspectRatio="xMidYMid meet">
<metadata>
Created by potrace 1.16, written by Peter Selinger 2001-2019
</metadata>
<g transform="translate(0.000000,600.000000) scale(0.047676,-0.046404)"
fill="#000000" stroke="none">
<path d="M3227 12866 c-4 -27 -7 -125 -7 -217 0 -93 -2 -169 -4 -169 -5 0
-355 114 -415 135 -40 14 -43 14 -36 -3 8 -20 105 -367 113 -399 3 -18 0 -23
-16 -23 -34 0 -416 -71 -425 -79 -7 -7 73 -75 230 -194 34 -26 64 -51 67 -56
8 -12 -233 -209 -300 -244 -35 -19 -36 -18 115 -52 63 -14 116 -27 119 -30 2
-2 -21 -62 -51 -132 -77 -178 -92 -220 -133 -368 -19 -71 -38 -138 -40 -147
-4 -14 -16 -18 -53 -18 l-49 0 -10 -72 c-6 -40 -14 -103 -18 -140 l-7 -66 -75
-48 c-41 -26 -103 -73 -137 -105 l-62 -59 -67 7 c-92 8 -108 -3 -157 -102 -21
-45 -39 -87 -39 -93 0 -7 -19 -24 -42 -38 -24 -15 -66 -46 -94 -70 -45 -38
-55 -42 -90 -38 -31 4 -50 -1 -91 -25 -44 -26 -57 -41 -88 -103 -20 -40 -54
-91 -75 -113 -108 -110 -139 -363 -75 -609 34 -130 78 -217 145 -287 97 -99
177 -124 389 -122 l133 1 -6 -26 c-37 -165 -31 -277 15 -299 25 -12 27 -18 33
-105 8 -97 28 -195 51 -237 11 -22 8 -32 -26 -95 -21 -39 -46 -76 -56 -82 -10
-6 -70 -42 -133 -79 -153 -90 -295 -194 -463 -339 -172 -147 -356 -324 -388
-371 -28 -41 -22 -41 -193 10 -118 36 -123 33 -25 -20 76 -41 72 -44 -13 -11
-93 35 -208 93 -253 128 l-40 32 25 -30 c123 -144 317 -340 368 -372 32 -21
41 -32 38 -47 -18 -72 -27 -345 -17 -515 l11 -185 -38 -29 c-74 -59 -365 -353
-426 -431 -117 -150 -224 -310 -276 -414 -44 -88 -53 -115 -57 -175 -10 -146
67 -498 143 -647 49 -97 219 -226 466 -354 l144 -74 33 -83 c19 -46 52 -120
74 -166 54 -112 63 -116 230 -109 122 4 132 7 200 40 l71 35 90 -61 c169 -112
280 -204 392 -319 93 -96 112 -121 117 -154 3 -21 15 -97 27 -169 11 -71 23
-191 26 -265 l7 -135 -32 -23 c-29 -21 -37 -22 -78 -14 -27 6 -56 7 -69 2 -26
-10 -54 -47 -54 -73 0 -11 -14 -24 -37 -34 -38 -15 -148 -123 -158 -154 -3 -9
-23 -21 -45 -28 l-40 -12 0 -62 c0 -34 3 -78 6 -97 l6 -35 186 -69 c103 -38
193 -76 199 -84 7 -9 13 -28 13 -42 0 -26 8 -30 222 -107 l223 -80 59 14 c32
7 63 16 68 19 6 4 7 53 2 128 -6 103 -5 119 7 110 20 -16 328 -144 346 -144 8
0 40 7 70 16 l56 16 -6 139 -5 139 51 15 c29 8 90 25 137 38 l85 24 3 100 3
100 -233 91 -233 92 -105 -29 c-57 -16 -107 -28 -110 -26 -4 2 -13 29 -20 60
-22 93 -5 152 80 280 134 200 155 259 126 358 -20 70 -68 113 -221 204 -60 36
-139 85 -175 108 -126 83 -293 255 -467 482 l-92 120 46 68 c60 90 90 161 104
243 16 96 1 148 -48 169 -20 8 -60 17 -89 20 -51 5 -52 6 -58 42 -3 20 -17 59
-30 86 -14 27 -24 50 -22 52 2 2 86 28 187 58 181 53 707 231 945 320 109 41
128 45 208 45 84 0 89 -1 110 -27 54 -69 376 -450 469 -555 83 -94 109 -130
127 -180 78 -213 204 -505 300 -697 28 -57 65 -142 82 -190 17 -47 39 -104 50
-126 56 -112 184 -251 343 -373 l81 -62 17 -87 c9 -49 22 -119 27 -157 15 -94
38 -134 110 -188 79 -59 338 -175 444 -199 46 -10 60 -18 72 -41 8 -16 40 -68
71 -115 199 -309 337 -601 358 -760 10 -73 20 -103 45 -145 34 -54 33 -53 59
-290 6 -53 13 -103 17 -111 4 -12 -6 -17 -45 -22 -28 -4 -53 -10 -56 -15 -13
-21 18 -240 45 -315 20 -59 30 -109 35 -185 8 -123 29 -210 50 -210 12 0 15
-15 15 -70 0 -51 6 -81 22 -115 22 -45 23 -45 63 -40 22 3 173 16 335 30 162
13 318 27 346 30 l52 6 5 45 c2 25 7 48 10 51 4 3 32 8 64 12 l58 6 12 65 c21
111 19 119 -47 206 -53 70 -60 84 -60 126 0 40 -6 54 -34 85 -18 21 -43 58
-55 82 -19 36 -21 48 -11 70 14 34 -12 99 -58 149 -27 28 -37 33 -69 30 l-37
-3 -36 90 c-21 50 -65 148 -99 219 -39 84 -61 142 -61 165 0 67 -20 111 -69
160 -40 38 -52 59 -73 126 -14 44 -62 195 -107 335 -53 163 -100 334 -131 475
l-48 219 29 43 c87 125 148 317 149 460 0 89 -20 119 -95 137 l-49 13 -12 59
c-26 122 -77 237 -132 296 -14 16 -31 28 -37 28 -7 0 -25 48 -40 108 -54 204
-141 389 -195 417 -16 8 -45 15 -65 15 l-35 0 0 118 c0 64 -7 164 -15 222
l-16 105 29 25 c16 14 74 64 129 111 145 126 214 206 289 337 115 198 130 250
94 330 l-19 43 65 77 c150 179 271 393 315 562 18 67 23 113 23 215 0 124 -2
141 -39 261 -6 20 -3 22 77 26 67 3 97 10 148 35 63 29 124 80 156 129 9 13
25 24 36 24 76 0 173 70 237 171 20 30 78 93 128 138 164 147 413 435 483 559
42 77 32 34 -31 -128 -27 -70 -72 -165 -99 -210 -28 -46 -50 -86 -50 -89 0 -9
70 72 144 164 142 179 254 387 364 680 69 185 82 229 118 391 41 190 66 359
73 499 l6 130 33 -84 c40 -100 70 -214 79 -293 3 -32 9 -58 13 -58 4 0 12 32
19 72 30 185 24 361 -23 601 -12 64 -22 117 -21 117 4 0 144 -208 170 -253 15
-27 45 -92 66 -145 45 -114 47 -100 19 89 -43 280 -98 476 -194 689 -71 158
-124 246 -223 367 -46 56 -81 103 -78 103 20 0 148 -59 180 -83 39 -30 39 -29
-10 22 -43 46 -181 159 -241 198 -49 32 242 -28 318 -65 l37 -19 -11 21 c-21
40 -263 273 -352 340 -49 36 -85 66 -81 66 30 0 274 -44 290 -52 51 -26 -18
24 -135 97 -154 97 -378 209 -526 263 -207 76 -453 132 -582 132 -37 0 -62 4
-57 9 6 4 71 25 145 45 216 60 272 78 263 86 -9 9 -187 33 -378 51 -170 17
-426 14 -545 -5 -52 -8 -96 -13 -98 -11 -2 2 7 9 20 16 12 7 46 30 74 51 28
21 56 38 62 38 7 0 12 4 12 8 0 8 -106 0 -180 -13 -34 -6 -34 -6 25 40 33 25
81 62 107 82 26 20 46 38 45 39 -1 2 -20 -1 -42 -6 -22 -5 -132 -26 -245 -46
-113 -20 -232 -45 -265 -55 -32 -10 -60 -17 -62 -15 -1 1 42 48 98 104 72 74
94 102 80 102 -22 0 -179 -53 -294 -99 -157 -63 -333 -162 -482 -270 -38 -28
-72 -51 -75 -51 -3 0 -27 33 -55 72 -27 40 -87 119 -133 176 -46 58 -82 105
-80 106 2 1 73 48 158 103 86 56 163 105 173 109 9 3 17 9 17 13 0 3 -82 21
-183 39 -100 19 -193 36 -206 38 -23 5 -18 11 60 91 76 77 81 85 54 79 -16 -3
-92 -19 -168 -34 l-139 -29 6 31 c3 17 17 119 31 226 14 107 28 201 30 208 8
22 -11 13 -131 -64 -102 -65 -152 -101 -235 -171 -14 -12 -19 -5 -44 59 -15
40 -44 105 -64 143 l-36 70 -2 -40 c-2 -22 -6 -68 -9 -103 l-6 -63 -47 68
c-47 66 -240 277 -247 270 -2 -2 -22 -78 -44 -168 -22 -90 -43 -170 -45 -177
-5 -14 -321 270 -361 324 l-21 28 -6 -48z m712 -240 c31 -44 62 -81 68 -83 9
-3 13 21 15 89 l3 93 31 -65 c16 -36 41 -94 54 -130 13 -36 24 -66 25 -68 1
-1 22 16 46 39 45 42 303 219 318 219 5 0 7 -8 5 -17 -2 -10 -15 -101 -29
-203 -14 -102 -27 -199 -30 -216 l-5 -31 157 34 c87 18 159 33 160 33 2 0 -36
-37 -82 -81 -47 -45 -85 -87 -85 -92 0 -8 3 -8 11 0 11 11 91 0 288 -40 l114
-23 -162 -104 c-89 -57 -164 -107 -167 -112 -3 -4 17 -34 44 -66 100 -115 328
-439 295 -419 -5 3 -72 11 -149 16 -76 6 -156 14 -176 17 -25 5 -38 3 -38 -5
0 -6 5 -11 11 -11 14 0 19 -6 108 -130 67 -95 196 -297 207 -325 4 -9 -37 6
-109 40 -183 86 -178 91 -88 -82 42 -82 89 -165 104 -184 15 -20 27 -39 27
-42 0 -3 -35 9 -77 27 -134 57 -128 59 -88 -25 19 -40 33 -74 32 -76 -2 -1
-54 2 -117 9 -100 10 -118 15 -157 42 l-45 31 -3 185 c-4 263 -28 378 -130
635 -51 130 -80 191 -94 199 -4 3 15 -50 44 -117 65 -151 118 -313 141 -432
31 -154 22 -603 -13 -695 -7 -18 -40 230 -48 360 -3 52 -7 95 -9 97 -2 2 -6
-41 -9 -94 -19 -277 -144 -545 -414 -885 -77 -96 -95 -113 -162 -149 -42 -23
-89 -51 -104 -62 l-28 -19 7 38 c11 62 94 314 120 368 14 27 23 51 21 53 -6 5
-50 -54 -91 -123 -20 -33 -36 -54 -36 -47 0 7 27 79 61 160 96 232 138 349
174 478 18 66 40 139 49 163 8 23 12 42 8 42 -4 0 -24 -42 -44 -92 -35 -89
-135 -304 -122 -263 129 413 170 739 152 1224 -4 117 -12 125 -92 92 l-55 -22
-78 24 c-142 45 -316 57 -455 33 -73 -13 -80 -13 -119 5 -22 11 -53 19 -67 17
-25 -3 -27 -7 -30 -53 -2 -27 2 -73 8 -101 10 -42 10 -60 -3 -105 -31 -106
-66 -276 -86 -409 -25 -172 -54 -450 -47 -457 6 -7 13 35 31 207 22 201 25
215 40 198 28 -29 36 -150 20 -285 -23 -187 -32 -328 -41 -603 l-7 -245 -19
60 c-11 33 -30 105 -43 160 l-24 100 0 -72 c-1 -40 -8 -146 -17 -235 -9 -90
-21 -219 -27 -288 l-12 -125 -40 3 c-22 2 -43 7 -46 10 -6 6 -47 227 -65 347
l-7 50 -12 -65 c-7 -36 -20 -112 -30 -170 -14 -77 -21 -98 -26 -80 -4 14 -8
194 -8 400 -1 230 -5 369 -10 361 -5 -8 -26 -68 -47 -133 -21 -65 -39 -116
-42 -114 -16 17 41 530 75 665 13 52 -20 6 -82 -117 -36 -70 -63 -116 -60
-102 9 47 63 265 94 378 60 219 140 402 277 634 58 99 104 181 101 184 -3 3
-47 -65 -98 -150 -66 -109 -98 -154 -108 -150 -8 2 -63 14 -122 26 l-107 21
57 38 c78 54 264 211 269 229 3 8 1 12 -3 8 -4 -4 -77 46 -163 110 l-155 117
39 7 c21 3 126 21 232 40 159 27 191 36 186 48 -3 8 -30 96 -59 195 -30 99
-56 187 -60 196 -6 16 27 6 445 -137 13 -4 15 23 12 212 l-3 218 58 -61 c112
-118 323 -305 328 -291 12 34 75 304 75 323 0 12 3 24 6 27 9 10 170 -168 233
-256z m1722 -847 c-66 -68 -118 -126 -115 -128 2 -2 14 5 27 16 12 11 31 25
42 31 36 18 178 51 352 81 92 16 182 33 198 37 27 6 24 2 -25 -38 -30 -24 -90
-68 -132 -97 -85 -56 -100 -73 -39 -42 33 17 78 27 201 45 25 4 25 4 -5 -20
-16 -14 -67 -47 -112 -75 -87 -53 -122 -84 -57 -51 50 26 206 50 369 58 132 7
460 -14 624 -40 l76 -11 -239 -68 c-299 -86 -299 -86 -194 -80 187 12 495 -51
752 -153 122 -49 341 -161 449 -230 48 -31 87 -57 85 -59 -2 -1 -37 3 -78 11
-41 7 -106 16 -145 19 l-70 7 43 -23 c69 -39 240 -181 336 -278 49 -50 87 -93
85 -95 -2 -3 -50 8 -106 24 -117 33 -333 54 -259 25 42 -16 181 -113 217 -151
l23 -24 -60 24 c-32 13 -77 27 -99 31 l-40 6 36 -20 c20 -11 72 -64 117 -118
203 -245 344 -579 412 -979 25 -146 25 -162 -3 -98 -33 75 -89 168 -167 274
-39 52 -70 102 -70 112 0 10 -4 18 -9 18 -4 0 3 -55 16 -122 50 -258 64 -451
44 -623 l-7 -60 -8 50 c-18 109 -125 392 -139 368 -3 -4 -6 -66 -6 -138 -2
-173 -36 -393 -103 -664 -31 -127 -130 -388 -212 -556 -66 -136 -195 -342
-262 -420 -23 -28 -23 -24 9 40 65 133 169 446 153 462 -3 3 -9 -3 -12 -13
-34 -96 -117 -241 -197 -344 -103 -132 -410 -450 -422 -438 -2 2 6 30 17 63
67 200 39 432 -62 504 -36 25 -37 28 -43 104 l-6 77 60 93 c123 186 243 465
305 711 38 148 44 189 54 331 4 72 11 138 15 148 4 9 3 17 -3 17 -6 0 -16 -25
-22 -55 -6 -31 -23 -86 -36 -123 -13 -37 -22 -56 -18 -42 3 14 8 115 11 225 5
176 3 213 -16 311 -25 129 -56 226 -100 309 -29 54 -31 57 -26 25 18 -123 34
-245 39 -305 l6 -70 -53 130 c-57 141 -126 275 -190 369 -31 47 -154 191 -242
285 -7 7 11 -34 40 -92 29 -58 58 -120 64 -139 14 -40 12 -38 -77 74 -57 71
-246 255 -352 344 -58 48 -159 113 -235 152 -33 16 -69 39 -79 51 -11 12 -23
21 -28 21 -5 0 13 -26 42 -57 56 -64 154 -207 218 -321 l41 -73 -62 36 c-178
103 -540 269 -692 318 -82 27 -275 77 -295 77 -6 0 55 -65 135 -145 80 -80
145 -149 145 -154 0 -5 -48 20 -107 56 -131 79 -301 162 -419 206 l-88 32 -68
130 c-37 71 -65 131 -63 133 2 2 65 -26 141 -62 75 -36 138 -65 140 -64 8 9
-270 441 -305 472 -12 11 -21 22 -21 25 0 6 157 -4 275 -18 39 -4 72 -7 73 -5
2 1 -15 30 -38 64 -23 34 -38 65 -33 69 5 3 33 24 63 47 118 88 307 194 460
259 75 32 274 104 278 101 1 -2 -52 -59 -117 -127z m-2521 41 c27 -13 41 -15
60 -7 40 16 288 21 366 8 94 -17 171 -40 188 -57 12 -12 23 -10 77 17 59 30
63 30 76 13 15 -21 17 -50 3 -59 -5 -3 -10 1 -10 9 0 28 -17 17 -67 -41 -26
-32 -52 -61 -57 -65 -14 -9 10 -35 44 -46 27 -10 62 3 81 31 14 19 26 -283 13
-316 -5 -14 -10 -14 -47 -1 -23 8 -56 15 -73 16 -36 1 -157 -60 -147 -75 3 -5
2 -7 -4 -4 -6 4 -27 -2 -48 -13 -20 -10 -63 -24 -94 -31 -103 -22 -300 17
-342 67 -6 7 -16 11 -23 7 -6 -3 -8 -3 -4 2 8 8 -51 61 -64 58 -4 -2 -7 1 -6
6 2 5 -5 16 -15 23 -24 18 -25 106 -2 206 15 66 19 72 42 72 27 0 52 24 53 50
0 18 -73 93 -83 85 -4 -3 -5 -2 -2 2 3 3 0 12 -6 19 -6 7 -8 22 -4 34 7 23 34
20 95 -10z m31 -729 c53 -47 75 -54 38 -14 -20 23 -18 22 14 -5 55 -47 60 -38
6 11 l-46 43 48 -15 49 -15 -2 -43 -1 -43 -24 22 c-12 12 -23 17 -23 11 0 -6
-40 4 -90 22 -49 18 -90 31 -90 30 0 -2 9 -24 19 -48 19 -44 19 -47 2 -94 -10
-26 -22 -70 -27 -98 l-8 -50 -7 70 c-3 39 -10 122 -14 186 -7 114 -7 115 17
126 20 9 28 5 58 -23 19 -18 56 -51 81 -73z m584 30 c-62 -27 -306 -109 -345
-116 -49 -8 -65 5 -53 41 9 28 11 29 69 26 68 -4 179 17 244 46 25 12 63 21
85 21 l40 0 -40 -18z m135 -63 l0 -48 -127 1 c-103 0 -139 -4 -183 -20 -30
-11 -47 -20 -37 -20 10 -1 28 4 40 10 21 11 21 10 -2 -15 -30 -32 -16 -34 18
-2 15 13 43 26 63 29 31 5 39 2 53 -19 19 -30 59 -32 79 -3 8 12 22 19 33 17
14 -2 9 -9 -22 -28 -36 -22 -50 -25 -130 -23 -70 1 -83 -1 -60 -8 17 -5 66 -8
109 -7 l79 2 23 -34 c13 -19 24 -44 24 -55 0 -23 -65 -276 -81 -317 l-11 -28
-29 21 c-16 11 -29 17 -29 12 0 -5 13 -16 29 -26 28 -16 29 -19 19 -53 -12
-46 -4 -54 17 -15 8 17 18 31 21 31 3 0 3 -21 1 -48 -3 -29 -23 -87 -54 -152
-47 -100 -52 -106 -103 -134 -45 -25 -64 -29 -117 -28 -115 3 -152 31 -287
217 -131 180 -130 176 -134 351 -3 119 -1 169 13 229 14 64 19 75 33 70 34
-14 132 -18 132 -6 0 6 -12 11 -27 11 -25 1 -26 2 -10 11 14 8 23 7 38 -7 29
-26 23 -50 -17 -69 -20 -9 -33 -20 -29 -23 8 -8 95 40 95 53 0 6 -7 21 -16 33
-12 17 -14 35 -9 71 6 43 9 48 29 44 21 -4 23 -9 19 -46 -4 -36 0 -47 27 -77
l32 -35 -26 38 c-15 20 -25 37 -23 37 3 0 24 -7 47 -15 23 -8 46 -12 51 -9 5
3 1 -9 -9 -25 -17 -30 -16 -30 13 -61 17 -18 39 -36 50 -42 11 -6 0 10 -24 36
l-45 46 29 30 c16 16 34 30 41 30 7 0 57 21 111 46 183 87 199 92 238 80 34
-10 35 -13 35 -58z m1483 -353 c241 -64 548 -199 835 -366 45 -27 82 -46 82
-44 0 25 -130 245 -202 342 -21 29 -38 54 -38 57 0 9 145 -77 200 -119 176
-135 420 -390 512 -534 15 -25 28 -40 28 -35 0 18 -36 115 -68 187 -17 37 -28
67 -24 66 13 -1 133 -145 170 -204 88 -140 191 -363 233 -502 7 -24 15 -43 19
-43 10 0 1 172 -16 284 -7 55 -12 101 -10 103 8 8 65 -184 82 -272 12 -64 17
-144 17 -275 0 -202 -11 -276 -63 -423 -16 -45 -27 -83 -26 -85 7 -6 76 140
105 223 18 49 34 91 37 94 9 9 -8 -113 -32 -238 -57 -288 -204 -643 -350 -844
l-35 -48 -38 58 c-38 59 -115 135 -161 158 -14 6 -180 54 -370 105 -329 89
-346 95 -373 126 -33 40 -82 52 -138 35 -30 -9 -48 -9 -79 0 -22 7 -40 14 -40
16 0 2 29 31 65 64 72 68 140 164 156 222 19 70 -24 137 -88 137 -10 0 -70
-34 -132 -75 -63 -41 -118 -75 -122 -75 -5 0 -13 19 -20 43 -21 80 -50 160
-83 226 -31 65 -32 67 -18 116 7 28 16 102 18 165 4 83 10 125 23 150 91 177
161 523 133 657 -15 74 -43 113 -127 177 -171 131 -398 232 -573 254 l-57 7
-31 63 c-17 34 -30 62 -29 62 2 0 47 -18 101 -39 54 -22 100 -38 102 -36 2 2
-8 20 -22 41 -14 21 -24 39 -22 41 5 5 189 -73 275 -117 132 -66 371 -209 371
-222 0 -4 5 -8 11 -8 21 0 -59 98 -188 228 -73 73 -125 131 -115 128 9 -2 61
-16 115 -31z m-3080 -207 c-2 -35 -6 -82 -9 -105 l-5 -41 -58 28 c-31 16 -70
32 -85 36 -27 6 -27 7 -9 25 14 14 163 119 168 119 1 0 0 -28 -2 -62z m-264
-148 c75 -25 189 -78 224 -103 23 -18 27 -28 27 -71 1 -54 15 -177 26 -220 l6
-25 -49 25 c-63 31 -140 45 -233 42 -61 -2 -104 5 -224 37 l-148 40 -23 -28
c-13 -15 -26 -23 -29 -18 -6 9 94 85 149 114 56 28 117 38 236 38 69 0 119 4
119 9 0 6 -5 10 -11 10 -5 0 -29 9 -52 19 -94 42 -172 71 -194 71 -21 0 -23 2
-12 23 33 63 82 73 188 37z m3052 -226 c89 -26 126 -52 134 -91 3 -19 4 -37 2
-39 -3 -3 -50 7 -105 21 -55 14 -109 25 -118 25 -37 0 5 -17 106 -44 248 -66
250 -67 250 -142 l0 -56 -35 31 c-19 16 -63 39 -97 49 -73 22 -138 35 -138 28
0 -3 22 -17 48 -30 91 -46 190 -163 233 -277 28 -71 37 -240 19 -344 -7 -41
-16 -75 -19 -75 -3 0 -33 41 -66 90 -52 79 -75 104 -75 84 0 -3 17 -31 39 -62
70 -104 211 -404 211 -451 0 -3 -39 33 -87 80 -157 153 -282 244 -398 290 -51
20 -77 23 -175 23 -127 0 -186 -13 -340 -71 -164 -62 -318 -167 -414 -281 -20
-24 -36 -40 -36 -35 0 33 35 195 51 239 35 92 164 238 285 322 18 12 90 51
160 86 71 36 143 76 159 90 l30 25 -45 -11 c-25 -5 -52 -11 -60 -13 -8 -2 -28
-8 -45 -15 l-30 -11 25 26 c14 15 67 58 118 97 52 38 92 72 89 74 -5 5 -115
-34 -132 -46 -5 -4 -20 -11 -32 -14 -20 -7 -23 -4 -23 23 0 32 -41 71 -88 86
-21 6 -20 9 35 75 53 65 167 157 240 194 48 24 193 65 234 65 19 1 60 -6 90
-15z m-1429 -62 c-22 -67 -119 -192 -148 -192 -25 0 -137 55 -155 76 -10 12
-8 25 7 71 26 76 36 88 60 75 26 -14 54 -100 42 -131 -11 -31 0 -41 18 -17 18
25 18 48 -1 93 -8 19 -15 36 -15 37 0 1 26 1 58 -2 46 -3 65 1 102 21 25 13
46 23 47 22 2 -1 -5 -25 -15 -53z m-2069 -43 c12 -7 48 -32 79 -58 l57 -45
-91 -46 c-112 -55 -130 -83 -21 -34 215 99 345 134 496 134 86 0 151 -23 216
-78 l35 -29 -43 -7 c-74 -11 -34 -26 72 -26 118 0 140 -10 157 -68 14 -50 14
-49 -25 -44 -43 5 -68 -13 -177 -124 -108 -110 -120 -128 -210 -310 -59 -122
-84 -163 -101 -168 -12 -3 -89 -9 -172 -12 -232 -10 -406 20 -555 95 l-75 38
-12 54 c-17 84 -15 214 7 311 22 100 46 151 90 193 18 17 47 60 66 97 37 73
63 103 109 124 37 16 70 17 98 3z m2595 -149 c5 -51 -16 -162 -52 -270 -29
-89 -33 -95 -60 -98 -16 -2 -145 -56 -285 -119 -302 -136 -307 -138 -321 -113
-6 10 -10 30 -10 44 0 37 47 181 85 262 29 59 43 76 89 107 162 108 441 229
516 224 32 -2 35 -5 38 -37z m102 -5 c23 -19 48 -35 56 -35 26 0 154 -49 184
-70 26 -19 30 -27 30 -70 0 -27 -5 -61 -11 -77 l-12 -28 -8 31 c-9 31 -71 82
-177 145 -24 15 -55 45 -68 67 -13 22 -33 44 -44 47 -11 4 -18 11 -15 16 10
15 21 11 65 -26z m97 -147 c109 -73 117 -81 127 -119 5 -23 -3 -34 -61 -88
l-66 -61 -29 50 c-16 28 -26 56 -22 62 4 6 3 8 -3 5 -12 -8 -93 76 -93 95 0 7
-10 29 -22 48 -21 34 -23 49 -12 98 l5 23 39 -23 c21 -13 83 -53 137 -90z
m-165 -78 c39 -32 138 -172 138 -195 0 -7 -15 -24 -34 -39 l-34 -25 -56 74
c-31 41 -56 79 -56 85 0 5 -4 10 -10 10 -17 0 -11 -12 46 -95 l55 -81 -58 -61
c-65 -67 -55 -66 -136 -11 -33 23 -48 16 -23 -11 16 -17 15 -19 -30 -31 -40
-12 -44 -15 -30 -26 15 -11 14 -14 -10 -33 -14 -11 -31 -18 -36 -14 -12 7 -78
146 -78 163 0 6 52 36 115 66 131 62 143 75 172 186 10 38 20 68 23 68 3 0 22
-14 42 -30z m-1690 -6 c5 -3 3 -13 -5 -22 -48 -55 -124 -250 -145 -373 -7 -43
-8 -44 -47 -44 -38 0 -40 2 -43 33 -3 33 25 162 53 241 8 24 40 77 71 117 52
68 58 72 81 63 14 -5 30 -12 35 -15z m1153 -415 c9 -27 32 -70 51 -95 19 -24
34 -46 34 -49 0 -3 -16 -12 -36 -20 -51 -21 -120 -18 -184 8 -46 18 -57 28
-67 57 -7 19 -12 51 -12 72 -1 35 0 36 27 26 22 -8 40 -4 97 20 39 16 71 30
72 31 1 1 9 -22 18 -50z m2132 -304 c68 -48 20 -158 -139 -318 -65 -65 -113
-105 -120 -101 -6 4 -8 3 -5 -3 13 -20 -165 -161 -343 -272 -63 -40 -119 -76
-124 -81 -16 -15 2 -24 19 -10 9 8 19 9 24 4 77 -89 84 -103 78 -157 -11 -94
31 -235 88 -297 16 -17 25 -40 27 -70 l3 -45 90 -45 c50 -25 140 -62 200 -82
61 -20 139 -48 176 -62 36 -13 112 -34 170 -45 57 -12 138 -28 179 -37 80 -16
100 -31 100 -75 0 -37 -32 -73 -77 -87 -63 -19 -221 -25 -327 -13 -114 13
-334 84 -484 156 -52 25 -98 45 -103 45 -18 0 -9 -17 15 -28 l24 -11 -25 -70
c-31 -87 -28 -98 64 -213 35 -44 82 -114 105 -156 42 -80 80 -137 148 -219 45
-54 51 -92 20 -123 -42 -42 -123 -19 -213 60 -46 41 -255 311 -300 388 -12 20
-32 52 -44 71 -13 19 -23 44 -23 57 0 13 -5 24 -11 24 -8 0 -10 -14 -6 -40 l5
-39 -31 16 c-97 49 -114 68 -181 206 -66 135 -89 190 -131 310 -28 80 -15 79
21 0 13 -31 26 -54 29 -51 11 11 -20 86 -51 124 -18 23 -47 79 -63 124 -44
119 -111 360 -111 398 0 46 28 109 59 132 40 28 175 60 254 60 82 0 141 25
244 106 37 30 114 84 171 121 57 38 133 92 170 120 37 29 89 65 116 80 26 16
94 58 150 95 106 71 128 78 163 53z m-2154 -373 c103 -65 143 -82 231 -97 66
-12 110 -28 207 -78 68 -34 139 -68 157 -74 29 -10 32 -14 26 -40 -9 -37 -11
-38 -31 -22 -17 13 -17 13 0 -7 10 -12 17 -37 17 -61 0 -73 39 -235 106 -437
90 -271 142 -392 222 -512 l69 -103 -63 24 c-119 45 -166 79 -201 149 -37 72
-93 209 -89 214 2 2 13 -1 24 -7 29 -15 37 -14 22 4 -7 8 -48 36 -91 62 -115
68 -173 123 -208 196 -28 59 -61 189 -61 240 0 13 -17 41 -41 67 -37 39 -39
45 -23 51 22 8 32 2 -121 64 -49 19 -112 51 -140 70 -60 41 -129 120 -119 137
4 7 3 8 -5 4 -15 -10 -51 75 -51 123 0 20 7 47 16 60 23 32 67 24 147 -27z
m2208 -63 c24 -20 24 -20 2 -14 -13 4 -38 -2 -61 -14 -106 -54 -204 -165 -291
-329 -43 -81 -48 -87 -83 -93 -25 -4 -38 -2 -38 5 0 6 15 45 34 87 64 149 167
276 282 349 59 37 119 41 155 9z m-2802 -106 c-4 -27 -13 -109 -20 -183 -10
-122 -15 -142 -46 -204 -48 -95 -88 -203 -124 -331 -17 -60 -37 -117 -45 -127
-9 -9 -46 -24 -83 -33 -120 -29 -159 -70 -133 -139 7 -16 10 -32 7 -34 -14
-14 -272 113 -302 150 -8 10 6 45 64 148 41 74 83 144 94 155 11 11 33 63 50
115 l30 95 71 55 c81 62 268 222 372 317 38 35 69 63 71 63 1 0 -2 -21 -6 -47z
m2246 -223 c19 -38 35 -71 35 -72 0 -2 -21 -4 -47 -6 -25 -2 -54 -7 -63 -12
-13 -7 -23 -3 -37 13 -35 39 -58 80 -47 84 6 2 31 17 55 33 24 15 50 29 56 29
7 1 29 -30 48 -69z m1042 -14 c32 -30 39 -93 15 -132 -36 -57 -219 -131 -476
-191 -246 -57 -270 -62 -382 -73 -83 -7 -111 -7 -122 3 -36 29 -76 170 -65
228 4 24 10 27 72 33 101 9 238 34 315 57 38 11 119 25 180 29 62 5 175 24
256 44 80 19 154 32 165 29 11 -3 30 -15 42 -27z m-3307 -441 c10 -93 24 -222
30 -285 6 -63 13 -128 16 -144 l6 -29 -112 7 c-61 3 -160 18 -220 32 l-108 25
-16 42 c-9 24 -16 50 -16 59 0 30 38 54 115 72 41 10 84 25 95 34 14 11 36 66
65 162 24 80 61 186 82 235 l38 90 3 -65 c1 -36 11 -141 22 -235z m2435 -138
c7 -48 7 -49 -16 -42 -13 4 -46 19 -74 35 -44 24 -50 32 -53 64 -3 33 -1 36
22 36 37 0 75 20 83 44 5 17 9 10 19 -33 7 -30 16 -76 19 -104z m-4770 -450
c85 -27 155 -42 155 -32 0 3 -28 20 -62 36 -35 17 -54 29 -43 26 72 -18 115
-32 115 -40 0 -8 -14 -65 -41 -170 -9 -34 -12 -36 -32 -26 -40 21 -122 96
-217 199 l-95 103 70 -36 c39 -19 106 -46 150 -60z m1441 -302 l62 -60 -101
-105 c-113 -119 -312 -364 -359 -443 -17 -28 -52 -100 -78 -159 l-46 -107 -27
54 -28 53 78 109 c164 228 185 272 219 450 13 71 24 140 24 155 0 15 28 77 62
137 l63 109 35 -66 c20 -40 60 -92 96 -127z m213 -126 c42 -15 75 -31 74 -36
-1 -5 -43 -74 -94 -153 -157 -247 -376 -645 -424 -772 l-18 -48 -31 23 c-50
35 -205 177 -216 197 -11 21 26 124 91 250 50 97 218 312 370 472 l120 128 26
-17 c14 -9 59 -29 102 -44z m229 -55 c59 -10 166 -17 275 -18 176 -1 178 -1
155 -20 -13 -10 -47 -30 -75 -43 -29 -14 -53 -29 -53 -34 0 -5 24 -7 55 -4 30
3 81 7 112 10 31 3 67 8 79 11 19 5 22 0 33 -73 64 -417 165 -793 267 -997 25
-48 44 -90 42 -91 -6 -6 -218 -45 -303 -56 -110 -14 -426 -5 -505 14 -74 19
-418 151 -505 195 -38 19 -110 57 -158 84 -83 47 -88 52 -82 77 12 46 75 183
130 281 29 52 84 151 122 220 62 111 213 359 265 433 23 32 20 32 146 11z
m-1807 -833 c18 -92 80 -315 89 -325 5 -5 23 20 42 58 18 36 35 66 38 66 4 0
14 -17 24 -37 57 -123 192 -310 210 -293 3 3 23 78 46 165 23 88 53 192 67
232 l25 72 25 -37 c65 -96 166 -200 309 -319 l82 -68 -77 -7 c-101 -9 -141
-17 -141 -27 0 -5 -19 -11 -42 -15 -48 -8 -246 -54 -268 -63 -21 -8 27 -20
125 -33 160 -20 763 -9 860 16 98 25 -235 -107 -485 -192 -241 -82 -281 -88
-492 -73 -215 15 -446 7 -552 -20 -43 -11 -80 -22 -82 -24 -2 -1 13 -24 34
-49 48 -60 123 -95 264 -122 59 -12 108 -23 108 -27 0 -3 -42 -15 -94 -28 -63
-15 -93 -27 -90 -35 4 -12 -8 -16 -206 -72 -148 -42 -197 -33 -399 68 -121 61
-108 37 -147 268 -36 212 -31 273 31 394 26 49 101 166 167 260 105 148 146
196 312 361 l190 190 8 -114 c4 -63 12 -139 19 -170z m3293 -1083 c25 -98 77
-281 83 -290 4 -8 97 37 147 71 17 11 33 18 36 16 4 -2 13 -29 20 -60 12 -52
15 -55 44 -55 95 1 378 88 554 172 98 46 231 125 294 174 66 51 61 56 79 -81
8 -63 10 -190 5 -427 -3 -195 -2 -338 3 -338 13 0 77 74 96 110 9 17 29 86 44
152 l27 120 36 -79 c73 -160 119 -328 133 -488 9 -100 25 -175 37 -175 5 0 7
7 4 16 -7 18 -28 245 -23 250 11 11 71 -74 105 -151 25 -57 62 -195 62 -234 0
-29 15 -58 22 -45 3 5 4 17 3 27 -4 20 6 21 57 7 53 -15 62 -38 55 -139 -11
-170 -73 -335 -179 -476 -59 -77 -95 -105 -218 -166 -107 -54 -176 -62 -261
-30 -31 12 -133 72 -227 134 -93 61 -187 121 -207 133 l-38 21 116 7 c208 12
397 55 397 91 0 6 -42 43 -92 81 -51 38 -147 114 -213 169 -66 55 -138 112
-160 127 -63 42 -209 75 -485 108 -230 28 -223 25 -258 118 -16 42 -33 88 -37
102 -4 14 -38 88 -75 165 -50 103 -69 156 -74 200 -9 76 -59 327 -85 423 l-19
74 80 119 c44 65 83 119 87 119 3 0 15 -33 25 -72z m-2994 -949 c91 -21 176
-39 190 -40 21 0 18 -3 -15 -15 -44 -17 -256 -31 -299 -20 -20 5 -32 20 -51
62 -30 67 -30 68 -7 59 9 -4 91 -24 182 -46z m1272 -202 c35 -24 92 -61 128
-82 230 -134 263 -169 264 -275 1 -60 -44 -177 -64 -165 -5 3 -8 0 -5 -7 3 -7
-27 -62 -66 -122 -90 -138 -100 -180 -74 -292 26 -110 24 -165 -9 -214 -14
-22 -29 -40 -32 -40 -3 0 -28 20 -56 45 -70 63 -149 99 -210 97 -137 -7 -159
-2 -200 44 l-37 40 31 19 30 20 -6 140 c-5 121 -30 328 -51 431 -6 29 -3 33
37 57 68 40 161 146 204 232 20 41 39 75 41 75 2 0 19 -10 38 -22 34 -23 46
-48 69 -150 4 -16 11 -28 16 -28 13 0 13 2 -5 80 -13 58 -21 70 -67 112 -29
26 -50 48 -46 48 4 0 35 -20 70 -43z m-110 -1156 c53 -23 104 -64 123 -101 15
-28 15 -29 -28 -44 -23 -9 -63 -17 -89 -19 -35 -2 -55 -10 -75 -29 -49 -45
-63 -48 -137 -33 -71 15 -96 28 -96 50 0 10 9 11 41 3 41 -11 89 1 89 22 0 6
-9 6 -24 -1 -28 -13 -97 -1 -104 19 -5 17 46 34 82 26 26 -6 29 -4 18 8 -6 8
-8 18 -4 22 4 4 12 21 18 39 18 54 107 72 186 38z m3928 -757 c19 -25 43 -56
52 -67 10 -12 22 -53 28 -92 8 -48 29 -109 69 -195 53 -113 131 -294 131 -304
0 -2 -11 -7 -25 -10 -36 -9 -135 -111 -189 -194 -48 -73 -60 -83 -69 -57 -11
26 -82 65 -140 76 -66 12 -113 1 -143 -32 l-19 -21 -6 24 c-4 12 -7 55 -8 94
-1 39 -5 94 -10 121 -6 28 -17 117 -25 197 -15 139 -18 151 -53 209 -29 49
-37 75 -41 124 l-4 61 48 -24 c107 -54 238 -20 319 83 22 28 42 52 45 52 3 0
21 -20 40 -45z m442 -871 c16 -38 48 -87 70 -110 35 -36 40 -46 35 -72 -4 -17
-2 -54 3 -82 11 -57 2 -79 -31 -79 -27 0 -24 20 4 21 l22 2 -22 4 c-25 5 -31
28 -10 37 6 4 2 4 -9 2 -19 -3 -22 2 -28 41 -4 30 -16 57 -37 80 -17 20 -35
46 -41 59 -6 13 -15 24 -20 24 -12 0 20 -60 53 -98 16 -18 29 -42 29 -54 0
-12 5 -48 12 -80 14 -69 8 -78 -55 -78 -33 0 -38 3 -32 19 10 34 -34 162 -70
201 -18 19 -35 44 -39 54 -3 10 -9 16 -12 13 -11 -10 7 -45 37 -75 18 -18 36
-51 46 -83 32 -115 28 -132 -37 -133 -42 -1 -43 0 -56 44 -8 25 -14 54 -14 65
0 11 -11 37 -25 57 -14 21 -28 51 -31 68 -4 16 -11 30 -16 30 -15 0 0 -50 28
-92 13 -21 24 -49 24 -63 0 -14 7 -39 15 -55 11 -21 12 -36 5 -54 -9 -24 -15
-26 -65 -26 -55 0 -56 1 -71 35 -18 43 -19 88 -5 134 7 22 7 40 1 52 -19 35
156 228 225 248 73 22 84 17 117 -56z m-537 -122 c57 -35 125 -112 125 -141 0
-15 12 -44 26 -65 22 -33 24 -41 14 -66 -17 -40 -31 -49 -86 -55 -68 -7 -94 9
-112 71 -9 33 -29 66 -58 97 -24 26 -44 54 -44 63 0 19 26 83 41 102 16 19 59
16 94 -6z"/>
<path d="M3394 11634 c3 -8 3 -33 0 -55 -5 -30 -11 -38 -23 -35 -9 2 -32 7
-52 10 l-36 6 1 -58 c1 -53 -2 -61 -29 -85 -20 -17 -37 -24 -52 -21 -32 8 -46
-25 -23 -54 26 -31 36 -28 66 23 14 25 28 45 29 43 2 -2 0 -22 -4 -45 -10 -50
-7 -55 26 -42 35 13 132 10 175 -5 47 -17 50 -14 72 93 l17 83 -22 24 c-15 16
-34 24 -57 24 l-35 0 6 45 c6 42 5 46 -19 55 -36 14 -47 12 -40 -6z"/>
<path d="M4095 9863 c-4 -14 -21 -27 -44 -34 -71 -23 -217 -90 -329 -151 -111
-60 -115 -63 -138 -117 -14 -30 -34 -89 -46 -130 -24 -86 -34 -103 -48 -81 -5
8 -12 11 -16 7 -14 -14 20 -39 46 -34 30 6 358 146 443 189 49 24 62 37 78 74
25 54 72 260 66 282 -4 14 -6 13 -12 -5z m-44 -103 c28 0 23 -12 -11 -32 -36
-20 -43 -64 -10 -55 17 4 20 2 15 -16 -4 -12 -16 -42 -28 -67 -21 -42 -28 -47
-132 -93 -225 -99 -345 -146 -345 -134 0 20 35 128 60 185 21 50 27 55 124
108 55 30 146 75 201 99 93 41 100 43 103 25 2 -12 11 -20 23 -20z"/>
</g>
</svg>
