<?xml version="1.0" standalone="no"?>
<!DOCTYPE svg PUBLIC "-//W3C//DTD SVG 20010904//EN"
 "http://www.w3.org/TR/2001/REC-SVG-20010904/DTD/svg10.dtd">
<svg version="1.0" xmlns="http://www.w3.org/2000/svg"
 width="400.000000pt" height="600.000000pt" viewBox="0 0 400.000000 600.000000"
 preserveAspectRatio="xMidYMid meet">
<metadata>
Created by potrace 1.16, written by Peter Selinger 2001-2019
</metadata>
<g transform="translate(0.000000,600.000000) scale(0.130719,-0.064586)"
fill="#000000" stroke="none">
<path d="M1570 9270 c0 -5 -16 -12 -35 -16 -19 -3 -35 -12 -35 -18 0 -7 -16
-18 -35 -25 -21 -7 -71 -48 -118 -94 l-82 -82 0 80 c0 64 -3 80 -15 80 -16 0
-65 -92 -74 -140 -4 -24 -1 -21 14 14 11 24 28 60 38 80 l17 36 3 -87 c1 -49
4 -88 6 -88 1 0 41 37 87 83 56 55 108 95 155 120 40 20 75 37 79 37 4 0 -13
-24 -37 -52 -42 -50 -68 -89 -68 -103 0 -3 14 4 30 17 17 12 28 28 26 35 -3 6
8 23 24 37 17 14 30 29 30 34 0 5 9 17 20 27 27 24 25 35 -5 35 -14 0 -25 -4
-25 -10z"/>
<path d="M1960 9270 c0 -5 -9 -10 -20 -10 -11 0 -20 -4 -20 -8 0 -5 -14 -6
-31 -4 -21 3 -30 1 -25 -6 4 -7 -11 -9 -47 -5 -32 3 -62 1 -73 -5 -15 -9 -6
-11 46 -11 36 0 85 4 110 9 25 4 47 7 48 5 2 -2 -15 -13 -38 -25 -23 -12 -39
-24 -36 -27 8 -8 157 38 152 46 -2 3 7 7 21 8 23 1 19 -6 -38 -63 -35 -36 -83
-77 -106 -92 -42 -26 -54 -42 -33 -42 13 0 15 1 120 94 81 73 109 107 110 134
0 18 -37 15 -44 -4 -3 -8 -10 -13 -15 -10 -4 3 -19 -3 -31 -14 -24 -21 -43
-19 -22 2 18 18 14 38 -8 38 -11 0 -20 -4 -20 -10z"/>
<path d="M1055 9048 c-8 -21 -10 -246 -2 -318 l6 -55 -35 38 c-64 70 -71 43
-18 -76 39 -90 39 -76 14 -286 -12 -95 -9 -114 12 -93 22 22 48 13 64 -21 13
-27 21 -33 40 -29 28 5 27 10 14 -96 -6 -46 -7 -88 -3 -95 4 -7 13 32 19 86 7
54 14 100 16 103 6 5 140 -41 173 -59 18 -10 17 -12 -15 -18 -30 -5 -26 -7 23
-8 49 -1 64 -6 97 -32 24 -19 45 -29 55 -25 13 5 95 -27 95 -38 0 -1 -15 -3
-34 -4 -19 -1 -78 -23 -133 -51 -120 -61 -189 -77 -238 -56 -19 7 -35 19 -35
26 0 6 -7 9 -15 5 -20 -7 -41 17 -122 143 -2 2 -5 2 -7 0 -3 -2 13 -31 35 -64
44 -67 46 -75 23 -75 -26 0 -81 -63 -93 -106 -12 -45 -14 -123 -3 -140 4 -7 7
18 7 55 1 82 25 138 69 156 17 7 32 12 34 11 1 -2 -4 -16 -13 -32 -8 -16 -15
-36 -15 -44 1 -36 43 -102 106 -166 38 -38 65 -66 60 -62 -34 27 -45 -15 -14
-51 12 -15 13 -22 5 -31 -9 -10 -9 -11 1 -6 9 5 12 -4 12 -37 0 -43 -1 -43
-30 -39 -32 5 -38 -5 -17 -27 9 -11 9 -13 0 -7 -25 14 -13 -22 13 -43 15 -12
22 -21 16 -21 -19 0 -111 79 -152 131 -37 46 -60 101 -60 141 0 9 -4 20 -10
23 -5 3 -10 2 -10 -3 0 -6 -21 -12 -47 -15 -27 -3 -68 -10 -93 -16 -36 -8 -56
-7 -98 6 -36 11 -56 13 -63 6 -7 -7 3 -12 29 -17 83 -13 221 -102 281 -180 39
-51 101 -156 101 -170 0 -4 -18 16 -41 44 -59 74 -109 121 -190 177 -70 47
-73 48 -159 51 -86 4 -88 3 -83 -17 4 -15 1 -21 -11 -21 -10 0 -41 -24 -71
-54 -39 -39 -56 -64 -61 -92 -5 -28 -9 -34 -13 -21 -4 10 -7 -26 -7 -80 0 -54
-1 -144 -2 -199 -3 -77 1 -111 13 -140 14 -34 37 -173 30 -182 -6 -7 -65 87
-65 102 0 9 -4 16 -9 16 -10 0 3 -61 20 -96 6 -11 23 -28 39 -37 21 -13 31
-30 40 -69 7 -29 21 -64 30 -78 10 -14 27 -44 39 -67 14 -29 28 -43 41 -43 11
0 20 -4 20 -8 0 -12 70 -32 108 -32 23 0 31 -5 36 -23 3 -13 20 -43 38 -68 28
-38 35 -61 55 -179 14 -87 23 -179 23 -257 0 -105 3 -128 20 -159 12 -20 19
-38 16 -41 -9 -10 -38 47 -43 86 -3 22 -12 42 -20 45 -8 4 -11 1 -7 -5 8 -14
-14 -29 -45 -29 -24 0 -24 0 -5 -15 17 -13 17 -14 2 -15 -24 0 -48 51 -48 102
0 31 -3 39 -10 28 -12 -19 -13 -100 -1 -100 5 0 17 -20 27 -45 17 -45 17 -46
-11 -96 -22 -42 -28 -67 -32 -150 -6 -92 -4 -102 16 -130 17 -22 18 -29 7 -29
-8 0 -18 -5 -22 -11 -4 -8 3 -9 23 -5 45 10 59 -12 43 -69 -12 -44 -23 -55
-35 -35 -3 6 -2 10 3 10 5 0 13 16 19 35 13 40 6 44 -38 18 -32 -19 -38 -33
-14 -33 8 0 15 -4 15 -10 0 -6 -9 -6 -26 0 -14 6 -46 10 -72 10 l-47 0 25 20
c14 11 22 20 18 20 -14 0 -78 -34 -78 -42 0 -4 -7 -8 -15 -8 -8 0 -15 -5 -15
-11 0 -12 42 -2 51 13 4 6 23 1 45 -11 l39 -21 -43 0 c-83 0 -161 -62 -207
-163 -25 -54 -27 -71 -33 -243 -4 -152 -7 -184 -20 -184 -9 0 -6 -6 9 -19 13
-11 26 -17 28 -15 3 3 4 37 3 76 -2 40 0 69 4 65 10 -10 15 -58 13 -132 -1
-68 -2 -61 9 -137 4 -32 11 -61 16 -65 12 -12 27 20 22 49 -4 20 1 30 19 42
20 13 36 14 96 6 40 -5 77 -6 81 -4 4 3 8 0 8 -5 0 -7 -33 -11 -89 -11 -99 0
-96 2 -107 -80 -4 -27 -11 -47 -16 -44 -5 3 -7 13 -4 21 3 8 1 11 -4 8 -12 -8
-29 33 -32 80 -3 42 -22 41 -26 -2 -2 -20 6 -43 22 -68 14 -20 28 -45 31 -56
4 -10 11 -19 16 -19 6 0 7 -14 4 -32 -3 -18 -8 -67 -10 -108 -2 -41 -9 -104
-15 -140 -6 -36 -13 -92 -16 -125 -4 -33 -11 -63 -17 -66 -5 -4 -7 -23 -4 -43
3 -21 2 -36 -4 -36 -5 0 -10 -17 -9 -37 0 -21 -6 -83 -14 -138 -9 -55 -15
-116 -16 -135 l0 -36 75 -19 c41 -10 75 -22 75 -27 0 -5 -4 -7 -9 -4 -10 6
-23 -107 -15 -129 3 -8 1 -15 -5 -15 -7 0 -11 -20 -10 -52 1 -63 2 -50 -27
-268 -13 -96 -24 -194 -24 -217 0 -34 -7 -49 -35 -80 l-36 -38 2 -125 c2 -75
-2 -142 -10 -168 -7 -24 -11 -78 -10 -121 2 -75 0 -81 -31 -119 -39 -49 -49
-95 -49 -222 l-1 -95 53 -66 53 -66 -13 -132 -14 -132 27 -32 c34 -42 112 -87
149 -87 25 1 21 4 -23 19 -31 11 -70 35 -93 57 -34 33 -39 44 -39 82 l0 45 41
-47 c45 -51 85 -76 121 -76 16 0 8 7 -28 24 -85 40 -140 123 -118 180 5 12 12
7 34 -23 42 -58 117 -91 204 -91 43 1 81 6 96 15 44 25 52 19 31 -24 -12 -23
-32 -43 -51 -51 -17 -7 -29 -15 -26 -17 2 -3 14 1 26 7 31 17 33 8 11 -41 -11
-24 -25 -58 -31 -75 -6 -17 -21 -36 -33 -42 -18 -9 -19 -11 -5 -11 15 -1 16
-5 6 -26 -6 -14 -18 -25 -27 -25 -13 0 -13 -2 -3 -9 23 -14 -11 -81 -40 -81
-38 0 -135 28 -194 56 -43 20 -54 30 -54 50 0 28 7 30 37 9 32 -23 102 -45
108 -36 3 5 -7 12 -23 16 -49 12 -112 54 -112 75 0 16 -7 20 -32 20 -28 -1
-37 -7 -60 -46 -37 -61 -60 -144 -57 -207 2 -40 -4 -65 -24 -107 -15 -30 -27
-61 -27 -67 0 -7 -4 -13 -9 -13 -11 0 -51 -137 -51 -177 0 -34 -34 -135 -56
-168 -8 -11 -14 -27 -14 -37 0 -10 -4 -18 -10 -18 -6 0 -10 -50 -9 -132 l0
-133 57 -28 c31 -15 65 -27 75 -27 9 0 17 -4 17 -10 0 -6 62 -10 165 -10 94 0
165 4 165 9 0 5 12 12 27 16 16 3 37 18 48 33 17 24 20 46 24 180 2 122 0 156
-11 170 -13 15 -13 39 0 190 l15 172 39 12 c42 12 40 9 74 153 l18 77 -22 42
c-25 47 -23 58 30 177 14 30 40 96 59 147 l33 92 61 0 c69 0 68 0 117 61 62
77 90 165 96 300 4 111 6 118 34 150 24 28 28 41 25 74 -4 34 4 57 50 143 53
102 54 104 52 185 -1 45 -5 89 -10 98 -5 9 1 35 16 70 40 90 91 229 120 324
15 50 31 95 35 100 16 21 40 120 40 169 0 28 9 88 20 134 11 46 20 101 20 123
0 22 8 56 18 77 19 37 68 177 93 262 7 25 12 58 10 74 -2 20 1 27 11 24 7 -3
13 -19 13 -36 0 -16 2 -29 6 -27 3 2 16 -42 28 -98 13 -56 38 -147 56 -202 18
-55 39 -145 46 -200 12 -98 35 -188 80 -310 17 -47 24 -101 34 -246 10 -158
15 -192 33 -223 18 -31 21 -50 20 -150 l-2 -115 43 -51 c23 -27 48 -50 56 -50
7 0 15 -7 19 -15 3 -8 14 -15 23 -15 10 0 29 -7 41 -16 14 -9 22 -11 22 -4 0
6 11 3 25 -8 32 -25 149 -46 190 -34 25 7 16 10 -50 14 -44 2 -89 10 -100 16
-16 9 -3 12 70 12 50 1 109 5 133 9 43 9 55 0 25 -18 -10 -6 -13 -11 -7 -11 6
0 21 11 34 25 31 33 40 32 40 -5 0 -25 -8 -35 -47 -60 -26 -17 -43 -30 -37
-30 5 0 23 9 39 20 41 27 47 25 43 -12 -2 -24 -12 -38 -37 -55 -19 -13 -30
-23 -25 -23 5 0 22 9 39 20 28 18 30 18 37 2 5 -9 7 27 5 81 -2 71 0 97 9 97
15 0 104 102 104 119 0 6 5 11 10 11 12 0 13 143 1 168 -37 72 -55 152 -32
138 12 -8 20 140 14 248 -3 52 -1 101 4 112 12 24 -1 324 -15 333 -5 3 -13 31
-17 61 -7 58 -28 181 -44 265 -5 28 -21 151 -35 275 -15 124 -31 257 -38 295
-7 44 -10 178 -9 360 2 269 1 296 -19 370 -12 44 -29 91 -38 105 -11 17 -19
68 -27 159 -11 130 -10 135 12 184 20 42 23 65 23 169 0 114 -1 121 -24 139
-20 16 -24 30 -29 101 -3 46 -14 108 -25 139 -23 66 -20 189 4 189 8 0 14 -10
14 -25 0 -22 33 -65 50 -65 4 0 20 -11 36 -25 45 -39 106 -65 153 -65 58 0
140 25 174 53 15 12 45 36 67 52 46 34 85 107 100 187 8 39 6 71 -5 131 -8 44
-19 85 -23 91 -5 6 -16 31 -25 56 -12 33 -31 57 -67 84 -37 28 -57 54 -77 98
-25 56 -63 93 -137 133 -10 6 -24 27 -31 48 -7 22 -23 49 -34 61 -12 12 -21
28 -21 35 0 7 -4 9 -10 6 -5 -3 -10 -2 -10 3 0 11 51 47 63 44 4 -1 7 2 7 8 0
5 12 16 28 24 15 8 61 46 102 86 117 111 178 162 188 156 15 -9 82 71 82 98 0
30 -46 69 -74 62 -14 -4 -9 5 17 32 47 48 56 88 27 125 -13 17 -31 27 -47 27
-20 0 -24 4 -18 18 29 70 33 181 7 190 -11 3 -12 0 -3 -16 6 -11 11 -25 11
-31 0 -17 -28 -13 -39 7 -6 9 -11 11 -11 5 0 -7 9 -18 20 -25 37 -23 17 -100
-47 -185 l-25 -32 -39 41 -39 41 39 42 c47 51 56 69 64 118 5 33 4 37 -8 27
-8 -7 -15 -25 -15 -40 0 -29 -49 -98 -109 -155 l-32 -30 26 48 c15 26 31 47
36 47 6 0 8 4 5 8 -2 4 8 27 24 51 28 42 55 134 48 168 -2 10 -12 19 -23 22
-19 3 -19 3 -2 -16 15 -18 16 -22 2 -33 -8 -7 -22 -10 -30 -6 -9 3 -13 2 -10
-4 3 -6 15 -10 26 -10 16 0 19 -4 13 -22 -9 -31 -30 -73 -71 -141 l-35 -57
-30 25 c-16 14 -38 25 -49 25 -10 0 -19 2 -19 5 0 3 25 37 56 77 31 40 62 85
70 100 9 18 20 26 27 22 7 -4 9 -4 5 1 -4 4 -3 14 3 22 9 10 8 13 -4 13 -9 0
-28 -21 -43 -47 -15 -27 -36 -57 -46 -68 -10 -11 -36 -45 -58 -75 -22 -30 -46
-62 -55 -71 -8 -9 -15 -19 -15 -23 0 -3 -16 -21 -36 -39 -45 -39 -80 -51 -88
-30 -13 34 -4 63 34 106 32 36 40 53 40 84 0 26 -6 46 -18 56 -24 22 -35 21
-58 -4 -10 -11 -34 -27 -53 -35 -41 -17 -81 -58 -80 -82 0 -13 3 -12 11 5 12
24 93 67 109 57 5 -3 21 2 35 11 56 36 51 -29 -7 -92 -22 -24 -39 -49 -39 -58
0 -16 -43 -19 -90 -6 -19 6 -24 13 -22 32 6 42 -14 8 -36 -64 -12 -37 -22 -83
-22 -103 l0 -35 -30 31 c-16 16 -34 30 -40 30 -6 0 -10 24 -10 55 0 70 -17
112 -62 150 -83 71 -94 79 -103 80 -5 0 -29 13 -53 29 -42 28 -42 29 -20 40
13 6 24 22 26 34 2 12 10 22 18 22 12 0 14 7 9 31 -5 20 -4 29 3 25 14 -8 24
55 23 137 -1 37 0 67 2 67 2 0 21 -34 42 -76 24 -49 40 -72 45 -64 4 7 5 21 3
31 -3 10 -2 45 2 76 l7 58 19 -38 c29 -56 43 -48 35 21 -4 31 -9 69 -12 83 -5
24 -1 27 30 33 44 8 128 45 138 60 16 23 6 28 -44 24 l-52 -5 49 25 c28 13 51
28 53 33 2 4 10 5 18 2 8 -3 14 0 14 7 0 7 7 10 15 7 8 -4 17 -2 20 3 4 6 -6
15 -20 20 -38 14 -50 13 -35 -5 10 -12 10 -15 -1 -15 -18 0 -149 -80 -149 -91
0 -5 19 -9 43 -10 l42 -1 -43 -20 c-24 -10 -57 -20 -73 -20 l-30 -1 6 -51 c4
-28 9 -59 11 -68 8 -28 -3 -21 -26 18 -12 19 -25 32 -28 29 -4 -3 -5 -43 -4
-88 l2 -82 -54 105 c-32 61 -56 120 -57 140 l-1 35 -9 -40 c-4 -22 -5 -75 -2
-117 3 -43 3 -78 1 -78 -3 0 -23 47 -43 105 -26 74 -36 114 -32 135 13 60 -11
28 -29 -40 -10 -38 -21 -70 -25 -70 -7 0 -14 33 -25 115 -5 46 -9 52 -38 62
-17 6 -98 36 -181 66 -203 75 -377 120 -437 114 l-47 -4 -26 61 c-15 34 -30
68 -33 76 -3 8 11 0 31 -17 47 -41 61 -42 53 -5 -4 15 -9 101 -12 192 -5 151
-4 163 10 146 20 -25 21 -7 2 20 -13 17 -15 17 -21 2z m377 -588 c46 -16 135
-53 199 -83 l116 -55 6 -46 c4 -25 9 -57 13 -70 4 -19 -3 -33 -31 -64 -43 -48
-87 -66 -130 -53 -51 15 -359 152 -373 165 -10 10 -11 18 -3 32 18 31 73 168
74 184 2 25 40 22 129 -10z m588 -870 c14 -50 12 -99 -6 -188 -18 -89 -31
-107 -68 -98 -24 6 -25 8 -12 29 20 32 49 204 41 246 -4 19 -16 48 -27 64 -11
15 -18 30 -15 33 10 10 46 -48 52 -86 7 -43 25 -64 25 -30 0 29 -24 82 -43 99
-10 7 -17 19 -17 25 1 21 60 -59 70 -94z m-1025 -2 c9 -40 39 -88 95 -151 54
-61 153 -137 178 -137 20 0 23 -14 8 -38 -6 -11 -13 -9 -33 10 -14 13 -22 16
-18 8 3 -9 14 -21 24 -27 15 -10 22 -9 31 2 7 8 19 15 26 15 8 0 14 10 14 22
0 21 0 21 21 2 78 -69 105 -164 53 -184 -38 -15 -111 -12 -145 5 -16 9 -46 41
-65 71 -28 44 -33 58 -23 70 6 8 19 14 28 14 9 0 12 3 6 8 -5 4 -12 16 -13 27
-4 22 -22 37 -37 31 -6 -2 -12 4 -12 14 -2 19 -16 39 -75 104 -39 44 -62 46
-27 3 33 -43 13 -31 -32 18 -51 55 -131 115 -153 115 -9 0 -16 4 -16 10 0 5
28 11 63 13 34 2 70 4 79 5 11 1 19 -8 23 -30z m1569 -232 c33 -34 73 -85 88
-112 l26 -49 -56 -42 c-31 -24 -66 -43 -77 -43 -12 0 -52 31 -98 78 -61 61
-75 80 -65 90 9 9 9 15 -1 25 -10 8 -12 8 -7 0 9 -16 -6 -24 -24 -13 -11 7 0
24 50 77 76 81 73 81 164 -11z m-969 -55 c22 -5 32 -9 23 -10 -9 0 -20 -10
-23 -21 -4 -11 -11 -18 -16 -15 -5 4 -9 2 -9 -3 0 -11 30 -25 38 -17 3 3 -1 5
-8 5 -10 0 -11 3 -3 11 7 7 29 9 63 4 43 -6 55 -12 71 -39 10 -17 19 -35 19
-40 0 -14 -32 17 -40 40 -10 26 -38 26 -52 1 -7 -13 -5 -19 6 -23 9 -3 13 -10
10 -15 -3 -5 -2 -9 3 -8 25 4 35 -3 30 -20 -3 -11 1 -28 8 -38 7 -11 16 -36
20 -56 4 -20 11 -37 15 -37 15 0 17 37 4 55 -9 12 -10 23 -4 36 15 27 12 32
-17 25 l-28 -6 25 14 c24 14 26 13 42 -17 9 -18 17 -28 18 -22 0 17 28 -31 49
-85 15 -40 18 -58 10 -72 -6 -11 -8 -27 -4 -35 3 -10 -4 -26 -17 -40 l-23 -25
-5 29 -5 28 -200 0 -199 0 -6 -25 c-4 -17 -8 -21 -14 -12 -4 6 -4 17 0 24 4 6
3 9 -2 5 -5 -3 -26 21 -45 52 l-36 58 69 6 c39 3 81 13 94 22 14 9 33 13 44
10 23 -7 60 14 53 31 -2 7 3 26 11 43 9 16 12 32 7 35 -5 4 -7 15 -4 26 4 14
0 20 -11 20 -13 0 -16 -12 -16 -65 0 -56 -3 -66 -22 -76 -21 -11 -22 -11 -9 5
20 24 23 63 9 115 -10 39 -9 45 6 57 11 7 15 18 10 25 -4 7 -3 10 4 5 6 -3 13
-3 16 2 2 4 -8 9 -24 10 -24 2 -28 -1 -25 -18 2 -11 1 -20 -3 -20 -8 0 -35 40
-30 44 32 26 60 30 123 17z m440 -113 l28 -42 -29 -23 c-16 -13 -38 -26 -49
-29 -33 -10 -65 -46 -66 -73 -1 -25 -1 -24 -15 8 -8 18 -13 40 -10 48 3 8 2
12 -3 9 -5 -3 -11 1 -14 8 -3 8 -1 16 4 18 6 2 4 18 -6 40 -20 48 -20 65 -1
49 8 -7 18 -26 21 -42 4 -16 10 -31 14 -33 11 -7 10 27 -2 42 -6 8 -6 12 3 12
9 0 10 4 2 13 -13 15 -4 60 9 51 5 -3 6 -10 3 -16 -4 -7 -2 -8 4 -4 13 8 35
-28 24 -39 -4 -3 0 -5 8 -3 8 2 15 -3 16 -9 1 -7 2 -17 3 -21 1 -10 47 -10 57
1 4 4 2 7 -4 7 -7 0 -11 4 -9 8 1 5 -15 24 -35 44 -45 42 -48 51 -9 32 16 -8
41 -33 56 -56z m110 -124 l36 -56 -21 -23 c-36 -38 -57 -38 -82 3 -12 19 -24
30 -26 24 -3 -9 -9 -9 -23 -1 -11 5 -32 8 -47 6 -26 -4 -26 -4 4 -6 20 -1 41
-12 64 -36 29 -30 32 -37 22 -59 -17 -38 -49 -43 -81 -12 -30 29 -54 32 -91
11 -34 -19 -40 -18 -40 5 0 12 17 32 42 51 33 24 42 36 40 55 -3 21 5 28 69
59 41 19 79 35 86 35 7 0 29 -25 48 -56z m-151 -183 c34 -35 36 -41 25 -59 -8
-12 -26 -27 -42 -33 -24 -10 -30 -9 -48 10 -15 15 -32 21 -65 21 -38 0 -45 3
-42 18 4 20 92 82 117 82 9 0 34 -17 55 -39z m221 -151 c-46 -47 -36 -54 12
-8 18 17 34 30 36 27 1 -2 0 -46 -3 -96 l-5 -93 -54 -52 c-33 -33 -55 -48 -58
-40 -3 6 -9 12 -14 12 -6 0 -7 -4 -4 -10 3 -5 2 -10 -4 -10 -9 0 -23 35 -35
92 -5 21 1 35 24 61 16 19 27 36 25 39 -3 3 3 11 12 19 17 13 17 13 3 -6 -15
-20 -14 -20 8 -1 12 11 20 22 17 24 -5 6 64 82 74 82 3 0 -13 -18 -34 -40z
m-1625 -80 c3 -3 21 -26 38 -51 38 -56 84 -97 120 -105 62 -15 69 -44 10 -44
-96 0 -166 65 -199 187 -25 87 -23 108 3 58 11 -22 24 -42 28 -45z m361 -366
c43 -48 175 -217 209 -268 55 -83 84 -106 163 -131 57 -18 101 -25 162 -25 79
0 86 2 127 33 61 45 93 61 117 54 12 -3 19 -1 15 4 -3 5 4 9 15 9 12 0 21 5
21 11 0 6 -7 8 -15 5 -38 -15 -48 -16 -25 -2 14 8 37 15 51 16 30 0 91 41 135
92 18 20 41 41 53 48 12 6 19 15 16 20 -8 12 6 41 16 34 5 -3 9 -16 9 -29 0
-27 21 -109 43 -172 l16 -42 -41 4 c-32 4 -39 2 -34 -10 4 -10 -7 -18 -37 -26
-23 -6 -55 -16 -72 -21 -53 -16 -199 -22 -224 -8 -15 8 -21 8 -17 1 4 -6 2
-11 -3 -11 -6 0 -11 -9 -11 -20 0 -17 5 -19 24 -14 14 3 31 2 38 -2 7 -5 18
-9 23 -11 6 -1 35 -9 65 -17 30 -9 65 -16 78 -16 15 0 21 -4 16 -12 -4 -7 -3
-8 4 -4 6 4 46 8 89 10 43 2 97 9 121 16 23 7 45 10 49 6 4 -4 9 -35 11 -69 4
-59 3 -62 -19 -63 -13 0 -60 -4 -104 -8 -324 -30 -769 -31 -914 -2 -46 10 -86
15 -88 12 -11 -11 -41 15 -59 51 -15 30 -20 71 -26 193 -3 85 -9 171 -12 190
l-5 35 11 -33 c14 -41 40 -39 49 5 4 21 2 31 -4 30 -6 -1 -11 7 -12 17 0 27
-22 31 -30 7 -12 -40 -24 -21 -31 50 -5 57 -12 78 -34 103 -31 36 -50 69 -50
88 0 7 17 -7 38 -32 20 -25 58 -68 83 -96z m1672 117 c46 -30 60 -59 65 -136
6 -99 -16 -172 -65 -215 -33 -29 -41 -32 -89 -28 -36 3 -67 14 -96 33 l-42 28
24 16 c80 50 133 137 152 251 7 38 15 70 18 70 3 0 18 -8 33 -19z m-1796 -751
c1 -11 -2 -18 -6 -16 -4 3 -5 -9 -3 -26 3 -22 0 -33 -12 -40 -16 -9 -20 -68
-5 -68 9 0 19 27 19 51 0 10 3 19 8 20 4 0 17 2 30 5 12 2 22 -1 22 -7 0 -5 5
-7 11 -3 8 5 8 9 -1 14 -9 6 -9 9 -1 15 8 4 2 16 -19 36 l-30 29 27 -6 c16 -4
46 -15 68 -25 22 -10 57 -21 77 -24 21 -4 36 -10 34 -14 -2 -3 19 -7 46 -8 28
-1 58 -5 67 -9 9 -4 23 -6 31 -6 8 1 74 -4 145 -12 85 -9 248 -14 475 -14
l345 0 6 -29 c10 -42 8 -164 -2 -193 -7 -21 -8 -19 -5 12 3 23 0 38 -7 41 -9
3 -9 11 -1 33 12 32 4 47 -28 52 -14 2 -16 -3 -13 -32 4 -30 2 -34 -13 -30
-10 4 -13 2 -6 -3 5 -4 15 -30 21 -56 l11 -49 -32 -13 c-39 -17 -178 -27 -381
-29 -171 -1 -251 6 -490 40 -93 13 -192 27 -220 30 -60 7 -104 23 -125 44 -8
9 -11 10 -6 3 6 -10 2 -13 -17 -13 -44 0 -67 42 -67 120 0 78 15 167 31 187
15 17 14 17 16 -7z m-19 -1622 c73 -54 163 -98 282 -136 198 -65 389 -94 469
-73 23 7 45 11 47 9 2 -2 -2 -26 -9 -54 -11 -46 -14 -50 -59 -64 -46 -15 -83
-38 -43 -27 63 17 87 19 83 6 -9 -27 -53 -39 -148 -39 -161 0 -407 69 -574
160 -104 57 -136 89 -136 134 0 20 3 36 7 36 3 0 34 -11 67 -24 74 -30 125
-43 111 -29 -5 6 -47 23 -92 38 -81 27 -83 29 -83 60 0 28 6 45 17 45 2 0 30
-19 61 -42z m143 -394 c51 -20 123 -45 159 -55 90 -26 263 -51 340 -48 63 2
65 1 62 -22 -4 -35 -34 -71 -78 -94 -33 -17 -58 -20 -164 -20 -94 1 -115 -1
-85 -8 62 -13 224 -3 263 17 35 18 40 12 17 -21 -65 -92 -449 -58 -652 58 -86
49 -123 86 -123 121 l0 30 38 -30 c43 -35 156 -97 192 -107 14 -3 -2 8 -35 26
-115 61 -195 122 -195 148 1 42 16 43 71 8 64 -41 125 -72 159 -82 14 -3 -20
18 -74 49 -55 30 -110 65 -123 77 -21 20 -31 67 -18 81 3 3 39 -16 78 -43 40
-26 116 -65 168 -85z m-355 -2190 c58 -17 112 -13 171 12 44 17 50 2 13 -30
-64 -53 -160 -58 -255 -11 -59 28 -94 71 -102 123 l-6 37 62 -57 c46 -43 76
-62 117 -74z m-131 -1048 c69 -29 85 -52 85 -116 0 -43 -5 -64 -21 -84 -31
-39 -89 -33 -89 9 0 20 5 22 43 21 36 -1 42 2 42 19 0 15 -8 21 -29 23 -16 2
-32 0 -37 -5 -5 -5 6 -7 27 -5 26 3 35 1 32 -8 -4 -14 -49 -22 -65 -12 -6 4
-15 30 -21 57 l-10 50 3 -57 c4 -64 0 -71 -25 -56 -14 9 -22 9 -34 -1 -13 -11
-15 -5 -19 46 l-3 58 -2 -70 c-2 -53 -5 -66 -13 -52 -5 9 -15 17 -22 17 -8 0
-7 -3 2 -9 19 -12 5 -30 -19 -24 -23 6 -26 19 -7 27 6 3 0 3 -14 0 -15 -3 -30
-1 -33 5 -11 16 -43 13 -50 -5 -9 -23 1 -34 32 -34 20 0 23 -3 14 -12 -19 -19
-61 6 -69 42 -3 17 -8 28 -11 25 -3 -2 -11 0 -17 5 -18 15 -45 1 -45 -21 0
-14 7 -19 30 -19 33 0 41 -15 11 -23 -29 -7 -47 9 -61 58 -22 77 15 126 123
161 57 19 218 13 272 -10z"/>
<path d="M1556 8320 c4 -18 2 -30 -4 -30 -6 0 -23 -11 -38 -25 -15 -14 -30
-25 -34 -25 -4 0 -11 -7 -14 -15 -9 -24 23 -31 39 -9 8 11 15 14 15 7 0 -24
50 -70 89 -83 23 -7 44 -11 47 -7 3 3 -2 19 -12 36 -18 31 -34 40 -34 21 0
-17 -20 -11 -45 15 -30 29 -32 51 -5 58 21 5 30 -18 10 -25 -7 -2 -5 -11 4
-23 15 -19 17 -18 66 34 28 30 49 59 47 65 -4 11 -30 19 -94 29 l-43 7 6 -30z"/>
<path d="M2150 1886 c0 -48 -4 -65 -15 -70 -8 -3 -15 -12 -15 -21 0 -18 16
-20 23 -2 4 7 6 6 6 -5 1 -9 -6 -23 -14 -32 -17 -17 -20 -36 -5 -36 14 0 13
-167 -1 -172 -9 -3 -9 -10 -1 -23 6 -13 7 -48 1 -100 -11 -110 -11 -147 1
-140 6 3 10 18 10 32 0 21 2 24 15 13 8 -7 15 -20 15 -29 1 -9 14 -50 30 -90
16 -41 28 -76 26 -78 -7 -7 -86 33 -86 45 0 6 -4 12 -10 12 -6 0 -10 -28 -10
-64 0 -81 12 -95 117 -136 61 -24 91 -31 116 -26 29 5 41 1 83 -32 85 -66 143
-94 244 -113 174 -33 301 -21 353 34 25 27 27 36 27 108 0 62 -3 79 -14 79 -8
0 -21 9 -29 20 -8 11 -17 17 -21 12 -4 -4 -19 7 -32 23 -13 17 -24 25 -24 19
0 -6 7 -17 15 -24 15 -13 21 -40 8 -40 -4 0 -23 15 -43 33 -34 31 -34 31 -9 2
27 -31 46 -95 29 -95 -6 0 -10 6 -10 14 0 21 -34 59 -71 79 l-34 18 38 -31
c22 -19 37 -41 37 -54 0 -12 5 -27 11 -33 8 -8 8 -13 0 -17 -6 -4 -16 4 -23
18 -6 14 -14 26 -18 26 -4 0 -28 16 -54 36 -25 21 -49 35 -51 32 -3 -3 7 -13
22 -23 53 -35 68 -54 54 -68 -10 -10 -15 -8 -27 7 -8 11 -14 15 -14 9 0 -22
30 -38 50 -25 30 18 41 -5 14 -32 -20 -20 -83 -21 -120 -1 -16 8 -37 15 -46
15 -21 0 -23 26 -7 85 20 73 102 134 181 135 30 0 44 -8 83 -47 l47 -48 -33
61 c-24 45 -43 65 -71 79 -21 10 -38 22 -38 28 0 5 -7 6 -16 3 -8 -3 -13 -2
-10 3 6 9 -24 21 -55 24 -35 4 -219 178 -219 207 0 10 -6 21 -12 24 -10 5 -10
7 0 12 6 3 10 10 6 15 -3 5 0 9 5 9 18 0 14 201 -5 238 -8 18 -20 32 -25 32
-5 0 -14 10 -19 23 l-9 22 0 -22 c-1 -15 -15 -30 -43 -47 -47 -28 -45 -35 3
-10 36 18 44 14 34 -16 -13 -40 -62 -60 -148 -60 -80 0 -137 19 -167 55 -16
19 -6 32 13 17 23 -19 148 -35 187 -24 32 9 30 10 -35 12 -38 1 -95 9 -125 18
-47 15 -55 21 -58 45 -4 32 -4 32 36 11 17 -8 62 -18 99 -21 59 -5 78 -2 141
23 43 17 72 34 72 43 0 12 -3 11 -18 -2 -55 -50 -184 -65 -279 -33 -48 16 -53
20 -53 47 0 16 1 29 3 29 1 0 20 -9 42 -20 42 -21 152 -27 190 -9 14 6 2 7
-35 3 -58 -6 -111 3 -172 30 l-38 16 0 -64z"/>
</g>
</svg>
