<?xml version="1.0" standalone="no"?>
<!DOCTYPE svg PUBLIC "-//W3C//DTD SVG 20010904//EN"
 "http://www.w3.org/TR/2001/REC-SVG-20010904/DTD/svg10.dtd">
<svg version="1.0" xmlns="http://www.w3.org/2000/svg"
 width="400.000000pt" height="600.000000pt" viewBox="0 0 400.000000 600.000000"
 preserveAspectRatio="xMidYMid meet">
<metadata>
Created by potrace 1.16, written by Peter Selinger 2001-2019
</metadata>
<g transform="translate(0.000000,600.000000) scale(0.089686,-0.067950)"
fill="#000000" stroke="none">
<path d="M1854 8723 c4 -16 9 -36 13 -47 4 -15 -2 -13 -33 11 -32 25 -100 53
-128 53 -19 0 0 -22 43 -49 27 -18 57 -43 66 -57 16 -25 16 -26 -6 -19 -51 16
-139 7 -184 -19 -43 -25 -105 -93 -105 -115 0 -6 -14 -11 -32 -11 -25 0 -42
-11 -80 -50 -26 -27 -48 -59 -48 -70 0 -11 -9 -34 -20 -52 -28 -46 -10 -105
53 -178 48 -56 100 -82 143 -74 l37 7 -7 -145 c-6 -132 -5 -149 14 -197 11
-29 17 -57 14 -63 -4 -7 -2 -8 4 -4 7 4 12 3 12 -3 0 -5 -6 -12 -12 -14 -9 -4
-8 -6 2 -7 8 -1 -27 -14 -78 -30 -98 -31 -192 -74 -204 -93 -13 -21 -8 -109
11 -202 11 -49 17 -93 14 -97 -2 -5 2 -8 9 -8 9 0 9 -3 -2 -10 -10 -6 -11 -10
-2 -10 6 0 12 -9 12 -19 0 -11 -6 -22 -12 -24 -8 -3 -6 -6 5 -6 20 -1 22 -14
4 -33 -80 -82 -151 -243 -222 -503 -36 -132 -42 -146 -100 -250 -41 -73 -74
-113 -186 -225 -75 -74 -175 -182 -223 -240 -78 -94 -231 -312 -267 -382 -8
-15 -36 -65 -62 -113 -107 -190 -194 -388 -254 -577 -32 -103 -33 -109 -18
-139 9 -16 43 -57 75 -90 81 -83 100 -114 190 -299 36 -73 86 -131 145 -165
75 -45 123 -43 325 10 81 21 180 33 180 21 0 -1 -12 -25 -26 -52 -342 -640
-523 -1165 -678 -1964 -39 -200 -38 -206 31 -270 72 -66 191 -144 310 -205
l92 -47 8 -57 c14 -96 10 -468 -6 -541 -16 -73 -76 -202 -124 -268 -38 -51
-143 -159 -182 -186 -15 -10 -34 -31 -44 -47 -10 -16 -33 -39 -52 -52 -27 -18
-36 -32 -43 -68 -14 -75 -4 -97 62 -127 50 -23 73 -27 179 -30 114 -4 126 -2
178 22 72 33 137 86 172 142 l28 44 52 -6 c47 -6 55 -4 97 26 51 37 51 38 70
134 25 125 27 168 12 256 -21 118 -30 307 -21 432 l7 106 83 -39 c109 -51 115
-51 115 8 0 26 10 102 22 170 25 144 16 138 149 97 197 -60 278 -75 414 -76
211 -2 377 47 570 165 183 113 308 167 384 167 l48 0 42 -83 c170 -328 225
-445 312 -655 8 -20 12 -21 31 -11 27 14 201 126 272 174 l49 33 24 -51 c36
-77 78 -191 107 -292 31 -107 76 -340 76 -393 0 -34 6 -93 31 -282 6 -47 17
-85 30 -103 11 -15 27 -49 34 -75 19 -64 58 -99 131 -118 103 -27 279 -6 341
41 26 21 33 33 33 61 0 55 -47 187 -120 339 -94 193 -148 342 -199 547 -35
142 -81 393 -81 446 -1 21 -7 66 -14 101 -14 63 -14 66 9 95 36 48 51 86 64
156 18 101 26 113 87 143 30 15 59 27 64 27 22 0 237 110 255 130 17 19 20 36
19 124 0 151 -36 300 -128 536 -53 138 -169 368 -254 505 -17 28 -39 64 -48
80 -33 58 -228 350 -276 413 -26 35 -48 67 -48 71 0 4 -16 25 -35 47 -19 21
-92 109 -163 195 -100 120 -131 164 -136 195 -39 210 -251 866 -345 1066 -17
35 -32 75 -33 88 -3 26 21 46 147 122 39 23 84 53 100 66 35 28 85 108 85 138
0 11 16 65 35 119 22 62 36 121 37 158 2 58 1 61 -37 94 -21 18 -55 38 -76 44
-35 11 -59 40 -59 72 0 26 -52 88 -91 107 -38 20 -39 22 -24 43 25 35 19 92
-11 116 -15 12 -35 21 -44 21 -13 0 -19 12 -25 48 -8 56 -43 136 -89 207 -37
55 -138 155 -157 155 -8 0 -8 4 1 15 7 9 10 18 6 22 -3 3 -6 1 -6 -5 0 -7 -5
-12 -11 -12 -6 0 -9 7 -6 15 4 8 2 17 -3 20 -7 4 -6 13 0 25 7 13 7 21 0 25
-10 6 -14 -20 -11 -57 2 -12 -3 -16 -13 -12 -21 8 -22 3 15 75 6 12 12 37 14
56 2 20 8 40 14 46 6 6 11 16 11 21 0 6 -5 4 -11 -4 -8 -12 -9 -9 -4 10 15 54
45 286 40 307 -11 45 -196 143 -271 143 -30 0 -31 11 -2 149 18 84 22 140 23
271 0 154 -2 170 -26 235 -55 147 -134 236 -268 302 -75 38 -77 38 -197 38
l-121 0 -18 45 c-29 74 -85 123 -71 63z m-184 -387 c0 -16 2 -18 9 -7 28 43
63 -75 41 -134 -12 -33 -54 -81 -85 -97 -17 -10 -18 -9 -7 4 34 42 67 198 42
198 -5 0 -10 6 -10 13 0 6 -10 23 -21 37 -15 19 -13 12 8 -32 25 -54 26 -61
15 -105 -25 -97 -102 -166 -167 -149 -21 6 -119 86 -112 92 2 2 21 -5 43 -15
84 -40 101 -33 166 68 29 47 34 84 19 139 -6 20 -6 30 0 27 5 -4 9 -1 9 5 0 6
10 4 25 -6 14 -9 25 -26 25 -38z m-281 -18 c-5 -18 -8 -49 -8 -68 1 -26 3 -28
6 -10 13 86 14 88 41 97 15 5 50 10 77 10 28 1 39 -1 25 -4 -36 -7 -48 -20
-62 -64 -15 -52 -36 -51 -28 1 1 8 8 22 16 31 18 20 18 35 0 19 -8 -6 -20 -27
-26 -46 -10 -29 -9 -41 10 -78 11 -25 28 -50 37 -58 14 -11 16 -11 8 2 -4 8
-17 28 -28 43 l-19 28 37 -26 c21 -14 47 -25 58 -25 19 0 20 -1 2 -20 -22 -24
-53 -25 -100 -3 -26 12 -35 23 -36 42 -1 18 -3 21 -6 8 -7 -27 -26 -15 -42 26
-13 34 -12 39 13 82 15 25 29 45 31 45 2 0 -1 -15 -6 -32z m621 -339 c30 -58
105 -155 136 -175 13 -9 24 -19 24 -23 0 -3 -17 -14 -38 -23 l-37 -18 33 5 33
5 -20 -26 c-28 -36 -26 -48 5 -40 20 5 30 2 41 -14 20 -28 77 -27 97 1 8 11
22 19 32 17 15 -3 18 -12 15 -53 -3 -60 -28 -175 -48 -222 -18 -45 1 -33 27
15 10 20 19 30 20 22 0 -26 -37 -78 -107 -145 -37 -36 -70 -65 -74 -65 -4 0
-10 14 -14 30 -4 17 -11 30 -16 30 -15 0 -11 -67 5 -73 8 -3 16 -29 20 -64 12
-104 45 -223 72 -258 29 -38 58 -167 69 -305 l7 -85 81 -61 c45 -34 114 -82
154 -107 l71 -46 7 -76 c9 -97 -5 -235 -24 -235 -14 0 -292 233 -370 309 -43
42 -92 101 -109 131 -17 30 -51 72 -76 93 -51 42 -66 82 -59 149 3 25 0 68 -6
96 -9 44 -8 57 9 94 12 26 20 65 20 99 0 96 54 105 67 12 4 -32 -1 -50 -27
-97 l-33 -57 18 -39 c10 -21 35 -53 56 -70 22 -17 39 -37 39 -44 0 -7 -11 -35
-25 -62 -29 -57 -30 -60 -11 -44 8 6 22 31 31 55 22 56 47 63 81 22 l25 -32
-15 32 c-9 17 -20 35 -26 38 -10 6 -14 45 -5 45 3 0 18 -7 33 -16 26 -15 26
-15 -3 10 -16 14 -36 26 -42 26 -7 0 -13 7 -13 15 0 11 7 14 28 10 15 -3 20
-2 12 1 -8 4 -27 15 -42 25 -34 24 -46 24 -24 0 16 -18 16 -20 -6 -35 l-22
-16 22 0 c14 0 27 -9 34 -25 16 -36 2 -43 -23 -12 -11 15 -28 27 -38 27 -48 0
-54 56 -12 123 17 25 24 44 17 41 -7 -3 -25 -26 -38 -51 -14 -25 -28 -41 -32
-35 -7 11 37 98 66 129 22 23 22 23 78 -14 18 -11 17 -9 -5 10 -16 15 -33 26
-37 27 -16 0 -50 191 -46 256 4 65 4 66 -11 35 -13 -27 -20 -31 -53 -31 -34 0
-49 10 -128 81 -50 44 -96 92 -104 107 -14 28 -29 235 -19 271 6 24 23 28 23
6 0 -8 9 -19 19 -25 33 -17 35 -11 7 15 -15 14 -24 30 -21 35 12 19 30 10 43
-20 15 -33 42 -39 63 -14 7 8 21 13 31 11 23 -6 25 25 3 43 -18 15 -20 -1 -2
-19 8 -8 1 -7 -24 3 -29 12 -57 18 -131 25 -5 1 -8 12 -8 26 0 19 5 25 23 26
12 0 16 3 9 6 -8 3 6 25 39 61 27 32 69 95 92 142 l42 85 11 -31 c7 -16 22
-50 34 -75z m-16 -2257 c83 -37 174 -140 207 -235 11 -31 17 -37 37 -35 14 2
27 -2 29 -8 2 -7 -11 -13 -32 -16 -36 -4 -36 -4 -77 74 -69 133 -182 218 -290
218 -19 0 -28 5 -28 16 0 14 8 16 54 11 30 -3 75 -14 100 -25z m-194 -4 c0 -7
-13 -20 -29 -30 -42 -23 -89 -92 -108 -157 -28 -98 1 -239 67 -327 35 -47 41
-77 9 -48 -38 35 -62 76 -90 158 -16 44 -31 80 -34 80 -3 -1 -19 -4 -35 -7
-45 -9 -104 -70 -134 -137 l-27 -60 -53 0 c-38 0 -62 -6 -86 -22 -39 -27 -40
-40 -4 -50 60 -16 95 -70 142 -219 16 -52 37 -109 46 -126 20 -41 62 -73 94
-73 24 0 24 1 17 55 -8 67 8 152 38 197 22 33 96 78 129 78 31 0 19 -18 -25
-38 -100 -44 -140 -152 -102 -280 19 -62 62 -108 116 -122 51 -14 53 -35 2
-25 -48 8 -111 49 -125 80 -9 19 -19 25 -45 25 -81 0 -115 42 -163 200 -18 58
-41 122 -52 142 -20 42 -76 83 -125 93 -18 4 -33 10 -33 14 0 12 64 68 97 85
18 9 52 16 76 16 42 0 44 1 57 41 21 63 91 134 150 154 44 15 50 20 50 45 0
15 9 58 21 95 17 55 31 78 74 122 52 51 85 67 85 41z m598 -550 c-3 -62 -11
-98 -30 -140 -34 -74 -107 -152 -164 -175 -39 -16 -49 -26 -74 -79 -53 -109
-177 -200 -284 -207 -53 -3 -44 16 14 28 115 23 201 92 252 200 22 49 36 66
58 74 52 18 117 69 148 116 34 52 62 157 62 236 0 39 3 50 11 42 8 -8 10 -41
7 -95z m826 -556 c-36 -101 15 -284 85 -307 29 -9 35 -35 9 -35 -29 0 -104 80
-113 120 -16 72 -68 35 -101 -72 -19 -64 -37 -82 -94 -93 -61 -12 -118 -45
-149 -87 -17 -23 -28 -44 -26 -48 3 -4 22 -10 43 -13 50 -9 123 -58 157 -107
15 -21 52 -84 83 -140 52 -93 100 -145 117 -128 4 4 2 31 -5 62 -19 91 17 221
66 240 30 11 34 -6 10 -35 -72 -85 -53 -283 37 -401 38 -50 106 -88 157 -88
49 0 131 25 163 50 l26 20 -43 45 c-64 66 -89 124 -94 221 -4 89 9 134 33 114
10 -9 11 -18 3 -42 -25 -71 10 -193 78 -267 51 -57 85 -73 147 -69 57 3 75
-14 32 -34 -19 -9 -39 -9 -77 -1 -48 10 -53 8 -105 -23 -147 -89 -278 -58
-365 86 -32 53 -46 67 -78 78 -51 17 -95 68 -155 177 -80 147 -160 215 -253
215 -23 0 -42 3 -42 6 0 10 41 76 68 109 37 46 99 83 150 91 61 9 68 15 87 82
22 75 50 119 82 129 25 9 27 13 24 61 -3 57 33 158 48 134 5 -8 2 -30 -5 -50z
m-2166 -412 c22 -32 23 -43 19 -120 -2 -47 -12 -105 -21 -130 -30 -78 -30 -79
-4 -91 48 -21 63 -64 62 -174 -1 -79 -6 -117 -27 -180 -64 -194 -187 -330
-318 -351 -34 -6 -54 -18 -93 -59 -50 -50 -68 -59 -168 -80 -23 -4 -28 -2 -28
15 0 16 7 20 32 20 47 0 113 36 155 84 30 34 47 44 81 50 174 27 333 265 336
501 1 71 -3 97 -16 117 -29 43 -53 44 -91 4 -57 -60 -117 -72 -163 -33 -18 16
-25 29 -21 41 6 15 8 15 27 -4 44 -44 116 -17 165 60 76 120 87 318 20 343
-23 10 -18 29 7 25 12 -2 33 -19 46 -38z m-3 -3571 c-19 -113 -30 -136 -77
-166 l-38 -23 0 56 0 57 -32 -25 c-18 -14 -54 -56 -81 -94 -94 -137 -182 -194
-311 -202 -79 -4 -204 18 -243 43 -27 18 -47 61 -38 84 6 14 7 14 15 0 16 -28
108 -60 189 -66 l76 -6 -25 21 c-14 11 -26 16 -28 11 -5 -13 -23 -11 -54 5
-16 8 -28 10 -30 5 -5 -16 -39 2 -48 25 -8 18 -9 19 -9 3 -1 -25 -23 -17 -38
14 -7 13 -13 18 -13 11 0 -7 -5 -10 -10 -7 -13 8 -13 45 -1 45 6 0 31 19 57
41 48 41 48 41 113 36 77 -5 124 -24 116 -45 -4 -12 -2 -12 8 -4 17 15 38 0
66 -47 l20 -35 -37 -33 c-33 -30 -34 -33 -12 -27 63 16 161 97 236 196 26 33
68 71 102 92 60 36 102 75 122 114 20 41 22 17 5 -79z m3153 -315 c69 -22 109
-59 115 -106 5 -33 3 -38 -14 -38 -10 0 -18 3 -16 8 1 4 -2 8 -8 10 -5 1 -10
-6 -10 -15 0 -14 8 -18 35 -18 31 0 35 -3 38 -29 8 -71 -98 -111 -278 -104
-90 4 -116 8 -138 24 -32 24 -72 98 -72 133 0 23 1 22 23 -10 12 -19 43 -45
67 -59 40 -22 57 -24 155 -25 83 0 122 4 158 18 26 10 44 23 41 29 -4 6 -10 6
-17 -1 -6 -6 -21 -11 -34 -11 -27 0 -31 30 -7 54 14 15 14 16 0 16 -9 0 -16
-5 -16 -11 0 -5 -4 -7 -10 -4 -5 3 -10 19 -10 34 0 17 -10 36 -27 52 l-28 24
23 -26 c12 -14 22 -35 22 -46 0 -15 -7 -23 -22 -25 -36 -5 -28 -33 10 -36 20
-2 32 -8 29 -15 -5 -16 -55 -21 -71 -8 -9 7 -16 7 -23 0 -23 -23 -56 -5 -72
39 -8 23 -19 42 -24 42 -5 0 -7 -7 -3 -15 3 -8 0 -15 -7 -16 -7 0 -2 -4 11 -9
27 -11 29 -36 3 -50 -49 -26 -91 2 -91 62 0 21 -5 38 -11 38 -5 0 -7 -4 -4
-10 3 -5 2 -10 -3 -10 -15 0 -22 28 -13 53 11 27 38 53 71 66 40 16 172 13
228 -5z"/>
</g>
</svg>
