<?xml version="1.0" standalone="no"?>
<!DOCTYPE svg PUBLIC "-//W3C//DTD SVG 20010904//EN"
 "http://www.w3.org/TR/2001/REC-SVG-20010904/DTD/svg10.dtd">
<svg version="1.0" xmlns="http://www.w3.org/2000/svg"
 width="400.000000pt" height="600.000000pt" viewBox="0 0 400.000000 600.000000"
 preserveAspectRatio="xMidYMid meet">
<metadata>
Created by potrace 1.16, written by Peter Selinger 2001-2019
</metadata>
<g transform="translate(0.000000,600.000000) scale(0.050826,-0.059113)"
fill="#000000" stroke="none">
<path d="M4700 10131 c-24 -18 -127 -85 -306 -199 -45 -29 -83 -52 -87 -52 -3
0 -11 47 -17 105 -8 63 -17 105 -24 105 -6 -1 -74 -86 -150 -190 -108 -147
-143 -187 -158 -185 -11 2 -100 47 -199 100 -171 90 -199 103 -199 89 0 -10
109 -183 167 -266 52 -74 59 -98 28 -98 -34 0 -393 -159 -432 -192 -24 -19 -3
-25 109 -32 62 -4 141 -9 175 -12 l63 -6 -28 -21 c-134 -103 -410 -373 -395
-388 10 -10 79 6 218 51 50 15 108 32 129 36 l39 7 -44 -59 c-25 -32 -63 -90
-86 -129 -34 -59 -57 -103 -133 -255 -8 -17 -60 -27 -60 -11 0 21 -144 5 -412
-45 -47 -9 -91 -13 -97 -9 -6 3 -62 -1 -124 -9 -61 -8 -172 -23 -246 -31 -73
-9 -144 -20 -156 -25 -24 -9 -75 -65 -76 -83 0 -7 -8 -74 -18 -151 -21 -165
-15 -213 31 -239 28 -16 34 -16 131 8 56 13 131 29 165 35 35 6 76 16 90 21
22 9 30 7 43 -10 24 -29 71 -27 181 9 51 16 93 28 95 26 1 -1 -48 -38 -110
-81 -165 -116 -200 -145 -332 -275 -99 -97 -149 -153 -245 -278 -3 -4 -36 -23
-75 -42 -149 -73 -348 -274 -424 -425 -14 -29 -38 -54 -67 -72 -96 -59 -194
-148 -265 -238 -28 -36 -54 -65 -59 -65 -4 0 -31 -30 -58 -67 -57 -77 -168
-189 -203 -207 -30 -14 -35 -45 -15 -84 17 -33 16 -34 -51 -88 -29 -22 -33
-32 -33 -73 0 -54 -7 -63 -144 -181 -49 -42 -86 -82 -86 -92 0 -10 14 -52 31
-92 l31 -74 -32 -47 c-76 -111 -214 -453 -251 -621 -34 -161 -53 -415 -40
-554 14 -150 57 -356 96 -465 34 -95 161 -363 223 -471 80 -138 244 -349 315
-406 19 -14 63 -48 100 -76 65 -48 66 -49 50 -72 -22 -32 -43 -123 -43 -192 0
-48 -4 -59 -25 -76 -28 -22 -77 -122 -97 -194 -9 -38 -9 -57 0 -96 15 -56 13
-63 -73 -222 -31 -58 -110 -220 -175 -360 l-118 -255 -38 -6 c-26 -4 -46 -17
-65 -40 -16 -19 -29 -37 -29 -41 0 -4 -23 -44 -50 -89 -28 -45 -50 -92 -50
-103 0 -12 -18 -43 -41 -71 -75 -93 -166 -229 -243 -363 -42 -74 -76 -138 -76
-143 0 -5 -15 -16 -33 -25 -43 -21 -59 -47 -62 -104 -1 -25 -8 -57 -15 -71
-20 -37 -32 -96 -37 -184 -4 -72 -2 -84 18 -108 33 -43 89 -74 192 -107 80
-26 110 -30 201 -30 98 0 110 2 145 26 46 30 67 74 87 184 24 124 28 194 13
221 -18 34 -13 65 25 134 18 33 38 76 46 95 13 34 39 79 121 203 21 33 43 76
49 98 6 21 14 39 19 39 10 0 61 74 79 115 7 17 26 44 41 60 16 17 34 52 40 78
12 48 77 143 173 251 24 26 57 67 73 90 71 100 169 206 189 206 12 0 64 14
116 31 204 66 211 71 274 162 30 43 39 69 46 120 l8 65 123 142 c68 78 147
167 175 198 l51 55 101 -11 c163 -19 429 16 687 90 168 48 286 100 420 183 55
34 110 68 123 74 37 19 198 157 286 245 113 112 221 257 319 431 52 91 41 98
96 -60 17 -47 31 -98 31 -111 0 -16 13 -38 36 -60 46 -43 93 -47 121 -9 26 36
373 293 406 300 19 5 27 13 27 29 0 12 9 30 21 40 16 13 20 25 15 48 -5 24 18
213 40 324 4 25 62 39 196 49 l87 7 -20 -38 c-10 -21 -19 -43 -19 -50 0 -6
-23 -23 -50 -38 -65 -35 -90 -82 -79 -145 5 -24 15 -54 24 -67 21 -33 19 -47
-20 -165 -61 -179 -108 -289 -123 -289 -38 0 -112 -88 -112 -134 0 -8 -8 -21
-18 -28 -24 -17 -42 -51 -42 -78 0 -13 -30 -54 -76 -103 -89 -96 -119 -152
-109 -205 3 -19 24 -76 46 -126 48 -109 57 -140 105 -366 54 -257 83 -325 169
-402 60 -54 98 -68 180 -68 89 0 147 23 209 84 67 65 92 125 82 199 -4 28 -11
79 -15 113 -5 48 -13 68 -41 101 -28 34 -34 48 -32 80 3 41 -20 117 -43 143
-14 16 -36 120 -50 243 l-7 58 51 54 c48 50 51 57 51 105 0 48 4 56 53 113 30
34 63 78 75 98 12 19 50 60 84 90 l62 54 92 0 c107 0 127 10 181 91 57 86 75
105 142 149 36 24 75 56 86 73 10 17 31 36 44 42 46 21 56 48 56 145 0 113 10
133 142 279 127 141 156 180 232 303 67 111 91 170 111 276 22 118 3 223 -68
379 -23 50 -38 71 -64 84 -50 26 -218 70 -453 119 -79 16 -327 35 -456 35
l-85 0 -57 66 c-31 36 -57 71 -57 77 0 7 17 66 37 131 26 81 42 120 54 123 21
6 44 47 34 63 -4 6 1 27 11 46 15 27 16 38 7 52 -9 15 -1 50 42 183 49 150 71
221 136 441 l22 76 86 -87 c47 -48 109 -100 136 -116 28 -16 88 -58 135 -94
166 -130 226 -171 300 -207 41 -20 90 -50 108 -67 45 -43 98 -44 141 -3 17 16
33 38 37 48 7 23 20 23 69 -2 50 -25 90 -25 115 0 28 28 42 25 90 -15 23 -19
46 -35 51 -35 16 0 102 -43 179 -89 59 -36 86 -46 131 -49 48 -4 62 0 88 19
17 12 31 31 31 41 0 13 8 18 25 18 15 0 39 7 55 15 23 12 31 25 40 69 10 50
13 54 44 60 48 9 84 41 98 88 6 22 25 53 40 69 l29 28 -3 143 -3 143 -75 6
c-41 3 -83 4 -92 1 -20 -5 -23 -33 -8 -63 10 -17 8 -18 -15 -9 -40 15 -63 12
-75 -10 -9 -16 -7 -27 11 -51 19 -27 20 -30 3 -20 -11 5 -39 13 -64 16 -25 3
-56 14 -69 24 -24 18 -24 20 -8 44 9 14 30 27 49 31 66 13 113 73 102 131 -5
30 -10 35 -34 35 -15 0 -47 -7 -70 -15 -23 -8 -67 -15 -98 -15 -41 0 -66 -6
-99 -25 -23 -14 -43 -30 -43 -35 0 -4 -16 -14 -36 -20 -48 -16 -114 -80 -114
-111 0 -47 -14 -51 -48 -13 -28 31 -37 35 -74 33 -58 -3 -88 8 -88 32 0 58
-62 109 -133 109 -56 0 -125 46 -227 151 -62 64 -113 108 -147 124 -51 26
-164 135 -249 242 -21 26 -59 73 -85 103 l-46 55 18 70 c10 39 23 88 28 110 5
22 22 92 39 155 16 63 33 127 36 143 5 21 12 27 31 27 18 0 28 8 35 26 12 31
12 143 0 204 -5 27 -5 77 1 125 17 138 61 369 74 390 8 13 9 28 4 42 -5 13 -4
25 2 29 6 3 7 23 4 47 -3 23 1 112 10 197 9 85 20 236 25 335 22 479 32 599
52 624 27 35 24 85 -7 105 -40 26 -71 20 -110 -22 -34 -39 -94 -116 -369 -477
-80 -104 -185 -242 -233 -305 -48 -63 -95 -125 -103 -136 -39 -56 -174 -229
-180 -232 -6 -2 -249 351 -293 425 -5 9 15 4 60 -13 123 -47 244 -86 250 -81
8 8 -12 31 -234 278 -109 121 -199 224 -201 228 -1 4 57 67 130 139 73 72 130
134 126 137 -7 8 -178 -17 -352 -51 -71 -13 -162 -27 -204 -31 l-75 -6 81 156
c45 86 82 161 82 167 0 16 -33 11 -60 -9z m1565 -369 c0 -21 -87 -123 -100
-118 -8 3 -11 -2 -8 -12 4 -19 -75 -132 -93 -132 -6 0 -11 -6 -10 -12 1 -17
-96 -147 -110 -148 -6 0 -11 -6 -11 -13 0 -7 -19 -39 -43 -71 l-43 -57 -31 28
c-28 25 -29 26 -8 2 12 -14 22 -32 22 -40 0 -8 -21 -40 -46 -72 -46 -57 -47
-58 -68 -40 l-21 18 19 -22 c19 -23 19 -23 -35 -93 l-53 -70 -25 23 -26 22 23
-26 23 -26 -52 -69 c-29 -38 -54 -71 -56 -73 -2 -3 -15 6 -31 20 l-27 24 24
-27 24 -27 -24 -36 c-13 -19 -27 -35 -31 -35 -4 0 -18 16 -32 37 l-25 36 20
29 c11 15 25 25 31 22 6 -4 8 -2 5 3 -9 14 96 149 112 145 7 -1 10 2 6 8 -3 6
15 40 42 76 35 48 52 64 66 60 15 -3 16 -2 7 9 -10 11 1 30 49 92 33 43 79
102 101 131 29 37 47 52 57 48 12 -5 13 -3 5 7 -8 10 1 28 39 77 27 36 57 71
66 78 9 6 13 12 9 12 -8 0 79 116 94 125 5 3 20 1 32 -5 l23 -11 -22 18 -23
18 46 58 45 58 32 -18 c18 -11 32 -24 32 -31z m32 -159 c-4 -87 -14 -232 -22
-323 -9 -91 -22 -244 -30 -340 -14 -177 -20 -210 -36 -210 -5 0 -9 -15 -9 -34
0 -19 -4 -46 -10 -60 -6 -18 -6 -34 2 -51 8 -19 8 -38 0 -77 -7 -29 -19 -95
-28 -147 -13 -74 -19 -91 -28 -80 -6 8 -36 26 -66 39 -53 23 -64 24 -291 24
-178 1 -240 -2 -251 -12 -13 -10 -24 -10 -59 4 -24 9 -69 19 -99 21 -31 3 -65
12 -77 21 l-21 17 64 84 c35 46 66 86 69 89 3 3 23 -9 44 -26 22 -18 45 -32
50 -32 16 0 13 21 -6 44 -17 20 -17 20 0 7 31 -24 32 -1 3 54 l-29 53 209 277
c115 152 285 376 378 498 92 122 184 243 204 270 20 26 38 47 41 47 2 0 1 -71
-2 -157z m-2039 -650 c-2 -51 -6 -95 -9 -98 -6 -5 -89 28 -102 41 -7 7 5 29
72 134 42 65 45 59 39 -77z m408 -168 c-4 -11 1 -15 19 -15 23 0 25 -4 27 -57
6 -180 -9 -254 -71 -350 -66 -101 -215 -233 -265 -233 -12 0 -49 16 -81 36
-134 80 -230 180 -296 308 l-34 65 30 88 30 88 38 3 c37 3 37 4 17 20 -20 16
-18 17 55 14 77 -4 77 -4 58 -24 -18 -21 -18 -21 11 -14 l29 7 -7 -63 c-4 -35
-10 -75 -13 -90 -9 -46 11 -31 36 27 32 76 51 89 44 33 l-5 -43 57 90 c31 50
59 92 60 93 2 2 19 -1 37 -6 18 -6 53 -13 78 -17 l45 -5 -25 17 -24 18 74 11
c41 6 77 12 79 13 2 0 1 -6 -3 -14z m1258 -920 c76 -8 141 -17 144 -19 3 -3
-2 -29 -11 -58 -9 -29 -28 -105 -42 -168 -14 -63 -31 -136 -38 -161 l-12 -46
-44 38 c-32 29 -52 39 -76 39 -31 0 -34 3 -40 43 -8 44 -85 234 -110 271 -22
30 -19 36 18 36 21 0 41 8 52 20 10 11 19 20 19 20 1 0 63 -7 140 -15z m-2914
-665 c0 -78 -1 -83 -39 -133 -21 -29 -41 -64 -45 -78 -3 -14 -12 -113 -21
-220 -23 -295 -19 -618 10 -772 l7 -37 -43 0 c-66 0 -238 -28 -286 -46 -34
-12 -59 -36 -131 -127 -159 -200 -239 -315 -315 -450 -10 -18 -15 -42 -12 -55
4 -17 -24 -70 -119 -220 -121 -192 -176 -285 -215 -367 -12 -25 -20 -33 -20
-21 -1 10 -17 34 -36 53 -33 33 -39 35 -80 29 -99 -13 -145 -64 -145 -160 0
-70 35 -144 82 -177 18 -12 35 -24 37 -25 2 -2 -20 -40 -49 -84 -58 -92 -80
-138 -80 -174 l0 -24 206 -7 c146 -5 207 -11 210 -20 10 -26 -200 -532 -321
-776 -61 -121 -102 -190 -139 -231 -28 -31 -56 -58 -63 -58 -22 0 -250 236
-329 342 -218 293 -344 557 -405 848 -18 86 -22 139 -22 290 0 202 10 285 65
495 54 209 155 442 181 416 24 -24 182 3 289 50 36 16 94 33 127 37 64 9 101
32 101 63 0 15 -18 32 -58 54 -1 1 5 19 14 41 9 22 16 64 16 95 -1 49 2 58 22
67 32 14 62 80 47 104 -6 10 -11 20 -11 23 0 3 28 5 63 5 73 0 88 11 131 97
39 79 119 154 208 197 100 48 192 70 428 102 169 23 215 25 343 20 l149 -7 -8
23 c-47 147 -56 199 -61 338 -6 159 4 247 40 362 l23 73 119 62 c66 34 123 63
128 63 4 0 7 -36 7 -80z m2329 -109 c71 -46 147 -103 236 -176 39 -31 89 -68
111 -81 33 -19 47 -37 64 -79 25 -61 24 -72 -20 -210 -15 -49 -47 -153 -70
-230 -98 -321 -115 -370 -132 -383 -11 -8 -18 -26 -18 -47 0 -19 -4 -37 -10
-40 -5 -3 -10 -25 -10 -48 0 -42 -59 -220 -71 -215 -3 2 -64 66 -133 143 -120
132 -147 156 -188 169 -15 5 -15 12 7 94 13 49 37 116 53 148 34 67 75 199 91
290 24 134 7 395 -33 510 -11 32 -10 51 1 114 8 41 16 81 18 88 5 15 17 10
104 -47z m-2774 -303 c0 -106 3 -216 7 -244 l7 -51 -157 -5 c-142 -5 -285 -25
-409 -58 -18 -4 -33 -5 -33 -2 0 4 19 27 43 52 23 25 54 61 69 80 14 19 39 49
55 65 55 60 120 140 142 178 13 21 39 46 60 56 20 11 74 42 121 70 47 28 87
51 90 51 3 0 5 -87 5 -192z m2381 -2706 c-2 -4 -12 -61 -21 -127 -13 -95 -21
-126 -41 -152 -13 -17 -24 -38 -24 -46 0 -8 -6 -17 -14 -20 -8 -3 -17 -20 -21
-37 -4 -17 -18 -38 -33 -47 -15 -10 -47 -35 -72 -58 -25 -22 -80 -67 -122 -99
-66 -50 -81 -57 -114 -54 l-38 3 -28 95 c-44 154 -44 140 2 140 47 0 98 19
121 46 22 25 42 122 64 306 l6 47 127 4 c70 1 146 4 170 5 24 1 41 -1 38 -6z
m-1451 -208 c31 -47 104 -67 419 -113 115 -17 213 -31 218 -31 12 0 -15 -62
-59 -134 -123 -202 -336 -434 -493 -538 -165 -108 -468 -245 -635 -287 -103
-26 -275 -49 -422 -58 l-116 -6 99 119 c55 65 232 286 394 489 161 204 307
385 324 403 29 32 234 182 247 182 4 0 14 -12 24 -26z m1802 -360 c15 -4 37
-15 48 -25 29 -26 103 -57 191 -79 43 -11 80 -22 82 -25 3 -3 -22 -33 -56 -67
-34 -33 -62 -65 -62 -69 0 -4 -16 -24 -35 -45 -19 -20 -35 -40 -35 -43 0 -4
-36 -42 -80 -85 -65 -64 -86 -79 -118 -83 -85 -11 -193 86 -216 193 -7 32 28
134 46 134 5 0 7 4 3 9 -6 10 45 124 58 129 4 2 7 13 7 25 1 12 7 36 14 52
l13 30 17 -51 c30 -91 113 -187 190 -219 44 -19 47 -11 4 11 -47 24 -127 103
-150 148 -21 41 -48 122 -48 145 0 7 22 -7 49 -32 27 -26 62 -49 78 -53z
m-428 -536 c0 -40 -3 -91 -7 -113 -7 -40 -8 -40 -51 -40 -41 0 -45 2 -53 30
-14 49 0 90 48 144 25 28 50 51 55 51 5 0 9 -33 8 -72z m396 -190 c3 -24 13
-89 22 -146 l17 -102 -69 -135 -69 -134 -36 37 c-19 21 -54 46 -77 56 l-43 19
0 56 c0 51 -7 106 -25 218 l-7 42 43 11 c80 20 124 40 174 80 28 21 53 39 57
39 3 1 9 -18 13 -41z m122 -450 c26 -29 53 -82 53 -104 0 -10 -13 3 -31 30
-17 26 -34 45 -36 42 -3 -3 4 -17 16 -32 17 -22 38 -77 45 -119 1 -5 5 -16 9
-22 10 -16 -9 -53 -27 -53 -18 0 -26 22 -26 68 0 35 -45 121 -57 109 -3 -3 6
-19 18 -36 17 -23 25 -52 30 -107 8 -86 5 -104 -21 -104 -22 0 -33 32 -30 83
1 26 -8 56 -29 97 -17 32 -31 63 -31 68 0 16 71 102 84 102 7 0 22 -10 33 -22z
m-4185 -210 c26 -54 43 -98 38 -98 -6 0 -34 21 -61 47 -50 47 -51 47 -30 13
11 -20 41 -49 67 -65 26 -17 62 -53 84 -85 36 -54 97 -110 119 -110 5 0 13 -5
17 -11 16 -26 -122 -3 -193 32 -37 18 -72 35 -78 38 -5 2 -4 -4 4 -13 39 -47
188 -93 257 -80 l38 7 -21 -26 c-82 -105 -102 -117 -196 -118 -52 0 -58 -2
-37 -10 14 -6 46 -8 73 -5 26 3 47 3 47 -1 0 -3 -14 -23 -32 -45 -34 -43 -80
-68 -125 -68 -15 0 -35 -5 -43 -11 -11 -8 1 -9 43 -5 l59 6 -37 -45 c-29 -35
-44 -45 -69 -46 -17 -1 -42 -5 -56 -9 -21 -7 -17 -8 22 -9 l46 -1 -41 -65 -42
-65 -54 6 c-37 4 -51 2 -47 -5 4 -6 19 -11 34 -11 15 0 33 -4 41 -9 48 -31
-158 -47 -216 -18 -32 17 -103 96 -103 115 0 12 58 135 80 169 11 18 17 20 29
10 12 -10 12 -9 1 9 -12 19 -9 31 20 98 34 76 43 87 54 64 3 -7 3 -2 0 11 -8
29 34 124 52 117 7 -3 10 2 7 13 -6 25 64 164 79 155 7 -5 8 -3 3 6 -10 17 55
152 71 146 7 -3 10 2 7 14 -6 23 28 91 35 70 3 -8 27 -59 54 -112z m3917 76
c15 -9 38 -32 51 -52 22 -31 25 -47 26 -129 2 -101 -5 -114 -52 -105 -24 4
-42 41 -30 60 8 13 -22 93 -48 127 -24 31 -66 109 -66 121 0 12 90 -5 119 -22z
m-4545 -1126 c25 -81 46 -203 46 -268 0 -127 -49 -286 -98 -316 -9 -6 -45 -26
-80 -44 l-64 -33 -43 49 c-23 27 -66 63 -94 79 -28 17 -51 32 -51 35 0 28 341
550 360 550 4 0 15 -24 24 -52z m-240 -762 c17 -22 21 -40 18 -94 -3 -84 -20
-112 -68 -112 -54 0 -74 15 -74 55 0 18 4 37 10 40 5 3 7 19 3 35 -3 20 0 39
12 56 9 14 14 28 12 31 -10 10 -37 -57 -37 -91 0 -25 -7 -40 -26 -55 -31 -25
-44 -26 -69 -7 -18 13 -18 15 1 86 10 39 31 90 47 111 l29 40 61 -34 c33 -18
70 -46 81 -61z m276 -21 c0 -24 -21 -107 -36 -143 -18 -42 -69 -67 -117 -58
-46 9 -61 28 -52 63 5 16 7 38 6 50 -1 12 10 35 26 52 21 24 41 33 83 40 81
13 90 12 90 -4z"/>
<path d="M1885 5311 c6 -42 -39 -148 -67 -156 -10 -4 -38 3 -64 15 -58 29
-105 21 -151 -25 -26 -26 -33 -41 -33 -74 0 -98 60 -139 193 -132 37 1 115 74
139 129 11 23 21 73 24 110 4 58 2 74 -21 117 -24 47 -25 48 -20 16z"/>
<path d="M1165 5086 c-73 -33 -137 -109 -170 -201 -29 -79 -29 -111 0 -53 30
57 66 99 113 129 52 33 80 37 88 12 18 -57 29 -72 63 -91 46 -26 72 -27 111
-7 41 21 60 53 60 101 0 49 -29 85 -92 114 -57 26 -112 25 -173 -4z"/>
<path d="M3493 3720 c-115 -70 -63 -251 91 -321 52 -23 127 -24 169 -2 l32 17
-55 7 c-63 7 -112 29 -134 61 -22 31 -20 35 17 43 53 12 77 41 77 96 0 40 -6
55 -31 84 -28 32 -36 35 -83 35 -33 0 -62 -7 -83 -20z"/>
</g>
</svg>
