<?xml version="1.0" standalone="no"?>
<!DOCTYPE svg PUBLIC "-//W3C//DTD SVG 20010904//EN"
 "http://www.w3.org/TR/2001/REC-SVG-20010904/DTD/svg10.dtd">
<svg version="1.0" xmlns="http://www.w3.org/2000/svg"
 width="400.000000pt" height="600.000000pt" viewBox="0 0 400.000000 600.000000"
 preserveAspectRatio="xMidYMid meet">
<metadata>
Created by potrace 1.16, written by Peter Selinger 2001-2019
</metadata>
<g transform="translate(0.000000,600.000000) scale(0.048544,-0.042827)"
fill="#000000" stroke="none">
<path d="M3592 13988 c3 -7 29 -93 59 -190 29 -98 58 -178 64 -178 5 0 37 23
70 52 76 65 246 202 263 212 12 7 13 -19 7 -149 -8 -151 -7 -157 11 -151 54
16 386 97 389 94 2 -2 -28 -61 -66 -131 -39 -70 -67 -131 -64 -137 3 -5 23
-10 43 -10 61 0 264 -28 273 -37 8 -8 -108 -123 -163 -161 -23 -16 -19 -23 35
-60 23 -16 86 -59 140 -96 54 -38 96 -70 94 -73 -3 -2 -21 0 -40 5 -20 6 -53
6 -78 1 -24 -4 -65 -8 -91 -9 -27 0 -48 -2 -48 -4 0 -2 13 -33 30 -68 16 -34
30 -78 30 -96 l0 -34 -61 55 c-73 67 -137 112 -145 104 -4 -3 -2 -26 4 -49 6
-24 14 -70 17 -103 l7 -60 -26 38 c-14 21 -26 40 -26 42 0 2 -12 21 -26 42
-14 21 -42 69 -61 107 -19 37 -37 65 -40 62 -3 -3 2 -17 11 -32 10 -14 16 -27
14 -29 -2 -1 -41 12 -87 29 -70 26 -86 36 -103 66 -20 37 -20 35 18 -71 17
-48 27 -108 36 -227 8 -89 10 -158 6 -154 -17 18 -78 180 -78 209 0 17 -5 35
-12 39 -8 5 -9 -13 -4 -72 12 -132 26 -414 25 -509 l0 -90 -31 88 c-18 48 -36
86 -42 84 -7 -2 -12 -52 -14 -131 l-3 -128 -72 5 c-40 3 -84 8 -98 12 -32 8
-45 -6 -75 -88 l-23 -62 -1 240 c0 132 -3 312 -7 399 -5 122 -3 157 6 152 6
-4 33 -49 58 -99 45 -88 47 -91 54 -62 19 84 3 465 -21 503 -8 13 -9 5 -5 -28
3 -25 8 -139 11 -255 l4 -210 -34 70 c-18 39 -50 92 -70 120 -20 27 -36 62
-36 76 0 15 -8 37 -19 50 -19 23 -19 23 -11 -31 5 -30 11 -93 14 -140 l6 -85
-21 45 c-17 36 -22 65 -22 150 l0 105 -6 -100 -6 -100 -60 125 -60 125 -8
-115 c-4 -63 -11 -142 -15 -175 l-7 -60 -96 179 c-53 98 -99 174 -102 170 -3
-5 -24 -88 -48 -184 -24 -96 -46 -176 -51 -178 -4 -2 -8 -12 -8 -23 0 -10 -5
-19 -11 -19 -6 0 -25 -6 -42 -14 -34 -15 -97 -26 -97 -17 1 19 25 38 67 51 47
15 48 16 51 59 2 24 -2 49 -7 54 -6 6 -11 17 -11 24 0 10 5 11 19 3 14 -7 21
-24 24 -58 2 -26 3 -9 1 38 -6 128 -16 212 -24 203 -4 -4 -26 -57 -48 -118
-22 -60 -58 -155 -80 -209 l-40 -100 -7 59 c-5 33 -8 108 -9 167 -1 59 -4 108
-7 108 -4 0 -14 -28 -24 -62 -23 -77 -27 -267 -7 -291 7 -9 26 -53 42 -98 16
-45 34 -87 40 -93 8 -8 9 -6 5 5 -4 10 0 19 9 22 10 4 17 -3 21 -25 4 -16 16
-39 26 -49 19 -19 18 -19 -11 -19 -37 0 -45 -24 -37 -123 3 -43 0 -78 -6 -89
-9 -14 -7 -22 11 -40 12 -13 28 -44 37 -68 9 -25 39 -88 67 -140 101 -187 108
-205 107 -273 -1 -65 -3 -66 -14 -4 -3 20 -10 37 -14 37 -9 0 -28 -119 -40
-242 l-6 -73 -43 160 c-24 88 -49 192 -55 232 -15 87 -27 103 -28 37 -1 -27
-5 -62 -8 -79 -7 -26 -8 -23 -15 30 -8 62 -24 122 -25 94 -2 -43 -454 -79
-666 -53 -83 10 -110 10 -110 -2 0 -11 37 -64 63 -90 6 -7 12 -20 12 -28 0 -9
4 -16 9 -16 4 0 20 -17 33 -37 24 -36 36 -50 111 -132 17 -18 32 -42 32 -52 2
-18 75 -98 75 -82 0 5 -14 25 -31 46 -39 47 -24 48 22 1 18 -20 79 -71 134
-113 55 -43 120 -99 143 -125 24 -26 63 -62 87 -81 48 -36 48 -44 1 -46 -20
-1 -24 -3 -12 -6 11 -3 47 3 82 12 48 13 67 14 83 6 12 -7 21 -16 21 -22 0 -6
11 -39 25 -74 22 -53 24 -67 14 -83 -11 -18 -15 -18 -33 -7 -12 8 -38 17 -59
20 -35 7 -37 9 -22 24 24 28 18 32 -16 12 -28 -17 -36 -18 -68 -7 -20 7 -52
16 -71 19 -62 12 -9 -10 95 -38 150 -40 144 -36 211 -163 4 -7 3 -17 -2 -22
-10 -10 -19 -8 -198 39 -65 18 -123 30 -129 28 -6 -2 30 -13 79 -26 49 -12
109 -29 134 -36 25 -7 66 -18 93 -25 41 -11 47 -16 47 -39 0 -34 -35 -91 -56
-91 -8 0 -63 11 -122 24 -119 27 -219 42 -167 26 17 -6 81 -21 144 -35 63 -13
118 -29 121 -35 4 -7 20 -1 42 14 l36 24 114 -23 c62 -12 123 -25 136 -29 12
-4 22 -5 22 -2 0 7 -96 33 -170 46 -102 17 -99 15 -92 62 3 29 1 44 -9 52 -19
15 -19 65 1 71 8 2 59 11 113 20 54 8 113 23 130 31 59 30 282 181 302 205 15
17 8 14 -25 -10 -72 -53 -231 -157 -277 -181 -23 -12 -84 -28 -135 -36 -51 -8
-103 -16 -115 -19 -18 -4 -26 2 -43 35 l-20 39 100 140 c136 189 273 405 326
511 41 83 159 418 150 427 -2 2 -21 -47 -41 -109 -21 -62 -43 -116 -49 -120
-6 -4 -54 -21 -108 -38 -94 -29 -161 -37 -185 -22 -6 4 -36 61 -66 127 -30 66
-75 153 -100 194 -48 77 -74 138 -63 149 4 3 12 0 18 -6 7 -7 19 -12 27 -12 9
0 -10 16 -42 36 -31 19 -57 37 -57 39 0 3 14 26 30 52 28 43 80 185 80 216 0
16 -72 116 -83 117 -5 0 -6 -4 -3 -9 3 -5 -6 -11 -19 -14 -18 -3 -29 1 -35 14
-15 28 -12 32 20 27 17 -3 30 -1 30 3 0 9 -26 19 -51 19 -35 0 -20 15 44 42
67 28 200 62 287 73 l55 6 -80 -47 c-113 -67 -76 -67 49 0 l104 56 127 11 c86
7 131 7 138 0 6 -6 12 -130 16 -318 6 -300 5 -310 -17 -387 -38 -132 -18 -95
31 57 26 78 52 150 59 159 12 16 21 16 133 -3 125 -21 292 -73 526 -164 140
-55 365 -162 409 -195 l24 -18 -39 -89 c-22 -48 -65 -137 -97 -196 -62 -115
-62 -117 -50 -117 7 0 133 246 175 343 23 52 21 80 -6 93 -12 6 -62 32 -112
57 -49 25 -125 62 -167 81 -43 20 -78 37 -78 38 -4 21 -26 218 -24 218 1 0 23
-31 50 -70 26 -38 54 -70 62 -70 8 0 12 6 9 13 -4 12 -24 101 -51 228 l-13 67
48 -17 c43 -16 127 -74 186 -130 24 -23 48 -28 39 -8 -2 6 -10 30 -16 52 -6
22 -17 63 -25 90 -47 169 -106 315 -127 315 -4 0 -8 5 -8 10 0 13 -32 45 -59
60 -14 7 -21 21 -21 40 0 16 -4 31 -10 35 -10 6 8 55 20 55 4 0 19 -13 33 -30
33 -36 47 -38 47 -7 0 20 -30 119 -55 180 -7 16 3 17 129 17 115 0 136 2 136
15 0 9 -8 19 -17 22 -27 10 -196 125 -210 143 -7 8 -13 12 -13 8 0 -9 -50 37
-50 47 0 7 47 55 54 55 13 0 138 129 133 137 -4 5 -48 13 -99 16 -51 3 -127
11 -170 17 l-76 12 15 37 c8 20 18 38 22 41 4 3 13 20 20 38 8 17 17 32 22 32
5 0 9 6 9 14 0 7 12 35 26 60 15 26 25 49 23 51 -7 7 -95 -13 -289 -66 -25 -6
-62 -15 -83 -19 l-38 -7 3 153 c2 98 -1 154 -7 154 -16 0 -325 -249 -325 -262
0 -10 -30 -11 -31 0 -2 20 -9 48 -23 90 -65 197 -64 192 -36 192 11 0 20 5 20
10 0 6 -11 10 -25 10 -18 0 -26 7 -31 25 -3 14 -11 25 -16 25 -6 0 -8 -6 -6
-12z m-300 -1185 c53 -69 103 -152 95 -159 -3 -3 -30 -8 -59 -10 -30 -2 -87
-10 -127 -19 -41 -8 -75 -14 -77 -12 -5 5 108 257 116 257 4 0 27 -26 52 -57z
m1183 -323 c31 -84 53 -155 51 -157 -2 -2 -20 15 -40 38 -24 28 -36 53 -37 73
0 17 -5 40 -10 51 -7 16 -8 12 -5 -15 3 -19 8 -57 11 -85 13 -111 27 -193 42
-258 8 -37 13 -70 11 -73 -3 -2 -23 19 -45 48 -35 45 -41 62 -46 116 -5 61
-11 81 -22 70 -8 -8 16 -292 30 -340 13 -49 5 -55 -23 -16 -7 10 -18 18 -24
18 -6 0 -6 -6 2 -15 11 -13 10 -14 -3 -10 -18 7 -29 43 -15 47 14 5 -2 38 -19
38 -11 0 -14 -9 -11 -34 l4 -33 -80 29 c-106 39 -104 37 -130 95 l-24 50 28
42 c16 23 43 76 60 118 27 63 31 84 25 122 -13 89 -35 149 -66 175 -16 14 -29
27 -29 30 0 9 61 17 185 24 66 4 121 7 123 6 2 -1 27 -70 57 -154z m-334 -45
c21 -47 39 -93 39 -102 0 -43 -105 -223 -131 -223 -5 0 -9 19 -9 43 0 38 5 47
45 80 49 42 52 51 30 104 -20 48 -27 39 -12 -16 11 -42 11 -43 -23 -74 l-35
-31 -6 59 c-4 33 -7 91 -8 129 -1 59 2 73 21 93 12 13 28 23 35 23 8 0 32 -38
54 -85z m-1148 -941 c5 -14 2 -26 -8 -34 -8 -7 -15 -28 -15 -49 1 -43 23 -226
45 -371 9 -58 14 -119 10 -137 l-6 -31 -25 25 c-24 24 -40 26 -86 8 -11 -5
-18 30 -33 177 -25 237 -25 341 -1 391 10 21 27 42 37 48 16 8 19 5 25 -31 4
-22 10 -40 14 -40 8 0 19 55 21 105 1 30 1 30 8 -5 4 -19 11 -44 14 -56z
m-168 -5 c-29 -55 -35 -135 -25 -296 6 -83 14 -173 19 -200 5 -26 8 -49 7 -50
-8 -8 -69 63 -76 88 -5 16 -14 102 -20 190 l-12 159 26 44 c22 38 78 96 92 96
2 0 -3 -14 -11 -31z"/>
<path d="M3350 12440 c-8 -5 -22 -7 -31 -5 -19 6 -33 -9 -54 -58 -19 -45 -7
-48 20 -5 11 17 30 38 42 46 22 14 23 14 17 -15 -5 -25 -1 -34 21 -52 36 -27
50 -27 81 4 26 26 26 60 0 77 -6 4 4 8 23 8 32 0 33 -1 28 -32 -5 -29 -4 -30
5 -11 20 41 5 53 -69 53 -37 0 -75 -5 -83 -10z"/>
<path d="M4395 11314 c-139 -37 -302 -98 -600 -225 -243 -103 -525 -234 -525
-244 0 -3 3 -4 8 -2 37 23 359 170 502 229 489 202 580 233 695 232 55 0 89
-5 110 -17 30 -16 30 -16 -60 -18 l-90 -2 110 -7 c124 -8 176 -20 255 -60 86
-45 274 -206 326 -280 59 -85 58 -95 -7 -69 -29 11 -53 18 -55 16 -2 -2 62
-29 144 -61 156 -60 202 -88 228 -139 l17 -31 -32 26 c-33 29 -110 60 -207 86
-57 15 -65 15 -128 -2 -97 -27 -195 -77 -246 -127 -58 -57 -162 -202 -183
-257 -24 -60 -21 -115 12 -228 16 -55 39 -151 51 -214 24 -126 30 -146 72
-237 30 -62 95 -133 123 -133 8 0 23 4 33 10 33 19 106 39 116 32 6 -4 40 -14
76 -23 62 -15 65 -17 73 -52 5 -20 13 -37 17 -37 5 0 36 27 70 60 42 43 59 66
56 78 -3 10 10 51 30 92 20 41 46 101 59 132 30 73 128 223 160 244 21 14 30
14 55 4 36 -15 37 -22 8 -61 -20 -26 -23 -43 -23 -115 0 -69 -3 -84 -15 -82
-14 3 -33 33 -45 72 -3 10 -8 16 -11 13 -3 -3 -1 -22 6 -42 10 -29 21 -41 55
-56 24 -10 45 -26 49 -34 3 -8 21 -23 41 -32 43 -20 46 -37 5 -31 -36 5 -40
-7 -5 -16 23 -6 24 -10 19 -49 -4 -28 2 -79 19 -152 15 -61 31 -137 38 -170 7
-33 16 -64 22 -70 6 -6 7 -3 4 10 -3 11 -11 45 -17 75 -7 30 -21 93 -31 140
-11 47 -21 94 -24 105 -4 17 1 21 33 21 68 2 152 25 181 50 l29 24 16 -52 c8
-29 27 -114 41 -188 14 -74 51 -244 82 -378 48 -203 55 -247 45 -263 -7 -11
-10 -24 -7 -28 7 -12 -87 -51 -127 -52 -39 -2 -101 -16 -75 -18 25 -2 21 -26
-9 -46 -133 -87 -260 -289 -281 -447 -3 -24 -1 -38 6 -38 6 0 11 12 11 26 0
72 153 264 242 304 23 10 44 18 45 16 4 -4 -38 -110 -49 -123 -8 -10 -6 -13 4
-13 9 0 20 18 27 43 32 106 23 122 194 -341 86 -235 157 -434 157 -442 1 -20
28 -55 36 -47 11 11 -34 569 -70 862 l-13 110 42 -49 43 -48 7 -137 c4 -75 5
-220 1 -323 -4 -126 -3 -188 4 -188 7 0 10 106 10 314 0 347 -4 326 65 326 46
0 129 -18 193 -41 33 -12 52 -15 52 -8 0 28 -51 100 -120 169 -83 83 -105 98
-200 130 -72 25 -86 28 -146 29 -38 1 -41 3 -36 26 2 14 8 25 13 25 12 0 11
43 -2 77 -6 15 -15 53 -20 83 -6 30 -16 78 -24 105 -7 28 -18 67 -23 88 l-10
37 49 0 c71 0 139 25 176 66 30 34 34 35 107 37 72 2 77 1 82 -20 12 -48 94
-84 140 -61 49 23 51 59 10 143 -20 41 -36 80 -36 88 0 27 -49 230 -57 238 -6
6 -78 28 -138 42 -25 6 -67 43 -82 71 -21 42 -53 76 -72 76 -59 0 -140 50
-165 102 -6 13 -40 42 -76 66 -36 23 -68 51 -72 62 -7 20 -96 113 -153 160
-131 110 -158 130 -169 130 -7 0 -20 15 -28 34 -12 25 -29 38 -62 51 -35 13
-48 25 -53 44 -3 14 -19 46 -34 71 -15 25 -30 56 -34 70 -4 14 -16 33 -26 43
-11 10 -19 21 -19 25 0 10 -132 68 -195 87 -11 3 -29 24 -40 48 -30 67 -101
152 -152 185 -27 17 -59 45 -73 62 -14 16 -30 30 -37 30 -7 0 -13 4 -13 8 0
10 -77 62 -91 62 -5 0 -23 9 -41 20 -18 11 -44 20 -58 20 -14 0 -51 14 -84 31
-48 25 -73 32 -135 35 -42 1 -85 1 -96 -2z m965 -755 c27 -6 50 -14 50 -17 0
-4 -24 -8 -53 -9 -90 -4 -196 -62 -242 -131 -30 -47 -76 -192 -111 -351 -27
-123 -29 -197 -8 -296 14 -66 -15 -7 -36 75 -33 125 -34 149 -10 262 53 253
88 325 198 405 109 81 116 83 212 62z m475 -398 c53 -24 159 -91 153 -97 -3
-2 -29 8 -59 23 -50 27 -60 28 -189 28 -219 0 -271 -31 -373 -221 -50 -95 -54
-71 -5 33 34 74 122 173 186 210 94 55 197 64 287 24z m49 -140 c3 -4 -6 -13
-20 -19 -21 -10 -23 -15 -14 -32 13 -24 9 -24 74 -5 29 9 82 16 119 18 66 2
67 2 67 -24 0 -62 -101 -129 -196 -129 -50 0 -154 29 -180 51 -29 24 -7 102
38 133 24 17 103 22 112 7z m280 -151 c10 -10 36 -67 56 -127 21 -59 41 -116
45 -125 6 -15 1 -18 -33 -18 -24 0 -49 -7 -63 -19 -22 -18 -22 -19 -6 -45 16
-24 22 -26 85 -24 l67 2 -60 3 c-64 4 -85 15 -85 43 0 19 27 30 74 30 31 0 76
-34 76 -57 0 -7 5 -13 10 -13 6 0 15 -11 20 -25 14 -36 -6 -72 -47 -86 -77
-25 -129 18 -195 161 -27 58 -56 119 -64 136 -16 33 -74 83 -74 64 0 -5 -7
-10 -15 -10 -44 0 3 55 72 85 23 10 50 26 59 37 20 21 48 16 78 -12z m160 -28
c28 -26 40 -55 89 -214 l45 -148 -28 0 c-16 0 -35 -3 -43 -6 -9 -3 -17 2 -21
13 -3 10 -26 45 -51 78 -32 42 -54 87 -74 151 -16 49 -36 104 -45 122 -9 17
-16 33 -16 35 0 11 128 -17 144 -31z m187 -148 c68 -11 83 -34 107 -163 12
-61 32 -136 45 -165 27 -58 25 -70 -15 -85 -21 -8 -31 -7 -47 7 -31 27 -32 72
-1 72 11 0 20 4 20 10 0 13 -32 1 -47 -18 -18 -22 -17 -26 13 -61 21 -25 31
-30 52 -25 15 4 35 14 45 22 15 14 17 13 17 -7 0 -39 -18 -61 -51 -61 -70 0
-126 64 -112 131 4 23 -1 39 -24 72 -43 61 -51 77 -84 185 -16 53 -32 105 -35
115 -5 17 -3 17 34 -2 22 -11 60 -24 83 -27z m-401 -170 c38 -87 114 -143 178
-131 23 4 31 -1 55 -40 l28 -45 -27 -35 c-33 -43 -76 -62 -159 -70 l-63 -6
-11 39 c-15 56 -61 293 -61 313 0 10 8 17 21 17 16 0 26 -12 39 -42z m403
-977 c66 -33 172 -122 122 -102 -50 19 -136 35 -196 35 l-66 0 -41 49 c-23 27
-42 53 -42 57 0 3 34 4 75 2 60 -4 90 -12 148 -41z"/>
<path d="M2530 11116 c0 -4 15 -29 34 -55 18 -25 54 -77 79 -115 l46 -68 -87
-46 c-48 -25 -112 -65 -143 -89 -30 -23 -62 -43 -71 -43 -9 0 -49 -43 -89 -95
-47 -62 -79 -95 -91 -95 -11 0 -77 -33 -146 -73 -156 -90 -167 -95 -267 -100
-70 -4 -91 -10 -174 -51 -52 -25 -108 -46 -125 -46 -97 -1 -325 -105 -420
-192 -53 -48 -58 -57 -63 -103 -3 -27 -11 -58 -19 -69 -20 -28 -17 -65 6 -103
11 -18 17 -33 14 -33 -3 0 1 -7 8 -15 30 -33 38 -45 38 -55 0 -5 3 -10 8 -10
4 0 24 -16 44 -35 37 -36 110 -75 138 -75 8 0 42 14 75 30 39 19 76 30 105 30
26 0 58 8 75 19 17 10 44 21 60 24 17 3 54 14 82 25 49 17 51 20 30 29 -38 18
-116 93 -141 136 -31 54 -58 157 -59 227 0 63 38 151 74 170 30 17 33 7 7 -35
-30 -51 -30 -175 0 -253 33 -86 100 -190 139 -216 44 -30 32 -33 233 64 47 23
92 45 100 50 20 12 111 52 125 54 95 19 169 51 185 81 18 33 34 37 103 25 94
-18 106 -9 164 121 40 91 54 114 85 134 35 23 58 31 58 20 0 -2 -33 -74 -74
-158 -40 -84 -129 -279 -197 -433 -68 -153 -199 -427 -291 -609 -671 -1319
-891 -1782 -1135 -2385 -52 -129 -98 -244 -103 -255 -5 -13 -11 7 -19 65 -7
47 -21 104 -31 127 -17 39 -94 133 -110 133 -3 0 7 -28 24 -61 28 -57 31 -72
34 -189 3 -89 0 -140 -9 -166 l-13 -39 -7 49 c-15 98 -98 144 -176 96 -41 -25
-97 -108 -123 -185 -20 -58 -55 -253 -47 -261 2 -3 25 38 50 90 50 105 78 132
126 121 47 -10 56 -29 55 -114 0 -60 -6 -90 -28 -141 -55 -128 -151 -248 -235
-294 -61 -32 -90 -31 -111 6 -17 31 -17 30 56 203 46 110 59 226 29 271 -9 14
-15 35 -12 45 3 10 2 19 -3 19 -4 0 -10 -10 -13 -22 -3 -13 -10 -39 -17 -58
-7 -19 -20 -57 -30 -85 -19 -54 -49 -156 -55 -183 -15 -74 -28 -118 -41 -144
-9 -16 -17 -53 -19 -81 -2 -27 -8 -53 -12 -56 -20 -15 -50 -125 -58 -211 -4
-39 -15 -98 -35 -180 -36 -146 -81 -405 -98 -566 -15 -136 17 -345 80 -524 16
-47 34 -98 38 -115 10 -38 38 -120 56 -163 8 -18 14 -39 14 -47 0 -8 8 -34 19
-57 24 -54 53 -139 54 -155 0 -7 3 -13 7 -13 6 0 30 285 36 435 5 107 64 456
126 745 31 149 26 140 93 165 142 53 289 92 380 101 28 3 91 11 140 19 128 21
436 20 523 -1 198 -49 339 -110 407 -178 31 -31 32 -36 38 -132 7 -128 34
-339 54 -430 9 -43 13 -86 9 -108 -5 -27 -4 -36 7 -36 14 0 31 -42 41 -101 5
-30 2 -42 -19 -67 -46 -55 -56 -92 -45 -174 13 -105 36 -210 76 -354 8 -28 17
-77 20 -108 4 -50 2 -59 -17 -75 -19 -15 -22 -27 -21 -93 0 -41 8 -103 17
-139 9 -35 19 -76 20 -91 7 -51 45 -160 65 -186 14 -17 17 -29 10 -36 -5 -5
-10 -19 -10 -30 1 -21 1 -21 13 0 7 13 20 20 32 18 111 -21 250 -35 397 -40
153 -6 181 -5 211 10 43 20 87 70 87 99 0 12 7 58 15 102 49 267 55 323 57
529 2 162 0 210 -10 214 -7 2 -20 18 -28 35 -19 36 -15 90 16 219 11 46 20
101 20 122 0 22 9 89 19 150 11 61 27 167 36 236 9 69 25 172 35 230 10 58 21
131 24 162 3 32 11 80 17 108 10 45 13 50 37 50 15 0 59 9 97 20 38 11 80 20
91 20 16 0 106 33 121 44 1 1 -2 18 -8 39 -5 20 -13 54 -18 74 -7 27 -7 40 2
45 8 5 7 8 -4 8 -10 0 -20 15 -28 41 -7 23 -11 43 -9 45 2 2 44 -1 93 -6 113
-12 417 -12 690 0 159 7 211 6 217 -3 13 -20 9 -77 -4 -77 -10 0 -10 -2 0 -8
8 -6 15 -41 19 -95 l6 -86 -29 -6 c-16 -4 -54 -14 -84 -22 -104 -28 -651 -26
-815 3 -23 4 -33 1 -43 -16 -14 -24 -8 -66 28 -180 10 -30 25 -84 35 -120 9
-36 26 -93 36 -127 47 -155 58 -191 72 -243 9 -30 25 -85 36 -123 26 -84 26
-99 1 -122 -26 -23 -26 -72 -1 -150 23 -70 52 -202 52 -236 1 -32 35 -188 59
-269 10 -36 26 -91 35 -122 8 -32 23 -83 32 -113 15 -48 15 -57 3 -65 -7 -4
-14 -14 -16 -22 -1 -7 -7 -39 -14 -71 -13 -67 -4 -135 37 -272 26 -88 41 -105
89 -105 18 0 39 -6 46 -12 17 -16 19 -17 233 -24 162 -6 190 -4 280 16 55 12
106 22 113 22 6 1 12 5 12 10 0 5 12 13 28 18 69 26 72 29 72 90 0 130 -43
340 -79 383 -15 19 -16 760 -1 765 15 5 12 32 -4 38 -8 3 -12 13 -9 24 10 36
-7 70 -47 95 -29 18 -42 34 -48 62 -11 44 -17 536 -7 576 6 22 11 25 35 20 16
-3 43 0 62 6 18 6 53 14 78 17 87 12 91 16 84 79 -8 63 -13 61 88 41 101 -20
249 -44 338 -55 41 -5 112 -15 158 -21 108 -16 806 -8 872 10 25 6 77 18 115
25 39 7 80 16 91 20 19 6 28 -4 70 -79 27 -48 57 -101 66 -119 9 -18 21 -37
25 -42 12 -15 85 -163 84 -169 -1 -4 8 -23 19 -43 11 -21 20 -43 20 -50 0 -7
8 -32 19 -55 10 -24 26 -68 34 -98 9 -30 25 -84 36 -120 54 -183 85 -321 96
-430 10 -91 14 -91 101 -2 168 170 219 234 269 333 19 38 35 71 35 74 0 3 6
20 14 37 34 81 86 276 86 322 0 18 26 44 113 111 258 200 339 279 391 387 35
73 37 79 22 100 -9 12 -16 31 -16 40 0 10 -4 26 -10 36 -5 9 -21 49 -35 87
-14 39 -34 88 -44 110 -10 22 -36 81 -57 130 -21 50 -53 116 -71 147 -18 31
-33 61 -33 66 0 5 -9 19 -20 32 -11 13 -20 29 -20 37 0 8 -6 13 -12 11 -7 -3
-22 -40 -32 -83 l-20 -79 -18 44 c-10 24 -29 81 -42 128 -29 102 -70 149 -179
207 -157 82 -163 89 -226 289 -23 72 -49 138 -58 148 -25 28 -39 22 -35 -16 4
-36 -8 -66 -79 -186 -40 -67 -44 -81 -48 -151 -6 -146 39 -232 145 -273 70
-27 114 -71 114 -114 l0 -35 -50 7 c-76 10 -151 -28 -186 -96 -19 -36 -18
-129 2 -176 15 -36 60 -92 75 -92 4 0 3 16 -2 35 -14 50 -4 75 29 75 59 0 132
-79 132 -142 0 -52 -21 -99 -53 -119 -27 -17 -44 -20 -117 -16 -97 5 -132 19
-180 73 -69 79 -78 153 -30 238 38 67 62 177 51 228 -28 120 -143 212 -336
269 -72 21 -86 29 -141 83 -46 47 -63 72 -74 111 -20 73 -16 135 14 201 14 31
24 59 22 61 -13 13 -88 -77 -122 -145 -33 -67 -39 -88 -42 -163 -9 -176 47
-274 234 -410 90 -65 144 -120 144 -148 0 -52 -42 -174 -85 -244 -26 -44 -51
-99 -57 -131 -7 -31 -15 -56 -18 -56 -3 0 -21 22 -40 47 -36 48 -194 242 -361
443 -239 288 -440 550 -587 762 -102 148 -150 228 -247 408 -110 205 -341 586
-690 1140 -184 291 -180 286 -470 606 -304 336 -416 473 -552 679 -166 249
-335 547 -489 858 -108 218 -144 303 -144 339 0 20 3 21 77 14 84 -7 113 6
113 48 -1 17 -4 15 -14 -10 l-14 -31 -133 5 c-74 2 -142 9 -151 14 -11 5 -18
5 -18 -1 0 -5 5 -11 11 -13 6 -2 -58 -36 -142 -76 -95 -45 -156 -69 -162 -63
-18 18 -23 86 -15 181 5 60 4 129 -3 187 -11 91 -6 163 10 163 5 0 37 21 71
47 102 76 202 123 268 125 l57 1 -45 6 c-42 6 -47 10 -107 96 -109 155 -113
160 -113 151z m-327 -678 c-6 -59 22 -266 42 -313 17 -42 72 -95 98 -95 19 0
20 -1 5 -16 -14 -15 -19 -14 -59 4 -24 10 -52 28 -62 39 -54 61 -82 317 -43
396 10 20 20 37 21 37 2 0 1 -24 -2 -52z m631 -195 c4 -21 2 -54 -4 -73 -48
-157 -87 -531 -74 -715 5 -66 7 -203 6 -305 -5 -233 5 -346 84 -1030 7 -69 17
-138 20 -155 6 -29 6 -30 -13 -12 -16 13 -22 36 -27 100 -3 45 -13 114 -21
152 -9 39 -27 153 -41 255 -22 158 -26 234 -31 520 -2 184 -9 349 -14 365 -9
31 1 269 21 495 16 170 65 440 80 440 5 0 11 -17 14 -37z m124 -596 l25 -12
-7 -256 c-4 -162 -3 -265 3 -282 6 -14 39 -48 74 -74 165 -123 216 -166 211
-174 -5 -9 -86 -63 -189 -126 -102 -62 -257 -145 -262 -139 -15 14 -40 389
-34 516 3 74 5 153 4 175 -1 22 -5 104 -9 183 -3 79 -3 186 1 237 l7 95 75
-66 c42 -36 87 -71 101 -77z m-249 -32 c-6 -77 -8 -176 -5 -220 4 -44 6 -161
6 -260 -1 -177 15 -527 26 -571 4 -17 0 -26 -18 -35 -22 -12 -165 -31 -450
-59 -71 -7 -128 -17 -128 -21 0 -5 6 -9 13 -9 6 0 84 -7 172 -15 88 -8 222
-15 298 -15 l137 0 0 -32 c0 -18 9 -75 20 -127 11 -52 20 -96 20 -98 0 -15
-141 18 -388 90 -116 35 -185 49 -294 62 l-48 6 0 69 c0 38 7 105 15 147 8 43
29 152 46 243 41 222 32 203 87 198 71 -7 157 10 181 36 18 19 22 41 29 177
l9 154 139 211 c76 116 140 210 141 210 1 -1 -3 -64 -8 -141z m471 -200 c10
-12 11 -45 6 -138 -4 -67 -9 -123 -11 -125 -2 -2 -37 -6 -79 -9 l-76 -6 0 85
c0 47 3 113 6 147 l7 61 67 0 c48 0 71 -4 80 -15z m-772 -207 c-3 -51 -7 -112
-7 -135 -1 -54 -21 -73 -76 -73 -63 0 -75 7 -75 46 0 27 17 57 81 144 44 60
81 110 82 110 1 0 -1 -42 -5 -92z m1158 -687 c109 -47 364 -169 364 -174 0 -2
-37 -4 -82 -5 -169 -2 -269 -22 -468 -93 -201 -72 -276 -89 -402 -96 l-117 -6
-5 34 c-14 89 -26 180 -26 203 0 23 4 26 33 26 18 0 105 20 192 45 172 49 376
100 411 104 6 0 51 -16 100 -38z m508 -364 c54 -68 94 -147 103 -201 13 -82
-84 -209 -240 -313 -93 -63 -157 -84 -367 -122 -356 -64 -632 -97 -691 -81
-37 10 -38 12 -45 68 -4 31 -7 118 -8 192 -1 127 0 138 25 180 30 54 54 64
275 111 159 34 313 42 367 20 23 -9 31 -8 44 4 37 38 423 204 473 204 8 0 37
-28 64 -62z m-1924 -53 c335 -52 592 -95 617 -105 52 -20 56 -28 24 -65 -25
-27 -30 -45 -36 -108 -7 -73 1 -291 11 -328 5 -17 -6 -18 -140 -18 -222 0
-345 24 -561 109 -129 50 -137 63 -143 236 -7 185 29 295 97 295 14 0 73 -7
131 -16z m684 -228 c-27 -58 -27 -60 -20 -225 3 -91 9 -185 12 -208 5 -38 4
-43 -14 -43 -17 0 -21 9 -26 63 -18 169 -23 282 -15 357 7 70 12 87 35 112 23
23 30 26 41 15 11 -11 9 -23 -13 -71z m1584 -2184 c-8 -9 -8 -13 -2 -9 16 9
24 -15 24 -68 0 -64 -3 -65 -280 -90 -272 -26 -709 -11 -766 25 -11 7 -25 30
-31 51 l-10 39 66 2 66 2 -66 3 -67 4 -12 47 c-7 26 -21 76 -31 112 -10 35
-16 66 -13 69 2 3 55 -1 117 -7 280 -31 341 -33 607 -22 146 7 297 17 335 23
l70 12 3 -89 c2 -61 -1 -93 -10 -104z"/>
<path d="M3875 10470 c53 -180 176 -386 327 -546 51 -55 104 -114 117 -133 36
-50 79 -64 206 -67 l109 -3 86 -90 c47 -50 89 -91 94 -91 5 0 -22 33 -60 73
-162 170 -259 298 -306 404 -11 26 -40 107 -64 178 -24 72 -42 113 -38 91 8
-54 65 -219 104 -300 17 -37 61 -106 96 -153 49 -64 62 -88 52 -94 -19 -13
-94 -10 -168 5 -57 13 -69 19 -100 57 -19 23 -76 87 -126 140 -130 138 -204
255 -285 447 -42 98 -57 128 -44 82z"/>
<path d="M3996 9648 c71 -103 198 -265 329 -423 104 -125 332 -365 346 -365 5
0 9 10 9 23 0 15 -3 18 -9 9 -20 -32 -487 504 -658 756 -31 45 -61 82 -66 82
-5 0 17 -37 49 -82z"/>
<path d="M6602 6533 c2 -5 12 -26 22 -48 20 -44 22 -31 -31 -220 -29 -103 -3
-164 120 -292 77 -80 100 -93 62 -37 -36 53 -33 105 10 195 54 112 47 182 -26
284 -36 50 -176 155 -157 118z"/>
<path d="M2281 1738 c-17 -38 -20 -65 -22 -216 -2 -139 0 -175 11 -182 9 -6
13 -23 12 -51 -3 -45 -24 -79 -107 -169 -27 -31 -62 -70 -78 -88 -15 -18 -31
-32 -37 -32 -5 0 -15 -18 -22 -41 -13 -44 -44 -69 -128 -103 -25 -10 -60 -25
-79 -33 -19 -8 -75 -27 -125 -44 -50 -16 -99 -34 -108 -39 -10 -6 -23 -10 -29
-10 -13 0 -101 -51 -96 -56 2 -2 21 3 43 12 38 15 46 14 128 -5 117 -28 280
-97 322 -136 28 -26 34 -40 34 -72 0 -39 -1 -41 -59 -67 -106 -47 -272 -30
-287 30 -3 13 -3 28 1 33 9 16 63 13 110 -5 63 -24 84 -27 100 -14 30 25 18
48 -37 66 l-52 17 32 28 c18 16 32 32 32 36 0 3 -10 -3 -23 -15 -28 -26 -177
-102 -177 -91 0 5 -11 11 -25 15 -29 7 -29 7 -10 44 12 23 28 33 71 46 30 9
54 18 51 20 -2 2 -27 -3 -55 -11 -46 -14 -55 -22 -107 -95 -35 -51 -62 -80
-74 -80 -29 0 -63 32 -56 52 6 15 10 15 39 3 28 -12 36 -12 51 -1 23 16 13 46
-15 46 -11 0 -20 3 -20 6 0 19 48 68 88 89 26 13 43 24 37 24 -5 0 -28 -10
-51 -22 -41 -22 -115 -97 -96 -97 6 0 23 -5 38 -10 20 -8 24 -14 16 -22 -18
-18 -56 -1 -69 32 -6 16 -18 30 -27 30 -29 0 -16 15 49 58 36 24 65 45 65 47
0 6 -99 -53 -129 -76 -17 -14 -28 -16 -35 -9 -5 5 -17 10 -26 9 -10 0 -11 -2
-2 -6 20 -8 14 -26 -8 -20 -11 3 -18 1 -14 -4 3 -5 12 -9 21 -9 13 0 13 -3 3
-15 -15 -18 -37 -19 -43 -2 -3 6 -6 -22 -6 -64 -1 -89 1 -91 104 -142 100 -48
241 -71 399 -64 67 3 146 10 176 17 62 14 264 73 325 96 48 18 237 55 279 56
29 0 120 24 191 49 17 6 53 19 80 29 l50 17 -3 129 c-3 130 -13 186 -38 215
-8 8 -18 39 -24 69 -13 69 -13 300 0 300 6 0 10 7 10 15 0 8 12 26 28 40 l27
25 0 183 0 183 -29 27 c-36 34 -44 34 -57 1 l-10 -27 -182 6 c-207 6 -271 20
-281 63 -10 39 -41 30 -65 -18z"/>
<path d="M4205 1726 l-27 -36 16 -118 c27 -192 54 -323 69 -335 26 -22 50
-190 29 -199 -5 -1 -2 -57 5 -123 7 -66 17 -198 21 -293 4 -95 12 -176 17
-180 22 -15 45 -64 59 -124 28 -127 57 -176 124 -213 52 -29 141 -61 193 -70
19 -3 59 -11 89 -17 76 -16 313 -16 376 0 29 7 58 14 67 16 34 5 96 42 101 61
8 27 7 85 0 113 -6 22 -7 22 -26 5 -19 -17 -20 -17 -34 2 -13 18 -12 20 23 32
l38 12 -37 -6 c-25 -3 -38 -1 -38 6 0 6 9 11 20 11 11 0 20 4 20 9 0 6 -12 6
-29 1 -25 -7 -30 -5 -39 15 -14 31 -81 105 -95 105 -5 0 2 -9 16 -20 24 -19
67 -79 67 -94 0 -3 -7 -6 -15 -6 -8 0 -24 -9 -34 -19 -18 -18 -19 -18 -38 8
-11 14 -28 43 -37 63 -10 20 -30 44 -44 54 l-27 17 26 -29 c23 -26 69 -99 69
-110 0 -2 -14 -4 -31 -4 -23 0 -32 -5 -36 -20 -7 -26 -23 -14 -65 49 -38 56
-88 111 -102 111 -6 0 10 -21 35 -47 25 -27 53 -60 62 -75 l17 -28 -39 0 c-40
0 -68 -20 -55 -41 5 -8 27 -10 70 -6 51 5 64 3 64 -8 0 -29 -31 -47 -69 -40
-72 13 -98 31 -119 78 -12 26 -29 48 -41 52 -12 3 -37 27 -56 52 -19 25 -35
42 -35 38 0 -5 11 -23 25 -41 28 -37 28 -37 -53 -49 -46 -7 -64 -28 -41 -50
11 -10 31 -10 91 -3 91 12 108 8 108 -26 0 -79 -173 -83 -249 -6 -20 20 -44
39 -53 43 -44 16 -4 88 75 136 91 54 180 73 343 75 l141 1 72 -37 c54 -27 71
-33 71 -21 0 18 -112 163 -169 218 -23 21 -41 47 -41 57 0 10 -7 18 -15 18 -9
0 -20 11 -25 24 -5 13 -14 27 -19 31 -6 3 -11 15 -11 25 0 10 -5 20 -10 22 -6
2 -35 74 -64 161 -30 87 -59 163 -65 170 -6 9 -10 67 -9 158 1 112 -2 157 -16
204 -10 33 -18 92 -18 130 -1 61 -4 74 -26 98 -33 35 -47 34 -58 -5 -8 -28
-16 -35 -54 -45 -61 -15 -315 -15 -359 1 -26 9 -38 21 -48 51 -7 21 -15 40
-17 42 -2 3 -16 -12 -31 -31z"/>
</g>
</svg>
