<?xml version="1.0" standalone="no"?>
<!DOCTYPE svg PUBLIC "-//W3C//DTD SVG 20010904//EN"
 "http://www.w3.org/TR/2001/REC-SVG-20010904/DTD/svg10.dtd">
<svg version="1.0" xmlns="http://www.w3.org/2000/svg"
 width="400.000000pt" height="600.000000pt" viewBox="0 0 400.000000 600.000000"
 preserveAspectRatio="xMidYMid meet">
<metadata>
Created by potrace 1.16, written by Peter Selinger 2001-2019
</metadata>
<g transform="translate(0.000000,600.000000) scale(0.081633,-0.058480)"
fill="#000000" stroke="none">
<path d="M2250 10244 c-108 -22 -225 -56 -248 -74 -60 -47 -113 -103 -127
-133 -8 -18 -19 -39 -24 -47 -19 -32 -61 -137 -70 -175 -13 -58 -16 -123 -16
-373 l0 -222 -47 0 c-96 0 -266 -54 -300 -95 -10 -11 -17 -36 -17 -55 -1 -50
26 -233 45 -307 9 -35 17 -74 18 -87 2 -13 6 -28 9 -33 6 -10 -62 -105 -90
-128 -7 -5 -15 -19 -17 -30 -2 -11 -18 -49 -35 -85 -28 -60 -66 -205 -77 -292
-9 -76 -96 -312 -132 -363 -20 -27 -40 -51 -44 -53 -5 -2 -8 -9 -8 -16 0 -7
-14 -32 -30 -54 -17 -23 -30 -46 -30 -52 0 -5 -3 -10 -7 -10 -9 0 -26 -28 -79
-129 -19 -35 -43 -75 -54 -88 -11 -14 -17 -29 -14 -34 3 -5 0 -9 -6 -9 -6 0
-8 -4 -5 -10 3 -5 3 -10 -2 -10 -4 0 -15 -15 -22 -32 -8 -18 -32 -70 -53 -116
-21 -45 -38 -88 -38 -95 0 -15 -60 -167 -84 -212 -9 -16 -16 -38 -16 -48 0
-11 -6 -33 -14 -50 -8 -18 -31 -68 -51 -112 -20 -44 -38 -87 -40 -95 -2 -9
-17 -38 -34 -65 -16 -28 -49 -85 -72 -128 -23 -43 -48 -84 -54 -91 -15 -15
-48 -76 -51 -94 -1 -8 -20 -40 -42 -72 -22 -31 -43 -68 -47 -81 -5 -13 -15
-35 -23 -47 -28 -43 -51 -85 -123 -231 -64 -130 -70 -148 -65 -186 4 -23 13
-50 22 -61 8 -10 33 -47 57 -81 89 -130 246 -282 359 -346 44 -26 87 -77 124
-150 9 -18 20 -34 23 -37 8 -7 45 -63 46 -70 0 -7 98 -111 152 -162 41 -40 41
-40 28 -78 -7 -20 -32 -76 -54 -124 -23 -48 -41 -92 -41 -98 0 -10 -15 -45
-71 -164 -11 -23 -22 -51 -24 -63 -2 -11 -11 -35 -19 -53 -24 -52 -86 -228
-92 -262 -3 -17 -25 -91 -50 -165 -25 -74 -47 -146 -49 -160 -2 -14 -11 -51
-20 -81 -9 -30 -20 -68 -25 -85 -34 -116 -61 -214 -64 -235 -2 -14 -18 -79
-35 -145 -18 -66 -41 -151 -51 -190 -10 -38 -18 -81 -18 -95 0 -14 -10 -67
-21 -118 -28 -124 -60 -323 -63 -397 -1 -33 -6 -63 -11 -66 -10 -7 21 -89 34
-89 5 0 9 -5 9 -10 0 -15 114 -126 185 -181 77 -59 231 -143 298 -163 86 -26
88 -29 89 -147 1 -179 2 -174 -36 -199 -32 -23 -74 -107 -63 -127 2 -4 1 -35
-3 -68 -4 -33 -4 -71 0 -85 6 -19 -4 -48 -47 -128 -43 -83 -71 -121 -138 -188
-46 -46 -88 -84 -93 -84 -6 0 -12 -7 -15 -14 -4 -11 -1 -13 10 -9 12 5 14 3 8
-8 -5 -8 -5 -11 1 -6 5 5 9 14 9 20 0 6 12 18 27 26 24 14 34 13 120 -13 132
-39 155 -51 172 -84 15 -28 14 -30 -25 -71 -43 -44 -85 -54 -109 -26 -11 13
-7 15 21 16 31 2 32 2 6 6 -16 3 -26 10 -24 16 2 7 13 11 23 9 14 -2 16 -1 5
6 -10 7 -11 14 -2 31 19 35 6 24 -23 -19 -14 -22 -26 -46 -26 -54 0 -21 -27
-38 -50 -31 -11 3 -20 13 -20 21 0 11 6 13 19 9 11 -3 22 -1 26 5 3 6 -3 10
-14 10 -12 0 -21 5 -21 11 0 7 9 9 23 6 22 -6 22 -6 2 9 -19 14 -21 13 -35
-20 -12 -29 -21 -36 -42 -36 -15 0 -30 4 -33 10 -3 5 3 10 13 10 11 0 26 7 33
17 13 15 12 15 -8 2 -31 -19 -36 -8 -18 36 9 20 14 39 12 41 -2 3 -15 -20 -28
-51 -20 -46 -28 -55 -50 -55 -38 0 -43 12 -12 26 28 13 28 13 3 11 -18 -1 -24
2 -22 13 2 8 0 12 -4 7 -4 -4 -15 0 -25 9 -17 15 -19 15 -34 0 -9 -9 -14 -16
-10 -16 3 0 -1 -10 -9 -22 -23 -32 -21 -120 2 -141 10 -9 26 -16 37 -16 11 0
47 -5 80 -11 33 -7 95 -9 139 -6 83 6 127 25 211 90 21 17 41 30 42 28 2 -1
15 11 30 28 36 43 162 124 216 140 34 9 47 18 49 34 2 11 1 91 -2 176 -4 106
-2 164 6 185 17 44 32 222 23 281 -1 9 -12 20 -25 24 -12 5 -24 17 -27 27 -4
17 -5 17 -6 1 0 -10 -4 -18 -8 -18 -5 0 -8 -15 -9 -33 -1 -58 -12 -84 -43 -97
-43 -17 -115 -14 -158 7 -37 17 -38 20 -41 76 -2 31 1 57 5 57 4 0 6 23 4 51
l-3 52 30 -22 c17 -11 38 -21 49 -21 10 0 -1 11 -29 27 -27 14 -48 32 -48 40
0 17 0 17 51 -7 49 -22 157 -27 190 -10 21 12 26 1 7 -19 -11 -10 -8 -10 14
-2 24 9 32 6 65 -24 21 -19 62 -55 91 -81 56 -51 112 -77 134 -63 8 5 15 42
20 101 8 103 11 123 39 251 11 49 17 92 15 96 -3 4 -1 12 3 19 5 9 21 8 65 -3
33 -9 61 -13 64 -11 2 3 11 -1 19 -9 8 -8 26 -15 41 -15 15 0 39 -7 54 -14 63
-33 201 -59 318 -60 127 0 224 14 345 51 44 14 86 25 93 26 6 0 12 4 12 9 0 5
6 8 13 6 18 -3 57 12 57 23 0 5 3 8 8 7 12 -3 126 56 135 69 4 7 15 13 22 13
8 0 15 5 15 12 0 6 3 8 6 5 4 -4 20 5 36 18 16 14 36 25 44 25 8 0 14 5 14 10
0 6 9 10 20 10 11 0 23 7 26 15 4 8 10 13 14 10 5 -3 12 -1 15 5 9 14 120 70
140 70 8 0 15 4 15 10 0 5 7 7 15 4 8 -4 15 -2 15 3 0 5 8 9 18 10 9 0 40 4
67 8 l50 7 53 -110 c28 -60 52 -115 52 -122 0 -6 6 -24 14 -38 36 -70 76 -160
82 -187 4 -16 29 -76 56 -133 27 -57 52 -116 54 -130 3 -15 12 -33 21 -40 9
-6 14 -12 11 -12 -14 0 82 -195 97 -198 14 -3 67 33 124 85 14 12 27 20 31 18
3 -2 28 16 55 41 28 24 59 47 70 50 11 4 31 18 45 32 14 13 45 38 69 55 l44
30 23 -26 c13 -15 26 -43 30 -62 3 -19 10 -35 16 -35 5 0 6 -5 3 -10 -3 -6 -1
-10 5 -10 6 0 9 -4 6 -9 -7 -10 35 -93 42 -86 3 3 -1 16 -8 30 -7 14 -11 28
-7 31 3 4 0 13 -8 21 -15 14 -31 61 -24 66 37 25 178 132 220 169 31 26 59 48
63 48 3 0 6 -10 6 -22 0 -15 3 -19 10 -12 7 7 4 40 -8 101 l-19 91 26 28 c14
16 31 38 37 49 6 11 21 37 33 59 14 24 26 68 31 118 5 43 16 88 25 100 8 13
15 32 15 45 0 14 8 24 23 28 12 4 67 32 122 63 55 31 103 57 106 57 4 0 29 16
58 35 l51 35 0 55 c0 35 -8 71 -22 100 -12 25 -22 47 -23 50 -2 11 -38 75 -44
80 -11 8 -71 110 -65 110 3 0 -4 13 -15 29 -12 16 -21 34 -21 39 0 6 -6 17
-14 25 -8 8 -26 36 -39 63 -35 71 -79 147 -94 162 -7 7 -16 25 -20 40 -3 15
-9 29 -13 32 -10 8 -98 162 -108 191 -6 14 -21 41 -34 61 -26 41 -57 95 -59
106 -2 11 -35 70 -74 131 -19 30 -33 57 -32 60 1 3 -12 31 -30 61 -17 30 -63
125 -103 210 -87 187 -193 403 -201 410 -4 3 -32 57 -64 120 -32 63 -61 117
-65 120 -4 3 -30 52 -59 110 -29 58 -56 107 -60 110 -4 3 -28 45 -52 95 -24
49 -51 97 -61 107 -10 10 -22 44 -27 76 -5 33 -30 119 -55 193 -25 74 -46 140
-46 147 0 8 -25 83 -56 168 -55 151 -56 155 -41 191 8 21 18 63 22 93 3 30 18
89 33 130 23 65 26 92 27 198 0 79 -4 125 -11 130 -6 4 -10 14 -9 22 2 8 5 31
9 50 19 113 25 174 23 248 -1 62 1 82 11 82 7 0 57 31 111 70 82 58 101 78
123 122 30 60 60 151 64 188 1 14 14 59 28 100 16 45 29 108 33 158 6 77 4 84
-17 107 -13 14 -52 38 -87 54 -35 17 -62 34 -61 38 2 4 -10 37 -26 72 -30 67
-102 151 -130 151 -20 0 -20 19 -1 56 33 65 11 135 -49 150 -19 4 -27 17 -41
67 -14 55 -43 140 -77 230 -6 16 -17 34 -24 41 -7 7 -42 48 -79 92 -69 81
-112 122 -153 143 -16 9 -21 18 -17 29 4 9 9 27 11 40 3 13 11 43 20 67 18 55
54 223 52 250 0 11 5 72 11 136 12 105 11 119 -5 155 -9 21 -16 43 -15 47 1 5
-3 6 -9 2 -5 -3 -10 -2 -10 2 0 9 -29 23 -135 62 l-70 26 2 40 c2 22 7 105 13
185 13 186 13 320 0 320 -5 0 -7 7 -4 15 9 22 -33 137 -78 215 -42 73 -116
150 -143 150 -9 0 -13 5 -10 10 4 6 3 9 -2 8 -4 -1 -35 8 -68 21 -47 19 -83
24 -170 27 -60 1 -121 0 -135 -2z m276 -534 c12 -30 25 -69 28 -86 6 -27 4
-32 -16 -38 -38 -10 -128 -7 -128 4 0 6 10 49 21 96 21 81 23 85 47 82 21 -2
30 -14 48 -58z m52 -205 c-2 -17 -8 -25 -21 -25 -10 0 -32 -7 -50 -17 -31 -15
-31 -15 -17 2 14 17 14 18 -8 6 -12 -7 -20 -17 -16 -23 4 -6 3 -8 -3 -5 -6 4
-19 -3 -29 -16 -16 -18 -16 -19 -1 -8 19 15 24 2 6 -16 -14 -14 -5 -43 13 -43
10 0 9 3 -1 9 -15 9 -9 41 8 41 5 0 12 -14 16 -31 7 -30 7 -31 63 -27 l57 3 3
-155 c1 -85 -1 -204 -5 -265 l-8 -110 -46 -11 c-25 -7 -72 -14 -105 -17 -32
-3 -67 -9 -76 -12 -13 -5 -18 -2 -19 11 0 11 -3 14 -6 6 -2 -6 -10 -10 -16 -6
-7 3 -5 0 4 -8 10 -9 22 -53 34 -133 21 -143 48 -237 81 -286 32 -47 63 -211
71 -374 l6 -120 46 -37 c25 -21 103 -81 173 -134 143 -109 130 -84 144 -276 6
-87 -9 -212 -27 -223 -9 -6 -249 216 -401 372 -81 84 -115 127 -143 184 -27
53 -54 90 -99 130 l-61 56 -1 129 c0 71 -4 141 -8 155 -5 17 -1 42 13 76 12
31 21 80 22 128 2 52 9 85 19 97 15 19 16 19 35 -2 10 -11 22 -40 26 -63 4
-23 5 10 3 73 l-4 115 20 -90 c12 -49 22 -100 23 -112 1 -14 10 -23 27 -26 22
-5 23 -4 7 8 -19 13 -41 89 -53 173 -5 38 -11 52 -23 53 -10 0 -11 2 -3 6 7 3
12 23 12 51 0 25 -3 43 -6 39 -3 -3 -11 -1 -18 4 -6 6 -29 20 -51 33 l-40 22
0 169 c1 109 6 192 15 230 l14 60 17 -108 c17 -105 29 -146 29 -96 0 35 43
313 49 319 3 3 7 25 9 49 3 54 18 83 40 79 21 -4 30 -161 10 -186 -8 -9 -8
-13 -2 -9 16 9 24 -15 25 -71 0 -26 4 -65 8 -87 l9 -40 1 40 c1 22 4 70 8 108
5 63 7 67 27 61 20 -6 20 -5 3 8 -14 11 -18 25 -15 62 l3 49 90 38 c50 21 91
38 92 39 2 0 2 -11 1 -25z m370 -311 c117 -44 151 -93 105 -153 -23 -29 -45
-41 -42 -23 3 20 -3 27 -28 29 -19 1 -22 -1 -12 -8 12 -8 12 -10 -1 -19 -13
-8 -12 -10 3 -10 9 0 17 5 17 10 0 6 4 10 9 10 5 0 8 -8 7 -17 -2 -14 -74 -56
-178 -105 -49 -23 -120 -46 -110 -36 7 7 12 21 12 31 0 12 5 17 14 14 16 -6
40 16 30 26 -4 4 0 17 9 31 14 21 15 25 1 30 -8 3 -12 1 -9 -4 3 -5 -1 -20
-10 -34 -13 -19 -13 -25 -3 -29 8 -4 7 -6 -4 -6 -21 -1 -21 0 -6 36 13 32 14
37 18 78 l2 30 7 -29 c10 -48 25 -35 36 31 10 61 24 94 26 57 0 -16 2 -15 10
5 5 13 7 26 4 29 -3 3 -5 0 -5 -7 0 -7 -4 -9 -10 -6 -5 3 -10 22 -10 41 0 32
2 34 28 28 15 -4 55 -17 90 -30z m-1184 -34 c3 -19 6 -53 6 -74 0 -38 -1 -39
-16 -20 -14 18 -15 18 -4 -3 6 -13 15 -23 21 -23 7 0 10 -17 8 -44 -2 -24 -2
-42 1 -40 2 3 10 -19 16 -48 7 -29 12 -53 11 -54 -1 0 -31 10 -66 24 -61 24
-63 25 -40 38 13 7 27 10 31 8 4 -3 16 0 25 6 17 10 16 10 -2 8 -12 -2 -19 2
-17 10 1 6 -3 12 -8 12 -5 0 -10 -6 -10 -14 0 -17 -63 -42 -68 -26 -2 5 -9 7
-14 4 -7 -4 -8 -2 -4 4 8 13 -29 35 -47 29 -17 -7 -109 45 -103 58 2 6 -5 22
-16 36 l-20 24 16 -27 c22 -38 5 -36 -23 2 -27 37 -22 59 20 84 18 11 29 14
25 7 -4 -6 -3 -11 2 -11 6 0 12 6 15 13 7 19 160 55 229 53 22 0 27 -6 32 -36z
m882 -1305 c85 -21 187 -112 189 -169 1 -12 5 -29 10 -37 7 -11 6 -12 -6 -4
-8 6 -33 24 -56 39 -24 16 -40 33 -37 37 3 5 1 8 -5 7 -15 -4 -121 74 -121 90
0 7 -4 11 -9 7 -5 -3 -16 3 -23 13 -7 10 -22 24 -33 30 -18 11 -17 12 10 6 17
-3 53 -12 81 -19z m-303 -222 c-6 -15 -4 -16 8 -6 13 10 32 -5 117 -90 57 -57
100 -106 97 -110 -3 -4 -2 -5 2 -2 11 8 43 -27 36 -39 -3 -6 -3 -8 2 -4 4 4
24 -7 44 -24 40 -35 59 -61 39 -53 -8 3 -14 -4 -14 -19 -1 -18 2 -23 14 -19 8
4 13 2 10 -3 -4 -5 7 -9 22 -9 16 -1 26 3 24 7 -3 5 -10 5 -16 2 -7 -4 -8 -2
-4 4 4 8 2 10 -7 6 -8 -3 -18 -1 -21 4 -3 6 0 12 7 15 7 2 40 -22 75 -54 l62
-58 -27 -110 c-15 -60 -30 -108 -33 -106 -4 2 -6 -4 -6 -13 1 -9 -5 -63 -13
-119 -11 -83 -11 -132 -2 -253 7 -83 9 -156 5 -162 -4 -7 -3 -8 4 -4 9 5 12
-17 12 -81 0 -48 -3 -98 -6 -110 -11 -41 -50 -35 -111 20 -25 22 -20 45 5 25
12 -9 11 -5 -3 12 -11 14 -21 27 -23 30 -2 3 -2 -4 0 -14 1 -10 -3 -21 -9 -23
-7 -3 -13 1 -13 9 0 7 -8 18 -19 25 -16 10 -101 154 -101 171 0 4 5 0 10 -8 6
-9 10 -10 10 -3 0 7 -6 16 -14 20 -19 11 -78 131 -71 144 4 5 11 7 16 4 5 -3
6 1 3 10 -5 12 -10 13 -17 6 -8 -8 -15 -1 -24 21 -9 20 -10 34 -4 36 5 2 7 10
4 19 -4 11 -3 14 6 9 8 -5 10 -19 6 -38 -5 -21 -4 -28 4 -24 6 4 11 14 11 22
0 8 5 12 10 9 6 -3 10 -2 10 3 0 6 -7 12 -15 16 -8 3 -15 11 -15 18 -1 20 -40
66 -40 48 0 -9 5 -21 11 -27 7 -7 8 -17 2 -28 -7 -12 -15 7 -31 77 -37 156
-41 186 -26 192 8 3 14 20 14 41 0 20 -4 34 -9 31 -4 -3 -6 -16 -4 -30 3 -13
0 -26 -5 -30 -9 -5 -19 66 -22 154 0 8 -4 51 -9 95 -13 108 -13 402 -1 410 5
3 7 13 3 23 -3 9 4 2 16 -15 12 -20 18 -40 14 -50z m-902 -502 c52 -10 178
-33 281 -51 116 -21 185 -37 181 -43 -4 -6 -1 -7 6 -2 7 4 45 2 85 -5 l71 -12
1 -36 c1 -21 8 -82 17 -137 35 -220 75 -366 143 -512 29 -65 31 -73 15 -73
-33 0 -323 40 -441 61 -193 34 -652 139 -667 153 -2 1 4 54 13 117 8 63 17
137 20 164 8 75 41 189 73 253 34 66 87 142 100 142 5 0 51 -8 102 -19z m-89
-1145 c213 -52 310 -72 388 -81 30 -4 102 -13 160 -20 58 -7 204 -21 326 -31
l220 -18 -4 -23 c-3 -16 0 -23 12 -23 12 0 16 10 16 39 0 21 3 59 6 84 l7 46
66 -60 c36 -33 97 -75 136 -94 60 -29 75 -33 108 -26 20 5 48 16 62 25 20 13
59 16 236 16 l212 0 -7 -37 c-3 -21 -6 -48 -6 -61 0 -13 -4 -20 -10 -17 -6 3
-7 -1 -4 -10 4 -9 -1 -36 -10 -60 -14 -35 -26 -48 -60 -65 -84 -40 -168 -51
-441 -57 -225 -5 -281 -3 -420 15 -88 11 -224 29 -303 38 -86 11 -137 21 -130
26 8 5 3 6 -13 3 -40 -10 -174 17 -504 101 -96 24 -300 93 -321 109 -16 11
-20 29 -22 120 -2 58 -1 117 2 130 l6 24 53 -24 c28 -13 136 -44 239 -69z
m833 -2098 c-6 -5 -3 -8 8 -8 24 0 21 -17 -8 -46 -28 -28 -33 -54 -10 -54 8 0
15 8 15 18 0 10 6 27 14 37 13 18 14 18 21 -6 4 -13 25 -61 46 -107 22 -45 39
-84 39 -87 0 -2 34 -77 76 -166 41 -89 73 -168 70 -176 -3 -8 -2 -12 3 -9 11
7 64 -92 56 -104 -8 -13 -25 -13 -25 1 0 5 5 7 10 4 6 -3 10 -2 10 3 0 17 -13
21 -26 7 -8 -7 -19 -15 -26 -18 -7 -2 -9 -8 -5 -13 4 -5 12 -2 16 5 6 10 10
10 16 2 3 -7 14 -9 23 -7 25 8 131 -206 125 -250 -3 -18 -1 -34 5 -38 5 -3 7
6 5 22 -3 17 8 4 30 -38 19 -36 33 -68 30 -73 -7 -12 -23 2 -17 17 6 15 -23
42 -34 32 -4 -4 1 -12 10 -17 11 -6 15 -19 13 -39 -2 -16 1 -33 7 -36 7 -5 9
-2 5 8 -4 11 1 18 14 21 17 5 18 3 7 -11 -11 -14 -10 -15 5 -9 11 4 16 3 12
-3 -3 -6 -1 -10 5 -10 6 0 9 -4 6 -9 -4 -5 -2 -11 2 -13 19 -7 92 -156 86
-174 -4 -15 -4 -16 4 -5 8 11 14 7 27 -20 10 -19 29 -53 42 -76 14 -24 20 -43
14 -43 -6 0 -11 5 -11 11 0 6 -11 24 -24 40 l-24 28 -18 -21 c-19 -21 -19 -21
2 -10 34 18 59 -17 59 -83 0 -34 3 -48 8 -39 5 9 6 21 3 29 -2 7 1 18 8 24 8
7 16 4 26 -12 12 -21 12 -21 -5 -7 -17 14 -18 14 -6 -8 7 -13 15 -21 18 -18 9
9 74 -125 66 -137 -3 -5 -1 -7 4 -4 16 10 53 -87 41 -104 -7 -10 -8 -9 -3 6 4
14 3 17 -5 9 -7 -7 -7 -19 -1 -35 l9 -24 9 22 c8 21 11 17 34 -35 25 -57 25
-58 5 -59 -12 -1 -34 -4 -51 -7 -31 -6 -65 7 -52 20 3 4 13 1 22 -6 13 -11 14
-10 9 4 -7 17 -14 19 -39 10 -14 -6 -14 -8 0 -24 14 -15 12 -18 -27 -30 -24
-8 -47 -13 -52 -11 -5 1 -13 -4 -17 -11 -7 -11 -12 -11 -29 0 -12 7 -20 8 -20
2 0 -5 5 -10 11 -10 8 0 8 -5 -1 -15 -7 -8 -16 -15 -21 -15 -5 0 -33 -16 -63
-35 -30 -19 -57 -35 -60 -35 -3 0 -31 -18 -63 -39 -55 -39 -57 -39 -87 -25
l-31 15 24 -19 24 -20 -31 -16 c-36 -19 -69 -21 -74 -5 -2 7 -10 4 -18 -7 -9
-11 -10 -15 -2 -10 6 4 17 4 23 0 7 -4 0 -12 -17 -19 -16 -7 -51 -22 -77 -34
-26 -11 -45 -17 -42 -12 3 6 -7 3 -22 -4 -42 -21 -87 -30 -79 -17 5 8 2 10 -8
6 -9 -3 -14 -10 -11 -14 10 -17 -135 -35 -280 -35 -126 0 -163 4 -232 24 -46
13 -83 27 -83 33 0 5 4 6 10 3 5 -3 18 -2 27 4 15 8 14 10 -7 7 -14 -1 -31 -5
-37 -9 -6 -4 -45 4 -85 17 -40 13 -90 28 -111 31 -28 6 -36 11 -33 24 2 9 19
79 36 156 56 245 167 689 181 724 14 32 16 33 32 17 9 -10 17 -13 17 -7 0 5
-7 16 -15 24 -12 12 -12 22 -4 46 6 17 15 29 21 28 6 -1 13 4 16 12 3 8 0 11
-7 7 -18 -12 -12 13 8 33 11 11 15 21 10 23 -9 3 53 178 86 241 8 16 15 33 15
39 0 17 114 303 122 306 5 2 6 8 3 13 -3 4 1 21 8 36 55 107 177 499 177 569
0 35 16 29 25 -8 4 -18 9 -28 12 -21 2 7 -3 28 -12 47 -11 24 -15 45 -10 67 7
31 9 29 44 -57 24 -58 33 -92 26 -96z m2174 -2379 c9 -43 9 -56 -3 -74 -16
-24 -119 -111 -218 -183 l-57 -42 -21 39 c-11 22 -20 47 -20 56 0 8 51 53 113
100 61 46 130 100 152 119 22 19 41 35 42 36 1 0 6 -23 12 -51z m-3566 -23
c18 -14 46 -28 62 -32 32 -7 134 -65 135 -75 0 -7 -62 -19 -102 -19 -15 0 -52
11 -83 24 l-55 25 0 50 c0 28 3 51 6 51 3 0 20 -11 37 -24z"/>
<path d="M2176 8978 c-34 -48 -15 -58 110 -58 70 0 144 13 144 26 0 2 -5 12
-11 22 -9 15 -24 17 -110 14 -67 -3 -99 0 -99 7 0 18 -18 12 -34 -11z"/>
<path d="M4153 1010 c2 -8 -5 -25 -16 -37 -23 -26 -25 -61 -8 -189 6 -48 19
-96 31 -117 14 -23 19 -43 14 -61 -3 -15 0 -37 9 -55 8 -17 13 -40 10 -51 -3
-11 -1 -20 5 -20 5 0 10 -10 10 -22 0 -111 23 -215 52 -233 5 -3 10 -25 11
-48 1 -91 19 -120 99 -157 9 -4 40 -5 69 -2 43 4 52 2 46 -8 -6 -10 2 -12 41
-6 78 12 103 13 98 4 -3 -4 0 -8 5 -8 6 0 11 5 11 10 0 6 10 10 23 10 43 0 67
13 87 45 24 38 26 82 5 121 -14 27 -15 27 -15 7 0 -16 -6 -23 -20 -23 -22 0
-28 25 -7 33 6 3 3 6 -8 7 -16 1 -15 4 10 16 l30 15 -28 -4 c-22 -4 -31 0 -37
17 -6 15 -9 17 -9 5 -1 -9 -13 -20 -27 -23 -37 -10 -28 -40 14 -44 33 -3 43
-19 17 -28 -8 -4 -26 -3 -40 0 -19 5 -25 13 -25 34 0 31 -19 106 -26 100 -2
-2 0 -19 5 -36 8 -26 6 -34 -7 -42 -16 -9 -16 -9 1 -10 9 0 17 -4 17 -10 0
-17 -38 -11 -49 8 -6 9 -11 12 -11 7 0 -17 22 -35 42 -35 12 0 15 -5 11 -16
-4 -10 -16 -14 -37 -12 -29 3 -31 6 -39 58 -5 30 -12 59 -17 63 -4 5 -5 -2 -3
-15 4 -21 -1 -26 -34 -36 -33 -10 -40 -10 -50 5 -7 9 -14 26 -14 37 -1 17 -2
18 -6 4 -3 -12 -14 -18 -34 -18 -23 0 -30 -4 -27 -17 2 -9 10 -19 18 -21 13
-5 13 -3 1 11 -12 15 -11 17 12 17 29 0 48 -20 20 -21 -14 0 -14 -2 -3 -6 8
-2 22 -7 30 -10 25 -10 34 -9 48 4 16 15 42 17 42 4 0 -5 -6 -12 -12 -14 -8
-3 -5 -6 5 -6 27 -1 17 -35 -12 -39 -13 -2 -32 5 -45 18 -20 18 -24 19 -36 5
-32 -39 -120 4 -120 58 0 14 -7 38 -15 53 -40 76 -7 104 132 111 96 5 153 -7
256 -52 18 -7 18 -6 -1 31 -11 21 -20 41 -20 44 -1 19 -15 60 -21 60 -4 0 -8
6 -8 13 0 8 -17 58 -38 112 l-38 98 6 127 c4 88 2 131 -6 139 -6 6 -8 11 -4
11 4 0 -2 9 -13 20 -32 32 -50 26 -50 -19 0 -31 -6 -44 -30 -65 -53 -44 -186
-72 -207 -43 -17 23 -34 87 -27 99 4 7 3 10 -1 5 -5 -4 -17 5 -28 20 -10 16
-17 21 -14 13z"/>
</g>
</svg>
