<?xml version="1.0" standalone="no"?>
<!DOCTYPE svg PUBLIC "-//W3C//DTD SVG 20010904//EN"
 "http://www.w3.org/TR/2001/REC-SVG-20010904/DTD/svg10.dtd">
<svg version="1.0" xmlns="http://www.w3.org/2000/svg"
 width="400.000000pt" height="600.000000pt" viewBox="0 0 400.000000 600.000000"
 preserveAspectRatio="xMidYMid meet">
<metadata>
Created by potrace 1.16, written by Peter Selinger 2001-2019
</metadata>
<g transform="translate(0.000000,600.000000) scale(0.089087,-0.063025)"
fill="#000000" stroke="none">
<path d="M1998 8768 l-58 -11 0 -68 c0 -39 8 -94 20 -131 11 -34 20 -65 20
-67 0 -3 -15 10 -34 28 -40 39 -93 142 -105 203 -5 24 -9 33 -10 22 -1 -12
-17 -56 -36 -98 -19 -43 -35 -87 -36 -99 -1 -34 -28 83 -29 128 -1 22 -4 33
-7 25 -12 -32 -117 -110 -130 -97 -2 3 5 23 16 46 12 22 21 44 21 48 -1 12
-59 -100 -60 -114 0 -7 18 -2 46 13 59 31 68 31 59 -3 -4 -16 -8 -50 -9 -78
-1 -44 3 -53 28 -75 16 -13 34 -25 40 -26 6 0 19 -2 28 -2 9 -1 19 -10 21 -19
4 -15 5 -15 6 -2 1 12 8 15 26 12 20 -4 23 -9 19 -33 -7 -32 21 -94 38 -84 6
4 8 3 4 -4 -6 -10 32 -43 64 -54 9 -3 33 -2 55 2 l40 8 -46 1 c-62 1 -99 30
-99 76 0 32 13 45 45 45 11 0 11 -6 2 -30 -12 -33 -3 -60 24 -68 8 -3 6 2 -4
10 -23 17 -19 56 6 72 13 8 24 7 45 -4 32 -19 39 -42 17 -64 -9 -9 -12 -16 -5
-16 6 0 16 11 22 26 l12 25 13 -23 c14 -23 14 -22 8 6 l-6 29 26 -17 c24 -16
65 -14 65 2 0 4 -26 18 -57 32 -80 35 -87 36 -23 1 81 -44 45 -37 -52 10 -45
22 -70 38 -54 34 38 -8 440 -8 486 0 22 4 -3 -11 -64 -39 -55 -25 -102 -44
-104 -41 -3 3 21 16 52 31 32 14 55 28 53 31 -3 2 -28 -7 -56 -21 -28 -14 -58
-26 -67 -26 -14 0 -14 -3 -3 -16 12 -14 31 -14 73 2 11 4 16 0 16 -12 0 -16 2
-17 10 -4 5 8 14 15 20 15 5 0 10 5 11 10 0 13 39 34 61 35 9 0 24 -8 34 -17
16 -16 16 -16 10 5 -5 15 -3 22 6 22 27 0 38 -17 35 -50 -5 -43 -39 -68 -102
-73 l-50 -3 58 -2 c49 -2 64 2 93 25 44 33 68 77 60 113 -4 25 7 40 29 40 2 0
6 -26 8 -57 l3 -58 2 57 c2 53 4 57 32 66 16 6 31 8 34 4 7 -12 -28 -166 -40
-177 -6 -5 -16 -19 -22 -30 -10 -17 -12 -12 -13 30 -2 41 -3 36 -8 -27 -4 -43
-10 -80 -13 -83 -3 -4 -24 3 -47 14 -22 12 -46 21 -53 21 -7 0 11 -11 40 -25
52 -24 61 -40 46 -79 -5 -13 -12 -12 -50 10 -25 15 -47 24 -50 22 -2 -3 9 -11
25 -18 16 -6 37 -20 47 -31 14 -16 15 -23 4 -49 -13 -31 -13 -31 -34 -12 -12
10 -28 23 -36 27 -8 4 0 -5 19 -22 l34 -29 -26 -51 c-30 -58 -81 -105 -185
-170 -67 -42 -79 -46 -140 -47 -56 -1 -75 4 -119 28 -56 31 -131 98 -180 161
-23 30 -31 35 -30 20 1 -11 6 -23 11 -26 5 -4 3 -19 -3 -35 l-11 -29 4 28 c2
15 -1 27 -7 27 -5 0 -7 -12 -4 -27 9 -47 16 -99 11 -80 -7 23 -19 22 -67 -11
-44 -30 -157 -85 -157 -76 0 3 23 39 51 80 67 99 112 199 99 222 -5 9 -12 39
-15 65 -5 37 -9 46 -19 38 -9 -7 -16 -7 -25 2 -11 10 -13 9 -9 -3 5 -15 -44
-122 -88 -191 -12 -20 -20 -40 -16 -44 4 -4 2 -5 -4 -3 -6 2 -23 -11 -37 -28
-31 -36 -35 -53 -9 -33 15 13 16 12 3 -4 -8 -9 -16 -15 -19 -12 -7 7 -32 -15
-32 -27 0 -6 8 -4 18 3 9 7 6 1 -7 -14 -27 -30 -41 -37 -20 -9 7 9 1 6 -14 -7
-27 -25 -37 -48 -14 -35 6 4 3 -2 -7 -14 -23 -26 -34 -29 -15 -4 11 14 10 13
-9 -2 -22 -19 -31 -43 -12 -31 16 10 11 -1 -7 -16 -11 -10 -14 -10 -9 -1 4 6
3 12 -2 12 -6 0 -12 -6 -15 -14 -3 -8 -27 -27 -54 -42 -93 -52 -203 -178 -203
-231 0 -8 -7 -44 -15 -81 -15 -63 -19 -69 -66 -102 -28 -19 -68 -48 -89 -65
-21 -16 -48 -38 -61 -47 -137 -97 -382 -291 -313 -247 16 11 395 295 482 362
6 5 12 7 12 4 0 -3 -248 -194 -498 -382 -14 -11 -23 -14 -18 -7 12 19 -7 13
-35 -11 -31 -28 -79 -97 -79 -115 0 -10 69 -48 95 -52 3 -1 20 -7 40 -16 33
-13 36 -13 52 8 23 29 123 129 148 148 11 8 55 43 97 78 42 34 79 62 83 62 4
0 13 7 21 15 25 24 31 18 38 -35 4 -28 9 -56 12 -64 3 -8 -8 -29 -24 -47 -52
-59 -156 -220 -215 -332 -58 -110 -63 -122 -49 -113 4 3 26 1 48 -4 89 -20
118 -20 137 3 18 22 18 22 12 -14 -9 -52 48 -147 113 -187 44 -27 49 -35 60
-83 7 -30 15 -63 18 -74 5 -20 1 -20 -423 -17 -342 2 -432 0 -447 -11 -13 -9
-22 -41 -33 -117 l-16 -105 -74 3 c-41 2 -86 1 -100 -3 -27 -6 -57 -63 -47
-89 3 -8 3 -20 -1 -26 -11 -17 -15 -97 -14 -285 0 -156 3 -242 9 -255 2 -3 4
-24 5 -48 5 -67 14 -72 124 -72 l97 0 15 -110 c9 -60 22 -117 29 -125 11 -14
62 -15 406 -13 217 2 394 1 394 -2 0 -13 -35 -171 -76 -339 -53 -222 -107
-353 -233 -575 -152 -267 -233 -484 -262 -705 -6 -41 -13 -90 -18 -110 -7 -32
-3 -43 35 -99 75 -114 161 -193 319 -296 51 -33 53 -36 41 -101 -5 -24 -4 -26
5 -12 9 16 16 12 64 -33 76 -73 257 -200 285 -200 5 0 11 -4 14 -8 3 -5 -13
-107 -35 -228 -22 -120 -41 -227 -42 -237 -1 -16 -7 -18 -37 -13 -74 12 -286
78 -334 104 -50 27 -51 28 -49 72 1 41 0 43 -9 17 -14 -40 -4 -69 34 -92 18
-11 35 -20 38 -20 3 0 10 -3 15 -6 6 -4 25 -10 43 -14 42 -9 41 -25 -5 -50
-31 -16 -39 -28 -46 -60 -10 -54 -10 -56 -3 -90 5 -23 4 -25 -3 -10 -9 19 -10
19 -10 -2 -1 -13 -5 -23 -11 -23 -5 0 -10 -7 -10 -15 0 -8 4 -15 8 -15 11 0
36 -109 28 -117 -3 -4 -6 4 -6 17 0 17 -3 21 -11 13 -8 -8 -8 -17 0 -31 14
-26 14 -35 1 -27 -5 3 -10 0 -10 -8 0 -8 -8 -22 -19 -31 -10 -9 -21 -30 -24
-45 -18 -90 -18 -88 -2 -51 l15 35 -6 -35 c-4 -19 -10 -36 -15 -38 -5 -2 -9
-12 -9 -23 0 -10 -4 -19 -8 -19 -11 0 -12 -62 -1 -76 8 -10 3 -26 -46 -139 -7
-16 -27 -68 -45 -115 -17 -47 -36 -90 -42 -97 -5 -7 -7 -16 -4 -22 7 -11 -25
-71 -37 -71 -5 0 1 17 13 38 l21 37 -23 -30 c-13 -16 -37 -43 -55 -60 -18 -17
-46 -58 -64 -90 -17 -33 -37 -67 -44 -75 -7 -9 -11 -29 -8 -48 3 -19 -2 -51
-11 -76 -10 -26 -15 -59 -12 -87 3 -24 5 -52 5 -61 1 -10 17 -35 36 -57 34
-37 74 -57 165 -82 53 -14 179 -19 186 -7 3 5 14 6 25 3 10 -4 19 -2 19 3 0 6
11 13 24 16 13 3 52 29 86 58 47 39 70 68 95 119 18 37 31 70 29 72 -4 4 3 42
21 125 3 12 13 22 23 22 25 0 95 114 98 158 1 21 5 90 9 155 4 69 4 122 -2
130 -12 15 -9 104 5 137 5 14 17 62 26 106 13 61 14 88 6 109 -14 36 6 132 30
145 15 8 48 94 42 112 -1 4 5 25 12 47 17 47 12 77 -21 112 l-24 26 68 2 c37
1 82 6 99 11 27 9 31 16 42 73 7 34 14 79 17 101 2 21 9 44 15 51 5 6 8 14 5
17 -3 2 4 54 15 114 30 165 27 157 58 149 15 -4 36 -9 46 -11 10 -2 34 -8 53
-15 48 -16 63 -7 58 35 -5 41 -16 300 -21 510 -3 139 -2 151 20 195 13 25 33
74 46 107 l22 61 -20 40 c-14 26 -17 44 -11 54 5 8 9 21 8 29 0 8 -6 0 -14
-18 -19 -44 -45 -43 -45 3 0 28 5 37 30 50 28 14 30 14 31 -2 1 -21 27 44 27
67 0 8 -4 3 -9 -12 -8 -20 -50 -48 -73 -48 -1 0 0 15 2 34 4 31 7 34 44 39 22
3 42 8 45 11 7 6 63 177 63 190 0 6 -6 2 -12 -7 -9 -11 -34 -19 -75 -23 l-63
-7 0 32 0 32 98 -1 c53 -1 115 2 137 5 22 4 47 8 55 9 9 1 20 5 25 8 11 7 149
19 255 23 36 1 73 6 83 10 10 4 22 4 26 -1 14 -16 79 -225 101 -324 25 -110
77 -253 131 -360 38 -77 44 -95 54 -188 4 -30 23 -104 42 -165 20 -62 37 -119
38 -127 1 -8 10 -50 19 -92 10 -42 15 -82 11 -88 -3 -5 -2 -10 2 -10 7 0 40
-152 48 -225 2 -11 7 -38 13 -60 6 -22 16 -74 23 -115 7 -41 14 -78 15 -82 1
-5 2 -14 3 -21 1 -15 76 -43 102 -39 10 2 20 -2 24 -8 3 -5 17 -7 31 -4 34 9
42 -20 13 -50 -28 -29 -32 -76 -7 -94 12 -8 18 -25 17 -45 l-2 -32 -6 35 c-6
31 -7 33 -13 12 -7 -25 14 -87 25 -75 4 3 7 -7 6 -23 0 -25 -2 -26 -9 -9 -7
15 -9 16 -9 4 -1 -9 13 -30 30 -47 24 -23 30 -37 27 -56 -3 -14 -2 -26 2 -26
15 0 18 -51 4 -57 -8 -3 -13 -15 -13 -27 1 -16 2 -17 6 -4 5 21 23 24 23 4 0
-8 3 -23 7 -33 6 -16 5 -16 -10 -4 -24 19 -32 7 -19 -26 6 -15 16 -55 22 -87
6 -39 17 -64 30 -73 17 -12 19 -23 16 -71 -2 -31 -7 -126 -11 -210 -8 -151 -8
-153 19 -216 15 -36 33 -67 41 -69 7 -3 15 -16 19 -30 14 -56 87 -198 122
-237 40 -44 100 -80 133 -80 11 0 22 -4 25 -9 8 -12 186 -2 231 13 46 16 88
42 109 67 20 24 23 39 24 111 1 81 -21 178 -40 178 -5 0 -2 -13 7 -30 9 -18
11 -30 5 -30 -8 0 -7 -6 0 -20 6 -11 8 -25 5 -30 -9 -15 -35 -12 -35 5 0 9 6
12 15 9 11 -5 13 -2 9 10 -3 9 -12 16 -18 16 -7 0 -18 12 -25 26 -6 15 -14 24
-16 22 -3 -3 2 -20 12 -38 11 -23 13 -35 5 -38 -6 -2 -8 -10 -5 -18 3 -8 0
-14 -7 -14 -19 0 -40 27 -40 53 0 23 -39 84 -40 61 0 -5 4 -14 9 -20 13 -13
25 -84 14 -84 -5 0 -9 -9 -9 -20 0 -11 4 -20 8 -20 4 0 8 -7 8 -15 0 -14 -46
-33 -56 -23 -2 3 -9 34 -15 68 -10 64 -26 106 -36 96 -3 -3 -1 -11 4 -18 6 -7
13 -30 17 -50 6 -35 5 -38 -16 -38 -13 0 -30 -5 -38 -10 -11 -7 -5 -8 19 -3
29 5 33 4 28 -10 -4 -10 -2 -17 3 -17 21 0 9 -30 -15 -36 -33 -8 -55 1 -55 23
0 21 -67 160 -82 169 -5 4 -3 -4 5 -17 8 -13 17 -36 21 -51 6 -24 3 -28 -17
-28 -13 0 -31 -6 -41 -13 -15 -11 -17 -17 -7 -35 6 -12 14 -22 17 -22 2 0 0
10 -7 21 -14 27 3 40 45 37 41 -4 44 -24 5 -32 -18 -3 -30 -8 -27 -11 2 -3 19
-1 36 4 36 11 43 5 32 -25 -16 -40 -117 -41 -145 0 -8 11 -15 30 -16 41 -1 17
-2 16 -8 -4 l-7 -24 -19 29 c-30 46 -22 111 21 154 49 51 110 70 239 77 120 5
169 -6 198 -48 8 -11 17 -17 20 -12 6 10 -78 156 -93 161 -12 4 -146 346 -154
395 -4 23 -3 44 4 52 7 9 8 26 0 60 -6 25 -8 50 -5 55 3 5 0 12 -6 15 -5 4 -8
13 -5 20 2 7 2 16 -2 19 -3 4 -8 19 -10 34 -2 15 -12 36 -22 47 -23 24 -36
131 -19 151 8 10 8 27 0 64 -6 28 -10 54 -9 58 0 4 -2 30 -7 59 -8 55 -26 75
-80 89 l-27 7 8 -44 c13 -79 13 -79 -49 -105 -43 -18 -84 -26 -155 -30 -121
-7 -133 0 -140 78 l-4 56 83 7 c46 3 119 18 161 31 43 14 82 23 88 19 5 -3 10
-2 10 3 0 4 28 26 63 48 38 25 69 54 81 76 l19 35 -47 192 c-39 154 -46 195
-36 206 7 8 18 15 25 15 8 0 15 3 17 8 5 10 66 52 77 52 5 0 11 4 13 9 1 4 66
61 143 126 93 78 169 153 228 224 48 58 108 130 132 159 53 64 219 362 230
412 4 19 10 39 13 45 3 5 7 16 8 25 1 8 7 40 13 70 7 30 12 84 13 120 0 36 5
68 11 72 7 4 4 12 -6 23 -10 9 -17 29 -17 44 0 28 -168 288 -267 413 -29 36
-53 68 -53 71 0 7 -44 59 -125 147 -38 41 -114 123 -167 181 -54 59 -106 117
-117 130 l-19 24 200 -3 c237 -4 233 -6 244 96 10 86 10 92 12 125 l2 27 105
0 c119 0 105 -13 125 115 13 82 11 563 -3 572 -5 3 -6 15 -3 27 4 15 -2 30
-15 45 -20 21 -29 23 -114 19 -78 -2 -93 0 -94 12 0 8 -2 26 -4 40 -2 14 -7
53 -11 87 -13 103 24 97 -500 91 l-455 -6 29 58 c27 54 36 100 39 213 1 26 4
28 39 26 53 -3 144 44 187 97 31 38 35 48 30 86 -9 76 -40 197 -66 253 -10 22
-32 90 -50 150 -25 88 -31 126 -30 191 2 78 1 83 -31 125 -20 26 -39 67 -46
99 -35 153 -44 172 -114 241 -50 49 -88 75 -142 100 -47 21 -79 42 -85 56 -6
12 -22 25 -36 29 -14 3 -25 9 -25 13 0 4 -8 7 -17 8 -32 2 -99 22 -129 38 -16
8 -35 15 -42 15 -6 0 -28 9 -48 19 -23 13 -47 18 -68 14 l-32 -5 -2 68 c-2 37
-6 74 -11 82 -5 9 1 30 16 58 27 49 38 54 48 24 4 -11 11 -18 16 -15 5 4 0 18
-11 33 -17 23 -19 33 -11 57 6 17 15 49 21 73 9 35 15 42 35 42 23 0 25 -4 25
-47 l-1 -48 -17 28 c-9 15 -20 27 -24 27 -13 0 -9 -7 22 -42 l30 -32 1 69 c1
39 0 85 -1 103 -1 22 8 47 24 73 14 21 26 44 26 51 0 7 -9 -2 -20 -19 -27 -45
-30 -41 -12 12 13 41 32 61 32 34 0 -5 5 -7 10 -4 7 4 6 13 -1 26 -8 15 -7 24
2 36 12 13 14 13 26 -3 20 -27 17 -39 -27 -111 -22 -37 -40 -71 -40 -77 0 -6
21 25 46 68 40 69 45 82 39 118 -4 22 -16 47 -26 56 -11 10 -19 29 -19 47 0
17 -5 36 -12 43 -6 6 -10 14 -7 16 2 3 28 -18 57 -46 44 -43 52 -47 52 -28 0
11 -4 19 -9 15 -6 -3 -46 26 -90 66 -61 53 -84 80 -92 110 -7 21 -15 39 -19
39 -4 0 17 -73 46 -162 30 -89 52 -163 51 -165 -2 -2 -48 58 -101 132 -123
169 -166 218 -197 222 -77 9 -392 10 -441 1z m267 -64 c209 -5 234 -9 229 -32
-3 -9 2 -26 11 -37 9 -11 14 -15 11 -10 -2 6 -1 17 5 25 6 11 9 6 9 -17 0 -18
-5 -33 -11 -33 -5 0 -7 -4 -4 -10 3 -5 1 -10 -4 -10 -6 0 -11 -4 -11 -10 0 -5
7 -10 15 -10 19 0 21 -63 3 -78 -28 -22 -128 -32 -313 -32 l-193 0 -17 43 c-9
24 -22 77 -29 118 -12 69 -11 74 6 81 10 4 18 12 18 19 0 7 16 9 53 4 28 -3
129 -8 222 -11z m337 -1060 c29 -14 94 -46 143 -71 l90 -46 -43 -86 c-23 -47
-94 -192 -157 -321 -63 -129 -157 -316 -210 -415 -53 -99 -108 -206 -123 -237
-25 -51 -31 -57 -71 -68 -24 -6 -62 -8 -85 -4 -39 6 -44 11 -99 95 -31 49 -60
94 -62 101 -3 8 22 65 56 128 33 63 137 266 230 450 134 265 261 497 276 500
1 0 25 -12 55 -26z m-369 -103 c8 -119 -4 -372 -18 -401 -11 -21 -14 -4 -19
120 -4 80 -6 193 -4 252 3 91 6 108 19 108 13 0 17 -15 22 -79z m-470 -887
c37 -37 67 -72 67 -77 0 -10 -48 23 -74 52 -26 28 -73 35 -121 17 -22 -8 -32
-15 -23 -15 9 -1 29 4 44 9 37 14 82 -2 123 -44 19 -19 44 -37 56 -40 16 -4
32 -23 48 -58 14 -29 24 -54 22 -56 -2 -2 -45 24 -96 57 -57 38 -102 61 -118
60 -23 -1 -22 -2 7 -9 18 -4 50 -21 70 -37 20 -17 53 -38 72 -48 41 -21 68
-43 81 -67 9 -16 1 -17 -99 -14 -60 1 -114 6 -120 10 -6 4 -39 1 -72 -6 -52
-10 -63 -10 -70 2 -15 24 -11 37 5 16 13 -17 18 -18 41 -7 22 10 24 14 13 27
-10 13 -10 17 2 25 8 5 23 9 34 10 15 1 16 2 4 6 -9 2 -42 -8 -74 -22 -91 -40
-167 -28 -109 17 27 22 34 22 34 3 0 -14 -12 -20 -33 -16 -5 1 -6 -3 -2 -9 11
-17 46 9 43 32 -3 22 37 48 102 67 l35 10 -40 -6 c-22 -3 -59 -16 -82 -29 -23
-13 -49 -24 -59 -24 -16 0 -16 2 2 22 14 17 15 20 2 9 -9 -7 -23 -9 -29 -5 -9
5 -10 2 -6 -9 3 -10 2 -17 -3 -17 -6 0 -10 2 -10 4 0 2 -2 11 -5 18 -5 13 55
61 120 96 11 6 14 12 7 12 -7 0 -30 -11 -51 -25 -33 -20 -41 -22 -51 -10 -14
17 -6 33 42 74 44 38 131 72 173 67 21 -3 50 -24 98 -72z m494 -852 c8 -5 14
-55 18 -147 5 -109 12 -158 32 -224 29 -93 25 -127 -17 -148 -13 -7 -26 -10
-29 -8 -7 7 21 35 29 30 5 -3 12 0 16 6 4 7 3 9 -4 6 -6 -5 -13 9 -17 35 -4
24 -16 65 -26 91 -23 58 -23 67 -4 67 8 0 15 8 15 18 0 14 -2 15 -10 2 -5 -8
-11 -12 -14 -10 -6 7 -12 290 -6 290 3 0 10 -4 17 -8z m-721 -253 c74 -29 131
-55 127 -59 -162 -134 -437 -387 -464 -427 -32 -46 -44 -47 -60 -6 -27 71 -41
322 -21 373 14 35 89 120 163 184 l64 55 28 -34 c21 -26 56 -44 163 -86z m745
-318 c2 -42 -1 -130 -7 -213 -6 -74 -7 -78 -30 -78 -21 0 -24 5 -24 38 1 62
23 271 29 278 1 0 8 1 16 1 9 0 15 -10 16 -26z m-81 -616 l0 -255 -103 0 c-57
0 -106 2 -108 4 -3 3 7 118 20 255 l25 251 83 0 83 0 0 -255z m111 245 l29 0
0 -245 0 -244 -33 -6 c-19 -4 -47 -5 -63 -3 l-29 3 -3 240 c-1 131 0 246 3
253 4 10 14 13 36 8 18 -3 44 -6 60 -6z m196 -11 l113 -12 24 -81 c14 -45 37
-124 51 -176 37 -131 56 -187 275 -815 123 -354 170 -519 170 -600 0 -43 3
-54 19 -58 13 -3 22 -21 31 -56 15 -63 10 -71 -84 -121 -36 -19 -66 -38 -66
-42 0 -4 52 -65 115 -135 107 -120 114 -131 115 -171 0 -34 66 -266 111 -387
73 -199 132 -412 118 -421 -39 -24 -199 -67 -274 -74 -95 -9 -238 9 -261 33
-7 7 -22 68 -34 137 -12 69 -37 208 -56 310 -18 102 -42 232 -53 290 -10 58
-33 153 -50 213 -24 82 -31 127 -31 190 0 79 -2 85 -30 114 -27 27 -32 44 -59
199 -16 93 -39 230 -51 304 -12 74 -24 144 -27 155 -4 15 4 12 33 -16 56 -51
106 -90 110 -86 8 7 -58 117 -67 112 -5 -4 -6 0 -3 8 2 7 -26 56 -63 108 -73
100 -88 111 -293 220 -36 19 -67 35 -69 36 -2 1 19 31 48 65 28 35 60 85 70
113 17 45 22 50 57 57 31 6 249 109 241 113 -1 1 -64 -1 -140 -4 -76 -3 -141
-4 -143 -2 -2 2 -4 114 -4 248 l0 243 22 0 c12 0 73 -5 135 -11z m-307 -742
l0 -93 -32 -9 c-38 -12 -95 -79 -171 -204 -72 -117 -81 -117 -73 0 4 52 16
158 28 236 l21 142 41 6 c23 2 52 6 66 9 14 2 46 4 73 5 l47 1 0 -93z m-996
-2427 l68 -13 -6 -45 c-3 -25 -12 -49 -19 -54 -20 -13 -158 -9 -213 6 -76 20
-104 42 -104 81 0 18 3 46 6 62 l6 30 96 -27 c54 -15 128 -33 166 -40z m-424
-1230 c75 -25 124 -59 145 -100 23 -44 19 -77 -9 -87 -14 -4 -35 -24 -48 -42
-45 -68 -132 -90 -158 -41 -14 26 30 122 70 150 17 12 29 25 25 28 -17 17
-115 -120 -115 -162 0 -24 -36 -39 -60 -26 -16 8 -19 17 -14 33 4 12 11 25 16
28 5 3 3 9 -6 12 -9 4 -14 12 -12 19 1 7 1 10 -1 6 -2 -4 -10 -5 -16 -2 -7 2
-13 -6 -13 -21 -2 -21 1 -24 12 -14 15 13 17 9 8 -15 -9 -23 -37 -20 -66 7
-14 12 -34 27 -44 34 -17 11 -15 11 11 7 29 -5 31 -3 51 53 34 95 35 101 7 41
-16 -33 -34 -58 -43 -58 -12 0 -12 -2 -1 -9 21 -14 -5 -24 -30 -11 -11 7 -23
9 -26 6 -3 -3 -14 -1 -25 5 -17 9 -18 7 -12 -18 3 -15 10 -41 15 -58 l9 -30
-20 24 c-29 34 -23 126 7 108 5 -3 9 3 9 13 0 10 -4 16 -8 14 -4 -3 -8 -2 -8
2 0 16 24 90 32 99 36 40 206 43 318 5z"/>
</g>
</svg>
