<?xml version="1.0" standalone="no"?>
<!DOCTYPE svg PUBLIC "-//W3C//DTD SVG 20010904//EN"
 "http://www.w3.org/TR/2001/REC-SVG-20010904/DTD/svg10.dtd">
<svg version="1.0" xmlns="http://www.w3.org/2000/svg"
 width="400.000000pt" height="600.000000pt" viewBox="0 0 400.000000 600.000000"
 preserveAspectRatio="xMidYMid meet">
<metadata>
Created by potrace 1.16, written by Peter Selinger 2001-2019
</metadata>
<g transform="translate(0.000000,600.000000) scale(0.062992,-0.051502)"
fill="#000000" stroke="none">
<path d="M2643 11625 c-17 -7 -39 -25 -49 -40 -16 -25 -17 -35 -6 -111 11 -72
10 -88 -3 -114 -9 -17 -15 -53 -14 -82 2 -107 0 -120 -24 -196 -14 -42 -42
-132 -63 -199 -21 -68 -41 -123 -45 -123 -13 0 -59 -53 -59 -67 0 -19 -3 -18
-88 32 -95 55 -216 107 -313 134 -102 28 -497 80 -804 105 -102 9 -1009 19
-1047 12 -30 -5 -38 -14 -58 -56 -13 -28 -32 -57 -42 -67 -21 -18 -24 -53 -5
-53 6 0 61 13 122 30 98 26 164 37 290 44 61 3 209 -61 304 -131 27 -20 52
-31 65 -29 11 2 46 9 76 15 30 5 80 15 110 20 125 24 356 50 460 52 61 2 254
-39 370 -78 166 -55 567 -206 596 -224 22 -13 33 -29 37 -52 3 -17 22 -117 42
-222 78 -407 78 -406 64 -447 -17 -52 -22 -52 -204 -14 -66 14 -208 39 -315
55 -181 28 -211 30 -415 26 -121 -2 -276 -10 -345 -19 -392 -50 -417 -54 -466
-79 -103 -53 -654 -555 -654 -596 0 -10 8 -12 33 -7 39 8 660 257 738 296 72
37 353 137 449 160 41 10 105 21 142 25 121 12 520 7 773 -10 39 -3 124 -7
190 -11 66 -3 121 -7 122 -8 1 -1 5 -72 9 -158 l7 -156 -74 -104 c-85 -119
-100 -141 -136 -206 -83 -151 -114 -215 -138 -287 -15 -44 -39 -109 -52 -144
-114 -296 -161 -855 -97 -1141 9 -36 19 -85 24 -110 4 -25 15 -65 24 -90 9
-25 16 -53 16 -63 0 -46 165 -412 206 -458 8 -8 14 -19 14 -23 0 -38 241 -315
344 -396 55 -44 66 -66 66 -139 0 -67 -31 -136 -137 -301 -180 -282 -269 -520
-309 -827 -10 -73 -21 -133 -24 -133 -4 0 -82 -45 -175 -100 -92 -55 -168
-100 -170 -100 -2 0 -97 -46 -211 -101 -454 -220 -597 -289 -600 -289 -2 0
-54 -24 -116 -53 -62 -30 -131 -62 -153 -71 -100 -44 -129 -63 -160 -101 -115
-142 -170 -413 -181 -893 -5 -233 0 -282 26 -282 16 0 75 37 210 131 66 46
362 261 564 411 97 71 134 94 143 86 19 -16 117 -223 146 -308 41 -121 58
-216 67 -363 10 -161 29 -230 78 -287 72 -84 169 -123 387 -156 67 -9 179 -33
231 -49 42 -12 52 -20 62 -48 15 -41 42 -67 73 -71 13 -2 37 -7 52 -11 l29 -8
-6 -96 c-3 -53 -14 -152 -25 -221 -30 -192 -32 -220 -35 -442 -3 -176 -6 -209
-20 -223 -18 -18 -20 -42 -7 -98 7 -30 5 -48 -9 -80 -10 -23 -23 -84 -29 -136
-6 -51 -14 -98 -19 -105 -10 -12 -58 -145 -58 -161 0 -19 -23 -63 -68 -134
-25 -39 -46 -78 -46 -87 0 -8 -8 -31 -19 -52 -18 -36 -18 -39 1 -112 10 -41
23 -94 27 -117 8 -43 31 -77 64 -95 41 -22 152 -35 229 -27 165 18 246 74 318
222 22 46 58 103 80 127 30 33 38 50 34 65 -4 11 -8 49 -9 85 -1 36 -8 106
-15 155 -16 114 -21 404 -8 470 7 34 7 63 0 89 -9 31 -7 57 13 140 13 55 42
189 65 296 78 367 89 415 100 447 10 27 21 35 73 52 67 23 156 27 190 10 25
-13 31 -20 172 -174 180 -197 188 -202 292 -187 159 23 337 81 433 140 42 26
50 27 50 6 0 -33 52 -251 80 -334 39 -118 90 -297 90 -318 0 -9 11 -41 25 -70
14 -30 25 -70 25 -88 0 -19 7 -49 17 -67 13 -25 16 -56 14 -142 -2 -117 19
-289 38 -308 6 -6 11 -24 11 -39 0 -79 53 -115 154 -104 42 4 73 2 91 -6 20
-9 33 -9 60 1 30 11 43 8 127 -23 133 -49 249 -69 398 -68 128 1 216 44 281
138 29 42 31 51 26 102 -3 30 -11 60 -16 65 -6 6 -11 19 -11 29 0 27 -100 128
-126 128 -12 0 -38 11 -58 25 -42 28 -223 92 -276 97 -44 4 -160 84 -160 110
0 10 -16 35 -35 57 -29 32 -35 46 -35 83 0 40 -3 46 -33 60 -30 14 -34 22 -46
81 -7 36 -23 83 -34 104 -20 35 -22 56 -25 252 -2 118 -1 234 3 259 l7 44 51
-6 c29 -4 99 -16 157 -28 58 -12 145 -22 195 -22 81 -1 96 2 148 29 131 66
268 210 432 454 131 194 144 222 261 560 10 29 24 56 31 58 28 11 53 133 59
287 16 411 -102 777 -457 1412 -37 67 -80 141 -95 165 -15 24 -29 58 -31 74
-27 255 -38 317 -95 520 -55 201 -166 420 -280 555 -59 69 -171 179 -228 221
-70 53 -83 88 -72 194 4 39 5 89 1 113 l-5 43 102 89 c97 86 105 90 149 90 39
0 52 5 77 31 28 28 30 34 25 79 -6 47 -1 59 102 272 104 213 176 364 243 510
23 48 39 70 57 77 74 26 95 99 41 144 -16 14 -33 27 -38 29 -8 3 -131 289
-225 524 -34 87 -42 115 -35 135 33 87 -66 161 -135 101 -21 -18 -15 -24 -64
68 -22 41 -50 92 -63 113 -17 28 -19 37 -8 37 18 0 51 35 73 79 24 48 17 137
-13 162 -26 20 -26 22 -8 62 31 74 36 90 42 151 6 60 8 64 35 70 56 11 76 75
64 202 -5 60 -12 82 -30 99 -27 28 -37 52 -25 60 11 7 13 55 4 79 -4 9 -18 16
-34 16 l-28 0 14 58 c17 74 17 115 0 157 -12 27 -21 35 -40 35 -14 0 -31 -9
-38 -19 -12 -17 -16 -17 -32 -5 -30 22 -50 2 -112 -109 -31 -56 -80 -140 -109
-187 -32 -52 -56 -102 -60 -130 -4 -25 -18 -79 -31 -120 -23 -70 -24 -84 -18
-212 l7 -137 -35 -14 c-20 -8 -51 -35 -69 -60 -86 -115 -142 -200 -169 -254
-22 -44 -39 -63 -65 -76 l-35 -17 15 29 c29 57 75 195 75 226 0 26 -10 40 -51
75 -29 24 -85 63 -126 86 -41 23 -70 45 -64 48 18 12 71 113 91 177 61 191 49
424 -31 580 -31 62 -99 112 -189 142 -101 33 -185 35 -300 6 -105 -26 -144
-45 -213 -109 -74 -68 -111 -143 -141 -291 -3 -15 -17 -31 -32 -38 -32 -14
-37 -12 -274 166 -398 299 -375 273 -411 445 -38 180 -79 398 -89 483 -10 79
-46 359 -54 420 -32 247 -47 313 -77 338 -25 20 -43 21 -86 2z m17 -530 c0
-25 34 -230 81 -480 5 -27 14 -79 19 -114 6 -35 13 -67 16 -73 3 -5 -27 13
-68 40 -40 27 -106 69 -147 93 -42 25 -67 45 -59 47 23 5 41 56 34 96 -5 27 4
71 40 183 26 81 52 169 57 195 11 48 27 56 27 13z m-43 -707 c48 -28 108 -67
133 -86 25 -20 46 -37 48 -38 2 -1 10 -33 17 -71 16 -81 62 -323 70 -374 l7
-36 -79 -6 c-43 -3 -86 -8 -95 -12 -13 -5 -18 -2 -18 8 0 9 -10 24 -23 34 -25
19 -33 49 -82 283 -14 69 -35 168 -46 220 -11 52 -22 103 -24 113 -1 9 -2 17
0 17 2 0 43 -23 92 -52z m1548 -188 c-4 -6 3 -6 18 1 25 11 106 -5 183 -37 38
-16 39 -17 14 -26 -28 -10 -60 -37 -60 -50 0 -5 13 0 29 11 39 28 65 26 90 -6
l21 -26 -29 -18 c-17 -10 -34 -33 -41 -53 -14 -44 -4 -123 20 -145 10 -9 31
-28 47 -43 48 -43 50 -96 9 -176 -18 -36 -41 -40 -85 -17 -44 22 -62 71 -55
144 6 55 5 64 -16 86 -20 21 -22 31 -17 97 3 40 8 84 12 98 5 17 4 22 -3 15
-12 -12 -32 -104 -32 -150 0 -23 -8 -42 -26 -60 -23 -23 -26 -33 -21 -71 5
-48 -4 -55 -39 -29 -42 32 -46 9 -6 -36 28 -31 59 -39 97 -26 17 6 23 1 34
-28 6 -19 28 -53 47 -76 47 -56 53 -87 24 -111 -31 -25 -53 -23 -123 14 -79
42 -144 108 -186 186 -18 35 -35 61 -38 59 -6 -6 28 -73 72 -140 34 -54 80
-101 153 -156 59 -46 56 -61 -15 -61 -69 0 -127 26 -190 85 l-45 43 5 108 c2
60 10 148 17 195 13 81 12 88 -6 120 -19 31 -24 34 -70 34 -27 0 -64 -4 -81
-9 -28 -6 -33 -5 -34 11 0 15 -2 15 -9 -3 -5 -12 -36 -35 -70 -52 -59 -30 -61
-30 -55 -9 33 111 113 209 208 257 71 36 100 40 66 9 -21 -18 -20 -18 10 2 18
12 50 28 70 35 44 16 115 18 106 4z m-1077 -197 c32 -27 113 -86 180 -133
l123 -85 -43 -8 c-59 -11 -268 2 -274 17 -3 9 -25 109 -51 229 -3 15 -2 27 1
27 4 0 33 -21 64 -47z m-211 -473 c-29 -24 -82 -74 -118 -111 l-67 -66 -6 45
c-3 24 -6 79 -6 122 l0 77 93 21 c142 33 141 33 149 -8 6 -33 4 -38 -45 -80z
m774 -23 c-2 -50 -9 -72 -35 -115 -31 -51 -37 -55 -145 -102 -61 -27 -126 -57
-144 -67 -35 -21 -42 -42 -53 -168 -5 -62 -9 -74 -15 -55 -16 49 -99 502 -93
511 3 5 23 18 45 30 35 18 46 19 97 9 46 -9 85 -7 197 8 77 10 142 17 144 15
3 -2 3 -31 2 -66z m-641 -104 c0 -4 32 -160 71 -348 39 -187 69 -351 66 -365
-2 -14 -16 -68 -30 -120 -37 -134 -51 -292 -43 -490 8 -195 20 -316 42 -425
10 -47 17 -134 18 -210 1 -123 3 -133 30 -188 27 -53 65 -95 110 -122 14 -8
15 -19 9 -69 l-8 -59 -162 255 c-152 237 -163 258 -163 302 0 26 -7 60 -16 77
-13 25 -15 78 -14 336 l0 306 25 29 c37 44 34 92 -8 132 -29 27 -45 65 -121
294 -77 229 -87 266 -77 290 6 15 10 46 8 68 -2 40 2 46 123 177 116 126 140
149 140 130z m-352 -425 c6 -13 34 -95 62 -183 28 -88 66 -203 84 -256 23 -66
31 -101 25 -112 -5 -9 -11 -35 -13 -57 -3 -32 2 -48 20 -69 21 -25 23 -36 19
-102 -3 -41 -10 -177 -16 -304 -8 -163 -15 -234 -24 -245 -13 -15 -18 -43 -16
-89 1 -12 18 -39 38 -60 20 -20 111 -151 201 -291 162 -252 168 -264 171 -347
1 -6 13 -25 27 -42 32 -38 26 -57 -29 -95 -23 -16 -118 -83 -211 -148 l-168
-118 -50 41 c-138 117 -297 401 -393 709 -54 172 -64 215 -74 325 -13 137 -4
525 15 625 41 225 115 463 201 650 46 99 100 190 112 190 4 0 13 -10 19 -22z
m2893 -543 c5 -11 52 -121 104 -245 93 -218 96 -226 81 -252 -20 -32 -21 -86
-2 -107 12 -14 7 -29 -33 -112 -25 -53 -66 -140 -90 -193 -24 -53 -45 -95 -47
-93 -2 1 1 21 6 42 8 36 24 198 35 347 3 31 9 75 14 97 13 58 -1 65 -128 69
l-106 4 -22 56 c-12 31 -21 57 -20 57 1 1 46 34 99 74 62 46 100 81 104 96 5
20 -23 187 -42 254 -5 14 25 -44 47 -94z m-884 -725 l62 -74 -22 -24 c-79 -86
-311 -292 -319 -284 -11 11 4 136 30 238 14 57 21 70 39 72 15 2 40 29 74 78
29 41 57 73 63 71 6 -2 39 -37 73 -77z m-457 -297 c7 -16 15 -58 17 -94 4 -52
1 -75 -15 -111 -27 -61 -64 -78 -312 -139 -195 -48 -370 -110 -478 -169 l-53
-29 -6 30 c-3 16 -18 40 -34 54 -25 21 -29 30 -29 78 0 52 2 56 48 98 166 155
371 241 687 289 162 25 160 25 175 -7z m1185 -339 c-14 -31 -25 -58 -25 -60 0
-2 -14 -4 -31 -4 -40 0 -89 -47 -89 -87 0 -24 -15 -43 -77 -99 -43 -39 -83
-73 -90 -78 -10 -5 -12 19 -13 101 0 59 -1 124 -2 143 -1 19 -1 52 0 73 l2 38
39 -31 c50 -41 111 -58 170 -49 39 5 53 14 91 58 25 28 46 51 47 51 2 0 -8
-25 -22 -56z m-1311 -40 c3 -9 6 -36 6 -60 0 -69 -24 -86 -161 -118 -166 -38
-186 -44 -268 -82 -41 -19 -80 -34 -87 -34 -19 0 -184 101 -179 110 14 22 211
105 323 135 221 60 355 78 366 49z m666 -153 c5 -11 10 -33 10 -49 0 -16 7
-35 15 -42 9 -8 15 -29 15 -55 0 -42 -1 -43 -37 -48 -21 -2 -41 -2 -45 0 -10
5 -11 197 -1 206 12 13 32 7 43 -12z m-502 -47 c30 -6 30 -7 37 -83 8 -88 -7
-139 -48 -166 -13 -8 -69 -26 -123 -39 -97 -24 -98 -24 -122 -5 -28 22 -51 24
-85 8 -22 -10 -32 -6 -83 28 -33 22 -99 64 -149 93 l-90 54 130 42 c72 24 162
49 200 57 71 16 277 22 333 11z m-827 -81 l88 -46 -72 -49 c-40 -27 -92 -68
-116 -91 l-43 -42 5 125 c4 103 8 126 23 137 10 7 20 13 22 13 3 0 44 -21 93
-47z m-161 -65 c-14 -48 -113 -124 -372 -284 l-153 -93 -23 22 -24 22 29 6
c50 10 137 67 398 257 83 61 151 109 152 108 1 -1 -2 -18 -7 -38z m467 -110
c98 -60 136 -88 120 -88 -3 0 -51 -9 -108 -21 -108 -21 -245 -78 -370 -155
-33 -20 -63 -34 -65 -31 -11 11 -23 210 -14 226 16 30 84 89 160 140 l75 50
45 -26 c25 -14 95 -57 157 -95z m-467 24 c0 -10 -19 -32 -42 -49 -24 -17 -71
-55 -104 -85 -82 -71 -331 -206 -347 -188 -9 10 -9 14 0 17 67 25 458 280 477
312 10 16 16 13 16 -7z m10 -127 c0 -8 -10 -20 -22 -26 -13 -7 -66 -43 -119
-80 -136 -97 -286 -162 -309 -134 -12 15 16 33 180 115 58 29 116 61 130 70
33 24 121 70 131 70 5 0 9 -7 9 -15z m0 -67 c0 -7 -21 -26 -48 -43 -26 -16
-87 -68 -137 -115 -49 -48 -118 -105 -152 -128 -34 -23 -65 -46 -68 -52 -11
-18 -26 -10 -20 10 12 37 168 174 319 278 93 64 106 70 106 50z m9 -140 c0
-18 -15 -30 -67 -57 -112 -56 -243 -136 -330 -200 -56 -42 -82 -56 -82 -45 0
40 215 206 374 289 80 41 106 45 105 13z m-45 -110 c-45 -74 -101 -155 -234
-333 -199 -269 -213 -289 -277 -410 -29 -55 -53 -92 -53 -83 0 18 95 259 128
324 11 22 37 60 57 84 20 24 85 107 144 184 100 131 209 246 232 246 6 0 7 -6
3 -12z m2008 -178 c24 -27 58 -74 76 -104 79 -130 229 -500 220 -544 -5 -25
-199 271 -232 353 -55 138 -125 345 -116 345 4 0 28 -22 52 -50z m-788 -192
c-27 -96 -139 -184 -776 -611 -477 -320 -648 -439 -760 -528 -163 -132 -570
-470 -645 -536 -160 -142 -1625 -1223 -1657 -1223 -3 0 -6 26 -6 59 l0 58 142
104 c432 313 1381 1031 1698 1284 201 160 415 327 475 370 180 129 492 338
620 415 66 40 161 101 210 137 50 35 149 102 221 147 192 121 326 219 412 302
43 40 78 73 79 74 1 0 -5 -24 -13 -52z m471 -518 c42 -96 86 -192 97 -214 25
-48 21 -64 -43 -162 -29 -43 -120 -198 -204 -344 -84 -146 -196 -331 -248
-412 -124 -189 -177 -281 -293 -511 -53 -104 -98 -187 -100 -184 -6 6 199 418
294 592 181 331 386 676 491 824 52 73 81 123 81 140 0 15 -32 101 -70 191
-69 160 -160 412 -160 441 0 7 18 -31 39 -86 21 -55 73 -179 116 -275z m-1693
-2947 l21 -21 -41 -124 c-23 -68 -46 -148 -52 -178 -26 -131 -113 -532 -132
-610 -20 -79 -22 -102 -18 -200 1 -53 -5 -326 -15 -590 -11 -330 -22 -346 -45
-64 -11 141 -46 330 -66 361 -14 23 -96 53 -143 53 -47 0 -100 -20 -146 -55
-25 -19 -48 -35 -51 -35 -13 0 8 126 28 172 18 42 19 52 7 97 -10 41 -10 53 1
66 10 12 16 13 28 3 13 -11 13 -8 6 22 -5 19 -8 128 -6 242 2 166 8 246 32
410 17 112 30 244 30 294 0 61 4 95 13 101 18 15 134 52 213 68 44 9 114 13
192 12 109 -3 125 -5 144 -24z m1750 -61 c11 -11 11 -11 2 -405 -5 -238 -10
-337 -18 -333 -6 2 -28 11 -48 20 -21 9 -38 13 -38 8 0 -4 22 -17 49 -29 66
-28 108 -100 123 -212 2 -15 15 -31 33 -41 26 -14 30 -23 33 -62 2 -36 10 -52
37 -78 45 -44 45 -66 0 -79 -86 -24 -124 -79 -145 -212 -12 -72 -5 -207 16
-310 6 -30 -13 -43 -52 -33 -44 11 -173 245 -239 434 -20 58 -46 126 -57 151
-11 25 -18 55 -16 65 2 10 -6 43 -19 72 -12 30 -31 90 -42 135 -11 45 -42 152
-69 237 -49 155 -108 421 -114 515 l-3 50 80 32 c96 38 223 72 313 83 74 9
161 5 174 -8z m695 -1428 c23 -7 56 -28 72 -46 36 -40 31 -52 -7 -15 -28 27
-71 47 -100 47 -15 0 -15 -2 -2 -10 8 -5 24 -10 35 -10 28 -1 106 -76 99 -95
-9 -22 -16 -19 -65 23 -46 40 -152 82 -135 53 3 -5 23 -12 43 -16 44 -8 118
-70 118 -100 0 -15 6 -20 28 -20 25 1 35 -13 21 -27 -10 -11 -108 40 -132 68
-15 17 -42 30 -80 39 -50 12 -54 12 -38 -1 11 -8 33 -14 49 -14 39 0 113 -75
96 -96 -8 -10 -5 -15 16 -20 15 -4 31 -2 38 5 17 17 27 13 27 -9 0 -29 -48
-50 -64 -29 -6 9 -28 21 -48 28 -20 7 -47 20 -60 30 -22 18 -126 46 -135 37
-5 -5 64 -26 85 -26 8 0 27 -9 43 -21 l29 -21 -22 -18 c-15 -12 -20 -22 -13
-28 18 -18 53 -17 74 2 17 16 24 17 34 7 9 -10 6 -17 -16 -37 -34 -29 -91 -32
-136 -7 -25 15 -35 16 -63 5 -42 -15 -50 -6 -56 61 -5 68 17 121 84 196 55 61
102 94 124 85 8 -4 34 -12 57 -20z m-2923 -419 c46 -23 73 -57 82 -101 5 -28
3 -33 -22 -41 -23 -8 -30 -18 -39 -59 -12 -57 -49 -84 -94 -68 -31 11 -44 50
-13 40 28 -9 69 9 77 34 9 28 2 34 -43 35 -20 0 -43 4 -49 8 -9 6 -14 -7 -19
-43 -10 -73 -37 -95 -85 -70 -28 16 -23 30 11 30 19 0 33 7 40 21 14 26 8 32
-29 32 -27 0 -29 4 -34 46 -3 29 0 56 9 73 21 41 16 58 -6 18 -14 -25 -19 -47
-15 -80 2 -25 1 -63 -3 -85 -7 -37 -10 -40 -41 -40 -19 0 -36 6 -38 13 -3 7 5
12 19 12 23 0 48 16 48 32 0 4 -16 10 -34 14 -33 6 -35 9 -38 48 -4 55 28 135
56 141 12 2 30 6 41 9 50 12 181 0 219 -19z"/>
</g>
</svg>
