<?xml version="1.0" standalone="no"?>
<!DOCTYPE svg PUBLIC "-//W3C//DTD SVG 20010904//EN"
 "http://www.w3.org/TR/2001/REC-SVG-20010904/DTD/svg10.dtd">
<svg version="1.0" xmlns="http://www.w3.org/2000/svg"
 width="400.000000pt" height="600.000000pt" viewBox="0 0 400.000000 600.000000"
 preserveAspectRatio="xMidYMid meet">
<metadata>
Created by potrace 1.16, written by Peter Selinger 2001-2019
</metadata>
<g transform="translate(0.000000,600.000000) scale(0.108401,-0.067265)"
fill="#000000" stroke="none">
<path d="M1813 8893 c-10 -16 -13 -16 -22 -3 -9 13 -11 12 -11 -5 0 -16 -2
-17 -10 -5 -8 12 -10 12 -16 -3 -4 -10 -13 -16 -20 -13 -8 3 -14 1 -14 -5 0
-6 -4 -7 -10 -4 -5 3 -10 1 -10 -5 0 -7 -7 -10 -15 -6 -8 3 -15 1 -15 -5 0 -6
-7 -8 -16 -5 -8 3 -13 2 -10 -3 3 -5 0 -14 -8 -20 -11 -9 -15 -9 -19 1 -4 8
-8 5 -12 -9 -4 -13 -11 -23 -15 -23 -4 0 -32 -25 -61 -55 -56 -58 -114 -156
-125 -212 -3 -18 -9 -33 -13 -33 -4 0 -8 -15 -8 -32 -1 -18 -3 -85 -5 -148 -3
-67 -1 -120 5 -128 6 -7 7 -38 4 -72 -4 -35 -3 -62 3 -65 12 -7 14 -136 3
-133 -12 3 -86 -35 -105 -54 -9 -9 -21 -42 -27 -74 -9 -48 -8 -70 9 -137 11
-44 26 -92 34 -107 10 -22 11 -30 0 -44 -7 -10 -17 -15 -23 -11 -6 3 -11 0
-11 -8 0 -12 -26 -31 -37 -28 -2 1 -12 -8 -23 -19 -12 -12 -25 -18 -30 -15 -6
4 -10 2 -10 -4 0 -6 -31 -41 -69 -78 -68 -67 -130 -159 -184 -275 -73 -158
-108 -235 -113 -253 -6 -25 -97 -241 -105 -251 -5 -6 -6 -13 -4 -16 5 -4 -12
-53 -60 -173 -5 -11 -9 -22 -9 -25 -8 -43 -54 -150 -64 -150 -10 0 -12 -4 -4
-12 11 -15 -2 -58 -17 -58 -6 0 -8 -6 -5 -14 3 -8 -26 -110 -65 -228 -39 -117
-73 -226 -77 -241 -4 -16 -12 -31 -19 -33 -7 -3 -10 -16 -8 -32 4 -22 2 -24
-7 -12 -8 12 -9 9 -4 -12 3 -16 2 -28 -2 -28 -5 0 -10 -15 -11 -33 -2 -17 -8
-36 -15 -42 -7 -5 -13 -18 -14 -27 -3 -59 -4 -63 -15 -48 -8 12 -9 9 -5 -10 3
-14 -1 -48 -10 -75 -46 -152 -104 -355 -104 -365 0 -7 -6 -26 -14 -43 -8 -18
-17 -49 -21 -69 -3 -21 -10 -38 -15 -38 -4 0 -6 -8 -4 -17 3 -10 -7 -57 -21
-106 -14 -48 -25 -94 -25 -103 0 -9 -5 -12 -12 -8 -7 5 -8 3 -3 -5 8 -14 -35
-222 -45 -216 -3 2 -5 -14 -5 -35 0 -21 1 -37 3 -35 3 2 15 -18 29 -45 13 -26
31 -54 40 -62 14 -11 16 -11 8 1 -4 8 13 0 38 -18 26 -18 47 -37 47 -42 0 -6
4 -8 8 -5 13 8 282 -272 282 -292 0 -7 6 -12 13 -12 17 0 137 -124 137 -141 0
-11 -2 -11 -10 1 -8 12 -10 11 -10 -7 0 -12 4 -23 10 -25 11 -4 -5 -132 -22
-165 -6 -11 -7 -26 -4 -32 12 -19 -6 -141 -20 -141 -16 0 -19 -37 -3 -42 12
-4 2 -58 -11 -58 -5 0 -3 -10 2 -22 l11 -23 61 30 c55 27 70 30 161 30 95 0
103 -2 163 -34 195 -106 275 -373 159 -533 -20 -29 -26 -43 -18 -46 28 -9 85
-69 102 -107 23 -49 24 -137 4 -194 -48 -137 -168 -212 -286 -179 -26 8 -27 7
-31 -46 -6 -67 -44 -120 -120 -162 -48 -26 -62 -29 -148 -29 -74 0 -104 4
-137 20 -36 17 -40 23 -33 42 l9 22 51 -20 c55 -21 125 -24 181 -9 73 20 159
125 159 194 0 46 8 55 43 45 110 -31 196 17 237 134 40 113 15 214 -64 265
-22 14 -43 27 -45 29 -2 1 10 17 26 36 40 46 57 111 51 200 -12 182 -149 327
-310 327 -47 0 -163 -32 -182 -51 -6 -5 -23 -9 -39 -9 l-30 0 7 -50 c4 -27 3
-50 -2 -50 -5 0 -7 -22 -4 -50 4 -40 1 -51 -12 -56 -12 -5 -14 -10 -6 -20 15
-17 9 -70 -8 -67 -15 4 -16 -34 -1 -39 14 -5 2 -88 -13 -88 -7 0 -7 -4 0 -13
13 -15 4 -87 -10 -87 -6 0 -7 -26 -2 -66 4 -40 3 -65 -3 -61 -5 3 -7 -19 -5
-54 3 -47 1 -60 -12 -65 -10 -4 -16 -18 -16 -36 0 -17 4 -27 10 -23 12 7 13
-28 3 -76 -7 -33 -7 -33 -14 -9 l-7 25 -1 -27 c-1 -16 4 -28 10 -28 16 0 6
-140 -10 -150 -9 -5 -11 -39 -7 -126 3 -70 2 -109 -3 -94 -5 15 -9 -51 -10
-173 -1 -118 2 -196 8 -193 11 7 23 -22 15 -35 -3 -5 -2 -8 3 -7 4 1 43 -33
85 -75 43 -42 74 -77 70 -78 -4 -1 4 -4 18 -8 14 -4 24 -13 22 -19 -1 -7 9
-12 23 -12 14 0 25 -4 25 -8 0 -5 27 -20 60 -33 33 -13 60 -27 60 -32 0 -4 3
-6 8 -3 4 2 25 -4 47 -14 22 -10 68 -24 102 -31 34 -7 60 -15 58 -19 -2 -3 9
-4 26 -2 18 3 29 0 29 -7 0 -7 5 -9 10 -6 6 3 19 3 30 0 16 -5 20 -15 20 -51
0 -56 14 -58 17 -2 2 22 4 42 5 43 2 1 37 -1 78 -6 41 -4 119 -11 173 -14 l99
-7 -7 -111 c-4 -62 -12 -121 -18 -131 -7 -15 -5 -22 8 -32 16 -12 16 -17 5
-45 -11 -26 -11 -35 3 -59 16 -27 16 -34 -3 -132 -11 -57 -23 -140 -27 -185
-3 -46 -9 -83 -13 -83 -4 0 -10 35 -12 78 -6 88 -47 203 -81 227 -29 20 -174
20 -201 0 -17 -13 -22 -13 -36 0 -15 14 -16 12 -12 -15 3 -18 0 -30 -7 -30 -6
0 -11 -5 -11 -10 0 -6 -17 -34 -39 -63 -44 -59 -65 -97 -58 -103 3 -3 12 2 20
11 44 43 215 70 290 46 42 -14 76 -56 83 -103 5 -29 1 -36 -29 -55 -36 -25
-86 -30 -105 -11 -8 8 -15 8 -26 -1 -20 -16 -61 -10 -61 9 0 9 11 16 28 18 32
4 32 21 -1 33 -23 9 -28 2 -46 -53 -6 -19 -56 -26 -56 -8 0 6 -10 5 -25 -2
-18 -8 -28 -8 -38 1 -8 6 -22 9 -31 5 -18 -7 -49 13 -40 27 3 5 27 7 53 3 52
-7 72 6 51 32 -9 10 -16 11 -26 3 -9 -7 -19 -7 -34 1 -33 18 -65 -23 -64 -81
1 -74 2 -76 39 -83 21 -4 35 -13 35 -21 0 -8 5 -15 10 -15 6 0 10 5 10 11 0 6
6 9 13 6 6 -2 11 -10 9 -16 -1 -6 7 -11 18 -11 11 0 20 3 20 8 0 4 34 7 75 7
41 0 75 -3 75 -7 0 -5 12 -8 26 -8 14 0 23 4 20 9 -3 5 2 12 11 15 9 4 20 1
25 -6 5 -9 8 -7 8 7 0 17 2 17 10 5 8 -13 10 -12 10 3 0 10 6 17 12 15 7 -3
26 15 42 39 32 49 84 93 109 93 10 0 16 3 16 8 -4 22 2 42 11 37 5 -3 10 3 10
14 0 11 -5 23 -10 26 -6 4 -8 34 -4 78 4 52 3 68 -5 57 -8 -11 -11 9 -11 78 0
54 -4 92 -10 92 -14 0 -13 43 1 57 9 9 8 18 -5 38 -12 18 -14 30 -7 43 10 19
10 22 14 152 l2 85 140 7 c77 4 157 5 177 2 20 -3 45 -1 54 4 19 10 30 82 12
82 -7 0 -8 14 -4 39 4 26 2 41 -6 43 -6 2 -13 31 -16 66 -4 63 0 70 41 63 4 0
7 4 7 10 0 5 4 8 8 5 5 -3 19 4 30 15 12 11 22 17 22 14 0 -4 7 1 16 9 8 9 20
14 25 11 5 -4 9 -1 9 5 0 6 5 8 12 4 6 -4 8 -3 5 3 -9 14 19 37 33 28 5 -3 15
6 21 22 10 27 11 27 25 8 8 -11 12 -25 10 -32 -3 -7 -1 -13 3 -13 11 0 33 -98
25 -111 -3 -5 0 -9 5 -9 6 0 11 -9 11 -20 0 -11 5 -20 11 -20 6 0 9 -7 6 -14
-3 -8 1 -29 10 -46 8 -17 13 -42 10 -55 -2 -14 -1 -22 3 -20 10 6 30 -64 23
-81 -3 -8 3 -17 12 -20 21 -8 175 14 191 27 17 14 28 -51 25 -137 -2 -46 1
-74 9 -79 8 -5 7 -13 -4 -29 -13 -20 -12 -27 4 -64 11 -24 15 -44 9 -47 -10
-7 -13 -128 -3 -138 4 -4 6 -66 5 -139 -1 -140 9 -190 38 -186 10 2 17 -5 19
-18 4 -29 27 -48 87 -69 28 -10 56 -25 63 -34 11 -14 14 -14 22 -1 8 13 12 12
25 -5 12 -14 18 -16 21 -7 8 17 121 17 127 0 3 -9 10 -7 21 7 13 17 17 18 25
5 9 -13 12 -13 23 3 7 10 23 19 36 20 12 0 22 5 22 10 0 5 7 7 15 3 8 -3 15 0
15 6 0 6 8 20 17 30 21 24 7 73 -21 73 -11 0 -21 6 -24 13 -3 9 3 11 21 7 27
-7 29 0 12 39 -8 18 -9 18 -16 -2 -8 -22 -29 -31 -29 -12 0 6 -8 5 -20 -2 -23
-15 -27 -38 -5 -38 8 0 15 -4 15 -10 0 -26 -41 -6 -59 28 -10 19 -15 21 -27
11 -20 -16 -18 -26 7 -32 30 -8 18 -32 -16 -32 -23 0 -30 6 -38 30 -13 39 -12
38 -36 25 -27 -14 -27 -30 -1 -30 22 0 28 -26 8 -33 -22 -7 -48 5 -48 22 -1
26 -26 65 -34 52 -4 -6 -17 -11 -30 -11 -28 0 -36 -8 -29 -26 3 -8 19 -14 40
-14 45 0 39 -24 -7 -28 -22 -2 -43 4 -61 17 -16 12 -35 21 -43 21 -48 0 -9 85
55 118 40 21 55 23 156 20 98 -3 114 -6 128 -23 12 -15 18 -17 22 -7 4 10 10
9 27 -5 21 -18 21 -18 5 2 -9 11 -27 40 -39 65 -13 24 -30 56 -40 70 -59 87
-69 107 -64 125 4 18 0 21 -28 22 -18 0 -49 4 -69 8 -44 9 -141 -10 -169 -33
-16 -14 -24 -42 -38 -142 l-18 -125 -23 105 c-13 59 -24 145 -25 197 -1 59 -7
97 -15 107 -11 14 -12 21 -2 40 10 17 10 50 3 142 -6 65 -8 122 -4 125 4 4 32
14 62 24 30 10 93 35 139 57 46 21 85 37 86 36 12 -24 25 -64 26 -81 1 -12 5
-5 10 18 7 27 6 41 -1 43 -28 10 -6 42 51 76 33 20 63 36 65 36 3 0 12 7 21
15 8 8 20 12 26 8 7 -3 9 -3 5 1 -8 10 80 79 91 71 8 -4 36 21 36 33 0 3 41
44 90 91 99 94 227 256 269 339 15 29 31 50 36 47 6 -4 7 1 3 11 -4 11 -3 15
5 10 8 -5 9 1 2 21 -12 40 -20 129 -9 112 6 -9 9 0 9 29 0 25 -4 41 -9 37 -17
-10 -26 66 -10 76 12 8 11 11 -3 20 -21 12 -24 65 -5 73 9 3 7 9 -6 19 -12 11
-15 22 -11 46 4 18 2 31 -4 31 -13 0 -21 69 -7 74 7 3 6 7 -1 13 -16 12 -28
53 -15 53 6 0 11 7 11 16 0 8 -4 13 -9 10 -10 -7 -21 17 -21 47 0 16 -3 18
-12 9 -7 -7 -42 -12 -88 -12 -89 0 -256 -20 -425 -50 -208 -38 -254 -21 -387
137 -160 191 -218 243 -300 267 l-40 12 25 30 c57 68 191 114 333 114 l82 0 5
29 c9 45 67 111 127 145 45 25 67 31 124 32 66 1 69 2 84 34 28 58 153 137
254 159 31 7 40 6 49 -8 8 -12 9 -6 6 26 -3 26 -1 43 6 46 8 2 6 10 -6 21 -13
13 -14 22 -7 36 13 24 13 31 -2 27 -21 -4 -22 45 -2 60 10 7 14 13 9 13 -5 0
4 13 20 30 16 16 34 30 41 30 7 0 16 5 20 12 5 7 3 8 -5 3 -10 -6 -11 -3 -2
14 7 11 14 21 17 21 3 0 2 -5 -2 -12 -4 -7 -3 -8 5 -4 6 4 9 11 7 15 -7 11 41
101 49 93 5 -4 5 1 2 11 -9 23 19 77 39 77 8 0 13 4 10 9 -3 4 16 29 42 55 56
56 82 84 82 91 0 13 35 75 42 75 4 0 4 7 1 17 -4 11 -3 14 5 9 8 -5 12 1 12
16 0 17 -3 19 -9 9 -7 -11 -10 -9 -16 8 -3 11 -4 25 -1 30 3 5 0 11 -8 14 -15
6 -40 93 -31 108 4 5 1 9 -6 9 -6 0 -9 8 -6 20 3 11 2 18 -3 15 -10 -6 -40
102 -33 121 3 8 0 14 -7 14 -7 0 -10 8 -7 20 3 13 1 18 -5 13 -8 -4 -9 6 -5
30 4 24 2 36 -5 34 -14 -3 -37 84 -31 120 4 23 2 25 -7 13 -9 -12 -11 -10 -7
13 2 15 1 27 -3 27 -5 0 -6 9 -3 20 3 12 -1 26 -10 33 -19 15 -33 77 -18 77 6
0 11 4 11 10 0 5 -6 7 -13 4 -9 -3 -19 23 -35 89 -13 51 -24 104 -26 118 -2
13 -7 33 -11 43 -5 10 -9 40 -9 67 -1 26 -5 47 -10 46 -13 -3 -27 67 -15 71
13 5 11 32 -3 29 -14 -3 -29 60 -21 91 3 12 1 22 -5 22 -14 0 -36 94 -23 98
15 5 14 23 -1 19 -7 -1 -13 7 -13 18 -1 11 -4 25 -8 31 -4 7 -9 34 -11 60 -2
27 -9 62 -15 78 -9 21 -9 32 0 42 7 8 9 17 5 21 -3 3 -6 0 -6 -8 -1 -10 -4 -8
-11 4 -8 14 -8 22 0 30 14 14 14 28 0 25 -13 -3 -19 19 -22 79 -1 24 -5 43 -8
43 -8 0 -23 91 -23 145 -1 22 -7 44 -14 48 -7 4 -12 22 -12 40 0 18 0 45 0 62
0 16 -6 32 -12 36 -7 4 -12 36 -12 77 -1 39 -4 68 -7 66 -8 -5 -30 96 -23 107
3 6 1 16 -6 24 -6 7 -12 43 -13 78 -1 36 -6 62 -11 60 -5 -3 -7 8 -4 24 2 17
-2 35 -9 42 -7 6 -14 24 -14 39 -3 52 -4 57 -10 67 -4 6 -10 26 -14 45 -9 43
-63 142 -110 201 -18 24 -31 47 -28 53 3 5 1 6 -5 2 -7 -4 -12 -2 -12 3 0 6
-6 11 -12 11 -7 0 -29 15 -49 33 -20 18 -52 41 -72 52 -20 11 -37 26 -37 33 0
7 -4 10 -10 7 -5 -3 -10 -1 -10 5 0 6 -4 9 -9 5 -5 -3 -16 1 -24 9 -8 8 -17
12 -21 9 -3 -4 -6 1 -6 10 0 11 -5 14 -15 10 -12 -4 -10 9 11 63 15 38 35 106
46 152 11 45 24 82 29 82 5 0 7 12 3 28 -5 24 -3 23 22 -13 15 -22 30 -42 33
-45 19 -16 141 -190 141 -201 1 -8 7 -3 14 10 9 15 11 34 6 50 -8 28 -76 166
-91 185 -5 6 -30 43 -55 81 -26 39 -69 99 -95 134 -27 36 -47 67 -44 69 2 3
32 -23 65 -57 34 -33 66 -61 71 -61 5 0 12 -7 15 -15 4 -8 13 -15 21 -15 18 0
64 -35 57 -43 -4 -3 2 -5 12 -5 11 1 45 -11 76 -25 56 -27 138 -37 138 -17 0
6 -8 10 -17 10 -26 1 -118 57 -115 70 1 6 -2 9 -8 5 -12 -7 -59 25 -60 41 0 7
-9 14 -21 17 -13 4 -18 10 -13 18 4 7 3 10 -3 6 -12 -7 -134 114 -207 204 -54
67 -116 178 -115 205 0 12 2 14 6 5 5 -12 41 -47 116 -111 16 -14 40 -35 53
-47 13 -12 24 -19 24 -16 0 3 8 -1 18 -9 17 -16 121 -72 134 -73 3 0 10 -3 14
-7 11 -12 44 -10 44 2 0 5 -20 23 -45 38 -25 16 -42 32 -38 37 5 4 3 5 -4 1
-18 -10 -223 184 -223 212 0 7 -4 11 -9 8 -10 -6 -141 137 -141 154 0 6 -4 9
-9 6 -9 -6 -77 75 -73 87 1 5 -2 6 -6 3 -5 -3 -33 19 -61 49 -29 30 -56 55
-62 55 -5 0 -9 7 -9 15 0 8 -3 14 -7 13 -15 -4 -53 13 -53 23 0 6 -4 8 -9 5
-5 -3 -12 2 -15 11 -6 15 -8 15 -16 3 -7 -11 -10 -12 -10 -2 0 7 -4 11 -9 7
-6 -3 -14 3 -20 12 -9 16 -12 16 -21 3 -9 -13 -14 -7 -11 13 0 4 -8 7 -19 7
-11 0 -20 -6 -20 -12 0 -9 -3 -9 -8 -2 -11 16 -100 18 -119 2 -13 -10 -17 -10
-20 0 -6 17 -26 15 -40 -5z m93 -425 c71 -89 89 -118 104 -163 13 -39 14 -39
21 -13 8 31 -4 101 -26 154 -8 20 -13 40 -10 42 6 7 137 -120 167 -161 23 -32
16 -45 -27 -51 -37 -4 -145 -55 -145 -68 0 -5 9 -6 20 -3 11 4 20 2 20 -4 0
-6 12 -11 26 -11 26 0 54 20 54 39 0 6 5 11 10 11 6 0 10 -4 10 -10 0 -5 16
-10 35 -10 19 0 35 5 35 10 0 6 5 10 12 10 6 0 8 -3 5 -7 -4 -3 -2 -12 4 -19
6 -7 21 -54 34 -103 22 -84 23 -93 9 -150 -7 -34 -33 -98 -56 -143 -55 -106
-55 -107 -29 -83 l23 20 -4 -35 c-3 -31 -7 -35 -33 -38 -16 -1 -61 -6 -100
-12 -80 -10 -268 -13 -313 -4 -36 7 -38 17 -48 211 -8 145 -1 189 22 138 12
-28 13 -22 14 71 0 85 3 103 16 108 10 4 22 -1 29 -11 14 -20 21 -17 27 9 2
10 -11 26 -32 40 -39 26 -47 58 -35 135 7 46 19 49 29 8 4 -14 19 -53 35 -87
16 -35 32 -75 35 -90 9 -38 167 -210 174 -189 2 5 -13 34 -32 65 -41 62 -43
72 -19 98 10 11 12 18 4 18 -6 0 -14 -7 -17 -15 -4 -8 -10 -15 -16 -15 -14 0
-38 65 -39 107 0 29 -2 33 -8 18 -8 -19 -8 -19 -18 0 -21 39 -53 158 -53 195
0 33 8 46 31 49 3 1 28 -27 55 -61z m232 -1963 c29 -9 68 -25 87 -36 30 -18
33 -23 24 -41 -9 -17 -16 -19 -47 -12 -21 5 -85 9 -143 9 -100 0 -108 -2 -155
-30 -75 -47 -108 -101 -112 -185 -2 -39 -7 -70 -9 -70 -3 0 -21 9 -39 21 -29
17 -34 27 -36 60 -1 21 -2 47 -2 57 -1 10 5 16 15 14 11 -1 18 7 22 26 3 16
24 51 46 79 86 109 213 148 349 108z m481 -20 c82 -45 165 -147 184 -226 5
-19 0 -35 -15 -55 l-23 -28 30 21 c17 12 40 24 53 28 20 6 22 3 22 -29 0 -32
-5 -38 -40 -56 -23 -12 -43 -27 -47 -35 -9 -25 -19 -17 -33 28 -48 163 -161
277 -273 277 -57 0 -94 -17 -134 -64 -39 -44 -57 -97 -50 -149 8 -56 34 -87
102 -122 l58 -29 -29 -13 c-49 -20 -88 -15 -133 17 -52 38 -98 109 -107 165
-15 101 59 224 169 280 46 24 61 26 132 23 65 -3 90 -10 134 -33z m-979 -242
c-1 -56 -2 -59 -38 -81 -21 -13 -50 -43 -64 -66 -21 -35 -33 -44 -63 -49 -20
-3 -57 -16 -81 -28 -68 -32 -96 -89 -45 -89 65 0 203 -97 268 -187 40 -56 48
-74 51 -124 2 -31 2 -63 0 -69 -2 -7 -26 21 -53 61 -88 133 -188 223 -277 250
-18 5 -57 10 -85 10 -63 0 -66 9 -28 86 35 70 107 122 213 154 37 11 47 20 64
56 18 39 111 133 130 133 5 0 8 -26 8 -57z m754 -397 c58 -18 126 -61 126 -81
0 -7 -10 -26 -23 -41 l-23 -26 -43 22 c-61 30 -143 38 -177 16 -34 -23 -54
-73 -54 -135 0 -42 5 -56 30 -85 43 -49 122 -86 183 -86 64 0 109 22 157 79
35 40 42 44 57 33 39 -28 100 -52 133 -52 38 0 132 40 146 61 6 10 10 3 16
-21 5 -26 3 -41 -11 -59 -60 -84 -165 -94 -255 -25 -25 19 -46 30 -46 24 0 -6
-18 -30 -40 -54 -81 -87 -209 -113 -307 -63 l-53 27 -37 -24 c-111 -73 -305
-57 -399 32 -23 22 -32 41 -36 76 -3 25 -1 46 4 46 5 0 22 -16 39 -35 49 -56
128 -88 213 -88 68 0 156 25 156 43 0 4 -16 34 -35 66 -46 76 -48 142 -6 229
34 73 55 93 123 116 65 22 100 23 162 5z m-1298 -236 c226 -110 337 -541 207
-806 -54 -110 -176 -197 -294 -211 -41 -4 -68 -16 -114 -48 -78 -54 -125 -79
-135 -68 -4 4 -5 27 -2 51 4 37 9 45 42 62 21 11 53 37 71 58 32 37 38 39 100
44 123 10 203 73 256 200 38 91 45 270 14 382 -26 95 -51 145 -98 197 -67 74
-143 96 -218 65 l-35 -15 0 44 c0 55 14 64 99 65 45 0 77 -6 107 -20z"/>
<path d="M3258 3360 c-2 -3 -32 -16 -68 -29 -126 -46 -198 -106 -248 -208 -15
-29 -30 -53 -34 -53 -8 0 -16 28 -20 75 -3 26 -7 30 -30 28 -69 -4 -165 -80
-199 -158 -21 -48 -39 -55 -144 -55 -114 0 -210 -29 -222 -67 -2 -6 15 -20 39
-32 57 -27 154 -121 208 -201 56 -83 130 -157 165 -166 16 -4 75 2 139 14 152
29 288 43 438 45 90 1 128 5 128 14 0 6 6 13 13 16 8 3 7 9 -6 18 -13 11 -18
30 -20 79 -1 36 -8 71 -14 78 -7 7 -13 22 -13 31 0 10 -3 33 -7 51 -4 24 -3
31 5 26 7 -4 12 -1 12 8 0 9 -7 16 -16 16 -13 0 -15 7 -10 30 3 19 1 30 -6 30
-7 0 -9 14 -5 40 3 26 2 38 -5 34 -7 -5 -9 5 -4 28 5 26 3 37 -7 41 -18 7 -30
99 -14 109 8 5 6 11 -7 21 -15 11 -19 27 -19 79 -1 46 -4 65 -14 65 -7 0 -14
-3 -15 -7z"/>
</g>
</svg>
