<?xml version="1.0" standalone="no"?>
<!DOCTYPE svg PUBLIC "-//W3C//DTD SVG 20010904//EN"
 "http://www.w3.org/TR/2001/REC-SVG-20010904/DTD/svg10.dtd">
<svg version="1.0" xmlns="http://www.w3.org/2000/svg"
 width="400.000000pt" height="600.000000pt" viewBox="0 0 400.000000 600.000000"
 preserveAspectRatio="xMidYMid meet">
<metadata>
Created by potrace 1.16, written by Peter Selinger 2001-2019
</metadata>
<g transform="translate(0.000000,600.000000) scale(0.112045,-0.068104)"
fill="#000000" stroke="none">
<path d="M2000 8786 c-96 -26 -197 -64 -261 -97 -24 -12 -51 -25 -59 -29 -24
-10 -145 -178 -201 -279 -90 -160 -127 -266 -170 -475 -21 -105 -39 -197 -39
-203 0 -26 19 -12 30 23 11 32 97 194 104 194 1 0 -2 -33 -7 -72 -9 -73 -3
-404 9 -465 10 -53 22 -38 29 35 4 37 14 99 23 137 14 63 16 67 23 40 4 -16 7
-50 8 -75 2 -58 48 -281 61 -294 5 -5 10 -7 10 -4 0 14 31 174 37 188 3 8 13
-17 23 -56 10 -39 26 -88 36 -110 16 -38 17 -38 24 -14 5 14 9 43 9 65 l2 40
14 -32 c19 -44 69 -73 126 -73 44 0 47 -2 80 -50 19 -27 37 -50 41 -50 3 0 14
25 24 55 19 64 30 74 51 52 14 -14 13 -22 -12 -81 -32 -76 -52 -96 -124 -127
-45 -19 -60 -32 -96 -88 -32 -50 -55 -73 -93 -93 l-50 -27 -16 24 c-33 50 -96
25 -96 -37 0 -20 -3 -19 -21 12 -42 71 -99 92 -121 45 -6 -14 -19 -25 -29 -25
-10 0 -26 -12 -36 -26 -9 -14 -27 -30 -40 -35 -13 -5 -31 -24 -40 -43 -11 -25
-24 -36 -42 -38 -14 -2 -30 -13 -36 -24 -10 -21 -12 -20 -39 17 -17 22 -41 41
-57 44 -29 7 -99 91 -181 220 -75 116 -81 131 -68 170 10 29 7 46 -15 117 -14
45 -31 85 -37 89 -17 11 -1 27 52 54 60 30 73 55 90 165 17 106 16 117 -9 144
-12 12 -21 35 -21 50 0 28 -28 90 -62 139 -27 38 -67 36 -125 -8 -25 -19 -52
-35 -59 -35 -8 0 -21 -11 -30 -24 -8 -14 -27 -26 -41 -28 -20 -2 -29 -12 -39
-41 -8 -22 -27 -54 -44 -73 -16 -19 -30 -40 -30 -47 -1 -12 -13 -145 -25 -267
-4 -36 -14 -79 -22 -96 -15 -29 -15 -37 0 -91 10 -33 17 -71 17 -85 0 -29 22
-51 71 -72 33 -14 39 -23 67 -103 17 -49 63 -163 102 -253 39 -91 73 -179 75
-196 6 -57 132 -279 199 -352 l41 -44 60 5 c33 4 98 18 144 32 46 15 87 23 92
18 5 -5 16 -57 26 -115 14 -91 15 -111 4 -132 -15 -28 -8 -83 30 -227 25 -92
60 -132 141 -160 51 -17 53 -19 56 -56 1 -21 9 -78 17 -128 14 -86 17 -92 57
-127 l42 -37 -44 -88 -45 -88 -40 0 c-40 0 -40 -1 -75 -71 -19 -39 -42 -80
-50 -89 -25 -31 -94 -55 -197 -69 -138 -20 -229 -55 -375 -143 l-57 -34 -31
-98 c-42 -138 -63 -248 -57 -301 3 -25 26 -92 50 -150 24 -58 52 -126 62 -152
10 -27 20 -48 24 -48 3 0 15 18 25 40 27 57 109 144 162 174 38 21 45 23 39 8
-4 -9 -13 -36 -21 -59 -8 -23 -28 -75 -44 -115 -17 -40 -30 -80 -30 -88 0 -8
23 -37 51 -66 l50 -51 -7 -64 c-6 -56 -11 -68 -42 -96 -20 -18 -71 -51 -114
-73 -132 -69 -165 -122 -277 -455 -40 -115 -87 -237 -106 -271 -19 -34 -41
-89 -49 -122 -9 -39 -28 -78 -53 -113 -52 -70 -218 -229 -238 -229 -9 0 -40
-23 -70 -51 -42 -39 -55 -59 -60 -91 -4 -23 -14 -56 -21 -74 -8 -18 -14 -56
-14 -83 0 -43 4 -53 32 -77 68 -56 183 -93 252 -80 46 9 150 104 166 152 8 22
18 34 30 34 24 0 59 43 109 133 34 62 41 85 49 163 7 69 15 99 35 131 14 23
30 44 35 47 5 3 31 50 58 103 41 85 62 112 149 199 55 56 127 119 160 139 80
50 110 79 151 146 25 41 51 67 99 98 69 45 81 60 312 394 52 76 101 141 109
144 8 3 22 19 30 35 24 47 26 27 3 -43 -31 -96 -91 -204 -170 -308 -39 -51
-69 -94 -67 -95 14 -10 177 -27 251 -27 104 1 176 18 233 57 54 37 203 108
211 101 3 -4 12 -80 19 -169 38 -466 50 -555 90 -688 23 -76 32 -91 83 -140
31 -30 76 -70 98 -87 32 -25 45 -45 57 -85 11 -36 42 -87 96 -158 231 -302
355 -516 428 -735 67 -201 83 -420 44 -592 -25 -111 -48 -159 -105 -215 -24
-24 -56 -65 -72 -92 -24 -41 -27 -53 -18 -76 6 -16 7 -34 2 -43 -16 -27 -23
-211 -10 -236 23 -43 84 -61 207 -61 141 0 168 6 205 43 37 36 47 61 63 152
10 54 21 82 51 122 89 119 120 327 71 469 -25 70 -34 180 -20 249 3 17 -6 78
-20 143 -25 105 -116 607 -137 752 -18 120 -66 296 -108 389 -48 110 -123 226
-160 248 -14 9 -50 39 -79 67 -46 44 -55 61 -78 134 -17 58 -23 96 -19 125 3
23 16 121 30 217 23 166 45 406 65 734 5 81 10 150 13 152 2 2 18 -6 36 -19
34 -24 75 -109 135 -284 18 -51 36 -96 40 -100 15 -15 -2 200 -28 356 -17 104
-29 228 -36 385 -15 341 -30 437 -80 537 -13 24 -83 135 -157 246 l-135 202
22 30 c11 17 28 35 37 39 25 14 -5 60 -118 177 l-101 104 -1 128 -2 128 51
130 c112 283 156 458 157 630 2 198 -34 316 -136 440 -143 175 -135 163 -94
126 l37 -35 0 78 c0 75 1 78 18 65 11 -8 47 -35 82 -61 34 -27 67 -48 72 -48
6 0 8 15 4 38 l-6 37 23 -27 c12 -16 26 -28 31 -28 14 0 -4 72 -40 153 -19 43
-34 85 -34 93 0 9 32 -12 81 -51 79 -64 124 -93 133 -84 3 3 -8 31 -24 64 -16
33 -45 115 -63 182 l-34 122 76 -65 c42 -36 84 -70 94 -75 23 -13 22 5 -2 39
-34 50 -92 191 -160 394 -140 413 -194 529 -291 628 -61 61 -153 111 -238 129
-92 19 -285 13 -382 -13z m330 4 c97 -16 151 -36 219 -84 118 -82 181 -201
321 -605 55 -160 117 -326 138 -370 l39 -80 -36 28 c-20 16 -57 52 -83 79 -26
27 -49 48 -51 45 -10 -9 59 -262 89 -332 13 -29 24 -55 24 -58 0 -7 -92 68
-147 121 -50 47 -53 49 -53 26 0 -23 -2 -22 -21 11 -26 44 -85 83 -149 100
l-48 12 10 34 c12 43 2 106 -21 135 -14 17 -16 30 -10 62 14 69 10 243 -7 324
-36 176 -119 314 -239 394 -96 65 -191 99 -292 105 -45 3 -80 9 -78 13 4 7
140 37 200 44 63 7 133 5 195 -4z m-260 -91 c66 -15 206 -83 235 -115 31 -33
31 -45 3 -63 -20 -12 -24 -10 -57 28 -34 39 -39 41 -89 41 -30 0 -86 -11 -126
-24 l-72 -24 -54 18 c-30 11 -64 20 -75 20 -11 0 -40 17 -64 38 l-45 38 54 27
c47 24 66 27 149 27 53 0 116 -5 141 -11z m-299 -106 c34 -32 70 -75 79 -95
l16 -36 49 30 c99 61 250 102 294 79 49 -27 151 -211 224 -406 58 -157 80
-238 111 -420 14 -82 28 -163 31 -179 3 -17 -22 25 -56 93 -34 67 -63 120 -65
118 -3 -3 -13 -60 -24 -128 -34 -221 -70 -372 -70 -296 0 14 -13 64 -30 110
-16 47 -30 93 -30 101 0 9 -3 16 -8 16 -4 0 -18 -51 -31 -112 -12 -62 -33
-144 -45 -183 l-22 -70 -7 185 c-8 189 -25 380 -52 572 -10 63 -13 128 -9 157
4 32 3 51 -3 51 -6 0 -13 -26 -17 -57 -6 -56 -46 -217 -51 -211 -2 2 -8 62
-15 133 -9 111 -51 332 -66 357 -9 15 -89 -34 -145 -89 l-56 -55 -12 59 c-6
32 -21 78 -32 103 l-21 45 -29 -35 c-34 -41 -140 -251 -165 -328 -9 -29 -18
-51 -20 -49 -5 5 15 180 25 215 5 17 6 32 2 32 -17 0 -32 -90 -37 -220 -5
-147 -2 -148 40 -15 13 44 34 100 46 125 11 25 18 36 14 25 -17 -56 -44 -226
-43 -270 l1 -50 13 50 c11 44 12 30 7 -125 -6 -202 1 -235 73 -385 38 -78 43
-95 36 -130 -7 -40 -7 -39 -30 50 -26 107 -36 127 -51 105 -10 -17 -30 -100
-30 -130 0 -10 -4 -21 -8 -24 -13 -8 -40 162 -48 297 -4 65 -10 114 -14 110
-8 -8 -39 -101 -61 -183 l-13 -45 -7 50 c-12 83 -10 184 7 309 8 65 14 126 12
135 -2 9 -26 -22 -58 -76 -30 -51 -55 -91 -57 -90 -1 2 11 68 27 148 30 148
72 263 146 398 49 90 194 291 210 291 7 0 41 -26 75 -57z m-47 -205 c27 -76
36 -118 23 -118 -6 0 -4 -7 5 -16 14 -15 25 -15 100 -4 45 7 97 11 113 9 28
-4 31 -8 42 -64 6 -33 15 -105 19 -161 l7 -101 -59 -6 c-33 -3 -72 -10 -89
-17 -51 -20 -8 -31 59 -16 62 15 65 13 14 -12 -21 -11 -33 -24 -33 -37 0 -11
-4 -26 -8 -32 -13 -21 3 -15 35 12 16 14 40 25 54 25 21 0 23 -2 13 -24 -26
-56 23 -112 76 -88 14 7 30 22 36 34 8 21 9 20 4 -5 -3 -16 -2 -26 3 -23 14 8
21 -58 29 -241 l6 -163 -64 -29 c-138 -62 -301 -81 -352 -40 -32 24 -128 200
-155 284 -22 65 -27 129 -24 300 2 75 5 105 12 95 5 -8 10 -27 10 -42 0 -16 5
-28 10 -28 6 0 10 13 10 29 0 31 13 47 30 36 6 -4 4 -15 -5 -29 -18 -27 -7
-70 23 -92 9 -8 12 -14 6 -14 -6 0 -23 9 -38 21 -14 11 -26 16 -26 10 0 -14
41 -41 64 -41 42 0 63 84 31 126 -8 10 -14 24 -14 29 0 6 6 1 14 -9 24 -32 29
-10 6 27 -21 34 -105 107 -124 107 -22 0 36 239 60 247 6 2 27 -10 47 -28 20
-17 40 -29 43 -25 4 3 -6 35 -20 71 -29 70 -32 85 -18 85 5 0 16 -19 25 -42z
m-1006 -1192 c18 -10 51 -56 102 -147 41 -73 108 -175 147 -226 68 -87 71 -93
47 -93 -54 0 -137 -64 -210 -163 l-43 -58 -24 48 c-43 86 -128 295 -179 442
-56 159 -56 151 17 190 46 24 104 27 143 7z m1763 -6 c30 -6 65 -18 79 -28 57
-40 140 -269 140 -383 0 -156 -189 -478 -296 -505 -37 -9 -123 54 -190 140
l-55 70 27 14 c35 19 132 17 207 -4 9 -3 17 -1 17 5 0 5 -24 15 -53 21 -103
21 -132 16 -292 -48 -82 -33 -205 -81 -272 -106 -66 -25 -148 -56 -182 -70
-33 -15 -63 -26 -66 -26 -10 0 -57 84 -85 153 -17 43 -30 98 -33 137 -4 67 4
87 58 140 18 17 246 150 315 183 47 22 111 82 193 179 34 41 66 66 110 87 34
17 64 26 65 20 6 -14 22 -11 22 5 0 8 10 17 23 19 45 9 216 7 268 -3z m-1353
-519 c60 -71 55 -109 -13 -89 -59 16 -105 -24 -120 -104 -5 -26 -4 -38 4 -38
6 0 11 9 11 20 0 27 27 92 43 102 7 4 25 8 41 8 l29 0 -26 -32 c-37 -46 -80
-119 -74 -124 3 -3 20 16 38 43 63 94 109 129 109 83 0 -33 30 -37 56 -7 29
34 34 34 34 -2 0 -16 7 -37 16 -45 14 -14 19 -14 42 -2 15 8 35 17 45 20 10 3
23 19 30 36 l13 29 11 -52 c16 -76 72 -213 99 -242 l22 -24 -116 -45 c-136
-52 -313 -105 -382 -113 -44 -5 -51 -3 -76 23 -41 44 -120 168 -167 262 l-41
83 25 46 c35 65 132 167 181 192 24 11 61 21 84 21 37 0 45 -5 82 -49z m592
-746 c12 -83 41 -211 58 -255 5 -14 38 -61 74 -105 35 -44 94 -126 131 -183
37 -56 92 -132 123 -168 48 -57 114 -176 114 -205 0 -27 -23 0 -56 67 -20 42
-65 113 -98 158 -34 46 -88 122 -121 170 -33 48 -87 124 -119 169 -36 48 -67
104 -77 139 -28 88 -59 357 -57 488 l1 115 8 -155 c4 -85 12 -191 19 -235z
m-247 105 c35 -95 52 -218 34 -247 -5 -8 -29 -13 -56 -13 -71 0 -98 25 -106
98 -4 31 -11 82 -16 112 -5 30 -12 75 -15 100 l-5 45 64 0 65 0 35 -95z m-99
-254 c20 -15 43 -21 82 -21 30 0 54 -4 54 -10 1 -5 7 -64 14 -130 8 -66 13
-121 12 -123 -5 -4 -90 28 -113 44 -38 24 -52 55 -78 174 -27 122 -32 179 -11
121 7 -19 25 -44 40 -55z m1552 -671 c70 -104 142 -221 161 -260 40 -86 59
-204 68 -430 9 -226 22 -373 51 -542 27 -167 28 -182 10 -133 -8 19 -30 71
-50 116 -46 103 -55 155 -70 389 -12 194 -9 244 23 304 20 36 -12 201 -38 201
-6 0 -16 -9 -24 -20 -12 -18 -17 -11 -62 93 -54 126 -121 250 -195 364 -47 72
-49 78 -33 95 9 10 20 17 24 16 4 -2 64 -88 135 -193z m-182 -148 c32 -126 60
-329 49 -349 -2 -5 -28 -8 -56 -8 -76 0 -78 -3 -75 -106 l3 -89 53 -3 c63 -4
64 -10 26 -109 -46 -119 -154 -425 -180 -508 -22 -71 -24 -95 -22 -210 l3
-131 -115 0 -115 1 -115 -54 c-63 -29 -144 -70 -180 -91 -78 -45 -87 -48 -176
-59 -60 -7 -227 2 -261 14 -8 3 13 40 57 101 118 162 190 339 190 464 0 81 27
208 85 393 30 98 55 185 55 194 0 21 -80 173 -91 173 -5 0 10 -39 34 -86 l42
-86 -100 -96 c-152 -147 -217 -172 -350 -136 -105 28 -170 16 -360 -67 -178
-77 -227 -111 -286 -198 -19 -28 -36 -51 -39 -51 -3 0 -15 26 -26 58 -12 31
-38 95 -58 142 -19 47 -36 102 -36 123 0 52 24 164 59 272 33 101 41 110 171
171 118 56 199 84 246 84 57 0 141 18 184 40 49 25 75 56 100 120 27 69 33 75
74 72 40 -4 59 18 108 125 17 37 32 69 33 71 1 1 29 -11 62 -28 205 -101 464
-150 621 -116 101 21 165 53 247 124 l70 60 17 -39 c10 -22 33 -103 52 -182z
m59 -434 c3 -38 8 -75 12 -85 6 -14 -3 -17 -64 -20 l-70 -3 -6 43 c-4 24 -4
61 0 82 6 38 8 39 53 43 26 2 52 4 58 5 7 1 13 -25 17 -65z m-1301 -417 c32
-35 85 -82 118 -104 61 -41 161 -78 186 -68 10 4 14 -3 14 -24 l0 -30 -63 0
c-114 0 -199 40 -285 135 -50 55 -112 137 -112 149 0 3 19 6 43 6 39 0 46 -4
99 -64z m-134 15 c32 -56 145 -175 195 -204 58 -34 140 -57 204 -57 46 0 52
-2 46 -17 -16 -48 -72 -55 -174 -23 -70 21 -167 76 -212 118 -36 34 -127 180
-127 204 0 12 8 18 23 18 17 0 30 -11 45 -39z m-167 -113 c7 -18 39 -67 70
-109 113 -149 255 -239 381 -239 55 0 62 -13 26 -54 -31 -35 -115 -38 -216 -6
-90 27 -151 74 -232 176 -93 116 -96 124 -75 201 9 34 21 63 25 63 4 0 14 -15
21 -32z m-36 -170 c47 -72 117 -147 177 -193 62 -46 178 -85 257 -85 l42 0
-18 -31 c-24 -41 -47 -52 -96 -44 -91 14 -138 36 -203 97 -76 71 -123 133
-164 216 -44 89 -41 110 5 40z m43 -149 c46 -68 152 -163 207 -188 28 -13 74
-25 103 -28 28 -3 52 -9 52 -13 0 -4 -10 -22 -23 -41 -21 -31 -28 -34 -79 -37
-100 -5 -239 79 -298 181 -44 76 -72 173 -64 222 10 61 14 61 44 2 15 -30 41
-74 58 -98z m-64 -109 c54 -106 196 -207 306 -218 28 -2 50 -8 50 -12 0 -4
-15 -27 -33 -51 -18 -24 -46 -61 -61 -82 -15 -20 -55 -56 -89 -78 -34 -23 -85
-67 -114 -99 -62 -68 -95 -84 -166 -78 -147 12 -236 121 -224 274 7 92 28 127
106 175 36 23 77 51 90 63 l23 21 -7 -25 c-4 -14 -14 -38 -22 -54 -12 -22 -12
-27 -1 -24 17 5 42 87 63 208 10 52 20 99 23 104 3 5 11 -8 17 -30 6 -21 24
-64 39 -94z m1796 -402 c-31 -228 -51 -411 -45 -416 2 -3 9 6 14 19 9 23 10
23 10 3 2 -45 33 -111 75 -154 70 -74 96 -110 96 -134 0 -75 -134 -248 -229
-295 -122 -61 -187 -51 -256 40 -26 33 -70 77 -98 98 -119 89 -148 147 -182
370 -19 124 -58 531 -51 537 0 1 35 -7 76 -18 102 -26 291 -28 375 -4 75 22
215 94 223 115 14 37 12 -18 -8 -161z m-2793 -1110 c106 -39 203 -100 203
-126 0 -20 -69 -92 -88 -92 -9 0 -5 7 9 19 24 19 24 20 5 38 -14 12 -16 13 -8
2 10 -13 9 -19 -3 -29 -13 -11 -19 -11 -31 1 -13 13 -11 21 10 65 l25 49 -24
-28 c-14 -15 -25 -35 -25 -42 0 -20 -44 -47 -64 -39 -25 10 -19 25 7 19 31 -8
54 17 33 34 -12 10 -13 9 -9 -8 6 -23 3 -24 -21 -15 -14 5 -14 9 -1 33 7 15
21 33 29 40 9 8 16 18 16 24 0 6 -11 0 -25 -13 -14 -13 -25 -29 -25 -36 0 -7
-5 -16 -12 -20 -6 -4 -8 -3 -4 4 3 6 2 13 -4 17 -5 3 -10 -1 -10 -9 0 -9 -4
-16 -10 -16 -17 0 -11 26 15 64 14 20 25 39 25 43 0 14 -33 -24 -48 -56 -19
-40 -54 -56 -49 -22 2 11 15 39 29 61 15 22 23 40 18 40 -5 0 -17 -11 -26 -25
-9 -14 -21 -22 -27 -18 -6 4 -8 0 -5 -8 7 -17 -18 -43 -27 -29 -3 6 -1 10 4
10 6 0 10 3 9 8 -3 10 13 55 24 70 14 16 18 16 85 -10z m3043 -1755 c96 -33
162 -66 176 -90 10 -16 5 -26 -32 -68 -32 -38 -46 -47 -54 -38 -9 8 -7 13 8
17 21 7 39 36 22 36 -6 0 -10 -4 -10 -10 0 -5 -7 -10 -15 -10 -14 0 -14 3 0
30 8 16 15 35 15 42 -1 17 -39 -52 -40 -71 -1 -33 -70 -73 -70 -41 0 6 8 10
18 10 19 0 42 18 42 32 0 4 -5 8 -11 8 -5 0 -7 -5 -4 -10 6 -10 -22 -26 -31
-18 -3 3 4 28 15 57 12 28 17 51 11 51 -5 0 -17 -25 -27 -56 -19 -61 -55 -96
-76 -75 -8 8 -5 11 15 11 14 0 29 7 32 16 7 18 0 34 -16 34 -7 0 -7 -4 1 -13
12 -15 5 -27 -16 -27 -18 0 -17 44 3 81 8 17 14 38 12 47 -3 16 -20 -24 -44
-103 -10 -32 -39 -45 -58 -25 -8 10 -6 12 11 7 26 -6 46 14 37 37 -9 23 -23
20 -17 -4 4 -15 0 -20 -16 -20 -20 0 -21 4 -15 38 4 20 13 54 20 75 7 20 9 37
5 37 -5 0 -17 -29 -26 -65 -10 -36 -24 -70 -31 -76 -17 -14 -56 -8 -62 9 -3 9
3 11 22 6 21 -5 28 -1 37 20 10 21 10 29 -1 39 -10 10 -12 9 -8 -3 9 -25 -11
-52 -29 -42 -30 17 -20 113 17 157 13 16 87 3 190 -32z"/>
<path d="M1885 8682 c-92 -34 -114 -53 -79 -66 9 -3 26 -6 39 -6 13 0 27 -4
30 -10 10 -17 81 -11 106 8 36 30 19 54 -33 50 -24 -2 -42 -7 -40 -13 2 -5 14
-9 27 -7 29 4 34 -14 6 -23 -39 -12 -66 16 -39 43 15 15 90 16 105 1 13 -13
83 -4 83 10 0 8 -19 12 -120 26 -21 3 -55 -2 -85 -13z"/>
</g>
</svg>
