<?xml version="1.0" standalone="no"?>
<!DOCTYPE svg PUBLIC "-//W3C//DTD SVG 20010904//EN"
 "http://www.w3.org/TR/2001/REC-SVG-20010904/DTD/svg10.dtd">
<svg version="1.0" xmlns="http://www.w3.org/2000/svg"
 width="400.000000pt" height="600.000000pt" viewBox="0 0 400.000000 600.000000"
 preserveAspectRatio="xMidYMid meet">
<metadata>
Created by potrace 1.16, written by Peter Selinger 2001-2019
</metadata>
<g transform="translate(0.000000,600.000000) scale(0.091533,-0.080972)"
fill="#000000" stroke="none">
<path d="M314 7382 c-37 -30 -37 -54 0 -125 31 -61 33 -69 24 -109 -6 -24 -17
-50 -24 -59 -8 -8 -14 -24 -14 -35 0 -31 97 -215 153 -290 42 -56 84 -141 74
-150 -1 -1 -29 -15 -62 -32 -60 -30 -145 -109 -145 -135 0 -22 -61 -73 -145
-120 -126 -70 -144 -81 -150 -95 -13 -33 81 -213 160 -307 24 -28 89 -120 145
-205 122 -184 235 -337 298 -402 62 -64 148 -96 523 -197 262 -70 252 -64 274
-147 25 -94 94 -294 109 -319 10 -16 10 -26 0 -50 -29 -66 -8 -146 60 -228
l34 -42 -24 -28 c-13 -15 -24 -33 -24 -40 0 -7 -14 -20 -30 -29 -20 -11 -33
-28 -36 -48 -4 -16 -10 -30 -14 -30 -20 0 -70 -54 -70 -75 0 -13 -17 -39 -40
-63 -22 -22 -40 -49 -40 -61 0 -11 -4 -21 -10 -21 -5 0 -28 -18 -51 -41 l-40
-40 -88 20 c-163 39 -237 28 -344 -50 -22 -16 -53 -29 -68 -29 -87 0 -257 -57
-327 -110 -27 -21 -56 -55 -71 -85 -23 -43 -26 -63 -27 -155 -1 -82 -6 -118
-24 -165 -18 -49 -21 -73 -17 -131 6 -79 45 -204 88 -281 40 -70 133 -154 220
-197 66 -33 79 -36 160 -36 67 0 108 6 170 26 67 21 86 24 109 14 71 -30 147
-10 212 55 20 20 40 26 114 35 49 5 142 10 207 10 103 0 123 -3 147 -20 50
-36 64 -88 66 -248 2 -148 14 -221 45 -284 11 -21 19 -43 19 -50 0 -7 12 -30
26 -51 25 -37 26 -38 72 -31 57 8 84 31 112 96 52 121 61 187 58 425 -2 121 0
224 4 228 4 4 58 -15 120 -43 62 -27 136 -58 164 -68 49 -17 54 -22 115 -123
35 -58 94 -148 132 -200 37 -52 67 -98 67 -102 0 -5 25 -64 55 -132 126 -284
264 -504 406 -648 75 -75 90 -97 108 -151 12 -35 35 -80 51 -100 36 -43 119
-87 185 -96 l47 -7 54 -100 c65 -121 144 -298 144 -324 0 -10 11 -38 25 -62
43 -76 65 -128 142 -344 41 -116 80 -220 87 -232 13 -25 83 -103 94 -104 4 0
16 -2 26 -4 54 -10 168 80 213 169 25 49 25 50 9 115 -9 36 -31 94 -49 130
l-32 66 -53 3 c-38 3 -64 -2 -95 -17 -52 -26 -134 -95 -157 -133 l-17 -29 -41
118 c-51 145 -68 233 -51 265 16 32 59 66 91 73 32 8 79 -15 112 -53 48 -55
189 -217 193 -221 1 -2 3 0 3 5 0 6 -36 50 -81 100 -66 74 -119 152 -119 178
0 3 -22 44 -49 92 -68 117 -139 283 -162 375 l-19 76 35 67 c49 95 48 136 -10
241 -30 56 -50 110 -64 174 -20 89 -131 446 -150 480 -8 14 -1 18 51 31 98 24
103 36 103 233 -1 203 -12 253 -67 303 -22 20 -68 49 -101 65 l-61 29 -71 152
c-39 84 -94 189 -122 233 -28 44 -67 120 -88 169 -20 49 -47 111 -61 138 -14
28 -24 51 -22 52 2 2 94 34 205 72 l201 69 22 -28 c24 -31 70 -37 90 -12 9 11
16 13 24 5 18 -18 64 -11 83 13 10 13 24 22 31 19 23 -7 60 7 66 26 4 11 16
18 32 17 38 0 53 28 29 54 -10 12 -16 23 -14 25 2 2 54 20 114 40 165 56 169
60 139 149 -25 75 -39 79 -136 45 -52 -18 -84 -25 -86 -18 -2 5 -13 15 -25 21
-21 9 -21 9 -3 -5 10 -8 15 -19 12 -25 -3 -5 -42 -21 -86 -36 -71 -24 -85 -25
-131 -16 -64 14 -163 14 -213 0 -53 -15 -100 -4 -144 34 -31 27 -34 28 -21 8
33 -52 111 -73 187 -52 38 11 38 9 4 -48 -23 -37 -37 -47 -82 -63 -29 -10 -61
-16 -70 -13 -9 3 -34 23 -56 46 -37 38 -39 43 -37 99 3 66 26 121 67 159 l26
25 98 -18 c70 -13 122 -30 187 -62 50 -24 106 -47 125 -49 34 -5 34 -5 -6 8
-22 8 -74 32 -115 54 -41 22 -87 43 -104 46 -16 4 -70 19 -118 34 l-88 28 5
35 c11 69 19 360 10 360 -5 0 -8 -46 -6 -102 3 -99 -12 -267 -26 -279 -4 -4
-31 0 -61 10 l-54 16 -23 69 -24 69 27 49 c34 62 136 184 152 181 18 -4 13 14
-6 22 -28 11 -203 19 -203 9 0 -5 41 -10 91 -10 49 -1 93 -4 96 -7 3 -3 -12
-23 -32 -44 -21 -21 -59 -70 -84 -109 l-46 -72 -37 62 c-20 33 -55 82 -78 108
-46 53 -46 52 40 62 19 2 5 2 -31 1 -36 -2 -71 0 -78 4 -9 6 -10 30 -2 110 14
128 14 270 1 381 -8 74 -17 100 -66 195 -59 116 -119 199 -169 233 -35 24
-233 96 -213 77 7 -7 58 -30 112 -50 54 -21 113 -50 130 -66 33 -29 116 -161
141 -226 9 -21 20 -46 26 -57 6 -10 18 -70 27 -133 14 -99 14 -134 3 -252 -15
-172 -20 -194 -42 -177 -11 7 -21 40 -29 91 -14 91 -14 120 -2 192 5 29 5 50
1 47 -4 -2 -11 -26 -15 -52 l-7 -47 -14 55 c-29 113 -34 132 -39 128 -2 -3 11
-77 30 -164 47 -221 49 -237 28 -229 -95 39 -155 55 -168 45 -15 -14 -17 -8
-34 120 -22 161 -118 491 -205 704 -78 190 -78 191 -14 131 l54 -50 -53 56
c-35 37 -58 71 -67 102 -8 26 -11 47 -7 47 4 0 36 -42 72 -94 36 -52 66 -93
68 -91 4 4 -48 143 -84 225 l-34 75 108 -110 c59 -60 98 -96 88 -80 -25 38
-86 146 -86 151 0 8 -53 88 -74 111 -32 38 -9 40 58 5 79 -41 92 -41 37 0 -37
27 -41 33 -26 38 15 5 7 13 -36 38 -30 17 -67 42 -84 56 l-30 25 88 83 c48 46
87 86 87 89 0 3 -41 9 -92 13 -50 3 -94 8 -97 11 -2 3 11 22 30 43 20 20 51
57 69 81 l34 44 -103 -6 c-96 -7 -103 -6 -96 10 36 83 102 269 96 271 -4 1
-61 -25 -125 -58 -65 -34 -120 -60 -122 -58 -4 5 27 120 50 186 13 37 8 59 -9
33 -7 -12 -213 -191 -219 -191 -3 0 6 32 19 70 13 39 21 70 17 70 -4 0 -45
-38 -92 -85 -78 -78 -97 -90 -237 -160 -169 -84 -196 -108 -256 -223 -52 -101
-78 -184 -72 -234 23 -186 138 -469 236 -579 l39 -44 -15 40 c-18 49 -46 190
-35 179 4 -5 25 -29 45 -54 55 -67 257 -280 266 -280 4 0 -17 39 -47 87 -30
47 -54 90 -54 94 0 12 130 -74 167 -110 45 -45 209 -335 300 -532 65 -141 153
-377 153 -410 0 -6 -17 12 -38 40 -21 28 -69 85 -106 126 -56 62 -73 75 -98
75 -36 0 -282 -64 -352 -92 -27 -10 -52 -15 -56 -11 -7 7 -521 903 -583 1015
l-26 46 23 6 c13 3 66 6 119 7 54 1 97 5 97 10 0 10 -179 5 -222 -6 -24 -6
-31 3 -128 172 -57 98 -103 186 -102 195 0 10 -3 20 -8 23 -32 19 35 -106 317
-600 290 -508 398 -697 788 -1385 145 -255 415 -740 440 -790 39 -78 -15 -1
-77 110 -142 255 -443 787 -656 1160 -124 217 -233 409 -242 425 -97 171 -454
792 -459 798 -4 4 -7 -1 -6 -13 1 -11 10 -30 22 -42 11 -13 94 -153 185 -313
366 -641 467 -821 473 -836 4 -11 -14 -29 -64 -63 -39 -26 -84 -63 -101 -82
-17 -19 -34 -33 -39 -29 -11 6 -64 152 -97 265 -13 47 -27 92 -30 101 -4 15 1
15 58 -1 84 -23 156 -34 143 -22 -9 9 -218 69 -561 161 -269 72 -363 107 -413
154 -50 48 -146 175 -250 330 -71 107 -81 134 -25 76 37 -40 204 -173 209
-167 2 2 -24 26 -58 53 -108 88 -277 257 -343 345 -64 85 -144 231 -144 262 0
22 44 55 150 113 104 57 117 69 142 122 11 24 35 56 54 73 35 30 105 70 123
70 9 0 -39 -194 -76 -310 l-18 -55 -75 -8 c-41 -5 -123 -6 -182 -4 -67 2 -105
0 -101 -6 9 -15 337 -1 408 18 115 30 265 119 305 180 l18 27 36 -61 c20 -33
46 -63 58 -67 90 -28 178 -271 179 -494 0 -67 -7 -143 -20 -210 -23 -116 -26
-160 -11 -160 6 0 10 15 10 33 0 41 30 210 39 220 4 4 22 -43 41 -105 18 -62
35 -115 38 -118 12 -12 -10 84 -42 180 -23 72 -36 133 -40 195 -4 50 -11 107
-15 128 -6 24 -5 37 2 37 5 0 3 8 -6 18 -8 9 -18 31 -22 47 l-6 30 16 -27 c9
-16 18 -28 21 -28 3 0 -5 19 -19 43 -70 120 -108 198 -102 207 3 5 2 10 -4 10
-5 0 -11 -5 -13 -12 -2 -6 -15 5 -27 26 -22 34 -22 39 -8 53 13 13 19 14 31 4
8 -7 18 -21 21 -32 9 -26 25 -24 25 4 0 29 -8 45 -174 327 -124 210 -137 236
-125 255 11 18 11 19 -5 6 -15 -13 -18 -12 -22 6 -6 20 -6 20 -42 2 -56 -27
-110 -69 -88 -69 13 0 16 -5 11 -20 -5 -15 -3 -18 8 -14 24 9 28 -25 7 -46
-11 -11 -23 -20 -27 -20 -28 2 -173 249 -173 295 0 11 6 27 13 34 10 11 10 13
0 7 -17 -9 -16 -1 3 65 21 71 29 79 78 79 33 1 37 3 23 11 -9 5 -26 27 -37 49
-17 34 -63 80 -79 80 -3 0 -16 -8 -27 -18z m1709 -1093 c31 -36 57 -70 56 -75
0 -8 -83 -82 -144 -130 -19 -14 -18 -15 18 -9 27 4 37 3 32 -4 -10 -18 7 -12
22 7 13 15 14 15 9 0 -4 -15 -1 -16 41 -3 25 8 55 23 68 35 l22 21 31 -48 c18
-26 32 -45 32 -42 0 3 -20 64 -44 135 l-44 129 30 -35 c16 -19 59 -73 95 -119
58 -75 64 -87 53 -104 -7 -11 -21 -47 -32 -80 -25 -76 -58 -129 -122 -195
-102 -106 -124 -109 -238 -35 -37 24 -74 46 -82 49 -12 5 -95 170 -110 219 -5
18 -1 20 40 18 35 -1 44 2 40 13 -7 17 5 18 24 2 7 -7 5 -1 -6 14 -10 15 -22
28 -26 28 -12 0 -27 35 -68 152 l-38 110 47 -6 c39 -5 58 -1 121 28 l75 35 20
-22 c11 -12 46 -52 78 -88z m353 -441 c25 -62 32 -71 82 -99 34 -19 52 -35 48
-44 -2 -7 1 -16 8 -18 29 -12 178 -474 201 -627 l7 -45 -23 21 c-13 12 -31 24
-39 28 -8 4 4 -10 27 -31 40 -37 42 -41 48 -113 l7 -75 -49 -37 c-26 -21 -82
-69 -123 -107 -41 -39 -78 -67 -81 -63 -4 4 -21 56 -38 115 -17 60 -42 136
-56 168 l-24 59 25 17 c14 9 30 25 36 37 7 14 -1 10 -25 -13 l-36 -34 -30 64
c-85 188 -118 252 -192 382 -45 78 -97 163 -115 190 -31 43 -32 47 -13 47 11
0 28 4 38 9 22 12 146 -18 197 -48 47 -28 55 -27 15 3 -18 13 -62 32 -99 42
-37 9 -69 19 -71 21 -2 1 25 33 61 70 65 68 106 139 128 223 l12 45 23 -60
c12 -33 35 -90 51 -127z m-189 -1230 c13 -10 12 -62 -1 -75 -3 -4 -13 3 -22
15 -19 27 -39 30 -25 3 6 -10 7 -22 3 -26 -4 -5 -1 -4 7 0 11 6 13 4 8 -9 -4
-11 -3 -15 4 -10 8 4 9 -1 4 -17 -10 -32 -12 -34 -30 -19 -22 18 -31 4 -12
-18 20 -22 23 -72 4 -72 -7 0 -19 6 -27 13 -8 6 -3 -2 13 -19 31 -34 39 -98
12 -88 -23 9 -66 89 -59 108 4 11 1 16 -10 16 -19 0 -40 36 -30 52 5 7 3 8 -5
3 -9 -5 -12 -2 -9 11 2 12 12 19 26 18 12 0 22 5 22 13 0 7 -8 13 -17 13 -10
0 -14 4 -8 8 6 4 10 13 10 21 0 25 32 37 57 22 22 -14 22 -14 5 13 -17 26 -17
27 5 35 24 10 55 5 75 -11z m56 -70 c-47 -53 -40 -63 12 -17 21 19 41 29 51
25 8 -3 12 -2 9 4 -10 16 31 12 44 -4 10 -11 8 -17 -9 -29 -22 -15 -22 -15 3
-13 14 0 23 4 21 7 -4 7 39 27 72 33 33 6 48 -8 28 -25 -10 -8 -15 -9 -11 -3
7 12 -29 12 -40 -1 -5 -4 -3 -5 4 -2 6 4 18 1 26 -7 8 -8 17 -12 21 -9 3 3 14
0 23 -8 16 -13 17 -12 5 3 -15 19 -10 24 40 33 44 8 92 -11 65 -27 -10 -5 -22
-6 -29 -2 -7 5 -9 2 -5 -9 3 -9 1 -18 -6 -21 -7 -2 -5 -5 5 -5 9 -1 19 3 22 8
11 16 86 24 116 11 27 -11 49 -40 31 -40 -5 0 -17 -3 -25 -6 -13 -5 -15 -2
-10 12 8 20 6 19 -16 -10 -10 -13 -10 -17 -2 -12 7 4 12 1 12 -8 0 -13 4 -14
24 -5 32 15 87 4 114 -22 24 -22 29 -41 10 -34 -7 2 -28 6 -45 9 -30 4 -32 2
-23 -15 13 -24 21 -25 13 -1 -5 14 -3 15 8 5 7 -7 21 -13 31 -13 27 0 88 -32
81 -43 -3 -6 -1 -7 5 -3 16 10 25 -13 11 -30 -10 -12 -9 -13 5 -8 12 5 16 0
16 -21 l0 -26 -26 20 c-28 22 -44 27 -44 13 0 -5 12 -14 26 -20 15 -7 22 -17
18 -24 -4 -7 -3 -8 4 -4 12 7 35 -27 25 -38 -3 -3 -15 -6 -25 -6 -24 0 -23 -4
8 -35 31 -31 31 -88 0 -93 -13 -3 -16 0 -11 9 5 8 4 10 -4 5 -7 -4 -10 -15 -8
-24 5 -23 -20 -72 -36 -72 -8 0 -23 -11 -34 -24 -15 -17 -28 -23 -42 -19 -22
5 -26 14 -14 27 4 3 8 14 9 22 1 9 -1 13 -4 9 -4 -4 -7 -12 -7 -18 0 -7 -9
-11 -20 -9 -15 2 -17 0 -7 -6 11 -7 7 -11 -13 -16 -29 -7 -65 0 -65 13 0 5
-18 8 -39 7 -22 0 -37 -4 -35 -7 2 -4 -5 -5 -17 -2 -11 3 -25 16 -31 29 -6 13
-15 21 -20 18 -4 -3 -24 0 -44 6 -24 8 -34 17 -30 27 3 8 1 11 -4 8 -13 -8
-13 8 1 22 8 8 7 13 -2 18 -7 5 -10 4 -6 -2 11 -18 -17 -22 -51 -7 -24 10 -32
19 -32 39 0 19 -7 28 -27 36 -32 12 -43 26 -43 56 0 15 -7 23 -22 25 -30 4
-53 50 -39 77 9 15 7 18 -7 17 -13 -1 -17 7 -17 29 0 28 3 30 33 28 18 0 48
-13 67 -28 39 -29 47 -56 15 -48 -17 5 -18 8 -8 22 11 14 11 14 -3 4 -9 -7
-18 -10 -21 -7 -3 3 -9 0 -14 -7 -4 -8 -3 -10 4 -5 7 4 12 1 12 -6 0 -7 21
-20 47 -28 53 -17 69 -40 29 -40 -14 0 -26 -4 -26 -10 0 -5 -5 -10 -11 -10 -5
0 -8 4 -5 8 3 5 -1 9 -9 9 -11 0 -12 -4 -4 -13 6 -7 24 -10 47 -7 24 3 44 -1
57 -10 19 -14 19 -16 2 -34 -19 -22 -22 -33 -6 -33 5 0 7 5 3 12 -5 8 -2 9 10
5 11 -4 15 -3 10 4 -4 7 3 9 17 7 16 -2 25 -11 27 -25 3 -22 22 -33 22 -13 0
6 5 10 11 10 5 0 7 -6 3 -12 -6 -10 -4 -10 7 0 16 15 33 16 23 0 -4 -7 -3 -8
4 -4 15 9 35 -39 27 -64 -3 -10 0 -17 8 -17 9 0 13 11 12 29 -1 21 3 28 16 28
27 0 50 -11 43 -21 -3 -5 0 -8 8 -7 8 2 14 -8 16 -24 4 -34 19 -37 24 -5 2 16
11 23 32 25 20 3 26 0 21 -9 -5 -7 -4 -10 3 -5 6 3 13 2 17 -4 3 -5 11 -10 17
-10 6 0 3 10 -8 21 l-19 22 33 -5 c17 -2 32 -1 32 4 0 5 6 6 13 2 7 -5 7 -1
-3 12 -22 29 -24 30 -18 13 5 -12 1 -15 -18 -11 -32 6 -35 57 -4 67 11 3 20
11 20 17 0 5 -8 7 -17 4 -30 -12 -47 50 -19 73 11 9 15 8 21 -6 5 -10 7 -22 6
-28 -2 -5 1 -6 5 -2 11 11 14 38 4 32 -5 -3 -12 4 -15 16 -4 12 -12 18 -21 15
-28 -11 -64 12 -64 39 0 18 4 24 13 19 6 -4 9 -4 5 1 -4 4 -2 15 5 23 10 13 8
14 -11 8 -25 -8 -65 1 -57 14 3 4 -3 7 -13 6 -10 0 -18 7 -20 21 -3 18 -9 22
-37 21 -36 -1 -65 16 -65 38 0 11 -12 14 -42 12 -36 -3 -43 0 -42 14 1 10 -3
15 -9 11 -26 -16 -89 -15 -108 3 -19 17 -21 17 -49 0 -41 -24 -70 -28 -77 -11
-3 8 -11 15 -19 15 -19 0 -18 24 1 40 8 7 15 19 15 26 0 8 10 14 22 14 l21 0
-20 -22z m-308 -38 c18 -34 13 -50 -15 -50 -11 0 -25 -12 -32 -27 -8 -18 -21
-28 -35 -28 -26 -1 -38 -11 -38 -32 0 -8 -10 -22 -22 -30 -21 -14 -22 -14 -18
7 2 13 1 19 -3 16 -4 -4 -7 -11 -8 -14 0 -4 -3 -14 -7 -22 -3 -8 -7 -24 -10
-35 -2 -11 -9 -19 -15 -18 -7 2 -11 -1 -9 -6 1 -4 -9 -18 -23 -30 -14 -13 -19
-20 -13 -16 10 4 10 0 4 -17 -5 -13 -16 -22 -25 -22 -9 1 -14 -2 -11 -6 6 -9
-23 -22 -34 -16 -4 3 -5 -11 -3 -29 4 -31 0 -37 -32 -56 -27 -16 -36 -27 -36
-48 0 -32 -33 -67 -51 -55 -7 4 -10 3 -5 -4 3 -6 2 -13 -4 -17 -5 -3 -10 -14
-10 -25 0 -15 -15 -21 -87 -34 -47 -9 -88 -14 -90 -12 -7 7 52 44 80 51 18 5
27 14 27 27 0 18 -1 18 -16 4 -27 -27 -37 -18 -17 17 13 22 34 38 71 52 56 21
69 38 25 33 -14 -2 -28 2 -30 9 -7 19 45 62 83 69 44 8 66 32 24 26 -17 -2
-30 -1 -30 3 0 34 62 72 102 62 13 -4 30 -2 38 4 11 8 9 9 -9 4 -19 -6 -23 -4
-18 8 4 11 0 13 -14 10 -12 -4 -19 0 -19 10 0 23 28 40 66 41 39 1 38 0 18 20
-14 14 -13 18 11 42 16 16 35 25 53 24 43 -3 47 -1 26 14 -19 15 -19 15 3 37
15 15 34 23 58 23 38 0 47 15 14 23 -19 5 -19 7 8 24 40 27 60 24 78 -11z m61
-174 c12 -40 -1 -74 -27 -68 -10 2 -19 -5 -22 -19 -4 -16 -11 -20 -26 -16 -12
3 -19 1 -15 -4 3 -5 -4 -9 -15 -9 -11 0 -23 5 -26 10 -11 18 -24 10 -27 -17
-2 -19 -8 -28 -20 -27 -10 1 -16 -3 -15 -9 3 -15 -33 -21 -45 -9 -11 11 34 57
55 57 7 0 11 11 9 27 -3 27 27 55 43 40 5 -4 5 -2 2 5 -8 12 1 43 12 43 15 0
51 -42 45 -52 -4 -6 -3 -8 3 -5 6 4 13 16 16 27 3 11 1 18 -3 15 -18 -11 -22
19 -5 32 31 22 49 15 61 -21z m552 12 c7 -7 12 -20 12 -29 0 -13 10 -19 33
-21 29 -3 32 -6 31 -35 -2 -26 2 -33 17 -33 38 0 51 -60 19 -87 -26 -22 -26
-37 -1 -23 16 8 23 6 35 -12 18 -26 21 -58 5 -58 -6 0 -8 7 -5 16 3 8 2 12 -4
9 -19 -11 -32 6 -18 23 10 14 10 15 -2 5 -8 -7 -29 -13 -48 -13 -28 0 -35 5
-47 33 -8 19 -12 43 -9 54 5 17 1 19 -25 15 -40 -6 -50 18 -28 64 10 19 12 34
7 34 -6 0 -13 -7 -16 -15 -7 -16 -54 -21 -54 -6 0 5 -2 16 -5 23 -3 8 4 26 15
41 23 29 67 36 88 15z m-492 -64 c-3 -8 -2 -13 2 -10 11 6 105 -162 97 -174
-3 -5 -15 -10 -26 -10 -10 0 -19 -4 -19 -10 0 -5 6 -10 13 -10 20 0 77 -60 77
-80 0 -10 -7 -26 -16 -35 -15 -14 -18 -14 -33 -1 -15 14 -17 13 -18 -7 -1 -12
1 -17 5 -12 4 6 26 -7 51 -31 43 -41 44 -41 25 -61 -23 -24 -29 -44 -12 -41 7
2 12 -3 10 -10 -1 -6 3 -11 9 -10 6 2 20 -10 32 -25 19 -24 20 -29 7 -37 -20
-13 -40 -12 -40 1 0 5 5 7 12 3 7 -4 8 -3 4 5 -10 15 -22 7 -29 -19 -3 -11 -2
-18 3 -15 10 6 56 -34 52 -47 -1 -5 2 -7 7 -3 11 6 31 -25 31 -49 0 -10 -9
-16 -26 -16 -16 0 -23 4 -18 12 5 7 3 8 -5 3 -9 -5 -4 -16 18 -39 17 -18 29
-35 26 -38 -4 -3 -1 -9 6 -14 8 -5 10 -3 4 7 -8 12 -6 12 8 0 23 -18 21 -38
-4 -46 -20 -7 -20 -7 -2 -27 9 -11 30 -27 45 -36 16 -9 26 -22 23 -30 -2 -7
-1 -10 4 -7 5 3 12 1 15 -4 10 -16 -27 -18 -59 -4 -26 12 -28 12 -13 0 10 -8
15 -17 11 -20 -3 -4 6 -11 20 -16 29 -11 48 -34 20 -25 -14 5 -15 4 -4 -4 8
-6 19 -8 25 -6 7 3 25 -9 41 -26 25 -27 27 -30 9 -31 -10 0 -27 -2 -36 -4 -10
-2 -22 4 -28 13 -5 10 -10 12 -10 5 0 -24 -69 -15 -95 12 -32 31 -33 72 -2 77
19 3 17 6 -18 23 -63 31 -82 95 -29 95 13 0 24 2 24 4 0 2 3 13 6 23 4 14 4
15 -4 4 -6 -8 -15 -10 -23 -5 -8 5 -21 9 -29 11 -20 3 -50 41 -50 64 0 21 18
35 43 31 28 -5 19 12 -16 28 -17 8 -31 21 -30 27 2 7 -3 10 -11 7 -17 -7 -28
33 -16 57 6 10 17 15 28 12 25 -6 45 36 27 60 -7 9 -16 17 -20 17 -5 0 -1 -8
8 -18 9 -10 13 -23 8 -30 -19 -31 -97 36 -89 76 3 12 12 16 34 14 20 -2 31 2
32 10 0 7 3 23 5 34 4 18 2 21 -14 17 -15 -4 -17 -9 -10 -16 19 -19 12 -26
-25 -25 -39 1 -54 23 -54 79 0 26 3 29 23 24 17 -5 24 -2 24 8 0 8 -6 13 -12
11 -6 -3 -22 4 -35 14 -21 17 -23 23 -14 53 5 19 14 34 19 34 24 1 46 22 39
38 -3 9 -11 17 -16 17 -7 0 -6 -5 1 -13 13 -16 5 -27 -20 -27 -22 0 -39 29
-39 64 0 28 18 45 30 26 5 -9 9 -9 14 -1 4 6 4 17 -1 24 -4 6 -8 17 -8 22 0 6
-8 10 -17 10 -24 0 -30 9 -22 39 4 17 13 26 26 26 14 0 18 -5 14 -16z m-56
-105 c-14 -11 -19 -18 -12 -14 8 4 12 -1 12 -15 0 -12 4 -29 10 -39 14 -27
-30 -66 -64 -57 -19 5 -28 1 -36 -14 -7 -13 -21 -20 -41 -20 -21 0 -28 4 -23
13 5 9 4 9 -6 0 -7 -6 -19 -9 -26 -6 -8 3 -14 -1 -14 -9 0 -24 -36 -50 -80
-58 -46 -8 -60 5 -60 57 0 59 37 76 103 48 10 -4 17 -3 17 3 0 6 -9 14 -21 17
-16 5 -18 10 -8 21 15 18 66 18 102 0 15 -8 27 -10 27 -5 0 5 -7 12 -15 15
-22 9 -18 33 7 43 25 9 76 -2 92 -20 8 -9 8 -10 -1 -5 -9 5 -11 2 -7 -9 7 -18
43 -39 52 -31 3 3 0 6 -7 6 -7 0 -9 4 -6 10 3 6 -1 7 -9 4 -9 -3 -16 -2 -16 4
0 6 6 12 13 15 9 3 7 9 -5 24 -21 23 -8 43 27 43 19 0 18 -2 -5 -21z m1246
-79 c14 -6 35 -22 46 -35 11 -14 23 -25 27 -25 12 0 101 -89 93 -93 -4 -2 -78
-28 -165 -57 -152 -50 -159 -51 -172 -34 -18 24 -18 29 -1 43 22 19 28 76 12
115 -17 42 -13 47 64 74 70 24 64 24 96 12z m-905 -165 c5 3 18 1 30 -5 16 -9
20 -19 17 -41 -3 -17 1 -30 9 -33 7 -3 12 -2 12 2 -6 37 34 44 69 12 16 -15
20 -28 16 -45 -4 -18 -2 -25 8 -25 7 0 14 10 15 21 3 30 17 42 41 34 14 -4 19
-11 15 -22 -4 -11 -2 -14 5 -9 22 14 13 -40 -12 -66 -27 -30 -75 -28 -84 4 -3
14 -12 18 -40 16 -36 -3 -37 -1 -83 77 -25 44 -44 84 -41 90 3 5 7 4 10 -3 2
-7 8 -10 13 -7z m64 -726 c-9 16 -10 17 90 -50 38 -26 90 -67 114 -92 43 -44
43 -45 20 -53 -13 -4 -27 -7 -31 -6 -5 1 -8 -2 -8 -8 0 -5 -7 -7 -15 -4 -8 4
-15 1 -15 -6 0 -6 -4 -9 -9 -6 -5 3 -11 -1 -14 -8 -3 -8 -15 -19 -26 -25 -17
-9 -23 -5 -51 37 -17 26 -29 55 -26 65 2 9 0 15 -5 11 -5 -3 -9 -2 -10 3 0 4
-2 17 -4 28 -2 10 2 26 8 34 10 12 9 12 -10 1 -31 -20 -70 0 -81 42 -10 37 7
50 35 26 14 -11 15 -10 8 12 l-8 25 23 -20 c13 -11 20 -14 15 -6z m-355 -238
c5 -20 8 -49 5 -66 -2 -16 -4 -45 -4 -62 -1 -18 -6 -33 -12 -33 -31 0 -229
148 -229 172 0 4 12 8 28 8 15 1 61 9 102 19 85 20 95 17 110 -38z m5 -433 l7
-78 -26 -10 c-62 -23 -140 -1 -208 59 -31 27 -36 37 -41 93 -3 35 -9 73 -13
86 -6 20 -3 22 32 23 22 0 82 8 134 17 l95 17 6 -65 c3 -36 9 -100 14 -142z
m2268 -2185 c22 -44 29 -84 17 -99 -7 -7 -9 -18 -6 -23 4 -5 2 -12 -4 -16 -5
-3 -20 10 -31 30 -26 43 -37 40 -14 -5 19 -36 17 -81 -4 -88 -8 -3 -11 0 -7 7
4 6 3 11 -3 11 -6 0 -20 18 -31 40 -26 51 -36 52 -14 3 9 -21 17 -47 19 -58 1
-11 3 -24 4 -28 0 -5 7 -5 14 -1 6 4 4 -1 -5 -11 -23 -25 -44 -13 -68 39 -22
49 -26 116 -9 147 14 26 87 79 110 79 10 0 25 -12 32 -27z m-242 -149 c21 -11
39 -34 60 -80 29 -63 30 -67 13 -85 -18 -20 -49 -25 -59 -10 -3 5 3 12 14 16
41 13 51 65 13 65 -13 0 -12 -3 4 -15 19 -15 19 -15 -1 -30 -25 -20 -41 -14
-38 16 3 22 2 23 -11 7 -12 -17 -14 -17 -29 0 -21 23 -58 112 -51 123 8 14 52
11 85 -7z"/>
</g>
</svg>
