<?xml version="1.0" standalone="no"?>
<!DOCTYPE svg PUBLIC "-//W3C//DTD SVG 20010904//EN"
 "http://www.w3.org/TR/2001/REC-SVG-20010904/DTD/svg10.dtd">
<svg version="1.0" xmlns="http://www.w3.org/2000/svg"
 width="400.000000pt" height="600.000000pt" viewBox="0 0 400.000000 600.000000"
 preserveAspectRatio="xMidYMid meet">
<metadata>
Created by potrace 1.16, written by Peter Selinger 2001-2019
</metadata>
<g transform="translate(0.000000,600.000000) scale(0.063796,-0.059172)"
fill="#000000" stroke="none">
<path d="M3055 10064 c-44 -36 -105 -90 -137 -121 -57 -56 -78 -61 -78 -19 0
39 -33 70 -73 70 -43 0 -68 -20 -92 -74 -17 -38 -20 -39 -54 -34 -50 8 -87
-22 -98 -79 -8 -41 -10 -42 -53 -47 -35 -4 -47 -11 -60 -33 -14 -25 -13 -32
13 -105 39 -106 57 -171 57 -209 0 -31 -5 -35 -72 -69 -104 -52 -153 -88 -237
-174 -62 -63 -83 -93 -129 -190 -30 -63 -56 -127 -56 -142 -1 -14 -5 -24 -10
-20 -5 3 -6 -13 -2 -37 4 -28 3 -40 -4 -36 -6 3 -10 -4 -10 -17 0 -19 2 -20
11 -8 8 12 9 9 5 -13 -8 -32 14 -157 26 -157 5 0 6 -24 2 -52 -4 -29 -7 -58
-7 -65 0 -7 -3 -10 -7 -8 -4 3 -39 -20 -79 -49 -39 -30 -85 -59 -101 -66 -16
-7 -27 -17 -23 -23 4 -6 1 -7 -6 -3 -24 15 -90 -71 -75 -96 5 -7 3 -8 -6 -3
-10 6 -12 3 -8 -13 4 -12 2 -20 -3 -16 -5 3 -9 -1 -9 -9 0 -8 -9 -22 -21 -33
-28 -25 -61 -92 -90 -182 -21 -66 -28 -76 -61 -93 -43 -22 -82 -75 -97 -134
-8 -29 -30 -59 -82 -110 -39 -38 -95 -106 -124 -150 -37 -56 -77 -101 -136
-150 -163 -136 -188 -167 -246 -302 -92 -213 -76 -262 151 -476 233 -219 405
-337 493 -337 60 0 92 19 143 84 38 50 47 56 79 56 32 0 81 18 56 21 -5 0 -17
2 -25 5 -42 12 -80 15 -80 7 0 -12 -107 -121 -132 -134 -39 -21 -135 22 -257
115 -31 23 -64 47 -73 52 -39 21 -303 284 -334 332 -49 76 -47 122 14 263 51
121 90 173 162 222 90 61 179 149 207 207 29 58 166 210 189 210 8 0 16 12 19
28 4 15 9 38 11 51 3 14 15 39 27 55 12 17 21 33 19 36 -1 3 1 5 6 6 4 0 24 8
44 17 32 15 39 24 53 74 27 98 48 145 81 188 17 23 39 66 49 96 21 65 35 82
83 104 61 28 113 67 108 81 -3 8 0 16 6 20 7 5 8 2 3 -5 -5 -9 -2 -12 11 -9
11 2 19 11 19 20 0 9 4 20 9 25 5 4 6 3 2 -4 -13 -23 18 -14 47 13 19 17 25
29 19 37 -6 7 -9 32 -7 57 2 25 -4 85 -12 133 -19 112 -14 142 49 291 50 118
54 123 149 217 75 74 118 107 184 143 48 25 96 46 106 46 16 0 19 8 19 58 0
71 -22 149 -61 219 -35 63 -39 119 -9 128 28 9 57 -10 76 -50 9 -20 18 -34 20
-33 1 2 3 35 4 73 1 39 6 84 11 100 9 30 22 34 82 26 4 -1 7 -24 7 -53 0 -29
4 -48 8 -43 8 10 54 147 54 162 0 28 21 44 56 41 l37 -3 3 -97 c1 -54 6 -98
10 -98 4 0 21 21 37 46 45 68 297 288 342 300 52 14 68 -20 46 -96 -16 -58
-16 -65 1 -51 8 7 30 11 48 9 29 -3 33 -7 36 -36 2 -23 -6 -46 -32 -84 -19
-29 -33 -54 -31 -57 3 -2 21 9 41 25 116 93 193 137 232 132 22 -2 28 -9 30
-36 3 -27 -11 -54 -77 -154 -45 -67 -79 -123 -77 -125 2 -3 19 3 37 12 19 10
58 18 98 19 66 1 66 1 69 -28 3 -26 -9 -42 -100 -129 -56 -55 -94 -96 -83 -93
48 17 152 41 174 41 18 0 25 -7 28 -25 5 -42 -18 -70 -78 -94 -31 -12 -71 -33
-90 -47 l-34 -24 31 -3 c27 -3 33 -8 36 -33 5 -30 -16 -59 -42 -59 -24 0 -134
-44 -175 -69 -22 -14 -42 -26 -43 -27 -2 -1 7 -35 21 -76 39 -113 50 -203 42
-333 l-7 -115 24 -9 c36 -14 103 -94 117 -140 9 -31 20 -44 47 -57 25 -12 50
-40 84 -93 39 -60 59 -81 97 -101 51 -27 66 -39 183 -153 75 -73 150 -156 150
-166 0 -3 13 -20 28 -37 28 -32 32 -37 130 -169 91 -122 118 -221 147 -540 5
-57 1 -94 -23 -200 -16 -71 -32 -150 -36 -174 -4 -25 -22 -90 -40 -145 -34
-99 -46 -165 -50 -262 -3 -75 12 -377 19 -396 4 -10 25 -28 46 -40 21 -12 39
-26 39 -30 0 -5 9 -19 21 -31 28 -30 101 -185 136 -287 18 -55 26 -299 12
-415 -5 -44 -18 -111 -30 -150 -20 -68 -96 -206 -144 -264 -22 -25 -23 -30
-10 -48 8 -11 46 -101 85 -199 38 -99 80 -201 91 -229 11 -27 49 -133 84 -235
35 -102 76 -223 92 -270 17 -47 49 -149 73 -228 34 -112 47 -142 61 -142 34 0
106 -38 134 -71 15 -19 36 -52 46 -75 9 -23 33 -53 51 -67 66 -50 138 -153
202 -289 131 -276 146 -308 156 -332 7 -19 21 -28 54 -37 25 -6 50 -17 56 -24
14 -17 44 -169 71 -361 26 -181 21 -232 -26 -256 l-24 -13 19 -40 c11 -22 19
-48 20 -57 0 -24 17 -31 25 -11 3 10 2 19 -3 21 -6 2 -7 12 -4 24 3 14 1 19
-6 14 -15 -9 0 32 24 69 32 49 33 90 8 267 -32 230 -51 324 -69 352 -15 23
-70 56 -93 56 -5 0 -27 37 -48 82 -21 46 -78 162 -126 259 -79 160 -94 183
-162 253 -41 42 -87 98 -102 125 -35 66 -81 108 -140 130 -42 16 -51 24 -62
57 -152 467 -248 744 -325 941 -53 133 -103 255 -111 272 -16 29 -15 31 36
113 65 104 102 184 94 204 -4 10 -2 12 6 8 7 -5 9 1 6 19 -3 16 -1 24 5 20 6
-3 8 6 5 26 -2 17 0 31 5 31 5 0 7 16 5 35 -2 19 0 35 4 35 4 0 8 72 8 160 0
157 -13 265 -31 255 -5 -4 -6 1 -3 9 3 9 2 16 -2 16 -5 0 -10 12 -11 27 -2 42
-106 239 -123 235 -8 -2 -12 0 -7 4 4 4 -14 30 -40 56 l-48 49 0 262 c0 225 3
269 18 315 10 29 15 58 11 64 -5 7 -2 8 6 3 10 -6 12 -3 8 13 -4 12 -3 20 2
17 7 -5 45 143 82 323 17 86 18 110 9 205 -13 129 -42 288 -52 281 -4 -2 -5 5
-2 16 3 11 0 20 -6 20 -5 0 -8 7 -5 15 4 8 1 15 -5 15 -6 0 -8 7 -4 17 4 11 3
14 -5 9 -8 -4 -10 -2 -6 8 7 19 -13 57 -71 134 -26 35 -51 59 -57 56 -6 -4 -8
-3 -5 3 9 14 -22 55 -35 47 -6 -4 -8 -2 -5 3 8 12 -51 89 -64 85 -5 -1 -8 1
-7 5 4 16 -23 53 -34 47 -6 -4 -8 -3 -5 2 9 15 -190 217 -204 208 -8 -4 -9 -3
-5 4 4 7 -20 29 -63 57 -49 32 -79 59 -97 90 -14 25 -31 42 -36 38 -6 -3 -8
-2 -5 4 3 5 -14 30 -39 54 -25 24 -53 62 -63 84 -10 22 -41 64 -68 92 l-51 52
5 108 c5 106 -8 212 -39 321 -12 41 -11 44 12 63 14 10 55 31 92 45 86 34 113
62 113 117 0 40 2 43 50 69 63 34 85 61 85 104 0 38 -29 74 -59 74 -36 0 -34
21 5 61 32 33 39 46 39 80 0 54 -30 79 -91 79 -25 0 -44 5 -44 11 0 6 13 29
29 52 68 100 78 151 36 192 -33 34 -77 32 -144 -5 -30 -17 -57 -30 -62 -30 -4
0 -10 11 -13 25 -4 14 -24 36 -46 50 -28 18 -40 32 -39 48 0 21 1 21 10 2 6
-15 7 -11 3 15 -9 53 -20 60 -88 60 -60 0 -62 -1 -141 -66z"/>
<path d="M3110 10009 c-118 -98 -161 -141 -242 -242 -39 -48 -73 -85 -77 -82
-3 4 -10 63 -16 133 l-10 127 -28 -75 c-16 -41 -39 -122 -52 -178 -13 -57 -26
-106 -29 -109 -7 -8 -24 62 -37 162 -11 78 -14 86 -21 60 -9 -30 -4 -220 8
-286 5 -32 4 -32 -23 16 -35 62 -112 175 -119 175 -2 0 9 -27 26 -59 41 -82
70 -193 70 -269 0 -57 -2 -64 -21 -69 -52 -14 -204 -97 -250 -135 -83 -72
-148 -161 -194 -267 -55 -123 -61 -170 -37 -286 l18 -90 8 103 c5 56 11 102
15 102 4 0 16 -17 26 -37 l19 -38 6 35 6 35 8 -30 9 -30 8 25 7 25 7 -22 c10
-30 25 -29 25 1 0 14 5 37 11 52 10 28 11 28 55 -51 41 -75 45 -75 29 -2 -8
41 2 33 35 -30 17 -32 29 -47 26 -33 l-5 25 19 -25 c11 -14 20 -29 20 -35 0
-5 18 9 40 30 41 40 49 40 28 2 -7 -14 6 -7 40 22 29 23 54 47 58 52 3 5 10 9
15 9 6 0 2 -12 -9 -27 -33 -48 -37 -57 -21 -48 8 5 35 26 62 48 26 21 47 37
47 34 0 -2 -7 -24 -15 -47 l-15 -42 35 26 c19 15 39 25 43 22 4 -2 39 15 77
40 39 24 73 44 78 44 4 0 -9 -31 -28 -70 -19 -38 -31 -70 -26 -70 6 0 12 4 15
9 3 5 14 11 25 14 14 3 17 0 13 -15 -5 -20 -4 -20 35 1 22 11 43 17 47 14 3
-4 6 0 6 7 0 7 3 11 6 8 3 -3 -6 -29 -20 -57 -14 -28 -26 -55 -26 -61 0 -6 22
1 49 14 l49 25 -19 -60 c-25 -81 -25 -102 2 -69 17 21 19 22 10 3 -20 -39 -11
-49 16 -18 l26 30 -6 -64 c-6 -50 -4 -62 6 -58 11 4 12 -7 9 -49 -3 -32 0 -54
6 -54 11 0 47 80 57 130 10 49 61 110 90 110 13 0 27 -4 30 -10 3 -5 -1 -10
-9 -10 -18 0 -55 -47 -86 -109 -16 -33 -19 -49 -12 -65 7 -15 4 -32 -11 -63
-17 -35 -19 -47 -9 -68 6 -14 20 -25 29 -25 17 1 17 1 0 11 -17 10 -16 13 15
35 62 46 71 87 36 158 l-21 45 27 35 c22 29 31 34 45 26 10 -5 21 -6 25 -3 20
21 -16 -187 -39 -223 -8 -12 -31 -41 -53 -66 -32 -38 -40 -43 -48 -30 -6 9
-16 12 -22 8 -18 -11 -14 -36 5 -36 31 0 0 -18 -37 -22 -32 -3 -35 -6 -56 -65
-11 -34 -34 -82 -49 -105 -66 -100 -225 -241 -339 -302 -40 -21 -63 -26 -122
-26 -40 0 -79 3 -88 6 -22 8 -133 170 -189 274 -52 98 -80 182 -97 295 -6 44
-21 124 -32 178 -11 54 -18 100 -16 102 5 5 91 -53 138 -95 l35 -30 -37 15
c-59 24 -69 21 -56 -17 15 -45 26 -55 20 -18 -3 19 0 30 7 30 24 0 69 -30 74
-50 3 -13 13 -20 29 -20 13 0 30 -6 37 -12 11 -11 13 -10 8 5 -4 11 -3 16 3
12 24 -15 7 14 -27 47 -37 35 -214 148 -233 148 -6 0 -10 -10 -10 -22 0 -13
-14 -35 -32 -52 -28 -24 -29 -26 -6 -12 15 9 31 16 36 16 9 0 42 -147 42 -188
0 -12 -13 -68 -30 -123 -67 -225 -56 -416 30 -553 l30 -46 -30 15 c-16 8 -36
15 -44 15 -8 0 -20 14 -28 30 -18 41 -28 38 -28 -9 0 -36 -2 -39 -26 -36 -58
6 -139 126 -165 242 -7 32 -13 119 -14 193 0 123 3 142 29 218 16 47 42 100
59 120 18 21 23 30 12 20 -11 -9 -38 -23 -60 -32 -56 -24 -72 -41 -91 -100 -9
-28 -27 -62 -39 -76 -33 -36 -69 -113 -95 -202 -18 -62 -27 -78 -42 -78 -49 0
-99 -65 -113 -147 -4 -24 -11 -43 -16 -43 -22 0 -161 -147 -193 -203 -34 -62
-137 -163 -249 -246 -42 -31 -56 -51 -102 -146 -89 -186 -90 -192 -37 -276 56
-88 382 -371 513 -445 82 -46 98 -44 145 14 62 77 62 78 0 28 -32 -26 -62 -44
-66 -39 -15 16 -49 193 -36 193 28 -1 171 -70 168 -81 -2 -10 0 -10 12 0 9 7
29 10 53 7 21 -4 31 -3 23 0 -31 13 -40 38 -40 108 0 70 19 123 54 151 7 6 15
37 18 70 3 33 4 50 1 38 -2 -13 -7 -23 -11 -23 -22 2 -97 47 -99 60 -2 21 158
165 167 150 4 -7 10 1 13 19 9 45 50 63 102 45 22 -7 47 -13 55 -13 8 0 0 5
-18 10 -43 13 -49 31 -24 71 11 18 31 73 43 121 20 80 25 91 63 121 122 97
182 102 196 14 7 -38 8 -39 9 -10 1 31 14 40 37 24 6 -4 13 -42 16 -85 4 -68
3 -79 -13 -87 -27 -15 -31 -12 -23 13 7 22 6 22 -14 4 -17 -15 -24 -16 -42 -7
-27 14 -60 68 -60 98 0 12 -5 22 -11 22 -6 0 -9 -6 -6 -12 2 -7 -5 -26 -16
-41 -16 -24 -24 -27 -51 -22 l-31 6 26 -15 25 -15 -14 -83 c-7 -46 -21 -91
-29 -100 -10 -11 -12 -18 -5 -18 6 0 19 12 28 26 19 28 34 18 34 -23 0 -20 -4
-22 -52 -18 -47 4 -49 3 -13 -4 22 -4 56 -11 75 -15 32 -7 33 -7 16 6 -17 14
-18 25 -14 130 3 63 10 123 16 134 10 16 11 14 12 -18 0 -21 4 -38 9 -38 5 0
7 10 4 23 -6 21 -5 21 15 -4 11 -14 22 -43 25 -65 l4 -39 1 37 c2 31 5 35 22
31 11 -3 22 -15 25 -27 33 -157 95 -362 124 -411 24 -39 29 -70 37 -250 6
-142 10 -158 38 -168 5 -1 -6 -18 -23 -37 -55 -59 -75 -107 -75 -182 -1 -38
-4 -68 -8 -68 -21 0 -66 25 -100 55 -21 19 -45 35 -53 35 -29 0 -103 86 -119
137 -9 29 -15 39 -15 25 -1 -12 8 -41 20 -64 16 -31 19 -51 15 -80 -4 -26 -3
-37 4 -33 5 3 10 17 10 31 l0 25 31 -23 c16 -12 39 -42 49 -66 27 -60 127
-156 248 -236 82 -55 103 -74 116 -106 8 -21 20 -41 26 -45 5 -3 10 -15 10
-25 0 -19 -1 -19 -57 2 -32 11 -129 52 -216 90 -87 37 -162 66 -167 63 -14 -9
-41 97 -49 193 l-8 87 -2 -65 c0 -37 -4 -70 -9 -75 -4 -6 -5 -9 -3 -7 3 1 13
-30 23 -70 10 -40 29 -89 43 -109 27 -41 138 -113 281 -181 49 -23 92 -47 96
-53 4 -5 8 -6 8 -1 0 4 8 0 18 -11 9 -10 13 -12 8 -3 -9 13 -8 13 7 0 13 -13
14 -22 6 -60 -6 -25 -9 -64 -7 -87 3 -42 3 -43 -28 -43 -66 0 -236 65 -317
122 -56 39 -121 98 -176 161 l-53 61 4 70 c3 42 14 91 26 120 15 33 17 45 7
36 -7 -6 -22 -32 -31 -56 -25 -67 -16 -255 16 -312 l23 -40 -37 -60 c-28 -47
-45 -63 -72 -72 -32 -11 -40 -22 -82 -111 -35 -77 -51 -101 -69 -105 -15 -4
-32 -22 -45 -48 -41 -82 -44 -82 -103 -26 -52 48 -53 49 -91 38 -21 -5 -63
-28 -94 -50 -42 -30 -54 -44 -52 -61 4 -28 -73 -95 -425 -371 l-252 -197 56
-105 56 -106 -55 -56 c-30 -32 -133 -144 -228 -250 -211 -237 -209 -233 -217
-487 l-5 -170 40 -155 c23 -86 64 -259 92 -384 45 -205 50 -241 50 -350 0
-129 3 -138 58 -198 23 -25 32 -28 93 -28 l67 0 30 -120 c25 -103 28 -121 15
-132 -45 -37 -54 -109 -24 -179 10 -25 22 -82 26 -130 l7 -86 -34 -39 c-37
-43 -232 -174 -258 -174 -30 0 -134 -52 -173 -87 -41 -36 -40 -40 2 -19 26 14
31 13 77 -18 127 -86 208 -185 202 -248 -3 -32 -5 -33 -52 -36 -29 -2 -52 1
-56 8 -5 8 -22 4 -58 -14 -84 -43 -152 -28 -152 33 0 21 1 21 22 7 29 -21 72
-20 93 0 15 15 15 18 -1 35 -10 11 -20 17 -22 14 -3 -3 0 -11 6 -17 18 -18 15
-25 -14 -32 -17 -5 -35 -1 -51 9 l-24 16 61 39 c33 22 79 49 101 61 23 11 39
23 36 25 -6 7 -80 -30 -133 -67 -23 -16 -44 -25 -47 -22 -4 3 -13 0 -21 -6 -8
-7 -20 -10 -26 -6 -15 9 61 88 112 117 21 12 38 25 38 30 0 12 -80 -39 -124
-81 -21 -20 -36 -30 -32 -23 4 6 3 12 -3 12 -5 0 -11 -5 -13 -12 -2 -6 -10 -8
-17 -4 -14 9 74 97 122 122 16 9 27 18 24 21 -9 9 -51 -19 -100 -65 -26 -26
-47 -42 -47 -38 0 5 -7 3 -15 -4 -9 -7 -18 -10 -22 -6 -10 10 67 85 110 108
22 10 37 22 34 24 -8 8 -68 -25 -98 -53 -15 -13 -34 -26 -44 -27 -24 -3 -49
-71 -49 -131 0 -62 29 -108 100 -162 47 -37 52 -38 139 -41 50 -2 116 1 146 6
31 6 188 62 350 125 162 63 314 120 339 128 l45 14 2 65 c1 36 5 104 9 151 7
95 -6 152 -52 238 -18 33 -21 47 -13 57 6 7 9 26 8 41 -1 15 1 39 5 52 5 13 5
80 1 148 -7 119 -8 126 -37 158 l-29 34 9 131 10 131 75 69 74 69 7 70 c6 63
5 74 -20 122 -39 77 -53 121 -79 252 -24 117 -24 119 -10 289 16 187 18 174
-43 240 l-35 37 34 15 c19 8 78 34 132 57 53 23 100 45 103 50 3 5 28 21 55
34 45 23 68 41 36 29 -9 -3 -47 37 -102 106 -48 60 -90 110 -92 110 -3 0 -1
-6 4 -13 5 -6 31 -41 58 -77 26 -36 62 -80 79 -98 38 -40 23 -58 -46 -53 -27
2 -92 72 -151 163 -94 146 -307 557 -307 593 0 12 206 215 219 215 5 -1 101
-155 429 -689 29 -47 71 -103 93 -125 37 -35 45 -38 83 -34 46 6 131 59 131
83 0 8 9 21 20 30 20 16 20 16 -2 6 -12 -6 -24 -11 -27 -11 -7 0 -136 182
-167 237 -15 25 -31 48 -36 52 -9 6 -152 221 -306 460 l-79 123 68 69 c38 38
74 67 81 64 7 -2 13 1 13 7 0 7 14 26 31 44 l31 32 46 -66 c25 -37 105 -164
177 -282 189 -310 322 -514 361 -555 l35 -35 -78 -50 c-90 -58 -76 -63 -150
63 -25 43 -48 76 -50 73 -3 -3 19 -44 48 -92 29 -48 52 -93 52 -100 0 -16 13
-10 119 58 51 33 84 48 96 44 26 -9 63 6 370 147 l272 126 173 -61 c94 -33
183 -70 197 -80 149 -115 438 -490 822 -1067 169 -253 211 -304 310 -373 32
-23 49 -42 53 -63 12 -56 145 -262 222 -346 l24 -26 -21 -36 c-15 -25 -19 -43
-14 -64 10 -42 69 -145 151 -265 l74 -107 72 -3 71 -3 44 -62 c24 -35 88 -140
143 -234 l100 -172 -12 -51 c-15 -67 -2 -111 55 -198 24 -38 46 -85 49 -105
12 -86 41 -172 76 -228 22 -34 41 -78 44 -100 2 -22 19 -70 36 -106 17 -36 31
-79 31 -96 0 -17 9 -38 20 -48 11 -10 25 -38 31 -61 17 -66 59 -108 138 -139
66 -25 74 -26 202 -19 144 6 251 30 300 66 22 17 29 32 35 75 4 36 3 58 -5 66
-6 6 -11 18 -11 27 0 19 -65 87 -90 95 -10 3 -21 18 -25 33 -15 61 -62 141
-117 198 -44 46 -66 81 -91 140 -17 44 -53 117 -78 164 -32 59 -48 102 -52
139 -5 38 -14 62 -31 80 -13 14 -27 43 -30 63 -7 37 -44 76 -88 91 -10 4 -18
11 -18 16 0 6 -7 8 -15 5 -10 -4 -15 0 -15 11 0 9 5 13 10 10 12 -7 12 2 1 30
-7 17 -9 16 -16 -13 -6 -29 -10 -33 -31 -28 -58 14 -75 14 -31 0 44 -14 47
-17 41 -42 -17 -67 -21 -72 -56 -61 -18 5 -40 9 -48 8 -8 -1 5 -6 30 -13 25
-7 44 -15 43 -19 -1 -4 -4 -21 -8 -37 -4 -17 -11 -30 -17 -30 -13 0 -138 21
-138 24 1 0 13 44 29 96 25 88 29 95 52 93 l24 -3 -25 12 c-14 6 -28 11 -32
10 -12 -2 -108 29 -108 35 0 16 24 83 30 83 3 0 29 -7 58 -15 51 -15 51 -15
40 -46 -6 -16 -8 -32 -5 -35 3 -3 8 8 12 25 5 22 13 31 28 32 17 1 18 2 5 6
-21 5 -21 5 -6 54 6 22 17 39 25 39 24 0 53 -20 53 -37 0 -9 3 -14 6 -10 3 3
-6 43 -21 90 l-27 84 -50 13 c-49 12 -50 13 -44 43 4 17 10 35 15 40 17 17 49
-12 55 -49 4 -20 10 -34 13 -31 2 3 -2 30 -11 60 -22 75 -21 84 14 102 20 11
31 25 35 49 7 34 -22 269 -52 429 l-17 88 -51 14 -50 15 -125 261 c-124 261
-124 261 -208 348 -46 47 -91 104 -102 126 -28 61 -64 93 -130 112 l-58 18
-48 155 c-111 365 -337 981 -415 1132 -35 68 -35 79 -8 104 33 30 128 199 149
266 23 71 45 351 35 433 -6 52 -62 230 -78 253 -6 7 -20 34 -33 60 -26 53 -52
84 -105 125 -34 25 -38 34 -48 103 -14 95 -14 362 0 477 6 49 23 126 39 170
15 45 45 154 65 242 35 150 37 167 31 270 -9 172 -59 376 -110 450 -36 52
-227 288 -293 363 -74 82 -177 169 -241 201 -31 16 -50 36 -73 76 -32 56 -95
125 -115 125 -7 0 -20 23 -30 51 -18 49 -74 119 -121 149 -22 15 -22 17 -13
129 13 151 -9 291 -61 393 l-19 38 57 37 c50 32 137 72 207 97 10 4 16 9 14
12 -3 3 -42 -4 -86 -15 -44 -12 -84 -21 -87 -21 -29 0 148 131 243 180 62 32
82 55 40 45 -13 -3 -44 -9 -69 -15 -25 -5 -83 -23 -128 -40 -68 -25 -80 -27
-72 -12 5 9 71 77 146 151 l136 134 -48 -6 c-26 -3 -82 -19 -123 -35 -41 -17
-76 -29 -78 -27 -7 6 72 152 129 237 55 83 67 108 54 108 -16 0 -84 -43 -209
-132 -76 -55 -140 -98 -142 -96 -2 3 23 58 56 123 80 157 69 169 -31 33 -28
-38 -53 -67 -56 -64 -5 5 31 157 51 215 17 47 21 81 9 81 -5 -1 -46 -33 -93
-71z m377 -1742 c21 -23 50 -62 63 -85 18 -32 40 -51 82 -74 79 -42 206 -163
327 -312 56 -69 101 -127 101 -130 0 -3 -16 2 -35 10 -46 19 -157 38 -227 38
-47 0 -71 -7 -129 -37 l-71 -36 27 35 c47 61 19 49 -50 -23 -46 -47 -79 -94
-111 -156 -24 -49 -57 -107 -72 -130 -16 -23 -55 -87 -87 -142 -32 -55 -74
-124 -93 -154 l-36 -53 -47 5 c-80 10 -107 29 -115 84 -12 72 -8 120 10 147 8
14 62 62 118 107 185 148 215 186 351 440 60 113 71 144 38 115 -14 -13 -21
-14 -27 -5 -4 7 -3 10 3 6 7 -4 11 2 11 16 0 12 5 51 12 87 10 47 10 65 1 68
-6 2 -11 15 -11 28 0 14 -7 27 -17 31 -24 9 -42 34 -43 58 0 17 -2 17 -10 5
-7 -11 -10 -5 -10 23 0 23 4 36 10 32 6 -3 10 1 10 9 0 8 -8 20 -17 25 -10 6
-13 11 -7 11 6 0 29 -19 51 -43z m-1660 -114 c-37 -107 -45 -218 -27 -370 8
-71 9 -108 2 -115 -18 -18 -36 101 -36 251 -1 80 -4 132 -8 115 -5 -19 -6 -14
-2 16 8 74 33 138 65 165 17 14 32 25 34 25 1 0 -11 -39 -28 -87z m312 -69 c8
-30 6 -49 -11 -98 -33 -95 -30 -256 6 -356 15 -41 28 -87 29 -101 2 -14 10
-38 20 -52 30 -45 11 -30 -28 23 -68 92 -104 255 -85 382 11 69 50 238 56 238
2 0 8 -16 13 -36z m945 -20 c28 -11 18 -40 -46 -136 -66 -99 -157 -194 -244
-254 -64 -44 -83 -41 -21 3 42 31 160 147 195 193 22 29 72 125 72 139 0 14
19 61 24 61 2 0 11 -3 20 -6z m-870 -289 c1 -91 4 -107 36 -178 29 -66 32 -80
20 -87 -17 -11 -39 12 -70 75 -36 75 -53 163 -47 255 7 118 14 133 40 78 16
-34 20 -65 21 -143z m960 111 c-3 -8 -1 -17 5 -21 16 -9 -33 -76 -152 -207
-57 -62 -111 -127 -120 -145 -10 -19 -17 -56 -17 -93 0 -58 -19 -88 -21 -32
l-1 27 -8 -30 c-6 -22 -8 -9 -9 48 -1 48 4 90 13 110 8 18 74 95 146 172 73
77 139 150 147 163 17 25 25 29 17 8z m-762 -582 c23 -20 53 -41 66 -47 14 -7
26 -25 33 -51 19 -74 20 -78 35 -72 8 3 14 2 14 -2 0 -4 8 -36 19 -72 l18 -65
-38 3 c-50 5 -49 -7 1 -36 l40 -23 -2 -72 c0 -40 -3 -57 -5 -39 -2 18 -9 30
-14 27 -12 -8 -12 -105 1 -105 6 0 10 -13 10 -30 0 -16 -4 -30 -10 -30 -5 0
-11 -12 -11 -27 -1 -21 -3 -23 -6 -8 -3 10 -11 28 -18 40 -22 34 -66 203 -69
263 -1 8 -33 24 -78 38 -55 17 -79 30 -83 44 -4 11 -16 22 -28 25 -19 5 -22
13 -23 55 -1 35 3 51 14 55 11 4 13 16 9 53 -7 50 6 75 48 100 28 16 28 16 77
-24z m272 -135 c64 -44 221 -259 213 -291 -3 -9 0 -19 7 -22 6 -2 2 -5 -9 -5
-12 -1 -38 8 -60 19 -49 25 -69 19 -101 -30 -23 -34 -25 -46 -20 -97 8 -80 16
-302 10 -282 -3 10 -12 15 -22 12 -10 -2 -25 4 -34 14 -19 22 -34 113 -19 113
7 0 11 26 11 65 0 78 -17 87 -23 13 -3 -50 -3 -50 -5 14 -1 38 2 68 8 70 6 2
13 21 17 43 3 22 15 55 26 73 17 29 24 33 49 28 29 -6 28 -4 -24 57 -29 34
-54 64 -56 67 -2 2 -6 -1 -11 -8 -4 -7 -16 17 -30 60 -16 49 -20 73 -12 76 6
2 11 12 11 22 0 24 30 19 74 -11z m1271 -258 c22 -5 56 -12 76 -15 31 -5 36
-10 32 -27 -3 -11 -11 -18 -18 -15 -7 2 -21 -1 -31 -8 -12 -10 -27 -11 -48 -5
-40 12 -55 11 -36 -1 13 -9 13 -10 0 -10 -21 -1 48 -30 71 -30 22 0 23 -1 7
-35 -12 -26 -28 -34 -28 -13 0 20 -32 48 -55 48 -12 0 -30 -10 -41 -22 -19
-22 -19 -22 0 -8 18 14 19 13 13 -3 -4 -10 -7 -23 -7 -28 0 -6 -6 -7 -12 -3
-9 5 -9 2 1 -9 7 -9 23 -17 35 -17 17 0 18 -2 6 -10 -8 -5 -26 -10 -40 -11
-21 -1 -22 -2 -5 -7 l20 -5 -20 -8 c-14 -7 -6 -8 28 -5 26 2 47 1 47 -2 0 -3
-11 -25 -25 -48 -25 -42 -27 -43 -68 -38 -226 27 -261 33 -274 47 -23 22 -29
170 -9 227 l15 45 -7 -40 c-9 -49 -8 -161 1 -195 6 -25 44 -56 54 -46 3 3 -1
12 -10 20 -8 8 -17 12 -20 9 -6 -5 -11 11 -21 75 -5 28 -3 32 17 33 15 0 17 2
7 6 -24 9 -30 26 -24 58 10 52 25 95 34 95 5 0 7 -6 4 -14 -7 -19 15 -31 29
-17 9 9 8 11 -5 6 -10 -4 -18 -3 -18 1 0 18 16 32 40 37 34 8 236 -1 285 -12z
m-1092 -72 c20 -7 37 -18 37 -26 0 -8 5 -11 12 -7 7 4 8 3 4 -5 -4 -6 -12 -9
-17 -5 -6 3 -9 0 -8 -7 1 -8 -5 -31 -14 -51 -14 -30 -15 -47 -7 -89 12 -60 12
-85 0 -49 -8 24 -8 24 -9 3 -1 -13 -7 -23 -15 -23 -8 0 -17 -6 -20 -12 -10
-24 -50 41 -63 100 -19 92 -16 126 13 162 15 17 32 29 38 26 6 -3 28 -10 49
-17z m193 -49 c9 0 12 -4 9 -10 -3 -5 -2 -10 4 -10 17 0 18 -34 2 -65 -10 -21
-14 -58 -13 -125 0 -52 -1 -90 -4 -83 -4 9 -10 9 -22 2 -23 -14 -72 5 -73 28
-1 13 -4 10 -9 -7 -5 -16 -8 15 -8 87 0 77 4 111 11 106 6 -4 8 0 4 10 -3 9 2
24 11 34 9 11 13 12 7 3 -7 -11 -5 -11 11 3 11 9 27 17 35 17 12 0 11 2 -1 11
-12 9 -12 10 3 5 10 -3 25 -6 33 -6z m189 -50 c4 -6 10 -8 14 -5 5 2 6 -8 4
-23 -4 -22 -2 -24 7 -12 10 12 11 12 5 -5 -4 -11 -11 -31 -15 -45 -5 -14 -12
-65 -16 -115 -4 -49 -8 -85 -11 -80 -2 6 -18 9 -37 7 -56 -7 -66 14 -66 131 0
88 3 105 21 127 11 14 17 19 13 11 -5 -11 -1 -10 17 2 26 19 55 22 64 7z
m-430 -1064 c81 -10 122 -22 208 -61 133 -59 139 -76 27 -88 -41 -4 -118 -7
-170 -5 -95 3 -95 3 -186 56 -68 40 -93 59 -97 77 -2 14 -1 22 4 20 4 -3 10
-1 14 5 8 14 79 12 200 -4z m40 -182 c69 -9 218 -17 352 -19 236 -4 273 -10
273 -43 -1 -21 -247 -167 -318 -188 -110 -34 -423 -4 -554 53 -33 14 -38 21
-44 59 -8 58 3 129 23 146 10 7 14 8 10 1 -5 -7 0 -9 14 -6 16 5 18 8 7 15
-15 11 62 5 237 -18z m2467 -3686 c27 -8 37 -16 33 -26 -3 -7 -8 -25 -11 -38
-6 -22 -11 -24 -38 -20 l-31 6 28 -11 c29 -11 29 -15 6 -76 -8 -21 -9 -21 -58
-5 -54 17 -57 22 -40 70 9 27 15 31 37 27 25 -5 26 -5 5 4 -26 12 -27 18 -13
55 11 29 25 31 82 14z m-50 -187 l27 -10 -16 -46 c-15 -44 -17 -46 -47 -40
-29 5 -29 4 -6 -5 33 -15 33 -13 19 -59 -13 -45 -16 -46 -72 -30 -36 10 -38
12 -32 42 12 61 15 65 38 61 l22 -5 -22 10 c-22 10 -22 11 -6 57 17 50 25 52
95 25z m34 -237 c30 -8 52 -19 50 -22 -2 -4 -9 -26 -15 -49 -8 -29 -17 -43
-29 -43 -14 0 -14 -2 -3 -9 12 -8 13 -16 3 -49 -12 -39 -13 -40 -48 -32 -20 5
-37 10 -38 12 -41 63 -41 87 3 89 23 2 24 2 4 6 -13 2 -23 8 -23 12 0 14 32
101 37 101 3 0 29 -7 59 -16z m684 -1004 c82 -18 129 -46 146 -85 19 -45 19
-45 -18 -46 l-33 -1 30 -7 c26 -6 27 -8 11 -14 -29 -12 -55 1 -49 23 3 12 0
20 -6 20 -7 0 -10 -3 -8 -7 3 -5 1 -18 -4 -31 -7 -18 -15 -23 -36 -20 -36 4
-41 25 -6 23 16 -1 19 0 8 2 -11 3 -23 10 -27 17 -6 8 -10 8 -15 0 -15 -21
-46 -25 -72 -9 l-26 16 24 -21 c14 -12 31 -18 42 -15 23 7 26 -10 4 -19 -8 -3
-28 -3 -43 0 -24 5 -31 13 -41 54 -8 30 -23 58 -44 76 l-32 29 26 -30 c23 -27
49 -83 49 -106 0 -5 -10 -9 -22 -10 -22 0 -22 -1 -3 -9 18 -7 19 -8 2 -15 -23
-10 -61 16 -93 65 -15 22 -29 40 -31 40 -2 0 -1 -4 2 -10 10 -16 -7 -12 -29 8
-12 10 -7 -2 12 -27 18 -25 32 -51 32 -57 0 -22 -43 -44 -87 -44 -37 0 -45 4
-70 38 -15 20 -31 40 -36 43 -4 3 -8 22 -10 43 -3 47 22 68 103 91 64 17 259
15 350 -5z"/>
<path d="M1840 6790 c8 -5 22 -10 30 -10 12 0 15 -14 15 -65 0 -44 -4 -65 -12
-65 -16 0 -33 -33 -33 -65 0 -41 79 -185 102 -185 5 0 -2 15 -15 33 -69 94
-93 167 -65 195 15 15 198 17 198 2 0 -20 63 -80 84 -79 19 1 18 2 -4 8 -17 4
-42 33 -77 86 -73 111 -84 120 -157 139 -75 18 -87 20 -66 6z"/>
<path d="M1919 6346 c-3 -3 -39 -6 -82 -7 -57 -1 -77 -5 -77 -15 0 -11 20 -14
86 -14 77 0 86 -2 91 -20 3 -11 10 -17 16 -13 7 4 8 0 4 -11 -8 -21 2 -68 13
-61 5 3 6 -5 2 -17 -3 -11 -1 -19 4 -16 5 3 10 -28 12 -71 1 -53 -1 -71 -8
-61 -8 12 -10 11 -10 -7 0 -11 -15 -39 -34 -62 -45 -53 -70 -121 -62 -163 4
-24 3 -29 -4 -18 -7 11 -9 -3 -8 -45 1 -56 1 -58 8 -20 5 29 7 14 6 -50 0 -49
3 -113 8 -142 9 -56 7 -61 -75 -123 -20 -15 -46 -53 -70 -105 -26 -56 -50 -90
-78 -113 -40 -32 -41 -33 -67 -15 -80 52 -259 -19 -313 -126 -26 -51 -66 -85
-374 -325 -147 -115 -275 -218 -283 -230 -25 -36 -17 -99 23 -181 l37 -75 -30
-32 c-158 -169 -373 -417 -391 -451 -43 -81 -53 -148 -53 -351 l0 -190 40
-146 c21 -80 60 -241 85 -359 37 -176 45 -233 45 -320 1 -128 10 -172 47 -225
38 -54 83 -83 142 -91 l49 -7 16 -64 c16 -62 16 -65 -5 -106 -26 -51 -29 -145
-6 -200 8 -20 18 -66 22 -103 7 -61 6 -68 -16 -91 -31 -33 -170 -122 -217
-138 -76 -27 -168 -76 -204 -108 -20 -18 -42 -34 -50 -36 -7 -1 -36 -26 -65
-56 -58 -59 -83 -124 -83 -215 0 -70 27 -126 89 -184 66 -62 120 -87 201 -94
119 -10 216 11 430 94 107 41 265 102 350 134 98 37 163 68 176 83 17 19 23
44 29 127 14 174 10 245 -21 329 -26 72 -27 83 -28 275 l-1 200 -28 48 c-28
46 -28 52 -22 135 l7 87 70 71 c77 78 87 104 88 211 0 50 -8 82 -40 162 -22
55 -49 144 -61 198 -19 93 -20 108 -8 276 9 134 9 183 1 203 -19 41 -14 50 40
73 76 31 268 142 268 154 0 6 3 8 6 4 7 -7 84 30 84 41 0 4 28 8 62 10 78 3
138 31 181 83 18 22 64 58 104 81 40 23 69 46 66 51 -3 6 -1 7 5 3 15 -9 55
18 44 29 -4 5 -2 5 4 2 24 -14 141 27 348 123 120 55 241 110 269 122 l50 22
142 -48 c78 -26 154 -55 169 -65 125 -82 424 -469 815 -1055 165 -245 233
-328 328 -394 18 -13 34 -35 38 -52 7 -32 94 -175 158 -260 40 -53 42 -58 42
-126 0 -62 4 -79 39 -145 53 -102 168 -270 205 -301 21 -19 47 -28 91 -33 73
-8 71 -7 193 -213 46 -78 87 -139 92 -135 4 5 5 2 1 -5 -4 -7 -3 -18 2 -25 5
-7 12 -55 14 -108 4 -94 5 -99 52 -179 35 -60 55 -111 73 -184 16 -63 37 -121
59 -156 18 -30 38 -75 43 -100 6 -25 22 -71 36 -103 14 -32 25 -66 25 -76 0
-11 13 -44 29 -74 16 -30 34 -70 40 -89 21 -64 74 -113 158 -148 l77 -32 166
5 c130 4 179 9 231 26 126 40 171 87 177 185 6 94 -17 154 -82 213 -31 29 -59
66 -70 93 -26 67 -54 108 -115 176 -39 42 -63 80 -80 125 -13 35 -44 99 -68
143 -31 54 -47 97 -53 138 -6 37 -19 74 -34 97 -14 20 -26 44 -26 52 0 25 -39
78 -75 101 -19 13 -38 31 -41 41 -3 9 -10 14 -16 11 -6 -4 -8 1 -3 15 3 11 2
21 -3 21 -6 0 -8 10 -4 22 3 13 1 19 -5 15 -7 -5 -9 1 -5 15 5 20 3 21 -11 10
-8 -7 -14 -21 -11 -30 2 -9 10 -39 17 -65 10 -40 20 -55 59 -84 43 -31 68 -74
68 -117 0 -4 11 -17 25 -28 21 -16 25 -28 25 -74 0 -47 7 -67 49 -142 27 -48
63 -122 80 -164 22 -57 42 -88 72 -115 51 -47 101 -123 123 -191 12 -36 26
-57 44 -66 107 -56 144 -226 68 -302 -54 -54 -144 -76 -333 -82 -152 -4 -165
-3 -224 19 -76 29 -132 83 -149 145 -7 24 -23 58 -36 76 -13 18 -24 46 -24 64
0 17 -13 60 -29 95 -16 35 -32 83 -36 106 -4 24 -24 68 -46 100 -21 32 -39 64
-39 72 0 20 -31 153 -41 176 -5 11 -20 38 -34 60 -57 90 -68 124 -63 197 5 64
3 72 -23 108 -16 22 -29 44 -29 48 0 5 -37 69 -81 143 -45 74 -91 150 -102
170 -20 35 -24 37 -97 45 l-75 9 -78 115 c-92 134 -157 261 -157 305 0 17 7
41 16 53 15 22 14 25 -23 66 -79 91 -175 240 -193 303 -8 30 -22 45 -66 73
-88 55 -143 125 -355 445 -183 275 -350 514 -440 626 -19 24 -71 88 -114 142
-43 54 -111 128 -150 165 -71 67 -74 68 -237 125 -186 64 -156 64 -301 -2 -34
-16 -84 -39 -112 -51 -27 -13 -101 -47 -162 -76 -120 -57 -192 -84 -222 -84
-10 0 -30 -11 -46 -24 -15 -13 -58 -41 -96 -62 -38 -22 -67 -44 -65 -50 3 -7
-3 -10 -15 -7 -13 4 -31 -7 -59 -35 -50 -53 -85 -70 -149 -75 -28 -2 -59 -12
-69 -21 -10 -9 -24 -16 -31 -16 -7 0 -11 -6 -8 -14 4 -10 1 -13 -7 -10 -7 3
-62 -20 -122 -50 -106 -53 -262 -126 -269 -126 -2 0 -16 -5 -30 -10 l-27 -10
32 -37 33 -37 -7 -90 c-17 -255 -18 -283 -7 -337 6 -30 14 -69 17 -85 8 -47
45 -155 70 -206 19 -37 24 -63 24 -123 0 -42 -4 -84 -9 -94 -12 -22 -95 -105
-125 -125 -22 -14 -24 -22 -25 -107 -1 -51 -4 -104 -8 -117 -4 -16 1 -30 15
-45 38 -40 43 -75 41 -247 -1 -91 -6 -172 -10 -181 -5 -9 -3 -24 5 -35 7 -10
23 -49 35 -85 23 -71 28 -150 17 -299 -10 -127 -9 -126 -63 -140 -27 -7 -106
-35 -178 -63 -71 -27 -159 -61 -195 -74 -36 -14 -110 -43 -165 -65 -158 -63
-320 -85 -405 -54 -53 18 -123 75 -159 128 -29 42 -32 53 -30 109 4 102 22
152 71 200 24 23 61 50 83 60 22 10 47 23 55 29 20 13 138 66 170 75 34 11
185 107 228 146 l35 32 -7 91 c-5 59 -13 100 -24 116 -26 39 -22 142 7 181
l23 31 -24 96 -24 97 -60 3 c-65 3 -87 17 -134 82 -23 33 -25 44 -26 160 -1
104 -9 160 -43 330 -43 207 -77 353 -112 469 -16 52 -19 95 -19 254 0 176 2
198 25 274 14 45 30 85 35 88 6 3 89 95 187 203 97 108 189 211 205 228 l29
31 -45 85 c-49 91 -58 139 -28 162 9 8 123 97 252 197 338 262 400 317 400
349 0 22 11 34 53 62 82 55 113 68 158 68 35 0 47 -6 75 -35 18 -19 37 -35 42
-35 5 0 16 18 25 40 10 26 25 43 42 50 20 8 36 32 69 103 46 99 56 111 98 121
38 9 84 96 63 117 -21 21 -35 108 -35 220 0 117 21 183 75 230 l35 31 0 94 c0
63 -5 102 -14 117 -7 12 -17 42 -20 65 -8 53 -37 87 -57 68z"/>
</g>
</svg>
