<?xml version="1.0" standalone="no"?>
<!DOCTYPE svg PUBLIC "-//W3C//DTD SVG 20010904//EN"
 "http://www.w3.org/TR/2001/REC-SVG-20010904/DTD/svg10.dtd">
<svg version="1.0" xmlns="http://www.w3.org/2000/svg"
 width="400.000000pt" height="600.000000pt" viewBox="0 0 400.000000 600.000000"
 preserveAspectRatio="xMidYMid meet">
<metadata>
Created by potrace 1.16, written by Peter Selinger 2001-2019
</metadata>
<g transform="translate(0.000000,600.000000) scale(0.084567,-0.052083)"
fill="#000000" stroke="none">
<path d="M2925 11503 c-11 -3 -24 -9 -30 -13 -5 -4 -37 -8 -70 -7 -70 0 -104
-15 -160 -72 -21 -23 -44 -41 -50 -41 -15 0 -145 -135 -145 -150 0 -7 -7 -10
-15 -6 -10 3 -15 1 -13 -7 4 -20 -24 -77 -35 -70 -5 3 -7 2 -4 -4 3 -5 -7 -43
-24 -84 -38 -92 -66 -218 -85 -377 -8 -68 -18 -131 -23 -141 -17 -31 -49 -136
-61 -199 -20 -98 -8 -230 28 -337 l30 -90 -46 -47 c-33 -35 -48 -44 -55 -35
-6 8 -7 7 -4 -5 4 -11 -19 -41 -76 -95 -98 -94 -170 -145 -195 -137 -12 4 -13
3 -4 -3 10 -7 -15 -27 -90 -72 -57 -35 -168 -103 -248 -152 -80 -48 -153 -88
-163 -89 -10 0 -16 -4 -13 -9 6 -10 -88 -71 -110 -71 -8 0 -13 -4 -9 -9 3 -5
-8 -18 -25 -27 -16 -10 -30 -22 -30 -27 0 -5 -7 -6 -16 -3 -8 3 -13 2 -10 -3
3 -4 -54 -66 -127 -137 -73 -71 -144 -144 -159 -161 -15 -18 -32 -33 -38 -33
-6 0 -9 -4 -6 -9 3 -5 -1 -14 -9 -21 -8 -7 -15 -18 -15 -25 0 -8 -5 -15 -11
-17 -5 -2 -11 -10 -13 -18 -1 -8 -14 -40 -29 -71 -15 -31 -27 -61 -27 -67 0
-22 29 -12 47 16 10 15 20 29 23 32 3 3 23 28 44 57 22 29 46 55 55 58 11 4
10 0 -5 -17 -10 -13 -25 -27 -32 -31 -7 -5 -10 -12 -7 -18 4 -5 0 -12 -8 -15
-8 -3 -18 -21 -22 -40 -3 -19 -13 -38 -21 -41 -7 -3 -14 -13 -14 -23 0 -11 -4
-21 -9 -24 -5 -3 -12 -23 -16 -43 -4 -21 -12 -44 -18 -51 -16 -20 -22 -218 -7
-237 21 -25 30 -17 30 28 0 44 45 147 86 196 48 58 57 66 51 49 -12 -35 16
-29 55 11 22 22 44 38 49 35 5 -3 9 1 9 10 0 8 16 24 35 36 20 12 41 27 48 33
28 27 98 67 107 62 6 -3 10 -2 10 3 0 9 69 56 140 93 45 25 62 34 158 96 28
19 57 31 64 27 6 -4 8 -3 5 3 -4 6 5 19 19 28 22 14 28 15 36 4 8 -11 9 -10 5
2 -4 12 9 27 41 50 26 18 49 36 52 39 3 3 25 20 50 38 25 18 81 67 124 110 46
44 77 69 73 57 -3 -11 -22 -65 -42 -120 -20 -55 -45 -130 -56 -166 -10 -36
-23 -78 -29 -93 -13 -34 -111 -186 -120 -186 -4 0 -12 -11 -18 -25 -6 -14 -16
-25 -22 -25 -15 0 -40 -26 -40 -41 0 -21 -31 -48 -48 -42 -11 5 -14 2 -9 -10
6 -16 -15 -42 -26 -31 -7 8 -37 -20 -37 -35 0 -9 -34 -33 -50 -35 -3 -1 -4 -4
-3 -7 1 -4 -22 -19 -52 -33 -62 -29 -78 -63 -25 -52 32 6 42 -10 13 -21 -10
-4 -20 -10 -23 -13 -3 -4 -31 -22 -62 -40 -77 -43 -76 -60 3 -60 67 0 199 19
199 29 0 4 15 8 33 9 17 2 33 7 35 12 2 5 10 6 18 3 8 -3 14 0 14 5 0 6 10 14
23 18 12 4 25 12 29 18 16 23 7 -25 -16 -91 -13 -37 -29 -93 -36 -125 -13 -59
-21 -67 -90 -87 -99 -30 -136 -43 -151 -54 -15 -11 -79 -124 -79 -139 0 -4
-11 -31 -24 -60 -13 -29 -28 -65 -34 -80 -9 -22 -18 -28 -40 -28 -39 0 -91
-19 -114 -42 -10 -10 -25 -18 -33 -18 -8 0 -15 -4 -15 -9 0 -5 -28 -27 -63
-49 l-62 -41 -95 9 c-122 12 -377 12 -458 1 -68 -10 -198 -67 -206 -91 -3 -8
-11 -23 -18 -32 -10 -13 -9 -35 1 -105 29 -193 29 -213 6 -262 -12 -25 -26
-57 -29 -71 -4 -14 -16 -43 -26 -65 -70 -149 -95 -279 -67 -345 9 -19 30 -49
49 -67 37 -35 143 -93 170 -93 9 0 33 -14 53 -31 33 -30 43 -33 138 -40 56 -5
116 -11 134 -15 18 -3 55 1 89 11 73 21 216 88 233 109 8 9 18 16 23 16 6 0
26 12 44 28 90 73 102 82 109 82 4 0 14 8 21 17 7 10 15 16 18 13 5 -5 -1 -19
-50 -125 -12 -27 -38 -88 -58 -135 -79 -191 -87 -199 -306 -305 -41 -20 -79
-38 -85 -39 -17 -5 -65 -25 -165 -70 -69 -30 -155 -82 -184 -109 -16 -15 -34
-27 -41 -27 -7 0 -15 -9 -18 -20 -3 -11 -12 -20 -21 -20 -9 0 -16 -6 -16 -12
0 -7 -13 -26 -28 -43 -15 -16 -35 -43 -44 -60 -8 -16 -23 -45 -33 -63 -25 -48
-44 -138 -44 -207 -1 -55 11 -145 39 -295 13 -72 3 -170 -51 -474 -16 -88 -20
-137 -15 -190 12 -131 39 -282 67 -376 10 -36 19 -74 19 -85 0 -11 11 -42 25
-70 13 -27 25 -57 25 -66 0 -9 11 -33 25 -53 14 -20 25 -43 25 -50 0 -17 38
-66 51 -66 5 0 14 10 20 23 19 42 37 70 68 103 17 18 31 36 31 41 0 13 94 103
107 103 6 0 13 9 16 19 2 11 22 30 43 44 22 13 45 32 53 41 7 9 20 16 27 16 8
0 14 7 14 15 0 8 5 15 11 15 6 0 30 16 53 35 22 19 64 54 93 77 28 24 75 64
105 90 29 26 58 48 63 48 6 0 15 10 20 22 6 12 19 26 30 32 25 14 41 29 46 43
2 6 43 52 90 100 47 49 88 97 92 106 3 9 13 17 22 17 8 0 15 6 15 13 0 6 23
36 50 66 28 30 50 58 50 61 0 4 7 14 17 21 9 8 23 26 32 40 9 14 31 43 49 65
50 61 125 164 149 205 11 21 28 46 37 54 9 9 16 22 16 29 0 8 7 19 16 26 8 8
21 27 29 44 8 17 28 54 45 81 17 28 34 58 37 68 3 10 12 16 19 13 7 -3 16 -1
19 4 4 6 -1 10 -10 10 -15 0 -14 3 2 30 18 32 35 33 80 4 12 -8 32 -14 43 -14
12 0 18 -4 15 -10 -3 -6 1 -7 9 -4 9 4 18 0 22 -9 3 -8 17 -17 32 -20 26 -5
84 -47 66 -47 -5 0 2 -6 16 -13 14 -7 25 -17 26 -22 0 -6 4 -18 9 -28 4 -9 0
-61 -10 -115 -26 -150 -28 -165 -39 -247 -2 -16 -11 -75 -20 -130 -39 -242
-58 -374 -62 -425 -3 -30 -13 -109 -24 -175 -10 -66 -22 -150 -26 -187 -3 -38
-10 -68 -15 -68 -11 0 -50 -62 -99 -158 -37 -73 -39 -82 -41 -179 -2 -89 -5
-104 -21 -109 -10 -3 -18 -13 -18 -22 0 -9 -29 -107 -64 -217 -94 -292 -97
-303 -103 -381 -5 -69 -4 -72 31 -123 33 -47 36 -56 27 -84 -5 -18 -14 -61
-20 -97 -5 -36 -13 -76 -16 -90 -3 -14 -12 -68 -21 -120 -15 -93 -41 -225 -64
-325 -6 -27 -13 -60 -15 -73 -2 -12 -9 -46 -15 -75 -32 -141 -44 -177 -56
-177 -23 0 -36 -40 -38 -124 -2 -74 -25 -164 -48 -190 -4 -6 -8 -23 -8 -38 0
-15 -20 -87 -44 -160 -24 -73 -47 -146 -49 -163 -3 -16 -13 -72 -22 -123 -9
-52 -14 -100 -11 -108 3 -8 2 -14 -3 -14 -4 0 -18 -33 -30 -72 -22 -77 -28
-163 -11 -173 6 -4 8 -10 5 -15 -3 -5 2 -13 11 -18 14 -8 14 -10 0 -25 -13
-12 -16 -39 -16 -134 0 -112 1 -120 25 -145 34 -36 102 -76 145 -83 19 -3 63
-12 98 -20 130 -30 312 -6 397 53 35 24 41 35 49 81 6 36 5 67 -3 99 -26 103
-39 177 -30 180 12 5 11 99 -1 184 -13 92 -13 90 -32 108 -15 13 -17 51 -20
348 -4 308 -3 334 14 348 30 28 48 109 34 151 -7 21 22 103 74 208 11 22 20
44 20 48 0 10 44 113 101 235 22 46 39 88 39 93 0 5 11 32 25 61 14 28 25 58
25 65 0 7 5 13 11 13 5 0 7 5 4 10 -3 6 -1 10 4 10 6 0 11 9 11 20 0 11 4 20
8 20 4 0 8 10 10 23 2 34 31 97 43 97 5 0 7 5 4 10 -3 5 1 11 9 11 9 1 19 2
24 3 11 2 96 66 88 66 -4 0 -2 8 3 17 5 10 12 32 15 48 8 41 52 239 66 300 7
28 14 70 16 95 9 90 39 171 58 153 3 -4 6 -1 6 6 0 7 18 50 40 94 35 71 42 96
50 182 10 111 28 169 89 296 22 47 41 90 41 94 0 4 9 18 20 32 11 14 20 34 20
44 0 9 6 24 13 31 7 7 21 34 31 61 10 26 24 54 33 62 8 8 11 15 8 15 -4 0 4
19 17 43 14 23 32 63 42 90 20 53 32 59 46 22 5 -14 13 -25 18 -25 5 0 27 -35
48 -77 22 -43 45 -84 52 -92 7 -7 16 -26 19 -42 3 -16 8 -29 12 -29 4 0 8 -12
9 -27 1 -15 5 -29 10 -32 9 -8 14 -36 16 -91 1 -35 5 -45 20 -48 11 -3 16 0
12 7 -4 6 -2 11 3 11 6 0 11 5 11 10 0 6 11 23 25 38 14 15 44 59 67 97 24 39
45 72 48 75 11 10 70 133 70 146 0 21 42 124 51 124 5 0 9 -10 9 -22 0 -24 34
-171 76 -323 30 -112 30 -114 -1 -181 -28 -62 -32 -112 -20 -269 7 -104 6
-115 -18 -185 -25 -75 -65 -272 -87 -428 -13 -95 -11 -100 50 -127 22 -10 40
-21 40 -25 0 -4 6 -45 14 -91 35 -209 40 -271 39 -504 -1 -132 0 -274 0 -315
4 -193 -2 -451 -13 -510 -7 -36 -15 -82 -17 -102 -7 -53 51 -398 64 -384 3 2
21 -7 40 -20 20 -13 46 -24 58 -24 34 0 115 39 115 55 0 8 5 17 11 21 16 9
108 -87 101 -105 -3 -8 -1 -12 5 -8 13 8 46 -27 36 -38 -5 -4 -3 -5 3 -2 6 3
26 -7 45 -23 19 -16 38 -29 43 -30 5 0 24 -11 42 -25 18 -14 39 -25 47 -25 8
0 25 -9 39 -19 50 -40 197 -63 302 -48 81 12 138 41 191 99 38 41 40 46 43
123 3 58 0 87 -11 110 -9 16 -23 47 -32 68 -10 20 -21 37 -26 37 -5 0 -20 17
-33 39 -30 47 -96 92 -170 115 -34 11 -53 22 -49 28 3 6 2 8 -4 5 -10 -6 -93
49 -93 61 0 4 -22 31 -50 61 -27 29 -48 56 -47 60 1 3 -7 15 -18 27 -11 12
-27 30 -36 41 -67 83 -159 324 -159 416 0 29 -4 57 -9 63 -16 15 6 374 30 499
11 60 29 155 40 210 10 55 19 111 19 125 0 27 56 80 84 80 10 0 13 6 10 15 -5
11 -2 13 12 8 12 -4 15 -3 10 6 -4 6 -2 19 6 28 10 12 13 76 14 277 1 144 5
277 10 296 4 19 8 105 9 190 1 85 8 177 14 203 6 27 14 81 17 120 2 40 9 106
14 147 17 131 31 263 36 340 3 41 13 125 22 185 12 84 16 213 19 543 l4 432
32 14 c18 7 38 20 46 29 7 10 19 17 25 17 13 0 43 32 63 68 15 26 17 154 3
214 -5 24 -14 77 -19 118 -18 135 -31 204 -51 267 -11 34 -20 69 -20 78 0 17
-28 111 -66 220 -53 151 -58 174 -42 193 13 16 33 65 92 230 34 94 71 223 91
317 10 44 22 93 26 109 5 16 9 45 9 65 1 20 7 63 15 96 8 33 17 107 21 165 6
97 9 107 33 127 14 12 31 22 36 23 6 0 17 10 25 21 8 12 21 27 28 35 14 15 16
38 3 62 -5 9 -32 64 -60 122 -29 58 -60 119 -71 135 -32 48 -37 64 -65 184
-16 72 -43 149 -72 210 -25 53 -49 105 -53 116 -4 11 -22 50 -39 86 -17 37
-31 70 -31 73 0 4 -13 26 -29 49 -15 23 -31 52 -35 65 -4 12 -23 39 -42 60
-19 20 -34 42 -34 47 0 6 -34 44 -76 85 -55 55 -86 95 -113 150 -63 127 -78
146 -159 199 -69 46 -154 80 -265 105 l-27 6 25 40 c14 22 25 44 25 50 0 6 9
28 20 50 11 21 24 55 29 77 5 21 17 63 25 93 9 30 21 93 26 140 5 47 14 120
20 163 13 110 14 207 1 317 -38 333 -82 494 -173 626 -74 109 -154 165 -230
163 -24 0 -79 9 -122 20 -75 20 -208 27 -261 14z m195 -23 c29 -6 72 -15 94
-21 l41 -11 -38 -19 c-56 -29 -45 -31 18 -3 74 32 110 31 171 -7 120 -76 202
-238 253 -500 42 -211 50 -381 30 -571 -13 -119 -60 -347 -83 -398 -15 -34
-15 -32 -16 85 0 65 -4 115 -8 110 -5 -6 -16 -35 -25 -65 -20 -64 -116 -262
-116 -240 0 8 6 49 14 90 7 41 12 76 10 78 -6 7 -63 -128 -88 -208 -14 -47
-35 -114 -47 -150 l-21 -65 6 100 c11 200 42 314 123 450 28 47 64 135 59 148
-2 6 -14 -2 -28 -17 -13 -16 -46 -52 -72 -80 l-49 -51 27 55 c80 161 107 281
106 483 0 156 -10 207 -31 152 -26 -74 -36 -93 -69 -144 l-36 -54 -5 30 -5 31
-50 -19 c-55 -21 -103 -54 -93 -64 7 -7 78 21 78 31 0 3 -8 3 -17 0 -10 -4
-14 -3 -9 1 4 4 17 8 29 9 12 1 29 3 37 5 11 3 14 -3 12 -18 -2 -13 1 -23 6
-23 19 0 85 84 112 144 l29 61 0 -112 c1 -65 -3 -114 -9 -118 -5 -3 -10 -2
-10 2 0 11 -138 -2 -184 -17 -19 -6 -36 -19 -39 -28 -3 -9 -8 -25 -12 -35 -5
-13 -3 -16 7 -12 8 3 21 -1 28 -10 11 -13 9 -15 -10 -15 -13 0 -21 -2 -19 -5
9 -8 179 -21 179 -13 0 4 7 5 15 1 9 -3 15 -2 13 3 -3 11 30 94 38 94 8 0 -6
-86 -28 -169 -21 -77 -64 -177 -106 -244 -13 -22 -22 -41 -19 -43 2 -2 22 12
44 30 l40 35 -24 -68 c-30 -83 -78 -137 -185 -211 -92 -62 -126 -67 -205 -27
-118 60 -228 180 -291 318 -53 115 -57 139 -43 241 12 84 38 188 40 162 1 -6
9 -29 18 -50 9 -22 16 -42 15 -46 -1 -5 3 -8 9 -8 5 0 7 -4 4 -10 -4 -6 32 -9
102 -8 l108 2 -93 5 c-102 7 -122 18 -122 70 1 24 2 23 21 -11 30 -58 104 -65
132 -12 l13 25 26 -21 c35 -27 44 -25 23 6 -9 15 -12 23 -6 20 6 -4 11 -3 11
2 0 5 -24 20 -52 33 -40 17 -73 24 -130 24 -43 1 -80 4 -83 6 -2 3 0 34 7 69
11 62 11 63 25 37 7 -15 16 -27 19 -27 8 0 -7 43 -20 59 -6 7 -18 32 -27 55
l-17 41 5 -65 c5 -63 -2 -122 -47 -384 -34 -206 -50 -347 -50 -453 0 -57 -4
-103 -9 -103 -5 0 -18 43 -30 95 -16 65 -28 98 -40 105 -20 10 -36 77 -46 190
-3 36 -9 76 -12 90 -10 43 -43 -105 -43 -194 0 -44 -2 -77 -4 -75 -3 2 -14 40
-26 84 -15 53 -25 129 -30 225 l-8 145 3 -160 c1 -115 7 -178 19 -223 17 -62
17 -65 -3 -112 -12 -27 -21 -63 -21 -80 0 -41 -18 -35 -47 16 -33 57 -52 129
-59 226 -8 99 4 179 45 305 16 48 34 131 40 183 27 225 60 350 127 480 42 82
147 210 161 196 4 -3 1 -12 -5 -18 -7 -7 -12 -17 -12 -22 0 -6 20 17 44 50 80
111 143 145 230 126 26 -5 44 -7 41 -3 -11 10 66 29 121 30 28 1 75 -4 104 -9z
m-295 -1583 c11 -8 34 -19 50 -25 17 -6 55 -20 85 -32 90 -35 116 -39 178 -25
31 6 64 15 73 19 15 6 17 -4 20 -83 3 -64 8 -95 19 -106 14 -13 15 -10 12 28
l-4 42 21 -19 c18 -16 21 -31 21 -90 0 -39 5 -78 10 -86 8 -13 10 -13 10 2 0
22 31 88 41 88 5 0 21 -16 36 -36 15 -19 38 -47 51 -62 35 -42 175 -251 207
-310 16 -28 30 -50 32 -48 7 6 -71 140 -150 257 -26 39 -53 97 -66 140 -12 41
-30 93 -41 117 -19 40 -19 42 -2 33 10 -5 63 -58 117 -118 55 -59 139 -148
187 -198 111 -114 133 -143 174 -232 35 -74 57 -103 29 -38 -8 19 -22 52 -31
73 l-16 37 38 -35 c134 -126 154 -161 172 -308 10 -83 0 -229 -19 -264 -5 -9
-9 -26 -9 -37 0 -18 -6 -21 -38 -21 l-38 0 2 73 c2 39 1 61 -2 47 -2 -14 -9
-48 -14 -75 l-10 -50 -48 3 c-26 2 -51 8 -56 13 -6 5 -24 9 -40 9 l-31 0 -3
133 c-1 72 -6 148 -11 167 -5 22 -6 -6 -4 -75 l4 -110 -26 50 c-46 87 -77 139
-107 176 -15 20 -29 47 -29 60 -1 19 -2 20 -6 6 -5 -18 -5 -18 -26 0 -12 10 4
-12 35 -49 31 -37 68 -93 83 -125 32 -66 56 -205 48 -274 l-6 -47 -33 67 c-50
98 -254 361 -282 361 -3 0 14 -21 40 -47 82 -86 198 -241 198 -265 0 -4 -9 -8
-20 -8 -11 0 -20 -4 -20 -10 0 -5 -13 -10 -30 -10 -16 0 -41 -5 -55 -12 -24
-11 -29 -8 -93 58 -37 38 -126 122 -198 186 -72 64 -180 166 -240 226 -102
103 -110 114 -122 168 -14 57 -99 314 -142 427 -32 85 -16 82 23 -5 70 -153
199 -318 317 -407 l45 -33 -35 32 c-179 163 -265 280 -334 453 -23 58 -25 73
-16 105 5 20 10 56 10 79 0 40 3 44 40 52 3 0 14 -5 25 -12z m-538 -54 c6 -16
19 -40 29 -54 16 -25 16 -28 -11 -85 -16 -32 -29 -62 -29 -66 -1 -4 -23 -26
-50 -48 -66 -55 -76 -68 -153 -221 -48 -96 -125 -182 -273 -306 -92 -77 -261
-190 -297 -199 -13 -4 -23 -10 -23 -15 0 -5 -4 -9 -10 -9 -5 0 -66 -27 -136
-60 -70 -33 -131 -59 -136 -58 -4 2 8 20 28 42 64 70 24 57 -91 -29 -94 -70
-233 -208 -248 -248 -4 -10 -13 -15 -24 -11 -14 5 -15 4 -4 -4 11 -8 7 -19
-23 -58 -19 -27 -40 -54 -46 -61 -5 -7 -10 -20 -10 -30 0 -10 -5 -25 -11 -33
-19 -27 -1 90 25 161 50 137 160 314 250 404 34 32 54 55 46 50 -45 -26 -148
-116 -215 -187 l-78 -82 28 54 c40 80 108 162 248 297 144 139 230 203 455
339 90 55 181 110 203 124 21 14 78 49 126 78 127 76 205 138 312 246 52 53
97 96 101 96 3 0 11 -12 17 -27z m228 -170 c4 -32 8 -70 9 -85 2 -14 9 -33 18
-41 8 -8 47 -80 85 -159 96 -195 127 -314 125 -488 -1 -158 -49 -450 -74 -450
-4 0 -8 -15 -8 -34 0 -19 -4 -38 -10 -41 -5 -3 -10 -17 -10 -31 0 -14 -9 -42
-20 -64 -11 -22 -20 -46 -20 -55 0 -8 -4 -15 -9 -15 -5 0 -11 -13 -14 -30 -4
-18 -13 -30 -22 -30 -18 0 -20 -16 -2 -23 10 -3 10 -9 0 -26 -7 -11 -13 -28
-13 -36 0 -11 -11 -15 -40 -15 -39 0 -40 1 -40 34 0 19 4 46 9 59 5 13 12 37
14 53 3 16 13 56 22 89 10 33 24 101 32 150 16 95 12 176 -24 455 -8 63 -19
153 -24 200 -5 47 -14 100 -20 118 -11 33 -29 44 -29 17 0 -8 -4 -15 -10 -15
-5 0 -10 -4 -10 -10 0 -5 7 -10 15 -10 12 0 15 -19 15 -110 0 -91 -3 -110 -15
-110 -8 0 -15 -9 -15 -20 0 -11 5 -20 11 -20 7 0 9 -18 6 -52 -8 -75 -25 -196
-33 -232 -7 -30 -7 -30 -25 24 -10 31 -14 56 -8 58 16 6 10 19 -11 25 -13 3
-20 14 -20 30 0 14 -7 27 -15 31 -8 3 -15 13 -15 23 0 10 -7 32 -16 48 -8 17
-19 48 -23 70 -20 100 -54 243 -64 269 -14 37 -55 86 -72 86 -8 0 -2 -12 14
-28 30 -29 52 -93 71 -202 6 -36 18 -87 26 -114 8 -27 14 -63 14 -79 0 -16 6
-35 14 -41 16 -13 66 -143 66 -173 0 -11 6 -23 14 -26 8 -3 18 -27 22 -53 9
-60 -14 -312 -31 -339 -31 -49 -53 -65 -89 -65 -20 0 -36 -4 -36 -10 0 -5 -9
-10 -20 -10 -26 0 -27 34 0 53 11 8 21 27 22 48 3 29 0 34 -21 37 -25 4 -101
-26 -101 -39 0 -4 -15 -15 -34 -24 -19 -9 -42 -25 -52 -36 -9 -10 -21 -19 -26
-19 -4 0 -39 -22 -76 -48 -37 -27 -80 -56 -97 -64 -48 -25 -118 -55 -144 -63
-21 -6 -23 -5 -17 11 4 11 14 42 21 71 20 78 85 294 124 418 11 33 33 114 51
180 48 186 110 388 149 482 10 27 24 62 31 79 6 17 21 37 33 43 12 7 14 9 5 7
-10 -3 -18 -3 -18 0 0 3 23 50 51 104 55 109 107 168 184 211 73 41 199 107
206 108 3 1 10 -25 14 -56z m1230 -4 c113 -46 166 -101 229 -233 82 -173 87
-182 80 -161 -18 57 -13 57 43 -1 57 -59 173 -222 173 -244 0 -13 22 -53 34
-61 5 -4 7 -11 5 -17 -2 -6 -29 19 -59 54 -78 91 -146 160 -164 167 -9 4 -16
13 -16 22 0 8 -6 15 -14 15 -18 0 -212 193 -221 219 -3 12 -11 21 -16 21 -5 0
-9 9 -9 20 0 11 -7 20 -15 20 -9 0 -18 7 -21 15 -4 8 -19 29 -35 46 -16 17
-29 36 -29 43 0 6 -8 16 -18 23 -11 6 -34 30 -52 53 l-34 42 35 -7 c19 -4 66
-20 104 -36z m-484 -876 c117 -102 229 -217 229 -233 0 -12 -66 -40 -95 -40
-14 0 -47 27 -96 78 -41 42 -117 115 -169 162 -175 158 -196 184 -203 250 -3
25 -9 61 -13 80 -7 33 -1 29 113 -81 66 -63 172 -161 234 -216z m908 107 c58
-109 74 -183 68 -305 -5 -105 -25 -189 -26 -112 -1 20 -5 37 -11 37 -5 0 -10
8 -10 19 0 24 -31 52 -37 34 -3 -7 -9 -13 -14 -13 -7 0 -8 52 -3 143 6 131 -1
213 -22 272 -14 39 14 1 55 -75z m89 10 c19 -22 67 -120 119 -239 61 -143 115
-249 176 -345 60 -96 137 -258 137 -289 0 -34 -24 -62 -97 -114 -125 -90 -252
-159 -353 -191 -36 -12 -162 -35 -280 -52 -118 -17 -244 -37 -280 -46 -88 -20
-287 -46 -385 -50 -67 -3 -80 -6 -86 -22 -25 -68 -198 -174 -371 -229 -10 -3
-31 -29 -48 -59 -42 -75 -41 -131 2 -185 17 -21 28 -42 23 -46 -4 -5 -10 -2
-12 5 -3 6 -11 12 -18 12 -7 0 -27 8 -43 17 -28 16 -31 23 -37 89 -5 56 -3 79
9 103 18 35 37 81 33 81 -2 0 -19 -21 -39 -47 -44 -60 -57 -120 -42 -206 6
-36 5 -38 -13 -27 -10 7 -27 32 -37 56 -15 36 -17 58 -11 117 7 66 11 76 47
115 22 24 37 46 34 49 -3 4 -7 4 -9 2 -1 -2 -20 -26 -41 -53 -42 -52 -55 -96
-56 -188 0 -73 -18 -70 -42 7 -16 51 -17 59 -1 126 14 62 21 76 59 111 24 22
44 45 44 50 0 5 -22 -12 -50 -39 -27 -26 -50 -53 -50 -59 0 -7 -9 -22 -20 -35
l-20 -24 6 65 c5 62 8 67 52 107 26 24 52 43 58 43 7 0 14 8 17 19 2 11 42 37
102 67 78 39 99 46 103 34 3 -8 18 -27 33 -42 34 -35 83 -36 184 -7 39 11 89
25 113 30 23 6 42 14 42 19 0 5 23 13 51 19 72 16 225 68 283 98 75 38 186
115 180 124 -3 5 2 6 10 3 9 -3 25 4 39 18 13 12 45 33 71 46 51 24 226 128
293 173 23 16 63 40 90 54 26 13 42 25 34 25 -8 0 -45 -18 -82 -40 -37 -22
-70 -40 -73 -40 -4 0 -4 11 0 25 9 37 -1 30 -30 -20 -15 -25 -34 -45 -42 -45
-8 0 -17 -7 -20 -15 -4 -8 -13 -15 -21 -15 -8 0 -27 -9 -43 -20 -15 -10 -74
-44 -131 -73 -374 -195 -375 -195 -614 -277 -77 -26 -160 -55 -185 -63 -25 -9
-64 -19 -86 -23 -35 -5 -45 -3 -63 17 -11 12 -21 28 -21 35 0 6 -21 46 -47 89
l-47 76 3 86 c2 67 14 126 60 291 32 114 62 222 66 239 3 18 11 35 15 38 14 8
170 -321 170 -357 0 -10 -7 -35 -15 -55 -8 -20 -13 -38 -11 -40 2 -3 13 19 24
48 l20 53 86 22 c48 12 155 32 239 44 258 37 367 60 490 101 64 21 133 39 151
39 48 0 176 -56 209 -92 16 -16 31 -27 35 -23 9 9 -54 60 -100 81 -35 16 -50
34 -29 34 5 0 18 23 31 51 63 148 66 329 6 492 -20 54 -36 103 -36 109 0 11
66 -35 88 -62z m-1245 -97 c34 -32 97 -89 139 -126 42 -38 99 -95 127 -127
l51 -58 -81 -27 c-69 -23 -90 -25 -147 -20 -84 9 -147 38 -163 77 -8 20 -10
73 -6 181 4 84 7 153 7 155 1 8 18 -5 73 -55z m-1188 -202 c-39 -135 -39 -136
-68 -168 -11 -12 -17 -29 -14 -37 4 -9 2 -16 -3 -16 -5 0 -12 -9 -15 -20 -6
-20 -35 -28 -35 -10 0 6 6 10 13 10 7 0 13 9 13 20 0 18 -4 16 -31 -10 -17
-16 -31 -40 -32 -51 -1 -12 -8 -26 -15 -30 -16 -10 -28 25 -21 58 5 24 1 24
-94 -10 -24 -8 -43 -14 -43 -12 0 1 17 14 39 28 88 58 226 207 301 324 18 29
35 52 37 50 1 -2 -13 -59 -32 -126z m185 -722 c0 -46 -4 -79 -10 -79 -5 0 -10
-13 -10 -30 0 -31 -44 -120 -66 -133 -8 -4 -14 -12 -14 -16 0 -13 -139 -151
-151 -151 -6 0 -48 -11 -93 -24 -153 -46 -332 -44 -396 4 l-25 19 40 115 c21
64 59 155 85 203 50 96 43 91 198 140 47 15 62 17 62 7 0 -21 -41 -84 -55 -84
-7 0 -34 -20 -61 -45 -26 -25 -51 -45 -55 -45 -4 0 -10 -16 -14 -36 -10 -58 8
-70 84 -53 34 7 61 17 61 21 0 4 9 8 20 8 11 0 20 5 20 10 0 6 9 10 20 10 11
0 20 5 20 10 0 6 7 10 14 10 8 0 27 11 42 25 14 13 44 32 65 42 21 10 39 23
39 29 0 6 18 19 40 30 22 10 40 22 40 27 0 4 9 7 20 7 13 0 20 7 20 19 0 19
39 52 53 44 4 -2 7 -40 7 -84z m-760 -329 c0 -5 -5 -30 -12 -55 -12 -44 -11
-46 20 -78 18 -18 32 -36 32 -40 0 -9 103 -109 127 -123 10 -6 22 -20 28 -32
6 -13 19 -22 33 -22 24 0 44 -31 24 -38 -7 -2 -12 -10 -12 -19 0 -19 -24 -43
-44 -43 -9 0 -16 -4 -16 -10 0 -6 -27 -10 -60 -10 -53 0 -60 2 -60 20 0 13 -7
20 -20 20 -11 0 -20 5 -20 10 0 6 -9 10 -20 10 -11 0 -20 5 -20 10 0 6 -9 10
-20 10 -11 0 -20 -4 -20 -10 0 -5 -18 -10 -40 -10 -22 0 -40 5 -40 10 0 6 -18
10 -40 10 -22 0 -40 -4 -40 -10 0 -6 -73 -10 -200 -10 -127 0 -200 4 -200 10
0 6 -64 10 -173 10 -196 0 -194 0 -219 -77 -7 -24 -15 -43 -18 -43 -6 0 -25
105 -36 203 -6 52 -4 61 17 84 37 39 107 70 191 83 79 13 501 11 514 -3 4 -3
1 -14 -7 -23 -13 -16 -12 -16 16 -2 17 9 68 42 115 74 47 32 103 68 125 81 41
23 95 31 95 13z m2887 -383 c6 -13 14 -59 18 -103 5 -47 11 -71 15 -60 12 34
40 -17 120 -214 36 -88 108 -310 135 -417 57 -223 77 -345 82 -506 6 -156 5
-158 -18 -183 -108 -115 -419 -194 -761 -194 l-123 0 2 657 c3 710 10 833 49
833 46 0 332 120 368 155 27 26 72 54 87 55 9 0 21 -10 26 -23z m-552 -234
c-6 -25 -21 -854 -24 -1292 l-1 -153 -32 6 c-87 16 -255 17 -321 3 l-67 -15 4
32 c3 17 8 78 11 136 23 423 36 576 71 805 9 55 19 127 24 160 12 86 21 125
31 131 5 3 9 23 9 45 0 32 3 39 20 39 23 0 102 35 143 62 l27 19 0 -28 c0 -15
-4 -75 -10 -133 -14 -162 -45 -968 -36 -959 3 3 12 183 21 400 8 217 20 437
26 489 6 52 14 130 18 173 9 82 13 92 46 100 43 10 48 8 40 -20z m-1515 -23
c0 -16 5 -30 10 -30 6 0 10 -27 10 -60 0 -35 -4 -60 -10 -60 -7 0 -8 -17 -4
-47 4 -37 1 -59 -15 -96 -11 -26 -20 -51 -20 -55 4 -24 -3 -42 -16 -42 -8 0
-15 -9 -15 -20 0 -11 -4 -20 -10 -20 -5 0 -10 -9 -10 -20 0 -11 -4 -20 -10
-20 -5 0 -10 -9 -10 -20 0 -11 -4 -20 -10 -20 -5 0 -10 -9 -10 -20 0 -13 -7
-20 -20 -20 -13 0 -20 -7 -20 -19 0 -10 -9 -21 -20 -24 -14 -3 -20 -14 -20
-31 0 -17 -5 -26 -16 -26 -18 0 -44 -23 -44 -40 0 -15 -25 -40 -40 -40 -17 0
-40 -26 -40 -44 0 -9 -8 -16 -20 -16 -13 0 -20 -7 -20 -20 0 -13 -7 -20 -20
-20 -13 0 -20 -7 -20 -19 0 -10 -9 -21 -20 -24 -11 -3 -20 -12 -20 -21 0 -9
-4 -16 -10 -16 -5 0 -10 -9 -10 -20 0 -13 -7 -20 -20 -20 -13 0 -20 -7 -20
-20 0 -13 -7 -20 -20 -20 -13 0 -20 -7 -20 -19 0 -10 -9 -21 -20 -24 -11 -3
-20 -12 -20 -21 0 -9 -8 -16 -20 -16 -13 0 -20 -7 -20 -20 0 -13 -7 -20 -20
-20 -11 0 -20 -4 -20 -10 0 -5 -9 -10 -20 -10 -16 0 -20 -7 -20 -30 0 -23 -4
-30 -20 -30 -11 0 -20 -4 -20 -10 0 -5 -9 -10 -20 -10 -13 0 -20 -7 -20 -20 0
-13 -7 -20 -20 -20 -11 0 -20 -4 -20 -10 0 -5 -18 -10 -40 -10 -22 0 -40 -4
-40 -10 0 -5 -18 -10 -40 -10 -22 0 -40 5 -40 10 0 6 -18 10 -40 10 -33 0 -40
-3 -40 -20 0 -13 -7 -20 -20 -20 -11 0 -20 -4 -20 -10 0 -5 -9 -10 -20 -10
-13 0 -20 -7 -20 -20 0 -13 -7 -20 -19 -20 -11 0 -23 -5 -27 -11 -4 -8 -9 -7
-15 2 -7 11 -9 11 -9 1 0 -7 -11 -37 -24 -65 -13 -29 -29 -69 -35 -89 -25 -75
-23 -36 5 117 23 127 63 260 116 388 27 66 48 121 46 122 -2 2 -25 -45 -52
-104 -38 -84 -62 -122 -107 -170 -33 -34 -59 -65 -59 -69 0 -4 -15 -24 -33
-44 -27 -31 -41 -38 -70 -38 -34 0 -37 -2 -37 -30 0 -27 -3 -30 -30 -30 -23 0
-30 -4 -30 -20 0 -17 -7 -20 -40 -20 -33 0 -40 -3 -40 -20 0 -11 -4 -20 -10
-20 -5 0 -10 -9 -10 -20 0 -13 -7 -20 -20 -20 -13 0 -20 -7 -20 -20 0 -13 -7
-20 -20 -20 -14 0 -20 -7 -20 -21 0 -13 -5 -19 -12 -16 -10 3 -12 -7 -9 -39 2
-28 -1 -44 -8 -44 -6 0 -11 -18 -11 -40 0 -22 -4 -40 -10 -40 -5 0 -10 -9 -10
-20 0 -11 -4 -20 -10 -20 -5 0 -10 -18 -10 -40 0 -22 -4 -40 -10 -40 -5 0 -10
-9 -10 -19 0 -11 -4 -23 -10 -26 -5 -3 -10 -22 -10 -41 0 -19 -4 -34 -8 -34
-5 0 -14 -23 -21 -52 -13 -49 -53 -133 -100 -208 l-22 -35 6 50 c18 164 17
271 -3 380 -33 175 -34 196 -17 281 46 221 213 390 502 504 140 56 299 135
343 171 19 16 37 24 40 19 3 -6 13 7 22 28 43 104 100 233 126 287 16 33 37
78 47 99 25 52 30 31 12 -47 -9 -34 -18 -89 -22 -122 -3 -33 -8 -68 -11 -77
-4 -12 0 -18 10 -18 9 0 16 -9 16 -20 0 -13 7 -20 20 -20 11 0 20 5 20 10 0 6
9 10 20 10 11 0 20 5 20 10 0 6 9 10 20 10 13 0 20 7 20 20 0 13 7 20 20 20
11 0 20 5 20 10 0 6 9 10 20 10 11 0 20 5 20 10 0 6 7 10 16 10 9 0 18 9 21
20 3 11 12 20 20 20 8 0 17 9 20 20 3 11 14 20 24 20 11 0 19 5 19 10 0 6 7
10 15 10 8 0 19 9 25 20 6 11 8 20 5 20 -4 0 -3 5 1 11 4 8 9 7 15 -2 7 -11
10 -9 15 9 4 12 11 22 16 22 18 0 69 58 55 63 -7 3 -2 9 13 15 30 12 60 46 60
67 0 8 9 15 20 15 13 0 20 7 20 20 0 12 7 20 16 20 9 0 18 9 21 20 3 11 9 20
14 20 5 0 9 7 9 16 0 9 9 18 20 21 11 3 20 10 20 16 0 16 51 67 67 67 7 0 13
7 13 16 0 9 9 18 20 21 11 3 20 14 20 24 0 12 7 19 20 19 13 0 20 7 20 20 0
13 7 20 20 20 11 0 20 5 20 10 0 6 9 10 20 10 16 0 20 -7 20 -30z m1084 -155
c-7 -32 -98 -297 -113 -330 -6 -11 -22 -51 -37 -90 -15 -38 -49 -115 -76 -170
-28 -55 -45 -95 -40 -90 20 20 111 214 162 345 104 268 118 306 129 341 12 36
46 58 54 35 6 -17 -1 -150 -12 -241 -5 -44 -19 -161 -31 -260 -12 -99 -27
-200 -35 -225 -54 -180 -152 -357 -270 -487 -54 -60 -59 -63 -104 -63 -40 0
-139 22 -162 36 -4 2 8 32 27 66 18 35 33 68 33 73 0 6 -15 -20 -34 -57 -19
-36 -38 -69 -42 -71 -13 -8 -114 34 -120 48 -5 14 54 142 133 285 25 47 101
184 167 305 159 290 297 564 297 591 0 22 0 22 40 6 37 -16 40 -19 34 -47z
m-118 41 c5 -13 -61 -177 -101 -251 -49 -88 -199 -363 -223 -405 -94 -168
-184 -338 -222 -417 -24 -51 -47 -93 -50 -93 -3 0 -26 12 -51 28 -24 15 -61
36 -81 47 -32 16 -38 25 -38 52 0 17 4 34 9 37 5 3 11 23 14 43 10 65 20 108
26 113 10 8 31 75 31 98 0 12 4 22 9 22 11 0 31 55 31 86 0 13 9 33 20 44 11
11 20 31 20 45 0 14 4 25 9 25 5 0 13 10 16 23 16 54 100 208 148 271 53 70
90 131 105 176 13 36 91 63 156 54 36 -5 47 -4 42 4 -5 9 11 12 59 12 46 0 67
-4 71 -14z m-822 -1638 c-8 -372 -27 -546 -103 -919 -16 -79 -37 -193 -46
-254 -19 -127 -42 -245 -85 -434 -16 -73 -30 -142 -30 -152 0 -23 -16 -25 -24
-3 -10 27 -7 87 14 225 11 74 27 177 35 229 8 52 28 196 45 320 56 405 78 557
140 935 30 181 49 275 55 275 2 0 1 -100 -1 -222z m2031 -705 c-8 -111 -22
-239 -31 -285 -20 -109 -81 -353 -100 -402 -8 -21 -21 -65 -29 -97 -14 -60 -7
-68 23 -27 7 10 18 18 23 18 6 0 -10 -39 -36 -87 -26 -49 -58 -119 -71 -158
-23 -65 -24 -67 -20 -25 3 25 9 56 12 69 6 18 4 22 -6 16 -31 -19 23 293 84
480 85 266 128 520 158 949 1 17 4 -32 6 -109 1 -77 -4 -231 -13 -342z m-2304
-729 c-6 -32 -23 -80 -37 -108 -23 -45 -27 -68 -35 -206 -9 -167 -15 -193 -86
-355 -48 -109 -89 -255 -98 -350 l-7 -70 -24 28 c-34 39 -39 70 -26 154 15 91
167 544 187 556 12 6 15 31 15 118 0 103 2 114 31 172 46 93 84 149 87 133 2
-8 -2 -41 -7 -72z m2084 -1209 c-40 -213 -52 -314 -60 -500 -4 -93 -11 -177
-15 -186 -29 -53 -240 -48 -327 9 -22 14 -23 19 -23 191 0 159 -18 442 -36
579 l-7 52 44 -16 c111 -39 290 -26 399 29 l45 23 3 -21 c2 -11 -9 -84 -23
-160z m-2276 17 c97 -84 153 -122 192 -132 48 -13 151 -14 202 -1 20 5 37 6
37 2 0 -11 -40 -110 -122 -301 -42 -96 -99 -231 -128 -300 -117 -282 -112
-273 -160 -297 -79 -41 -227 -24 -278 30 l-21 22 19 74 c11 40 27 108 36 150
49 234 68 332 94 476 34 187 63 325 68 325 3 0 30 -22 61 -48z m2246 -829 c4
-10 20 -56 37 -103 17 -47 41 -105 54 -130 36 -69 204 -270 262 -314 l53 -39
-70 -22 c-92 -29 -218 -93 -247 -124 -13 -14 -31 -48 -40 -74 l-16 -48 -77 74
c-42 40 -84 78 -93 83 -22 12 -42 91 -68 264 -10 74 -26 180 -35 235 -23 152
-22 155 23 155 36 0 148 31 180 50 24 13 29 12 37 -7z m-354 -30 c20 -12 31
-28 35 -53 3 -19 12 -69 19 -110 8 -41 19 -113 25 -160 6 -47 17 -129 24 -182
7 -54 11 -98 9 -98 -32 0 -145 108 -163 155 -9 22 -8 85 1 248 7 119 15 217
17 217 2 0 17 -8 33 -17z m-2172 -257 c9 -7 44 -24 77 -36 48 -17 78 -21 138
-18 42 1 76 0 76 -4 0 -4 6 -5 13 -2 16 6 27 -174 27 -454 l0 -174 -32 9 c-18
4 -118 8 -223 8 -173 -1 -194 -3 -237 -22 -26 -12 -50 -18 -52 -14 -10 16 38
255 75 367 21 66 39 128 39 137 0 14 34 120 65 205 6 16 15 15 34 -2z m3136
-448 c35 -17 48 -30 52 -51 3 -15 10 -30 14 -33 15 -9 10 -24 -7 -24 -10 0
-14 6 -11 14 4 10 0 14 -13 13 -17 -1 -17 -3 -4 -29 19 -37 18 -48 -6 -48 -23
0 -25 10 -7 30 10 12 9 12 -6 1 -15 -12 -20 -11 -32 5 -8 10 -17 27 -20 36 -6
17 -94 72 -102 64 -3 -3 13 -14 36 -25 22 -12 52 -38 66 -58 29 -43 31 -53 11
-53 -8 0 -16 -8 -18 -17 -2 -14 -9 -9 -27 20 -12 21 -37 45 -54 53 -18 9 -40
23 -50 32 -9 8 -20 13 -23 9 -3 -3 16 -18 43 -33 41 -23 103 -88 103 -107 0
-3 -11 -8 -25 -11 -24 -6 -36 -26 -15 -26 6 0 10 4 10 9 0 15 38 20 44 5 6
-15 -36 -48 -53 -42 -13 4 -81 88 -81 99 0 5 -5 9 -11 9 -6 0 -1 -13 10 -29
27 -38 27 -40 -9 -52 -33 -12 -38 -30 -14 -49 13 -11 16 -10 21 9 4 18 12 21
37 19 37 -4 48 -34 20 -55 -33 -24 -88 -16 -132 20 -22 18 -61 41 -87 51 l-47
18 6 41 c7 43 23 71 53 92 34 24 162 86 205 100 60 18 72 18 123 -7z m-3075
-484 c10 -3 16 -18 17 -48 1 -25 6 -53 12 -63 7 -13 9 -4 4 34 -7 61 6 83 46
83 40 0 50 -11 66 -74 21 -78 20 -172 -1 -180 -55 -21 -103 11 -106 72 -1 26
-3 19 -7 -23 l-6 -60 -38 -3 c-26 -2 -45 2 -57 13 -16 14 -18 14 -23 0 -10
-23 -73 -20 -90 6 -9 13 -17 16 -22 10 -8 -14 -62 -14 -70 0 -4 6 -9 52 -12
103 -6 104 -7 101 66 121 43 12 187 18 221 9z m264 -4 c18 -6 28 -21 36 -52 7
-24 15 -47 20 -53 13 -18 19 -97 9 -124 -13 -34 -26 -41 -74 -41 -68 0 -82 18
-88 107 -3 43 -9 92 -12 110 -6 27 -3 33 21 47 34 18 54 19 88 6z"/>
<path d="M2835 11197 c-44 -95 -76 -250 -84 -397 -5 -92 -4 -139 3 -147 8 -9
10 9 8 65 -4 88 21 279 38 296 19 19 162 20 220 1 42 -14 59 -15 95 -6 47 12
146 14 182 5 27 -8 34 -35 44 -184 l7 -115 -3 140 c-6 192 -51 385 -91 385
-28 0 -121 -99 -150 -161 l-28 -59 -23 43 c-37 75 -151 187 -188 187 -3 0 -17
-24 -30 -53z"/>
</g>
</svg>
